<svg role="img" id="b7d53209-d177-4d97-8fa5-97496651953b" data-name="Layer 1" xmlns="http://www.w3.org/2000/svg" viewBox="0 0 1048 786.03763" {% if ariaHidden %}
  aria-hidden="true"
  {% else %}
  role="img"
  aria-labelledby="undrawFeedbackSvgTitle"
  {% endif %}
>{% if not ariaHidden %}<title id="undrawFeedbackSvgTitle">{{svgTitle if svgTitle is defined else "UndrawFeedback"}}</title>{% endif %}<rect y="322.96237" width="976" height="463.07527" fill="#d9376e"/><rect x="161.35484" y="510.55376" width="653.29032" height="275.48387" fill="#f0f0f0"/><rect x="161.35484" y="527.36348" width="653.29032" height="2.62366" fill="#3f3d56"/><circle cx="173.13078" cy="519.70605" r="4.69817" fill="#3f3d56"/><circle cx="189.23881" cy="519.70605" r="4.69817" fill="#3f3d56"/><circle cx="205.34684" cy="519.70605" r="4.69817" fill="#3f3d56"/><polygon points="522.161 651.159 529.116 665.252 544.668 667.511 533.415 678.481 536.071 693.97 522.161 686.657 508.251 693.97 510.907 678.481 499.654 667.511 515.206 665.252 522.161 651.159" fill="#d9376e"/><polygon points="584.736 651.159 591.691 665.252 607.243 667.511 595.989 678.481 598.646 693.97 584.736 686.657 570.826 693.97 573.482 678.481 562.229 667.511 577.781 665.252 584.736 651.159" fill="#d9376e"/><polygon points="647.311 651.159 654.266 665.252 669.818 667.511 658.564 678.481 661.221 693.97 647.311 686.657 633.401 693.97 636.057 678.481 624.804 667.511 640.356 665.252 647.311 651.159" fill="#d9376e"/><polygon points="709.886 651.159 716.841 665.252 732.393 667.511 721.139 678.481 723.796 693.97 709.886 686.657 695.976 693.97 698.632 678.481 687.379 667.511 702.931 665.252 709.886 651.159" fill="#d9376e"/><polygon points="772.461 651.159 779.416 665.252 794.968 667.511 783.714 678.481 786.371 693.97 772.461 686.657 758.55 693.97 761.207 678.481 749.954 667.511 765.506 665.252 772.461 651.159" fill="#d9376e"/><rect x="205.95699" y="591.8871" width="254.49462" height="161.35484" fill="#3f3d56"/><polygon points="257.853 322.962 0 499.98 0 409.294 125.752 322.962 257.853 322.962" opacity="0.1"/><polygon points="551.112 322.962 0 701.307 0 610.607 419.011 322.962 551.112 322.962" opacity="0.1"/><path d="M225.0812,511.96775l-17.66388-18.93783L226.35514,475.366,244.019,494.30386Zm-14.84837-18.83983,14.94637,16.02431,16.02431-14.94636-14.94636-16.02432Z" transform="translate(-76 -56.98118)" fill="#f0f0f0"/><path d="M808,500.05625H782.103v-25.897H808Zm-23.90491-1.99208h21.91283V476.15133H784.09509Z" transform="translate(-76 -56.98118)" fill="#3f3d56"/><circle cx="892.44981" cy="650.86211" r="13.2214" fill="#f0f0f0"/><path d="M968.44981,746.03845a38.19516,38.19516,0,1,1,38.19516-38.19516A38.238,38.238,0,0,1,968.44981,746.03845Zm0-73.45223a35.25707,35.25707,0,1,0,35.25707,35.25707A35.29747,35.29747,0,0,0,968.44981,672.58622Z" transform="translate(-76 -56.98118)" fill="#2f2e41"/><path d="M376.40863,774.85138c6.07317,22.45006,26.87512,36.35394,26.87512,36.35394s10.95541-22.49485,4.88225-44.94491-26.87512-36.35394-26.87512-36.35394S370.33547,752.40132,376.40863,774.85138Z" transform="translate(-76 -56.98118)" fill="#fff"/><path d="M385.33272,770.02662c16.66484,16.22255,18.70033,41.1604,18.70033,41.1604s-24.98356-1.36412-41.64841-17.58667S343.68431,752.44,343.68431,752.44,368.66787,753.80406,385.33272,770.02662Z" transform="translate(-76 -56.98118)" fill="#d9376e"/><path d="M431.65747,774.85138c-6.07316,22.45006-26.87511,36.35394-26.87511,36.35394s-10.95541-22.49485-4.88225-44.94491,26.87512-36.35394,26.87512-36.35394S437.73064,752.40132,431.65747,774.85138Z" transform="translate(-76 -56.98118)" fill="#fff"/><path d="M422.73339,770.02662c-16.66485,16.22255-18.70034,41.1604-18.70034,41.1604s24.98357-1.36412,41.64841-17.58667S464.3818,752.44,464.3818,752.44,439.39824,753.80406,422.73339,770.02662Z" transform="translate(-76 -56.98118)" fill="#d9376e"/><rect x="744" y="25" width="103" height="120" fill="#f2f2f2"/><path d="M887.981,381.32933l-1.43116-1.397a73.10659,73.10659,0,0,0,14.66211-25.65087c4.86573-14.64307,7.24268-37.769-9.06787-64.78321-16.688-27.63965-17.439-50.08935-15.13086-64.05517,2.51221-15.19629,8.9209-23.71436,9.19239-24.06934l1.58935,1.21436c-.064.08349-6.417,8.55615-8.82763,23.29931-2.22559,13.61133-1.44922,35.51709,14.88867,62.57666,16.72754,27.70508,14.24951,51.47315,9.22558,66.53321C897.6377,371.31468,888.37305,380.928,887.981,381.32933Z" transform="translate(-76 -56.98118)" fill="#3f3d56"/><path d="M963,202.98118H819v-144H963Zm-142-2H961v-140H821Z" transform="translate(-76 -56.98118)" fill="#3f3d56"/><rect x="773" y="44" width="88" height="2" fill="#3f3d56"/><rect x="773" y="66" width="88" height="2" fill="#3f3d56"/><rect x="773" y="88" width="88" height="2" fill="#3f3d56"/><rect x="905" y="112" width="103" height="120" fill="#f2f2f2"/><path d="M1048.981,468.32933l-1.43116-1.397a73.10659,73.10659,0,0,0,14.66211-25.65087c4.86573-14.64307,7.24268-37.769-9.06787-64.78321-16.688-27.63965-17.439-50.08935-15.13086-64.05517,2.51221-15.19629,8.9209-23.71436,9.19239-24.06934l1.58935,1.21436c-.064.08349-6.417,8.55615-8.82763,23.29931-2.22559,13.61133-1.44922,35.51709,14.88867,62.57666,16.72754,27.70508,14.24951,51.47315,9.22558,66.53321C1058.6377,458.31468,1049.37305,467.928,1048.981,468.32933Z" transform="translate(-76 -56.98118)" fill="#3f3d56"/><path d="M1124,289.98118H980v-144h144Zm-142-2h140v-140H982Z" transform="translate(-76 -56.98118)" fill="#3f3d56"/><rect x="934" y="131" width="88" height="2" fill="#3f3d56"/><rect x="934" y="153" width="88" height="2" fill="#3f3d56"/><rect x="934" y="175" width="88" height="2" fill="#3f3d56"/><rect x="139" y="23" width="103" height="120" fill="#f2f2f2"/><path d="M282.981,379.32933l-1.43116-1.397a73.10659,73.10659,0,0,0,14.66211-25.65087c4.86573-14.64307,7.24268-37.769-9.06787-64.78321-16.688-27.63965-17.439-50.08935-15.13086-64.05517,2.51221-15.19629,8.9209-23.71436,9.19239-24.06934l1.58935,1.21436c-.064.08349-6.417,8.55615-8.82763,23.29931-2.22559,13.61133-1.44922,35.51709,14.88867,62.57666,16.72754,27.70508,14.24951,51.47315,9.22558,66.53321C292.6377,369.31468,283.37305,378.928,282.981,379.32933Z" transform="translate(-76 -56.98118)" fill="#3f3d56"/><path d="M358,200.98118H214v-144H358Zm-142-2H356v-140H216Z" transform="translate(-76 -56.98118)" fill="#3f3d56"/><rect x="168" y="42" width="88" height="2" fill="#3f3d56"/><rect x="168" y="64" width="88" height="2" fill="#3f3d56"/><rect x="168" y="86" width="88" height="2" fill="#3f3d56"/><polygon points="469.461 366.159 476.416 380.252 491.968 382.511 480.714 393.481 483.371 408.97 469.461 401.657 455.55 408.97 458.207 393.481 446.954 382.511 462.506 380.252 469.461 366.159" fill="#f0f0f0"/><path d="M570.60278,105.39207h.00006c24.032,0,43.51376,21.62049,43.51376,48.29071v33.8848H603.69519l-6.0334-12.55459,1.50836,12.55459H532.18533l-5.48492-11.41326,1.37121,11.41326h-7.54176V160.96194C520.52986,130.27158,542.94827,105.39207,570.60278,105.39207Z" transform="translate(-76 -56.98118)" fill="#2f2e41"/><path d="M620.46191,326.77735,647.179,338.13212l92.84188,75.47576a27.32591,27.32591,0,0,1,6.01134,14.6944c.66793,8.683,28.72087,54.1021,18.702,60.11344s-46.087,24.04538-48.09075,12.02269-12.69062-63.45308-12.69062-63.45308l-89.50224-80.15125Z" transform="translate(-76 -56.98118)" fill="#2f2e41"/><path d="M725.32647,490.41951l11.35476,33.39635s-12.02269,12.69062-6.01134,23.37745v36.736h9.351l2.67171-19.36989s10.65081,19.12518,16.03025,19.36989c11.27717.513,33.60924,4.52434,34.27717-1.487s-16.91107-11.87155-16.91107-11.87155l-18.702-51.43039-8.01512-31.39257Z" transform="translate(-76 -56.98118)" fill="#2f2e41"/><path d="M550.99748,318.0943s-6.01134,58.77759,11.35476,69.46442S656.53,432.30984,656.53,432.30984s-32.72843,30.72465-26.04916,38.07185,36.736,27.385,40.74356,23.37745,48.75868-52.09832,43.41526-67.46064-79.48333-65.45686-79.48333-65.45686l-8.683-31.39258-2.67171-25.38123-28.05294-18.034Z" transform="translate(-76 -56.98118)" fill="#2f2e41"/><circle cx="505.59847" cy="96.41928" r="27.84476" fill="#ffb9b9"/><path d="M560.0145,164.805s1.33585,25.38123-19.36989,33.39636S592.075,258.31482,592.075,258.31482V200.20516s-9.351-10.01891,0-25.38123Z" transform="translate(-76 -56.98118)" fill="#ffb9b9"/><path d="M515.59734,284.03l5.34342,26.04915L536.971,399.58141s-13.35854,38.07185,4.67549,37.40392,9.351-41.41148,9.351-41.41148l-9.351-74.13991V292.71307Z" transform="translate(-76 -56.98118)" fill="#ffb9b9"/><path d="M630.48081,271.3394l6.01135,23.37745,27.385,66.12479s18.702,31.39257,3.33964,30.72465-15.36233-30.72465-15.36233-30.72465l-31.39257-53.43417V277.35074Z" transform="translate(-76 -56.98118)" fill="#ffb9b9"/><path d="M635.1563,466.37413l-22.04159,20.70574s-15.36233-3.33964-21.37367,14.6944-10.01891,29.38879-10.01891,29.38879l8.01513,4.67549,10.0189-14.02647s6.01135,25.38123,12.02269,27.385,36.06807,15.36232,33.39636,0l-14.6944-21.37367s-2.00378-24.04538,4.00757-26.04916S656.53,479.73267,656.53,479.73267Z" transform="translate(-76 -56.98118)" fill="#2f2e41"/><path d="M549.93864,338.8s62.78515-22.70952,66.79272-20.70574a30.12062,30.12062,0,0,0,9.40793,2.44179l-.05695-9.12106s-20.70574-7.3472-32.06051-2.67171-46.087,25.38123-46.087,25.38123Z" transform="translate(-76 -56.98118)" fill="#3f3d56"/><path d="M588.06744,244.95628s-18.034-20.70574-23.37745-33.39636a32.79069,32.79069,0,0,0-17.3353-17.04617s-40.10644,9.031-39.43851,25.0613,25.38123,40.74355,25.38123,40.74355-3.33963,88.83431,14.6944,87.49846a38.68234,38.68234,0,0,0,8.01513-16.03025c2.00378-9.351,64.121-19.36989,64.121-19.36989s5.34342,9.351,6.01135,5.34342-5.34342-102.19286-5.34342-102.19286l-31.85141-21.05373Z" transform="translate(-76 -56.98118)" fill="#d0cde1"/><path d="M513.06123,213.12261l-.44725.251a9.21492,9.21492,0,0,0-4.7053,8.03734l.00685,49.56884a9.28769,9.28769,0,0,1-3.3039,7.0688c-2.57292,2.18849-4.95882,5.34208-.03509,6.98333,8.01513,2.67171,39.40771,16.03025,40.07563,11.35476s2.00379-10.01891,0-10.01891c-1.5687,0-10.91537-47.89585-18.42554-68.3743A9.21645,9.21645,0,0,0,513.06123,213.12261Z" transform="translate(-76 -56.98118)" fill="#d0cde1"/><path d="M611.77885,213.22974l9.351,2.67171,10.68684,46.087s12.69061,2.67171,8.683,7.3472S619.794,286.0338,619.794,286.0338Z" transform="translate(-76 -56.98118)" fill="#d0cde1"/><path d="M558.23261,118.69456a22.82088,22.82088,0,0,1,18.00636-9.18878h.8543c16.47157,0,29.82435,14.90487,29.82435,33.291v.00007h-5.51919l-.89134-6.78453-1.30687,6.78453h-32.734l-2.74249-5.73984.68564,5.73984h-6.43972q-4.50749,22.38537,12.95306,44.77074h-10.9699l-5.48491-11.47968,1.37121,11.47968h-20.9113l-4.11371-26.40333C530.81411,141.39061,542.30318,124.623,558.23261,118.69456Z" transform="translate(-76 -56.98118)" fill="#2f2e41"/></svg>
