<svg role="img" id="ef85285a-d43b-4d94-bb8b-61c01752607d" data-name="Layer 1"
  xmlns="http://www.w3.org/2000/svg" viewBox="0 0 1031.79 709.36133" aria-labelledby="undrawGroupHangoutSvgTitle">
  <title id="undrawGroupHangoutSvgTitle">{{svgTitle if svgTitle is defined else "UndrawGroupHangout"}}</title>
  <polygon points="850.5 632.986 851.5 656.986 851.5 677.986 877.5 677.986 877.5 632.986 850.5 632.986" fill="#ffb9b9"/>
  <polygon points="993.5 610.986 994.5 634.986 994.5 655.986 1020.5 655.986 1015.5 606.986 993.5 610.986" fill="#ffb9b9"/>
  <polygon points="967.5 221.986 959.5 284.986 933.5 359.986 921.5 316.986 936.5 289.986 933.5 232.986 967.5 221.986" fill="#ffb9b9"/>
  <path d="M926.605,311.30566s-22,39-19,43,5,26,5,26h8.32677l13.67323-34Z" transform="translate(-84.105 -95.31934)" fill="#2f2e41"/>
  <circle cx="897" cy="77.48633" r="35" fill="#ffb9b9"/>
  <path d="M968.105,200.80566s19,26,13,39,58-7,58-7-32-36-33-48Z" transform="translate(-84.105 -95.31934)" fill="#ffb9b9"/>
  <path d="M1039.105,316.80566c-2.25,3.38-4.46,7.15-6.6,11.13-1.01,1.88995-2,3.83-2.98,5.79-11.62,23.42-20.42,51.08-20.42,51.08l-93-3,2.89-8.48,13.11-38.52c-23-14-1-41,11-66,11.02-22.96,33.86-38.23,37.5-40.57.33-.2.5-.31.5-.31l.42-.07,16.68995-2.81,30.06005-5.06h.01a41.52836,41.52836,0,0,1,14.9,5.6,30.094,30.094,0,0,1,9.41,9.42005c3.65,5.8,5.36005,12.78,5.67,20.25C1059.165,277.12567,1048.125,303.27563,1039.105,316.80566Z" transform="translate(-84.105 -95.31934)" fill="#d0cde1"/>
  <path d="M1044.605,234.30566s18,21,19,39-3,52-12,52-25,6-24,0S1044.605,234.30566,1044.605,234.30566Z" transform="translate(-84.105 -95.31934)" fill="#d0cde1"/>
  <path d="M1027.605,272.30566l-11,2c-3.73-29.87-25.31-41.9-36-46.07.33-.2.5-.31.5-.31l.42-.07,16.68995-2.81C1020.265,236.41565,1027.605,272.30566,1027.605,272.30566Z" transform="translate(-84.105 -95.31934)" fill="#2f2e41"/>
  <path d="M1102.605,702.30566c-1,6-30,17-38,16s-87-194-87-194,0,215-2,219-36,0-48-14-20-233-25-270,10-85,10-85l6.39-.98,19.61-3.02s0-5,30-29,48-67,48-67l3-6,8,4c8.58-15.87,13.95-31.47,15.58-46.72a30.094,30.094,0,0,1,9.41,9.42005c-.76,2.1-1.52,4.37-2.3,6.8-6.74,20.99-14.38,53.5-21.98,85.51-.24,1-.47,2-.71,2.99a26.47015,26.47015,0,0,1,1.92,3.42c2.02,4.27,4.16,11.53-1.92,15.58-9,6-12,36-12,36,17,15,21,86,19,91s-2,4,3,7,5,28,5,28S1103.605,696.30566,1102.605,702.30566Z" transform="translate(-84.105 -95.31934)" fill="#2f2e41"/>
  <path d="M949.605,761.30566s-6,6-10,3-4.15676-15.76233-4.15676-15.76233S889.605,744.30566,898.605,774.30566s72,34,74,28-7-44-7-44Z" transform="translate(-84.105 -95.31934)" fill="#2f2e41"/>
  <path d="M1092.605,739.30566s-6,6-10,3-4.15676-15.76233-4.15676-15.76233-45.84324-4.23767-36.84324,25.76233,72,34,74,28-7-44-7-44Z" transform="translate(-84.105 -95.31934)" fill="#2f2e41"/>
  <path d="M952.605,294.30566l-4,53-51,57s-17,8-7,22,14,15,14,15l1-18,69-55,7-74Z" transform="translate(-84.105 -95.31934)" fill="#ffb9b9"/>
  <path d="M984.605,272.30566s4-45-16-41-21,23-21,23-9,46-1,48,35,6,38,0S984.605,272.30566,984.605,272.30566Z" transform="translate(-84.105 -95.31934)" fill="#d0cde1"/>
  <path d="M1071.2311,202.26477c-3.89453-1.92871-12.49451-5.82117-19.81989-10.51068.51368-15.256-1.365-29.1051-6.86425-36.44611-3.0868-7.00879-9.56885-14.02581-14.64557-19.55188-12.46723-13.57043-40.0351-21.14532-44.92456-14.365-36.98133.7301-40.87458,29.71784-40.87458,29.71784.19239,12.12481,12.794,12.50848,23.83295,12.06665-.98853,8.27746,1.64587,16.87829,9.27441,20.69256,14.588,7.29395,18.96436,16.77613,11.67035,23.34076s-20.42315,24.07013-2.9176,28.44647,19.69379,13.12922,14.58795,16.77619,11.67041-6.56458,11.67041-6.56458,2.91754,17.50556,18.23493,13.12915a9.21342,9.21342,0,0,0,4.09344-2.90014c4.13684,4.54547,7.82739,7.233,10.60883,7.2478,15.93.08447,14.01977-17.55939,14.01977-17.55939s18.90814,5.31024,13.00812,3.17493-6.15277-11.15393,9.52454-20.08807S1080.02492,206.61963,1071.2311,202.26477Z" transform="translate(-84.105 -95.31934)" fill="#2f2e41"/>
  <rect x="1" y="1.00022" width="734" height="417.97222" fill="#f2f2f2"/>
  <polygon points="736 419.973 0 419.973 0 0 511.364 0 511.364 2 2 2 2 417.973 734 417.973 734 235.661 736 235.661 736 419.973" fill="#3f3d56"/>
  <circle cx="34.98148" cy="32.25639" r="12.45988" fill="#d9376e"/>
  <circle cx="67.98148" cy="32.25639" r="12.45988" fill="#d9376e"/>
  <circle cx="100.98148" cy="32.25639" r="12.45988" fill="#d9376e"/>
  <rect x="101" y="65.48633" width="557" height="2" fill="#3f3d56"/>
  <rect x="41" y="131.48633" width="285" height="251" fill="#fff"/>
  <rect x="412" y="131.48633" width="285" height="251" fill="#fff"/>
  <path d="M291.25818,281.15832c-10.87894-18.382-32.40207-19.23873-32.40207-19.23873s-20.973-2.682-34.42714,25.31407c-12.54028,26.09465-29.84746,51.28958-2.78631,57.39814l4.888-15.21373,3.02713,16.34638a105.88111,105.88111,0,0,0,11.57846.19788c28.9803-.93565,56.57966.27375,55.691-10.1256C295.646,322.01226,301.72591,298.84553,291.25818,281.15832Z" transform="translate(-84.105 -95.31934)" fill="#2f2e41"/>
  <circle cx="176.91864" cy="210.02484" r="28.0898" fill="#a0616a"/>
  <path d="M249.53236,323.64511s12.76809,29.79221-4.256,35.75065l17.02412,56.1796,28.941-1.70242,7.66086-18.72653-1.70242-28.0898-2.55361-18.72653s-17.87533,4.256-16.17292-27.23859Z" transform="translate(-84.105 -95.31934)" fill="#a0616a"/>
  <path d="M242.72271,358.54455s-28.0898-2.55361-25.53618,17.87533,5.10723,24.685,5.10723,24.685l2.55362,30.64342-15.32171,9.36327h-14.4705s-44.26271,10.21447-22.13135,21.28015,29.79221-8.51206,29.79221-8.51206,40.85788,0,43.4115-6.80965S242.72271,358.54455,242.72271,358.54455Z" transform="translate(-84.105 -95.31934)" fill="#a0616a"/>
  <path d="M297.19989,350.03249s26.38739-9.36326,28.0898,11.06568,1.70241,22.13136,1.70241,22.13136l5.10724,28.941s10.21447,25.53618,10.21447,33.197,7.66086,31.49462,7.66086,31.49462,10.21447,33.197-.85121,32.34583-12.76809-35.75065-12.76809-35.75065l-22.98256-45.96513-6.80965-28.0898Z" transform="translate(-84.105 -95.31934)" fill="#a0616a"/>
  <path d="M246.97874,355.13973h-6.80965l-.85121,35.75065s-11.06567,15.32171,2.55362,28.941l3.40483,22.13135,62.138-2.55362,4.256-22.98256s8.51206-18.72653-3.40483-35.75065l-11.06568-34.89945h-5.95844S305.04178,396.66,275.91974,397.7C252.086,398.55124,246.97874,355.13973,246.97874,355.13973Z" transform="translate(-84.105 -95.31934)" fill="#d9376e"/>
  <path d="M324.885,477.80566h-89.33c4.71-13.72,7.72-22.23,8-23.01a.32648.32648,0,0,1,.02-.06l2.07-6.9.86-2.86.93-3.1,1.25-4.17,55.32-1.7,1.55,3.48,5.26,11.84a4.69426,4.69426,0,0,1,1.29.61005C316.035,454.51563,320.375,463.85565,324.885,477.80566Z" transform="translate(-84.105 -95.31934)" fill="#2f2e41"/>
  <path d="M309.968,429.19465l-67.24527,2.55362s-3.06907,22.98256,0,22.98256c.8512,0,70.6501,5.95845,69.79889-4.256S309.968,429.19465,309.968,429.19465Z" transform="translate(-84.105 -95.31934)" fill="#3f3d56"/>
  <circle cx="177.38532" cy="166.69336" r="15.56239" fill="#2f2e41"/>
  <path d="M244.28978,257.91733A15.563,15.563,0,0,1,258.214,242.44242a15.71957,15.71957,0,0,0-1.63815-.08749,15.5624,15.5624,0,1,0,1.63815,31.0373A15.563,15.563,0,0,1,244.28978,257.91733Z" transform="translate(-84.105 -95.31934)" fill="#2f2e41"/>
  <polygon points="202.343 184.067 181.08 172.929 151.715 177.485 145.64 204.318 160.763 203.737 164.988 193.878 164.988 203.574 171.967 203.306 176.017 187.611 178.548 204.318 203.356 203.812 202.343 184.067" fill="#2f2e41"/>
  <circle cx="541.01639" cy="192.84998" r="28.32321" fill="#ffb9b9"/>
  <path d="M614.05764,309.85427s3.5404,16.81691,3.5404,18.58711,16.81691,9.7361,16.81691,9.7361l15.0467-2.6553,5.31061-15.93181s-8.851-13.2765-8.851-18.5871Z" transform="translate(-84.105 -95.31934)" fill="#ffb9b9"/>
  <path d="M690.375,477.80566l3.65-6.68.58-1.07-7.08-75.23.42-3.4,7.54-61.21-43.65-15.35h-.01a18.31542,18.31542,0,0,1-12.98,17.12c-13.28,4.42-22.42-10.46-22.42-10.46l-36.89,28.16,17.92,51.96,8.64,25.04s.88,29.21,1.77,31.87c.88,2.65-.89,3.54-1.77,4.42-.89.89.88,3.54,1.77,3.54.44,0,1.32,3.32,2.1,6.64.4,1.7.77,3.4,1.03,4.65Z" transform="translate(-84.105 -95.31934)" fill="#d9376e"/>
  <path d="M759.65664,473.15528s23.89771,15.0467,21.24241,24.78281-30.09341-16.81691-30.09341-17.702S759.65664,473.15528,759.65664,473.15528Z" transform="translate(-84.105 -95.31934)" fill="#ffb9b9"/>
  <path d="M690.375,477.80566h6.66l-1.99-7.31a11.75427,11.75427,0,0,1-1.02.63c-2.61,1.48-10.4,5.19-25.11,6.68a149.04481,149.04481,0,0,1-27.6,0,241.59683,241.59683,0,0,1-30.36-4.65h-1.77l-.99,4.65h82.18Z" transform="translate(-84.105 -95.31934)" fill="#2f2e41"/>
  <path d="M600.55958,265.35025s8.99252-19.48378,26.22817-14.98752,26.97754,11.24064,27.72692,17.985-.37469,16.861-.37469,16.861-1.87344-13.86346-13.86346-10.866-30.72442.74938-30.72442.74938l-2.99751,26.97754s-3.37219-4.87094-7.11907-1.87344S588.56957,271.34526,600.55958,265.35025Z" transform="translate(-84.105 -95.31934)" fill="#2f2e41"/>
  <path d="M599.435,477.80566h-24.36l-1.73-3.32c-10.62-18.59-10.62-44.26-10.62-44.26l6.19-52.22c-.88-18.59,10.62-28.32,10.62-28.32h13.28l9.74,32.75-5.1,19.21-6.41,24.16-1.77,2.65s1.77,2.66.88,3.54c-.88.88995-1.77,4.43-1.77,4.43s2.66,17.7,5.31995,19.47c2.65,1.77-.89,1.77-.89,2.66,0,.88,2.66,4.42,2.66,4.42v4.43Z" transform="translate(-84.105 -95.31934)" fill="#d9376e"/>
  <path d="M680.44016,327.55628l15.04671,2.6553s8.851,8.851,12.3914,19.4722l7.08081,31.86362,11.5063,23.0126s13.2765,13.27651,23.01261,43.36992l14.1616,26.553-15.0467,8.851s-41.59972-48.68052-46.91032-65.49742L678.67,373.58149Z" transform="translate(-84.105 -95.31934)" fill="#d9376e"/>
</svg>
