<svg id="e3b83f38-5415-4443-a53b-c9240294405f" data-name="Layer 1" xmlns="http://www.w3.org/2000/svg" viewBox="0 0 1106 783.42853"><title>happy women day</title><path d="M902.08458,367.67256C857.16819,191.05111,701.96793,63.55512,519.7964,58.44137c-96.30863-2.70348-197.65219,29.2378-271.43777,141.012-131.89969,199.80845,8.10555,337.88223,105.7135,403.49213a610.75747,610.75747,0,0,1,126.24112,113.4651c65.931,78.23772,192.76719,175.45908,343.82337,23.12816C933.62233,629.12911,932.00333,485.31989,902.08458,367.67256Z" transform="translate(-47 -58.28574)" fill="#f2f2f2"/><ellipse cx="553" cy="751.42853" rx="553" ry="32" fill="#3f3d56"/><ellipse cx="199" cy="746.42853" rx="117" ry="14" opacity="0.1"/><ellipse cx="898" cy="752.42853" rx="117" ry="14" opacity="0.1"/><path d="M755.09137,200.02554C699.20154,180.24674,644.04028,179.44693,600,211.41544c-44.04028-31.96851-99.20154-31.1687-155.09131-11.3899-89.3949,31.636-146.8009,99.84583-103.66089,221.74805C381.42871,535.31387,572.20844,627.93936,598.19312,640.1127c.44055.89551.67425,1.35962.67425,1.35962s.39307-.17773,1.13263-.519c.73956.34131,1.13263.519,1.13263.519s.2337-.46411.67425-1.35962c25.98468-12.17334,216.76441-104.79883,256.94532-218.33911C901.89227,299.87137,844.48627,231.66153,755.09137,200.02554Z" transform="translate(-47 -58.28574)" fill="#d9376e"/><polygon points="616 355.429 564.391 453.577 561.955 389.387 585 328.429 561.439 375.784 558.147 289.041 589 207.429 557.455 270.828 553 153.429 545.615 348.017 545.615 348.017 478 219.429 545.223 358.356 541.407 458.898 487 355.429 541.091 467.218 533 680.429 573 680.429 564.69 461.469 616 355.429" fill="#3f3d56"/><path d="M792,768.94947c0,62.194-86.691,42.9568-192.83533,42.9568S407.6173,831.14343,407.6173,768.94947s86.67912-75.72061,192.82347-75.72061S792,706.75552,792,768.94947Z" transform="translate(-47 -58.28574)" opacity="0.1"/><path d="M792,753.63626c0,62.19395-86.691,42.95679-192.83533,42.95679S407.6173,815.83021,407.6173,753.63626s86.67912-75.72062,192.82347-75.72062S792,691.4423,792,753.63626Z" transform="translate(-47 -58.28574)" fill="#3f3d56"/><path d="M354.75622,569.57406s-14.26484,32.98745,0,33.879,15.1564-33.879,15.1564-33.879Z" transform="translate(-47 -58.28574)" fill="#ffb9b9"/><polygon points="200.77 498.807 225.733 617.383 239.107 676.226 272.094 676.226 236.432 495.24 200.77 498.807" fill="#2f2e41"/><polygon points="200.77 498.807 225.733 617.383 239.107 676.226 272.094 676.226 236.432 495.24 200.77 498.807" opacity="0.1"/><polygon points="239.107 678.009 239.107 692.274 257.829 695.84 259.612 681.575 239.107 678.009" fill="#ffb9b9"/><path d="M308.39549,749.66768l-24.96347-1.7831s-7.13243,31.20434-7.13243,33.879-16.93949,29.42123-5.34931,31.20434,28.52968,3.56621,30.31279-1.78311,1.7831-20.50571,5.34931-26.74657,7.13242-13.37329,6.24087-16.9395Z" transform="translate(-47 -58.28574)" fill="#2f2e41"/><path d="M290.56444,560.65853s-26.74658,53.49316-19.61416,96.28768,7.13242,82.9144,8.91552,84.6975,35.66211,4.45776,35.66211,4.45776.89155-81.13128-1.78311-90.04681,15.1564-57.95092,22.28882-70.43265S290.56444,560.65853,290.56444,560.65853Z" transform="translate(-47 -58.28574)" fill="#2f2e41"/><path d="M258.46854,368.08317s-38.33676-8.024-32.98744,12.48174,26.74657,25.855,26.74657,25.855Z" transform="translate(-47 -58.28574)" fill="#ff6584"/><path d="M267.38407,472.39483s-18.72261,6.24087-18.72261,38.33676-8.91552,56.16781,0,57.05937,60.62558,1.7831,60.62558,1.7831Z" transform="translate(-47 -58.28574)" fill="#ff6584"/><polygon points="225.733 324.062 248.914 306.231 281.01 317.821 302.407 313.364 315.78 332.978 287.251 354.375 248.914 365.965 223.95 348.134 225.733 324.062" fill="#ff6584"/><path d="M303.04617,346.68591s.89155,15.1564-3.56621,17.83105,41.01142,8.91553,41.01142,8.91553l3.56621-24.07192Z" transform="translate(-47 -58.28574)" fill="#ffb9b9"/><path d="M303.04617,346.68591s.89155,15.1564-3.56621,17.83105,41.01142,8.91553,41.01142,8.91553l3.56621-24.07192Z" transform="translate(-47 -58.28574)" opacity="0.1"/><circle cx="280.11809" cy="275.02689" r="31.20434" fill="#ffb9b9"/><path d="M356.53933,391.26354l12.036.44578s10.25285-.44578,12.036,45.915,0,111.44407,0,111.44407,5.34931,32.98745-8.91553,31.20434-28.52968-.89155-22.28881-6.24087,8.91552-35.6621,8.91552-35.6621L344.05759,429.6003Z" transform="translate(-47 -58.28574)" fill="#ff6584"/><path d="M295.91375,366.2053s-33.879-2.57989-39.22831.09477-9.80708,28.52968-9.80708,28.52968l-.89155,20.50571s5.885,42.80372,12.74957,44.13645,5.973,8.46515,2.40682,11.13981S289.67288,609.69393,299.48,610.58548s20.50571-11.59018,20.50571-11.59018,19.61416-4.45777,24.07192-8.024,9.80708-106.09476,1.78311-107.87786c0,0-8.91553-1.78311-8.024-4.45776s12.16134-7.77931,12.16134-7.77931L345.8407,429.6003s6.24086-34.77055,22.28881-38.33676c0,0-7.13242-8.91552-9.80708-8.91552s-19.61415,3.56621-24.96347,8.91552-10.69863,22.28882-23.18037,15.1564-22.28881-18.72261-19.61415-24.07192S295.91375,366.2053,295.91375,366.2053Z" transform="translate(-47 -58.28574)" fill="#3f3d56"/><path d="M236.995,297.29736c3.43434,2.86155,6.90527,5.76191,9.32519,9.18816,3.15934,4.47316,4.36385,9.623,4.78688,14.70921.35613,4.28183.10109,8.83229-2.86146,12.46029-2.13882,2.61924-5.57872,4.60748-7.00676,7.50165-1.57716,3.19637-.33834,6.83182,1.69081,9.87192s4.82118,5.76143,6.62507,8.88529a16.26988,16.26988,0,0,1,.9254,14.72775c-1.9005,4.39247-5.80027,8.68375-4.55606,13.2145,1.00913,3.67468,5.3047,7.3489,2.99415,10.65347-1.28815,1.84233-4.20907,2.60787-6.908,2.784-6.59934.43074-13.3939-1.86233-17.47278-5.89682-4.03772-3.99378-6.028-9.81687-12.18146-11.56565-2.2586-.64188-4.76655-.597-7.03-1.22844a10.85089,10.85089,0,0,1-7.8519-9.33964c-.69224-6.47492,3.39914-12.67411,8.1435-18.03632a96.07544,96.07544,0,0,1,11.16686-10.70239c5.65965-4.62531,12.13355-8.947,15.3902-14.79543,3.74019-6.71674,2.42908-14.95764-3.305-20.77316-2.12415-2.15434-4.79508-3.98874-6.61521-6.3035-2.1907-2.786-6.00611-12.754-1.47672-15.11721C225.72847,284.95194,234.24069,295.00246,236.995,297.29736Z" transform="translate(-47 -58.28574)" fill="#3f3d56"/><path d="M188.92744,705.09005,180.01191,763.041s15.1564,36.55366,28.52969,36.55366,21.39726-1.78311,21.39726-3.56621-8.91553-12.48174-13.37329-14.26484S207.65,760.36632,207.65,755.017s4.45777-49.927,4.45777-49.927Z" transform="translate(-47 -58.28574)" fill="#a0616a"/><path d="M188.92744,705.09005,180.01191,763.041s15.1564,36.55366,28.52969,36.55366,21.39726-1.78311,21.39726-3.56621-8.91553-12.48174-13.37329-14.26484S207.65,760.36632,207.65,755.017s4.45777-49.927,4.45777-49.927Z" transform="translate(-47 -58.28574)" opacity="0.1"/><path d="M211.21625,760.36632s-28.52968-4.45777-31.20434-6.24087-11.59018,34.77055,2.67466,45.46918,24.07192,8.91553,26.74658,8.91553,16.04795,0,18.7226-1.78311,4.45777-12.48174,1.78311-16.9395S216.56557,780.872,215.674,776.41426,211.21625,760.36632,211.21625,760.36632Z" transform="translate(-47 -58.28574)" fill="#2f2e41"/><path d="M211.21625,760.36632s-28.52968-4.45777-31.20434-6.24087-11.59018,34.77055,2.67466,45.46918,24.07192,8.91553,26.74658,8.91553,16.04795,0,18.7226-1.78311,4.45777-12.48174,1.78311-16.9395S216.56557,780.872,215.674,776.41426,211.21625,760.36632,211.21625,760.36632Z" transform="translate(-47 -58.28574)" opacity="0.1"/><path d="M168.42173,707.76471s.89155,36.55366-14.26484,41.903,16.9395,27.63813,16.9395,27.63813l14.26484-11.59018,10.69863-64.19179Z" transform="translate(-47 -58.28574)" fill="#a0616a"/><path d="M160.39776,736.2944s2.93371,25.511,25.093,19.44216c0,0,2.54513,33.15944,6.11134,37.6172s13.37329,17.83105-2.67466,17.83105-26.74658-.89155-32.09589-7.13242-17.83106-20.50571-21.39727-22.28881,11.59019-40.11987,14.26485-40.11987S160.39776,736.2944,160.39776,736.2944Z" transform="translate(-47 -58.28574)" fill="#2f2e41"/><path d="M148.80757,523.21333s-4.45776,22.28881,7.13242,48.14384,22.28882,87.37215,16.9395,96.28768-15.15639,46.36073-5.34931,51.71005,77.56507,8.91552,82.02284,3.56621,0-62.40868-8.024-70.43266,6.24087-95.39613,6.24087-95.39613l-4.45776-20.50571Z" transform="translate(-47 -58.28574)" fill="#3f3d56"/><circle cx="167.78247" cy="267.89447" r="31.20434" fill="#a0616a"/><path d="M195.16831,336.87883s-11.59019,28.52969-27.63813,32.0959S147.02447,424.251,147.02447,424.251l73.10731-14.26484,22.28882-9.80708s1.7831-21.39726-6.24087-25.855-24.07192-2.67466-24.07192-2.67466,0-17.83105,8.024-21.39726S195.16831,336.87883,195.16831,336.87883Z" transform="translate(-47 -58.28574)" fill="#a0616a"/><path d="M195.16831,402.85373s-1.78311-34.77056-27.63813-30.31279c0,0-5.34932-1.78311-16.9395,15.15639l-3.56621-7.13242s15.15639-14.02762,24.07192-12.8089,14.26484-4.1306,32.98744,35.09772l25.855-3.56622-2.67466-31.20434h2.67466l7.13242,26.74658s9.80708,0,10.69863,8.024v8.024s15.1564,10.69863,12.48174,33.879-3.56621,43.68607-3.56621,43.68607-3.56621,30.31279,0,41.01142,24.07192,39.22832,8.024,41.903-22.28881,2.67465-22.28881,2.67465l-3.56621-23.18036s2.67465,9.80707-14.26485,10.69863-66.86644-13.37329-66.86644-15.1564,1.7831-19.61415-2.67466-16.04794-6.24087,22.28881-12.48173,22.28881,9.80707-73.10731,9.80707-73.10731L147.02447,424.251v-6.24087S181.795,421.57633,195.16831,402.85373Z" transform="translate(-47 -58.28574)" fill="#d0cde1"/><path d="M165.74707,376.9987s-18.7226,16.048-20.50571,66.86644,57.05937,93.613,57.05937,93.613,16.048,53.49315,27.63813,41.01142-15.15639-53.49316-15.15639-53.49316l-41.01142-54.38471,12.48173-79.34818S186.25278,372.54094,165.74707,376.9987Z" transform="translate(-47 -58.28574)" fill="#a0616a"/><path d="M149.9464,404.12682s-7.37969,1.40156-9.1628,12.99175,7.13242,22.28881,11.59018,22.28881,48.14384-8.024,53.49316-15.15639,19.61416-4.45777,19.61416-4.45777l-30.31279-16.04794s-22.16544,20.19663-47.1906,12.32719Z" transform="translate(-47 -58.28574)" fill="#d0cde1"/><path d="M249.5547,359.91386c-1.80389-3.12387-4.59592-5.84516-6.6251-8.88528a12.11563,12.11563,0,0,1-2.38489-7.243,31.16664,31.16664,0,0,1-25.69841,13.59694c-2.73474,6.46136-2.73849,15.15841-2.73849,15.15841s5.23183,9.83254-.90162,11.02474c.38809.07515.7732.15846,1.1497.26545,6.15353,1.74882,8.14374,7.57188,12.18147,11.56569,4.07886,4.03446,10.87347,6.32755,17.47278,5.8968,2.699-.17615,5.61987-.94173,6.90806-2.784,2.3105-3.30457-1.985-6.9788-2.99419-10.65346-1.24417-4.53074,2.65556-8.822,4.55609-13.21451A16.27,16.27,0,0,0,249.5547,359.91386Z" transform="translate(-47 -58.28574)" fill="#3f3d56"/><path d="M184.262,283.30705a37.6801,37.6801,0,0,0-8.92113,5.50962c-6.79087,5.38759-12.68946,12.14912-15.91736,20.19416s-3.55777,17.4653.25649,25.24947c1.69713,3.46353,4.23166,6.81422,4.094,10.66874-.17534,4.90949-4.60044,8.53231-8.92633,10.8605s-9.21609,4.29688-11.86086,8.43681c-4.42429,6.92544-.52241,16.445-3.5081,24.10152-1.01346,2.59892-2.83387,5.31-1.87642,7.93,6.06637.62822,11.9826-2.27093,16.82437-5.97939s8.988-8.27769,13.94129-11.83578c6.67311-4.79344,14.78149-7.74068,20.29556-13.83186a25.20608,25.20608,0,0,0,5.55942-23c-.56884-2.1265-1.4293-4.2308-1.36848-6.43123.10016-3.62322,2.65785-6.69338,5.37418-9.09324s5.80106-4.54477,7.61247-7.68428c1.82017-3.15468,2.13-6.93041,3.25755-10.39358s3.63946-6.99382,7.26937-7.29175c2.20948-.18134,4.30832.88419,6.26868,1.9194l10.30132,5.43985a5.67167,5.67167,0,0,0,3.52234.95694c2.27178-.4096,3.10916-3.25875,3.016-5.56528-.30705-7.60536-5.67684-14.3614-12.376-17.9749-6.22847-3.35961-13.56845-4.46863-20.57557-4.45714C199.11233,281.04779,191.25832,280.42312,184.262,283.30705Z" transform="translate(-47 -58.28574)" fill="#3f3d56"/><path d="M340.51644,295.621c9.72772,3.19839,17.56944,11.02834,21.9305,20.29331a33.31317,33.31317,0,0,1,3.152,10.72482c.71166,6.95557-1.3623,13.87888-3.74361,20.45275-1.87518,5.17663-3.97137,10.86021-2.05211,16.02066.66556,1.78954,1.78682,3.39416,2.33757,5.2223a9.14582,9.14582,0,0,1-3.07738,9.61978c-1.96249,1.5198-4.66128,2.33744-5.76177,4.56231,2.15735.02072,3.67593,2.04935,4.83638,3.86813l5.52916,8.66591-20.71881,12.07569a80.47026,80.47026,0,0,0-4.27434-22.05837,2.49211,2.49211,0,0,0-.7709-1.28539,2.45738,2.45738,0,0,0-1.65087-.26289c-4.05538.33886-8.02658,1.31881-12.04536,1.95944-9.04188,1.44134-18.60915,1.08982-26.935-2.71988a18.02023,18.02023,0,0,1-7.64278-5.91119c-1.82844-2.70105-2.46137-6.37485-.961-9.271,2.28408-4.409,8.17316-5.38212,11.8111-8.76169,1.61852,6.44576,8.901,10.24753,15.53019,9.77727a12.93726,12.93726,0,0,0,4.65215-1.11924c3.02527-1.43889,5.07359-4.32606,6.80069-7.19656a113.75164,113.75164,0,0,0,10.87444-25.57329,36.1119,36.1119,0,0,0,1.66266-7.47167c.657-7.824-3.67665-15.716-10.35762-19.84044s-13.515-2.41564-20.80047.51162c2.45007-.98442,2.28905-5.9181,4.24-7.60139a25.31369,25.31369,0,0,1,8.28568-4.59018A30.38031,30.38031,0,0,1,340.51644,295.621Z" transform="translate(-47 -58.28574)" fill="#d0cde1"/><path d="M894.75,412.5164s50.8185,13.37329,51.71,19.61415-25.855,23.25759-25.855,23.25759l-56.16782-26.8238Z" transform="translate(-47 -58.28574)" fill="#3f3d56"/><path d="M894.75,412.5164s50.8185,13.37329,51.71,19.61415-25.855,23.25759-25.855,23.25759l-56.16782-26.8238Z" transform="translate(-47 -58.28574)" opacity="0.1"/><path d="M921.05078,402.26354s-16.04794,19.61416-35.6621,17.83105,24.07192,41.903,24.07192,41.903l22.28881-19.61416s6.24087-25.855,11.59019-26.74658S921.05078,402.26354,921.05078,402.26354Z" transform="translate(-47 -58.28574)" fill="#cf9595"/><path d="M921.05078,402.26354s-16.04794,19.61416-35.6621,17.83105,24.07192,41.903,24.07192,41.903l22.28881-19.61416s6.24087-25.855,11.59019-26.74658S921.05078,402.26354,921.05078,402.26354Z" transform="translate(-47 -58.28574)" opacity="0.1"/><path d="M1020.01312,667.94621s2.67466,16.048-5.34931,19.61416-24.07192,57.95092-24.07192,57.95092l15.15639,15.15639,42.79452-69.5411s12.48174-24.96347,8.024-24.96347S1020.01312,667.94621,1020.01312,667.94621Z" transform="translate(-47 -58.28574)" fill="#ffb9b9"/><path d="M1020.01312,667.94621s2.67466,16.048-5.34931,19.61416-24.07192,57.95092-24.07192,57.95092l15.15639,15.15639,42.79452-69.5411s12.48174-24.96347,8.024-24.96347S1020.01312,667.94621,1020.01312,667.94621Z" transform="translate(-47 -58.28574)" opacity="0.1"/><path d="M994.1581,743.72819l-3.56621-1.78311s-20.50571,10.69863-17.83106,16.048,8.91553,16.04794,8.91553,19.61415,3.56621,24.96348,15.15639,26.74658,11.59019-8.91552,9.80708-13.37329-2.67466-19.61415-1.7831-24.96347a34.40035,34.40035,0,0,1,4.12176-10.59841Z" transform="translate(-47 -58.28574)" fill="#2f2e41"/><path d="M976.327,663.48845s-2.67465,66.86645,16.048,94.50458c0,0,7.13242,19.61415,8.024,21.39726s16.048-6.24087,16.048-6.24087-8.024-53.49315-7.13242-62.40868-4.45776-20.50571-4.45776-20.50571l-.89156-26.74658Z" transform="translate(-47 -58.28574)" fill="#ffb9b9"/><path d="M1018.23,768.69166l-18.61612,8.79863s1.67662,13.49018,2.56817,16.16484-12.48174,22.28882,1.7831,24.07192,28.52969,0,24.96348-4.45776-8.91553-24.07192-8.024-29.42124S1018.23,768.69166,1018.23,768.69166Z" transform="translate(-47 -58.28574)" fill="#2f2e41"/><path d="M980.78481,414.74528s-11.59019-.89155-13.37329,32.98744a527.05949,527.05949,0,0,0,0,58.84248l28.52968.89155-2.67466-53.49316Z" transform="translate(-47 -58.28574)" fill="#ffb9b9"/><path d="M1014.66381,388.89025s2.67465,19.61416-9.80708,21.39726,14.26484,29.42124,14.26484,29.42124l34.77055-19.61416s-13.37329-24.07192-6.24087-35.6621S1014.66381,388.89025,1014.66381,388.89025Z" transform="translate(-47 -58.28574)" fill="#ffb9b9"/><path d="M1014.66381,388.89025s2.67465,19.61416-9.80708,21.39726,14.26484,29.42124,14.26484,29.42124l34.77055-19.61416s-13.37329-24.07192-6.24087-35.6621S1014.66381,388.89025,1014.66381,388.89025Z" transform="translate(-47 -58.28574)" opacity="0.1"/><circle cx="896.3396" cy="338.62849" r="31.20434" fill="#cf9595"/><circle cx="980.14554" cy="310.09881" r="31.20434" fill="#ffb9b9"/><path d="M849.72658,478.04551s-.89156,32.98745,0,38.33676-5.34932,50.8185-5.34932,50.8185l19.61416-14.26484s15.15639-48.14384,8.91552-60.62558S849.72658,478.04551,849.72658,478.04551Z" transform="translate(-47 -58.28574)" fill="#cf9595"/><path d="M952.25512,492.31035s-3.56621,26.74658,8.024,28.52969,14.26484-20.50571,14.26484-20.50571l-4.45776-22.28882Z" transform="translate(-47 -58.28574)" fill="#cf9595"/><path d="M926.46,390.073c1.60588,1.45874,3.21451,3.05129,5.28288,3.706,3.46342,1.09625,7.68128-.60993,10.6353,1.50448,2.80935,2.01084,3.03173,6.60011,6.105,8.17831a8.576,8.576,0,0,0,4.05284.61227l10.868-.12832a5.20255,5.20255,0,0,0,3.59772,6.94278c1.13722.2153,2.56367.16178,3.1272,1.17275.60889,1.09237.32275,3.26741,1.53967,2.9791a17.90728,17.90728,0,0,1,5.73549-6.00243c1.32793-.857,2.83746-1.60291,3.63-2.97032,1.09319-1.88623.45627-4.2432.37835-6.42193-.24247-6.77953,5.23364-13.11947,3.84111-19.75888a19.91439,19.91439,0,0,0-1.88746-4.74517l-6.95281-13.87867c-1.22874-2.45269-2.65765-5.09775-5.19455-6.14161-3.84022-1.58013-7.959,1.23376-12.04867,1.95407-4.64787.81864-9.26851-1.12533-13.80834-2.41484s-9.95987-1.75388-13.47639,1.39366c-1.42867,1.27876-2.41867,3.06754-4.08661,4.01322-2.84578,1.61348-7.3415.6682-8.79133,3.60074-.71122,1.43858-.24172,3.19529-.7055,4.7316-.63241,2.09494-2.77194,3.26951-4.55752,4.53459s-3.52,3.3613-2.792,5.425c.30995.87868,1.02874,1.57048,1.31857,2.456.53335,1.62956-.49994,3.30285-1.297,4.82178-2.65778,5.066,1.71505,6.04717,5.02807,3.77259C920.03815,386.6387,922.399,386.3841,926.46,390.073Z" transform="translate(-47 -58.28574)" fill="#3f3d56"/><path d="M1005.74828,404.04665s1.78311,17.83105,16.048,17.83105,27.49359-11.90934,27.49359-11.90934,25.108,6.56,25.108,10.12623-20.50571,29.42124-20.50571,29.42124-8.91553,67.758-5.34932,71.32421,41.01142,131.05823,34.77056,141.75686-3.56621,10.69863-45.46919,13.37329-45.46918,11.59018-63.30023-1.78311-20.50571-21.39726-27.63813-22.28881-15.1564-98.96234-8.024-112.33563,19.61415-30.31279,24.07192-33.879,15.01374-37.54932,15.01374-37.54932l.14265-55.17215Z" transform="translate(-47 -58.28574)" fill="#ff6584"/><path d="M1066.37386,418.31149s20.50571-2.67466,14.26484,18.7226-15.1564,60.62558-29.42124,62.40868,2.67466-51.71005,2.67466-51.71005Z" transform="translate(-47 -58.28574)" fill="#ffb9b9"/><path d="M1022.38853,335.18391c9.82994-2.16224,20.24825-2.66169,29.84849.36128s18.27933,9.93458,21.82426,19.35459,1.048,21.23535-7.02109,27.25147c-4.20376,3.13423-9.57629,4.623-13.28474,8.33-3.9998,3.99831-5.95212,10.4228-11.2726,12.34045a23.525,23.525,0,0,1-.356-12.119,35.90463,35.90463,0,0,0,1.42028-6.39756c.1081-2.18613-.6703-4.60361-2.58181-5.66991-2.03154-1.13325-4.5502-.40717-6.87012-.57839-5.77166-.426-9.50811-6.214-11.67637-11.57978s-4.11036-11.45752-9.11631-14.362c-4.71443-2.73525-9.94218-1.47753-14.97031-.77634-.75557-2.76185,6.99684-8.77273,9.274-10.31515A42.5131,42.5131,0,0,1,1022.38853,335.18391Z" transform="translate(-47 -58.28574)" fill="#3f3d56"/><path d="M1061.91609,478.04551s-8.024-35.6621-8.024-40.11986-4.45776-25.855-1.78311-31.20435,8.91553-35.6621-.89155-32.98744-14.26484,41.01142-14.26484,41.01142,1.78311,22.28881,0,29.42123-.89155,54.38471,5.34932,55.27626S1061.91609,495.87656,1061.91609,478.04551Z" transform="translate(-47 -58.28574)" fill="#ffb9b9"/><circle cx="1023.38584" cy="290.03887" r="19.61416" fill="#3f3d56"/><path d="M859.97943,428.56434s-17.38527,25.40925-17.38527,54.83049c0,0,21.39726-.89155,33.879,16.9395S859.97943,428.56434,859.97943,428.56434Z" transform="translate(-47 -58.28574)" fill="#3f3d56"/><path d="M857.75055,737.48732s13.37329,28.52968,13.37329,42.79452S898.762,782.9565,898.762,782.9565s-17.83105-46.36074-16.048-52.6016S857.75055,737.48732,857.75055,737.48732Z" transform="translate(-47 -58.28574)" fill="#cf9595"/><path d="M906.78594,735.70421s3.747,53.11852-.80114,57.7636,17.74064,1.97043,17.74064,1.97043,0-40.11987,7.13242-56.16782Z" transform="translate(-47 -58.28574)" fill="#cf9595"/><path d="M868.44918,549.36972s-26.74658,12.48174-26.74658,17.83105-4.45776,32.09589-6.24087,34.77055-1.7831,26.74658,0,30.31279,5.34932,113.22718,18.72261,113.22718,32.09589-6.24087,32.98744-11.59018c0,0-12.48173-49.0354-8.024-61.51713s6.24087-53.49316,15.1564-58.84247,8.91552,5.34931,8.91552,5.34931l-1.7831,74.89042s-1.78311,48.14384,1.7831,49.03539,26.74658,4.45777,29.42124.89156,11.59018-52.60161,11.59018-57.95092,8.91553-62.40869,9.80708-68.64955,3.56621-59.734-2.67466-63.30024S868.44918,549.36972,868.44918,549.36972Z" transform="translate(-47 -58.28574)" fill="#2f2e41"/><path d="M882.714,779.39029s-8.91552-7.13242-14.26484,6.24087a53.5728,53.5728,0,0,1-14.26484,20.50571s-3.56621,8.91552,11.59018,7.13242,41.01142-17.83105,41.01142-17.83105-6.36188-16.29576-9.42181-16.17186S892.5211,785.63116,882.714,779.39029Z" transform="translate(-47 -58.28574)" fill="#2f2e41"/><path d="M920.15923,789.19737s-13.36479-3.56621-16.0437,0-6.24511,24.07192-1.78735,26.74658,24.07192,1.7831,26.74658,0,0-13.37329,0-13.37329Z" transform="translate(-47 -58.28574)" fill="#2f2e41"/><path d="M905.00284,434.35943s-13.37329-11.59018-9.80708-21.39726c0,0-40.11987,13.37329-39.22832,24.07192s16.9395,55.27626,16.9395,55.27626-25.855,49.92695-12.48173,60.62558,9.80708-1.78311,32.98744,6.24087,32.98745,4.45776,41.903,2.67466,10.69864-.89156,16.9395-.89156,2.67466-17.831,0-27.63813-6.24086-24.07192-3.56621-27.63813,25.855-65.97489,25.855-65.97489S956.53983,425.295,935.2291,430.273C935.2291,430.273,920.15923,442.38341,905.00284,434.35943Z" transform="translate(-47 -58.28574)" fill="#3f3d56"/><path d="M965.62841,442.38341c0-.89155,8.91553-2.67466,8.91553-2.67466s5.34931,35.6621,2.67466,42.79453-24.96348,15.15639-28.52969,14.26484S965.62841,442.38341,965.62841,442.38341Z" transform="translate(-47 -58.28574)" fill="#3f3d56"/><circle cx="899" cy="295.71426" r="21" fill="#3f3d56"/></svg>