<svg xmlns="http://www.w3.org/2000/svg" viewBox="0 0 757.964 743.732"
{% if ariaHidden %}
  aria-hidden="true"
  {% else %}
  role="img"
  aria-labelledby="undrawAudioPlaySvgTitle"
  {% endif %}
>{% if not ariaHidden %}<title id="undrawAudioPlaySvgTitle">{{svgTitle if svgTitle is defined else "UndrawAudioPlay"}}</title>{% endif %}
  <g transform="translate(-221 -78)">
    <path d="M312.471,78.134a32.036,32.036,0,0,0-32,32V788.562a32.036,32.036,0,0,0,32,32h297a32.037,32.037,0,0,0,32-32V110.134a32.036,32.036,0,0,0-32-32Z" transform="translate(-0.018 -0.134)" fill="#e6e6e6"/>
    <path d="M621.676,235.116v-54.44a125.247,125.247,0,0,1-80.859-60.189h0a23.789,23.789,0,0,1-14.22,4.68H483.368A178.549,178.549,0,0,0,621.676,235.116Z" transform="translate(-0.018 -0.134)" fill="#fff"/>
    <path d="M621.676,177.556v-52.3a29.121,29.121,0,0,0-29.13-29.13h-41.97v5.05a23.917,23.917,0,0,1-7.4,17.329,122.3,122.3,0,0,0,78.5,59.049Z" transform="translate(-0.018 -0.134)" fill="#fff"/>
    <path d="M419.787,125.168H392.756a23.987,23.987,0,0,1-23.98-23.99v-5.05H329.4a29.128,29.128,0,0,0-29.13,29.132v648.2a29.079,29.079,0,0,0,29.13,29.11h263.15a28.362,28.362,0,0,0,3.59-.22,29.146,29.146,0,0,0,25.54-28.89V296.286C525.967,285.2,446.218,216.907,419.787,125.168Z" transform="translate(-0.018 -0.134)" fill="#fff"/>
    <path d="M480.088,125.168h-57.14c26.3,90.039,104.68,157.028,198.729,168.068v-55.02A181.668,181.668,0,0,1,480.087,125.168Z" transform="translate(-0.018 -0.134)" fill="#fff"/>
    <path d="M601.63,610.915h-270a5.006,5.006,0,0,1-5-5V538.94a5.006,5.006,0,0,1,5-5h270a5.006,5.006,0,0,1,5,5v66.976A5.006,5.006,0,0,1,601.63,610.915Zm-270-74.976a3,3,0,0,0-3,3v66.976a3,3,0,0,0,3,3h270a3,3,0,0,0,3-3V538.94a3,3,0,0,0-3-3Z" transform="translate(-0.018 -0.134)" fill="#e6e6e6"/>
    <circle cx="21" cy="21" r="21" transform="translate(345.611 551.293)" fill="#3f3d56"/>
    <path d="M415.129,558.427a3.5,3.5,0,0,0,0,7h165a3.5,3.5,0,1,0,0-7Z" transform="translate(-0.018 -0.134)" fill="#e6e6e6"/>
    <path d="M415.129,579.427a3.5,3.5,0,0,0,0,7h165a3.5,3.5,0,1,0,0-7Z" transform="translate(-0.018 -0.134)" fill="#e6e6e6"/>
    <path d="M601.63,722.915h-270a5.006,5.006,0,0,1-5-5V650.94a5.006,5.006,0,0,1,5-5h270a5.006,5.006,0,0,1,5,5v66.976A5.006,5.006,0,0,1,601.63,722.915Zm-270-74.976a3,3,0,0,0-3,3v66.976a3,3,0,0,0,3,3h270a3,3,0,0,0,3-3V650.94a3,3,0,0,0-3-3Z" transform="translate(-0.018 -0.134)" fill="#e6e6e6"/>
    <circle cx="21" cy="21" r="21" transform="translate(345.611 663.293)" fill="#3f3d56"/>
    <path d="M415.129,670.427a3.5,3.5,0,0,0,0,7h165a3.5,3.5,0,1,0,0-7Z" transform="translate(-0.018 -0.134)" fill="#e6e6e6"/>
    <path d="M415.129,691.427a3.5,3.5,0,0,0,0,7h165a3.5,3.5,0,1,0,0-7Z" transform="translate(-0.018 -0.134)" fill="#e6e6e6"/>
    <path d="M460.947,471.93a94.96,94.96,0,0,1-95-95c0-.2,0-.408.012-.607.291-52.025,42.9-94.393,94.988-94.393a95,95,0,1,1,0,190Zm0-188a93.2,93.2,0,0,0-92.99,92.456c-.011.212-.01.383-.01.544a93.012,93.012,0,1,0,93-93Z" transform="translate(-0.018 0.07)" fill="#3f3d56"/>
    <path d="M503.97,381.529l-65.022-37.541a2,2,0,0,0-3,1.732V420.8a2,2,0,0,0,3,1.732l65.022-37.541a2,2,0,0,0,0-3.464l-65.022-37.541a2,2,0,0,0-3,1.732V420.8a2,2,0,0,0,3,1.732l65.022-37.541a2,2,0,0,0,0-3.464Z" transform="translate(-0.018 -6.721)" fill="#d9376e"/>
    <path d="M757.569,743.732H0v-2.181H757.964Z" transform="translate(221 78)" fill="#3f3d56"/>
    <g transform="translate(-869.284 495.958)">
      <circle cx="27.936" cy="27.936" r="27.936" transform="translate(1653.026 -107.758)" fill="#ffb8b8"/>
      <path d="M812.723,631a12.514,12.514,0,0,1,9.466-16.1,11.893,11.893,0,0,1,1.66-.2l29.427-47.229L826.4,541.915A10.728,10.728,0,1,1,841.32,526.5l37.113,36.6.075.091a9.719,9.719,0,0,1-.676,11.584L836.6,623.534a11.733,11.733,0,0,1,.307,1.19,12.514,12.514,0,0,1-11.232,14.918q-.533.047-1.06.047A12.553,12.553,0,0,1,812.723,631Z" transform="translate(866.433 -554.209)" fill="#ffb8b8"/>
      <path d="M589.772,539.948H575.827l-6.633-53.786,20.58,0Z" transform="translate(1045.18 -230.972)" fill="#ffb8b8"/>
      <path d="M812.885,719.943l-46.1,0V718.8a18.069,18.069,0,0,1,18.07-18.069h28.031Z" transform="translate(826.191 -396.88)" fill="#2f2e41"/>
      <path d="M674.777,526.174l-11.982,7.135-33.217-42.82,17.685-10.529Z" transform="translate(1098.774 -236.477)" fill="#ffb8b8"/>
      <path d="M848.632,729.873l-.582-.977a18.07,18.07,0,0,1,6.281-24.77l24.085-14.341,9.826,16.5Z" transform="translate(896.059 -406.599)" fill="#2f2e41"/>
      <path d="M780.531,810.423c-9.341-109.994-14.9-212.178,19.25-253.862l.264-.323,57.468,22.988.095.205c.194.422,19.306,42.463,14.848,70.741l14.175,65.206,46.219,77.391a5.12,5.12,0,0,1-2.333,7.311l-20.086,8.837a5.142,5.142,0,0,1-6.424-2.008L853.73,724.923l-28.4-62.883a1.706,1.706,0,0,0-3.252.522L806.338,810.535a5.109,5.109,0,0,1-5.089,4.577H785.633A5.153,5.153,0,0,1,780.531,810.423Z" transform="translate(832.083 -525.133)" fill="#2f2e41"/>
      <path d="M787.986,592.013l-.274-.131-.043-.3c-2.147-15.025.394-31.72,7.552-49.62a39.4,39.4,0,0,1,45.726-23.594h0a39.348,39.348,0,0,1,25.092,19.295,38.923,38.923,0,0,1,2.7,31.193c-9.024,26.388-20.73,51.078-20.848,51.324l-.245.515Z" transform="translate(844.072 -559.713)" fill="#d9376e"/>
      <path d="M765.634,647.248a12.776,12.776,0,0,1,9.16-13.935l53.739-103.171a10.3,10.3,0,1,1,17.522,10.817L791.046,643.411a12.419,12.419,0,0,1,.2,1.888,12.861,12.861,0,0,1-13.033,13.208h0a12.873,12.873,0,0,1-9.87-4.834,12.713,12.713,0,0,1-2.714-6.425Z" transform="translate(825.073 -552.635)" fill="#ffb8b8"/>
      <path d="M795.454,500.188h44.359V480.852c-9.736-3.868-19.264-7.158-25.023,0a19.336,19.336,0,0,0-19.336,19.336Z" transform="translate(851.636 -595.791)" fill="#2f2e41"/>
      <path d="M836.215,477.059c26.519,0,33.941,33.24,33.941,51.993,0,10.458-4.729,14.2-12.162,15.464l-2.625-14-6.147,14.6c-2.088.01-4.281-.03-6.555-.072l-2.084-4.292-4.648,4.215c-18.616.028-33.661,2.741-33.661-15.917C802.274,510.3,808.784,477.059,836.215,477.059Z" transform="translate(857.69 -595.41)" fill="#2f2e41"/>
    </g>
    <g transform="translate(684 38)">
      <path d="M820.737,295.13V269.263a2.333,2.333,0,0,0-2.333-2.333h-4.666a2.333,2.333,0,0,0-2.333,2.333V293.57a14.745,14.745,0,1,0,9.331,1.56Z" transform="translate(-688.018 71.866)" fill="#d9376e"/>
      <circle cx="6.998" cy="6.998" r="6.998" transform="translate(119.5 373.01)" fill="#fff"/>
    </g>
  </g>
</svg>
