<svg
  viewBox="0 0 999.028 144.347"
  xmlns="http://www.w3.org/2000/svg"
  role="img"
  aria-labelledby="herologoSvgTitle"
>
  <title id="herologoSvgTitle">{{svgTitle if svgTitle is defined else "HeroLogo"}}</title>
  <defs>
    <linearGradient id="myGradient" gradientUnits="userSpaceOnUse" y1="0%" x2="100%" x1="25%" y2="100%">
      <stop offset="0%"  stop-color="#d9376e" />
      <stop offset="100%" stop-color="#da6f36" />
    </linearGradient>
  </defs>
  <g fill="url('#myGradient')">
    <path
      d="m252.1 30.582 20.519 64.5h.787l20.561-64.5h19.9l-29.265 84.9h-23.134l-29.307-84.9z"
    />
    <path
      d="m332.643 43.6a9.594 9.594 0 0 1 -6.757-2.612 8.472 8.472 0 0 1 0-12.622 9.988 9.988 0 0 1 13.492-.021 8.514 8.514 0 0 1 0 12.622 9.474 9.474 0 0 1 -6.735 2.633zm-8.914 71.879v-63.673h17.66v63.671z"
    />
    <path
      d="m355.481 115.477v-63.671h17.119v11.109h.663a16.551 16.551 0 0 1 5.844-8.975 15.438 15.438 0 0 1 9.452-3.046 26.864 26.864 0 0 1 2.86.165 20.271 20.271 0 0 1 2.694.456v15.67a23.07 23.07 0 0 0 -3.44-.664 31 31 0 0 0 -4.021-.29 14.147 14.147 0 0 0 -6.943 1.679 12.47 12.47 0 0 0 -4.809 4.663 13.278 13.278 0 0 0 -1.761 6.882v36.022z"
    />
    <path
      d="m440.251 51.806v13.264h-38.344v-13.264zm-29.639-15.255h17.659v59.36a7.921 7.921 0 0 0 .746 3.793 4.08 4.08 0 0 0 2.093 1.886 8.376 8.376 0 0 0 3.13.539 13.783 13.783 0 0 0 2.488-.228c.829-.151 1.463-.269 1.906-.352l2.777 13.14q-1.327.416-3.73.975a31.214 31.214 0 0 1 -5.845.684 26.7 26.7 0 0 1 -11.172-1.7 15.6 15.6 0 0 1 -7.44-6.052 18.491 18.491 0 0 1 -2.612-10.364z"
    />
    <path
      d="m492.563 88.367v-36.561h17.66v63.671h-16.954v-11.565h-.664a18.839 18.839 0 0 1 -7.151 8.995 21.114 21.114 0 0 1 -12.166 3.4 21.448 21.448 0 0 1 -11.233-2.9 19.8 19.8 0 0 1 -7.566-8.249 28.36 28.36 0 0 1 -2.757-12.809v-40.543h17.66v37.394q.041 5.638 3.026 8.912a10.291 10.291 0 0 0 8 3.275 12.559 12.559 0 0 0 5.969-1.471 11.392 11.392 0 0 0 4.5-4.374 13.585 13.585 0 0 0 1.676-7.175z"
    />
    <path
      d="m542.472 116.679a26.315 26.315 0 0 1 -10.861-2.135 17.152 17.152 0 0 1 -7.523-6.342 18.777 18.777 0 0 1 -2.757-10.508 18.554 18.554 0 0 1 1.948-8.913 15.784 15.784 0 0 1 5.306-5.8 25.714 25.714 0 0 1 7.648-3.316 57.747 57.747 0 0 1 9.016-1.576q5.554-.579 8.954-1.1a12.5 12.5 0 0 0 4.933-1.554 3.464 3.464 0 0 0 1.534-3.068v-.249a7.662 7.662 0 0 0 -2.467-6.093q-2.466-2.155-6.984-2.156a12.446 12.446 0 0 0 -7.586 2.093 9.831 9.831 0 0 0 -3.732 5.245l-16.332-1.327a22.326 22.326 0 0 1 4.892-10.052 23.721 23.721 0 0 1 9.431-6.55 36.1 36.1 0 0 1 13.41-2.3 40.987 40.987 0 0 1 10.176 1.243 26.839 26.839 0 0 1 8.664 3.855 18.871 18.871 0 0 1 5.99 6.7 20.338 20.338 0 0 1 2.2 9.762v42.945h-16.75v-8.83h-.5a17.719 17.719 0 0 1 -4.1 5.245 18.509 18.509 0 0 1 -6.176 3.523 25.176 25.176 0 0 1 -8.334 1.258zm5.057-12.187a14.687 14.687 0 0 0 6.881-1.554 12.045 12.045 0 0 0 4.69-4.208 10.9 10.9 0 0 0 1.7-6.011v-6.757a9.04 9.04 0 0 1 -2.259.975q-1.431.435-3.213.787t-3.564.622q-1.785.27-3.234.477a21.8 21.8 0 0 0 -5.43 1.451 8.765 8.765 0 0 0 -3.607 2.673 6.656 6.656 0 0 0 -1.285 4.166 6.331 6.331 0 0 0 2.633 5.493 11.2 11.2 0 0 0 6.688 1.886z"
    />
    <path d="m609.707 30.582v84.9h-17.659v-84.9z" />
    <g>
    <path
      d="m699.037 60.3h-18.156a18.007 18.007 0 0 0 -2.031-6.28 16.061 16.061 0 0 0 -3.939-4.705 17.4 17.4 0 0 0 -5.534-2.985 21.467 21.467 0 0 0 -6.777-1.03 20.25 20.25 0 0 0 -11.483 3.254 21.078 21.078 0 0 0 -7.586 9.446 37.6 37.6 0 0 0 -2.694 15.027 37.907 37.907 0 0 0 2.715 15.255 19.639 19.639 0 0 0 18.924 12.477 22.577 22.577 0 0 0 6.694-.953 17.322 17.322 0 0 0 5.492-2.8 16.017 16.017 0 0 0 4-4.5 17.863 17.863 0 0 0 2.218-6.052l18.156.083a32.939 32.939 0 0 1 -3.5 11.254 33.984 33.984 0 0 1 -7.5 9.659 35.107 35.107 0 0 1 -11.192 6.715 41 41 0 0 1 -14.653 2.467 39.936 39.936 0 0 1 -20.291-5.132 36.3 36.3 0 0 1 -14.1-14.882q-5.161-9.741-5.16-23.587 0-13.885 5.222-23.628a36.542 36.542 0 0 1 14.177-14.86 39.852 39.852 0 0 1 20.147-5.12 43.732 43.732 0 0 1 13.7 2.073 34.968 34.968 0 0 1 11.214 6.029 31.65 31.65 0 0 1 7.979 9.679 36.276 36.276 0 0 1 3.958 13.096z"
    />
    <path
      d="m740.364 116.721a32.368 32.368 0 0 1 -16.684-4.121 27.863 27.863 0 0 1 -10.84-11.524 36.992 36.992 0 0 1 -3.815-17.182 37.183 37.183 0 0 1 3.815-17.265 27.869 27.869 0 0 1 10.84-11.529 35.812 35.812 0 0 1 33.369 0 27.882 27.882 0 0 1 10.84 11.524 37.2 37.2 0 0 1 3.811 17.266 37 37 0 0 1 -3.813 17.182 27.876 27.876 0 0 1 -10.84 11.524 32.377 32.377 0 0 1 -16.683 4.125zm.083-13.68a10.915 10.915 0 0 0 7.337-2.508 15.419 15.419 0 0 0 4.456-6.86 30.078 30.078 0 0 0 1.513-9.907 30.08 30.08 0 0 0 -1.513-9.908 15.582 15.582 0 0 0 -4.456-6.881 10.868 10.868 0 0 0 -7.337-2.528 11.166 11.166 0 0 0 -7.441 2.528 15.318 15.318 0 0 0 -4.518 6.881 30.08 30.08 0 0 0 -1.513 9.908 30.078 30.078 0 0 0 1.513 9.907 15.161 15.161 0 0 0 4.518 6.86 11.216 11.216 0 0 0 7.441 2.508z"
    />
    <path
      d="m817.466 51.806v13.264h-39.3v-13.264zm-30.3 63.671v-68.277a22.131 22.131 0 0 1 2.715-11.482 17.18 17.18 0 0 1 7.44-6.84 24.408 24.408 0 0 1 10.737-2.28 41.27 41.27 0 0 1 7.441.622q3.378.622 5.036 1.119l-3.15 13.265a22.54 22.54 0 0 0 -2.549-.622 16.416 16.416 0 0 0 -3.089-.29q-3.9 0-5.431 1.8a7.54 7.54 0 0 0 -1.533 5.036v67.941z"
    />
    <path
      d="m862.483 51.806v13.264h-39.3v-13.264zm-30.3 63.671v-68.277a22.14 22.14 0 0 1 2.717-11.478 17.188 17.188 0 0 1 7.441-6.84 24.4 24.4 0 0 1 10.736-2.28 41.281 41.281 0 0 1 7.442.622q3.378.622 5.036 1.119l-3.155 13.265a22.517 22.517 0 0 0 -2.548-.622 16.424 16.424 0 0 0 -3.089-.29q-3.9 0-5.431 1.8a7.54 7.54 0 0 0 -1.533 5.036v67.941z"
    />
    <path
      d="m900.041 116.721a33.751 33.751 0 0 1 -16.893-4 27.048 27.048 0 0 1 -10.88-11.358 37.4 37.4 0 0 1 -3.815-17.43 37.217 37.217 0 0 1 3.815-17.245 28.149 28.149 0 0 1 10.756-11.565 31.213 31.213 0 0 1 16.312-4.145 33.712 33.712 0 0 1 11.752 2.01 26.513 26.513 0 0 1 9.534 6.031 27.484 27.484 0 0 1 6.363 10.094 40.322 40.322 0 0 1 2.28 14.2v4.85h-53.765v-10.947h37.143a13.537 13.537 0 0 0 -1.659-6.757 12.071 12.071 0 0 0 -4.581-4.622 13.364 13.364 0 0 0 -6.777-1.679 13.6 13.6 0 0 0 -7.109 1.842 13.232 13.232 0 0 0 -4.829 4.933 14.052 14.052 0 0 0 -1.783 6.86v10.407a17.7 17.7 0 0 0 1.762 8.166 12.6 12.6 0 0 0 5 5.306 15.079 15.079 0 0 0 7.669 1.866 16.668 16.668 0 0 0 5.389-.83 11.162 11.162 0 0 0 4.186-2.487 10.819 10.819 0 0 0 2.654-4.062l16.332 1.078a22.281 22.281 0 0 1 -5.079 10.26 25.5 25.5 0 0 1 -9.865 6.8 37.07 37.07 0 0 1 -13.912 2.424z"
    />
    <path
      d="m969.806 116.721a33.751 33.751 0 0 1 -16.893-4 27.044 27.044 0 0 1 -10.881-11.358 37.4 37.4 0 0 1 -3.814-17.43 37.217 37.217 0 0 1 3.814-17.245 28.144 28.144 0 0 1 10.757-11.565 31.211 31.211 0 0 1 16.311-4.146 33.712 33.712 0 0 1 11.752 2.01 26.521 26.521 0 0 1 9.534 6.031 27.51 27.51 0 0 1 6.363 10.094 40.323 40.323 0 0 1 2.279 14.2v4.85h-53.763v-10.946h37.142a13.536 13.536 0 0 0 -1.658-6.757 12.078 12.078 0 0 0 -4.581-4.622 13.364 13.364 0 0 0 -6.777-1.679 13.6 13.6 0 0 0 -7.11 1.842 13.239 13.239 0 0 0 -4.829 4.933 14.051 14.051 0 0 0 -1.782 6.86v10.407a17.7 17.7 0 0 0 1.762 8.166 12.588 12.588 0 0 0 5 5.306 15.079 15.079 0 0 0 7.669 1.866 16.657 16.657 0 0 0 5.388-.83 11.166 11.166 0 0 0 4.187-2.487 10.8 10.8 0 0 0 2.653-4.062l16.332 1.078a22.27 22.27 0 0 1 -5.078 10.26 25.517 25.517 0 0 1 -9.865 6.8 37.074 37.074 0 0 1 -13.912 2.424z"
    />
    </g>
  </g>
  <g fill="#2a2a2a">
  <path
    d="m29.578 144.347c-8.521 0-13.986-5.786-13.986-14.466v-36.007c0-8.982-6.117-13.936-14.616-14.286a1 1 0 0 1 -.976-.995v-13a1 1 0 0 1 .976-.993c8.5-.35 14.616-5.3 14.616-14.126v-36.007c0-8.68 5.465-14.467 13.986-14.467h14.111a1 1 0 0 1 1 1v11.022a1 1 0 0 1 -1 1h-11.346a1 1 0 0 0 -1 1v36.778c0 9.832-6.515 18.3-15.134 20.4a1 1 0 0 0 -.78.97v.012a1 1 0 0 0 .78.969c8.619 2.1 15.134 10.571 15.134 20.4v36.779a1 1 0 0 0 1 1h11.346a1 1 0 0 1 1 1v11.023a1 1 0 0 1 -1 1z"
  />
  <path
    d="m130.275 0c8.52 0 14.306 5.787 14.306 14.467v36.006c0 8.828 6.118 13.776 14.616 14.126a1 1 0 0 1 .977.995v13a1 1 0 0 1 -.977.995c-8.5.35-14.616 5.3-14.616 14.286v36.007c0 8.68-5.786 14.466-14.306 14.466h-14.112a1 1 0 0 1 -1-1v-11.022a1 1 0 0 1 1-1h11.667a1 1 0 0 0 1-1v-36.773c0-9.84 6.222-18.313 15.127-20.408a1 1 0 0 0 .787-.971 1 1 0 0 0 -.787-.971c-8.905-2.095-15.127-10.569-15.127-20.408v-36.777a1 1 0 0 0 -1-1h-11.667a1 1 0 0 1 -1-1v-11.018a1 1 0 0 1 1-1z"
  />
  <path
    d="m190.8 20.641v104.38a1 1 0 0 1 -1 1h-29.526a1 1 0 0 1 -1-1v-8.9a1 1 0 0 1 1-1h15.67a1 1 0 0 0 1-1v-82.582a1 1 0 0 0 -1-1h-15.67a1 1 0 0 1 -1-1v-8.9a1 1 0 0 1 1-1h29.526a1 1 0 0 1 1 1.002z"
  />
  </g>
  <g fill="url('#myGradient')">
  <path
    d="m40.28 74.117-.011-4.13a1.078 1.078 0 0 1 .5-.91l22.925-14.689a1.077 1.077 0 0 1 1.659.905l.015 5.556a1.078 1.078 0 0 1 -.513.921l-16.331 10.041v.438l16.386 9.951a1.078 1.078 0 0 1 .519.918l.015 5.556a1.078 1.078 0 0 1 -1.655.914l-23.008-14.563a1.079 1.079 0 0 1 -.501-.908z"
  />
  <path
    d="m67.812 98.412 17.1-53.576a1.077 1.077 0 0 1 1.024-.75l4.422-.012a1.078 1.078 0 0 1 1.03 1.405l-17.1 53.577a1.08 1.08 0 0 1 -1.024.75l-4.422.012a1.078 1.078 0 0 1 -1.03-1.406z"
  />
  <path
    d="m94.969 83.04a1.08 1.08 0 0 1 .514-.922l16.331-10.04v-.438l-16.386-9.953a1.078 1.078 0 0 1 -.519-.918l-.015-5.556a1.078 1.078 0 0 1 1.654-.914l23.008 14.565a1.076 1.076 0 0 1 .5.908l.011 4.069a1.076 1.076 0 0 1 -.494.908l-22.928 14.8a1.078 1.078 0 0 1 -1.662-.9z"
  />
  </g>
</svg>
