<svg viewBox="0 0 971.96 144.347" xmlns="http://www.w3.org/2000/svg"><g fill="white"><path d="m225.032 30.582 20.519 64.5h.787l20.561-64.5h19.9l-29.265 84.9h-23.134l-29.307-84.9z"/><path d="m305.574 43.6a9.6 9.6 0 0 1 -6.757-2.611 8.475 8.475 0 0 1 0-12.623 9.99 9.99 0 0 1 13.493-.02 8.516 8.516 0 0 1 0 12.622 9.481 9.481 0 0 1 -6.736 2.632zm-8.913 71.879v-63.673h17.659v63.671z"/><path d="m328.413 115.477v-63.671h17.12v11.109h.663a16.544 16.544 0 0 1 5.845-8.974 15.428 15.428 0 0 1 9.451-3.047 26.868 26.868 0 0 1 2.861.165 20.464 20.464 0 0 1 2.694.456v15.67a23.088 23.088 0 0 0 -3.441-.664 30.989 30.989 0 0 0 -4.021-.29 14.147 14.147 0 0 0 -6.943 1.679 12.491 12.491 0 0 0 -4.809 4.663 13.281 13.281 0 0 0 -1.761 6.882v36.022z"/><path d="m413.182 51.806v13.265h-38.344v-13.265zm-29.639-15.255h17.657v59.36a7.921 7.921 0 0 0 .746 3.793 4.084 4.084 0 0 0 2.094 1.887 8.387 8.387 0 0 0 3.129.539 13.865 13.865 0 0 0 2.488-.228q1.244-.228 1.906-.353l2.778 13.141q-1.327.414-3.731.974a31.193 31.193 0 0 1 -5.845.684 26.7 26.7 0 0 1 -11.171-1.7 15.6 15.6 0 0 1 -7.441-6.052 18.506 18.506 0 0 1 -2.612-10.363z"/><path d="m465.5 88.367v-36.561h17.659v63.671h-16.959v-11.565h-.663a18.839 18.839 0 0 1 -7.151 8.995 21.107 21.107 0 0 1 -12.166 3.4 21.458 21.458 0 0 1 -11.234-2.9 19.81 19.81 0 0 1 -7.565-8.249 28.338 28.338 0 0 1 -2.757-12.81v-40.542h17.659v37.394q.041 5.638 3.026 8.913a10.3 10.3 0 0 0 8 3.275 12.563 12.563 0 0 0 5.969-1.472 11.383 11.383 0 0 0 4.5-4.374 13.583 13.583 0 0 0 1.682-7.175z"/><path d="m515.4 116.679a26.314 26.314 0 0 1 -10.86-2.134 17.143 17.143 0 0 1 -7.523-6.343 18.775 18.775 0 0 1 -2.757-10.508 18.554 18.554 0 0 1 1.948-8.913 15.775 15.775 0 0 1 5.306-5.8 25.714 25.714 0 0 1 7.648-3.316 57.59 57.59 0 0 1 9.016-1.575q5.554-.581 8.954-1.1a12.51 12.51 0 0 0 4.932-1.555 3.463 3.463 0 0 0 1.535-3.068v-.249a7.665 7.665 0 0 0 -2.467-6.093q-2.467-2.154-6.985-2.156a12.448 12.448 0 0 0 -7.586 2.094 9.83 9.83 0 0 0 -3.731 5.244l-16.33-1.328a22.326 22.326 0 0 1 4.892-10.052 23.718 23.718 0 0 1 9.43-6.55 36.1 36.1 0 0 1 13.41-2.3 40.975 40.975 0 0 1 10.176 1.243 26.83 26.83 0 0 1 8.664 3.855 18.86 18.86 0 0 1 5.99 6.7 20.338 20.338 0 0 1 2.2 9.762v42.945h-16.748v-8.829h-.5a17.744 17.744 0 0 1 -4.1 5.244 18.5 18.5 0 0 1 -6.177 3.523 25.142 25.142 0 0 1 -8.337 1.259zm5.058-12.187a14.687 14.687 0 0 0 6.881-1.554 12.027 12.027 0 0 0 4.684-4.208 10.9 10.9 0 0 0 1.7-6.011v-6.756a9.006 9.006 0 0 1 -2.259.974q-1.431.435-3.213.787t-3.565.622q-1.783.272-3.233.477a21.894 21.894 0 0 0 -5.431 1.451 8.755 8.755 0 0 0 -3.606 2.674 6.648 6.648 0 0 0 -1.285 4.166 6.331 6.331 0 0 0 2.633 5.492 11.2 11.2 0 0 0 6.697 1.886z"/><path d="m582.639 30.582v84.9h-17.66v-84.9z"/><path d="m671.969 60.3h-18.157a17.994 17.994 0 0 0 -2.031-6.28 16.041 16.041 0 0 0 -3.938-4.7 17.368 17.368 0 0 0 -5.534-2.985 21.44 21.44 0 0 0 -6.778-1.036 20.249 20.249 0 0 0 -11.482 3.254 21.067 21.067 0 0 0 -7.586 9.447 37.592 37.592 0 0 0 -2.694 15.027 37.923 37.923 0 0 0 2.714 15.254 19.642 19.642 0 0 0 18.924 12.477 22.579 22.579 0 0 0 6.695-.953 17.323 17.323 0 0 0 5.492-2.8 16.034 16.034 0 0 0 4-4.5 17.883 17.883 0 0 0 2.217-6.052l18.157.083a32.944 32.944 0 0 1 -3.5 11.255 33.994 33.994 0 0 1 -7.5 9.658 35.12 35.12 0 0 1 -11.192 6.716 41.031 41.031 0 0 1 -14.654 2.466 39.938 39.938 0 0 1 -20.291-5.14 36.3 36.3 0 0 1 -14.1-14.882q-5.16-9.741-5.16-23.586 0-13.887 5.223-23.628a36.532 36.532 0 0 1 14.177-14.861 39.855 39.855 0 0 1 20.146-5.12 43.728 43.728 0 0 1 13.7 2.073 34.957 34.957 0 0 1 11.213 6.031 31.654 31.654 0 0 1 7.98 9.679 36.3 36.3 0 0 1 3.959 13.103z"/><path d="m713.3 116.721a32.371 32.371 0 0 1 -16.685-4.125 27.873 27.873 0 0 1 -10.84-11.523 37.011 37.011 0 0 1 -3.814-17.183 37.2 37.2 0 0 1 3.814-17.265 27.875 27.875 0 0 1 10.836-11.525 35.812 35.812 0 0 1 33.369 0 27.875 27.875 0 0 1 10.84 11.524 37.2 37.2 0 0 1 3.814 17.265 37.011 37.011 0 0 1 -3.814 17.183 27.873 27.873 0 0 1 -10.84 11.528 32.373 32.373 0 0 1 -16.68 4.121zm.083-13.68a10.915 10.915 0 0 0 7.337-2.508 15.419 15.419 0 0 0 4.456-6.86 30.078 30.078 0 0 0 1.513-9.907 30.074 30.074 0 0 0 -1.513-9.907 15.58 15.58 0 0 0 -4.456-6.882 10.868 10.868 0 0 0 -7.337-2.528 11.165 11.165 0 0 0 -7.441 2.528 15.316 15.316 0 0 0 -4.518 6.882 30.047 30.047 0 0 0 -1.514 9.907 30.051 30.051 0 0 0 1.514 9.907 15.161 15.161 0 0 0 4.518 6.86 11.214 11.214 0 0 0 7.437 2.508z"/><path d="m790.4 51.806v13.265h-39.3v-13.265zm-30.3 63.671v-68.277a22.133 22.133 0 0 1 2.715-11.482 17.186 17.186 0 0 1 7.44-6.84 24.414 24.414 0 0 1 10.736-2.28 41.281 41.281 0 0 1 7.442.622 51.471 51.471 0 0 1 5.036 1.12l-3.151 13.264a22.324 22.324 0 0 0 -2.548-.621 16.416 16.416 0 0 0 -3.089-.29q-3.9 0-5.431 1.8a7.541 7.541 0 0 0 -1.533 5.036v67.941z"/><path d="m835.415 51.806v13.265h-39.3v-13.265zm-30.3 63.671v-68.277a22.143 22.143 0 0 1 2.715-11.482 17.188 17.188 0 0 1 7.441-6.84 24.414 24.414 0 0 1 10.736-2.28 41.27 41.27 0 0 1 7.441.622 51.4 51.4 0 0 1 5.036 1.12l-3.15 13.264a22.294 22.294 0 0 0 -2.549-.621 16.416 16.416 0 0 0 -3.089-.29q-3.9 0-5.43 1.8a7.536 7.536 0 0 0 -1.534 5.036v67.941z"/><path d="m872.973 116.721a33.751 33.751 0 0 1 -16.893-4 27.048 27.048 0 0 1 -10.88-11.358 37.408 37.408 0 0 1 -3.814-17.431 37.219 37.219 0 0 1 3.814-17.245 28.144 28.144 0 0 1 10.757-11.565 31.22 31.22 0 0 1 16.312-4.145 33.712 33.712 0 0 1 11.752 2.01 26.521 26.521 0 0 1 9.534 6.031 27.51 27.51 0 0 1 6.363 10.094 40.323 40.323 0 0 1 2.279 14.2v4.85h-53.765v-10.946h37.142a13.53 13.53 0 0 0 -1.658-6.756 12.064 12.064 0 0 0 -4.581-4.622 13.365 13.365 0 0 0 -6.777-1.68 13.6 13.6 0 0 0 -7.11 1.842 13.247 13.247 0 0 0 -4.829 4.933 14.052 14.052 0 0 0 -1.782 6.861v10.406a17.7 17.7 0 0 0 1.762 8.166 12.6 12.6 0 0 0 5 5.307 15.089 15.089 0 0 0 7.669 1.865 16.685 16.685 0 0 0 5.388-.829 11.182 11.182 0 0 0 4.187-2.488 10.8 10.8 0 0 0 2.653-4.062l16.332 1.078a22.27 22.27 0 0 1 -5.078 10.26 25.53 25.53 0 0 1 -9.865 6.8 37.094 37.094 0 0 1 -13.912 2.424z"/><path d="m942.737 116.721a33.75 33.75 0 0 1 -16.892-4 27.048 27.048 0 0 1 -10.881-11.357 37.408 37.408 0 0 1 -3.815-17.431 37.22 37.22 0 0 1 3.815-17.245 28.144 28.144 0 0 1 10.757-11.565 31.219 31.219 0 0 1 16.311-4.145 33.712 33.712 0 0 1 11.752 2.01 26.5 26.5 0 0 1 9.534 6.031 27.5 27.5 0 0 1 6.364 10.094 40.346 40.346 0 0 1 2.279 14.2v4.85h-53.761v-10.947h37.143a13.54 13.54 0 0 0 -1.658-6.756 12.071 12.071 0 0 0 -4.581-4.622 13.369 13.369 0 0 0 -6.778-1.68 13.6 13.6 0 0 0 -7.113 1.842 13.239 13.239 0 0 0 -4.829 4.933 14.052 14.052 0 0 0 -1.784 6.867v10.4a17.7 17.7 0 0 0 1.761 8.166 12.608 12.608 0 0 0 4.995 5.307 15.091 15.091 0 0 0 7.669 1.865 16.7 16.7 0 0 0 5.389-.829 11.189 11.189 0 0 0 4.187-2.488 10.817 10.817 0 0 0 2.653-4.062l16.332 1.078a22.28 22.28 0 0 1 -5.078 10.26 25.53 25.53 0 0 1 -9.865 6.8 37.1 37.1 0 0 1 -13.906 2.424z"/></g><path d="m29.578 144.347c-8.521 0-13.986-5.786-13.986-14.466v-36.007c0-8.982-6.117-13.936-14.616-14.286a1 1 0 0 1 -.976-.995v-13a1 1 0 0 1 .976-.993c8.5-.35 14.616-5.3 14.616-14.126v-36.007c0-8.68 5.465-14.467 13.986-14.467h14.111a1 1 0 0 1 1 1v11.022a1 1 0 0 1 -1 1h-11.346a1 1 0 0 0 -1 1v36.778c0 9.832-6.515 18.3-15.134 20.4a1 1 0 0 0 -.78.97v.012a1 1 0 0 0 .78.969c8.619 2.1 15.134 10.571 15.134 20.4v36.779a1 1 0 0 0 1 1h11.346a1 1 0 0 1 1 1v11.023a1 1 0 0 1 -1 1z" fill="white"/><path d="m130.275 0c8.52 0 14.306 5.787 14.306 14.467v36.006c0 8.828 6.118 13.776 14.616 14.126a1 1 0 0 1 .977.995v13a1 1 0 0 1 -.977.995c-8.5.35-14.616 5.3-14.616 14.286v36.007c0 8.68-5.786 14.466-14.306 14.466h-14.112a1 1 0 0 1 -1-1v-11.022a1 1 0 0 1 1-1h11.667a1 1 0 0 0 1-1v-36.773c0-9.84 6.222-18.313 15.127-20.408a1 1 0 0 0 .787-.971 1 1 0 0 0 -.787-.971c-8.905-2.095-15.127-10.569-15.127-20.408v-36.777a1 1 0 0 0 -1-1h-11.667a1 1 0 0 1 -1-1v-11.018a1 1 0 0 1 1-1z" fill="white"/><path d="m190.8 20.641v104.38a1 1 0 0 1 -1 1h-29.526a1 1 0 0 1 -1-1v-8.9a1 1 0 0 1 1-1h15.67a1 1 0 0 0 1-1v-82.582a1 1 0 0 0 -1-1h-15.67a1 1 0 0 1 -1-1v-8.9a1 1 0 0 1 1-1h29.526a1 1 0 0 1 1 1.002z" fill="white"/><path d="m40.28 74.117-.011-4.13a1.078 1.078 0 0 1 .5-.91l22.925-14.689a1.077 1.077 0 0 1 1.659.905l.015 5.556a1.078 1.078 0 0 1 -.513.921l-16.331 10.041v.438l16.386 9.951a1.078 1.078 0 0 1 .519.918l.015 5.556a1.078 1.078 0 0 1 -1.655.914l-23.008-14.563a1.079 1.079 0 0 1 -.501-.908z" fill="white"/><path d="m67.812 98.412 17.1-53.576a1.077 1.077 0 0 1 1.024-.75l4.422-.012a1.078 1.078 0 0 1 1.03 1.405l-17.1 53.577a1.08 1.08 0 0 1 -1.024.75l-4.422.012a1.078 1.078 0 0 1 -1.03-1.406z" fill="white"/><path d="m94.969 83.04a1.08 1.08 0 0 1 .514-.922l16.331-10.04v-.438l-16.386-9.953a1.078 1.078 0 0 1 -.519-.918l-.015-5.556a1.078 1.078 0 0 1 1.654-.914l23.008 14.565a1.076 1.076 0 0 1 .5.908l.011 4.069a1.076 1.076 0 0 1 -.494.908l-22.928 14.8a1.078 1.078 0 0 1 -1.662-.9z" fill="white"/></svg>