<svg viewBox="0 0 1551.274 255.443" xmlns="http://www.w3.org/2000/svg" aria-labelledby="vclogotitle" role="img"><title id="vclogotitle">Virtual Coffee</title><path d="m52.684 255.748c-15.137 0-24.846-10.28-24.846-25.7v-63.97c0-15.959-10.869-24.76-25.967-25.381a1.784 1.784 0 0 1 -1.735-1.768v-23.094a1.784 1.784 0 0 1 1.735-1.768c15.1-.621 25.967-9.411 25.967-25.095v-63.972c0-15.42 9.709-25.7 24.846-25.7h25.069a1.773 1.773 0 0 1 1.773 1.773v19.587a1.773 1.773 0 0 1 -1.773 1.773h-20.153a1.773 1.773 0 0 0 -1.773 1.774v65.337c0 17.468-11.575 32.513-26.887 36.248a1.783 1.783 0 0 0 -1.386 1.723v.02a1.784 1.784 0 0 0 1.386 1.723c15.312 3.735 26.887 18.78 26.887 36.249v65.337a1.773 1.773 0 0 0 1.773 1.773h20.153a1.773 1.773 0 0 1 1.773 1.773v19.584a1.773 1.773 0 0 1 -1.773 1.774z" fill="#2a2a2a"/><path d="m231.582-.7c15.135 0 25.418 10.283 25.418 25.7v63.972c0 15.684 10.87 24.474 25.967 25.1a1.783 1.783 0 0 1 1.734 1.768v23.094a1.783 1.783 0 0 1 -1.734 1.768c-15.1.621-25.967 9.422-25.967 25.381v63.968c0 15.422-10.28 25.7-25.415 25.7h-25.074a1.774 1.774 0 0 1 -1.774-1.774v-19.587a1.773 1.773 0 0 1 1.774-1.773h20.727a1.773 1.773 0 0 0 1.773-1.773v-65.337c0-17.481 11.054-32.536 26.874-36.257a1.782 1.782 0 0 0 1.4-1.725 1.782 1.782 0 0 0 -1.4-1.725c-15.82-3.722-26.874-18.776-26.874-36.256v-65.337a1.773 1.773 0 0 0 -1.773-1.774h-20.727a1.773 1.773 0 0 1 -1.774-1.773v-19.585a1.773 1.773 0 0 1 1.774-1.775z" fill="#2a2a2a"/><path d="m339.111 35.972v185.44a1.773 1.773 0 0 1 -1.774 1.773h-52.461a1.773 1.773 0 0 1 -1.773-1.773v-15.812a1.773 1.773 0 0 1 1.773-1.773h27.839a1.773 1.773 0 0 0 1.773-1.773v-146.72a1.773 1.773 0 0 0 -1.773-1.773h-27.839a1.773 1.773 0 0 1 -1.773-1.774v-15.815a1.773 1.773 0 0 1 1.773-1.773h52.461a1.773 1.773 0 0 1 1.774 1.773z" fill="#2a2a2a"/><g fill="#d9386e"><path d="m71.7 130.977-.02-7.336a1.915 1.915 0 0 1 .882-1.618l40.736-26.1a1.914 1.914 0 0 1 2.947 1.607l.027 9.871a1.914 1.914 0 0 1 -.912 1.636l-29.014 17.84v.777l29.11 17.681a1.918 1.918 0 0 1 .921 1.632l.027 9.87a1.914 1.914 0 0 1 -2.939 1.623l-40.877-25.87a1.917 1.917 0 0 1 -.888-1.613z"/><path d="m120.611 174.14 30.375-95.184a1.914 1.914 0 0 1 1.819-1.332l7.857-.021a1.914 1.914 0 0 1 1.829 2.5l-30.376 95.184a1.913 1.913 0 0 1 -1.819 1.332l-7.856.022a1.915 1.915 0 0 1 -1.829-2.501z"/><path d="m168.858 146.829a1.915 1.915 0 0 1 .912-1.637l29.014-17.838v-.777l-29.111-17.683a1.914 1.914 0 0 1 -.92-1.631l-.027-9.871a1.915 1.915 0 0 1 2.939-1.623l40.875 25.876a1.915 1.915 0 0 1 .891 1.612l.019 7.23a1.914 1.914 0 0 1 -.876 1.614l-40.734 26.3a1.914 1.914 0 0 1 -2.953-1.6z"/><path d="m511.7 71v-4.154c0-7.927 4.9-13.775 16.225-13.775s16.227 5.848 16.227 13.775v4.154c0 7.927-4.9 13.775-16.227 13.775s-16.225-5.853-16.225-13.775zm5.1 24.341h22.263a2.831 2.831 0 0 1 2.831 2.832v93.394a2.831 2.831 0 0 1 -2.831 2.832h-22.27a2.832 2.832 0 0 1 -2.832-2.832v-93.399a2.832 2.832 0 0 1 2.832-2.832z"/><path d="m567.92 191.562v-93.394a2.832 2.832 0 0 1 2.832-2.832h22.263a2.832 2.832 0 0 1 2.831 2.832v18.677h.943c2.263-10.943 9.811-21.509 25.282-21.509h4.908v26.038h-6.979c-16.228 0-24.152 3.585-24.152 15.094v55.094a2.832 2.832 0 0 1 -2.831 2.832h-22.265a2.832 2.832 0 0 1 -2.832-2.832z"/><path d="m679.613 194.394c-19.247 0-29.434-10-29.434-28.872v-45.656a2.831 2.831 0 0 0 -2.831-2.831h-8.3a2.832 2.832 0 0 1 -2.832-2.832v-18.867h6.984c7.545 0 9.811-3.775 9.811-10.566v-13.4a2.831 2.831 0 0 1 2.831-2.832h19.431a2.832 2.832 0 0 1 2.832 2.832v21.13a2.832 2.832 0 0 0 2.832 2.832h13.959a2.832 2.832 0 0 1 2.832 2.832v16.036a2.832 2.832 0 0 1 -2.832 2.832h-13.961a2.832 2.832 0 0 0 -2.832 2.831v49.995a2.832 2.832 0 0 0 2.832 2.832h12.45a2.831 2.831 0 0 1 2.832 2.831v16.038a2.832 2.832 0 0 1 -2.832 2.832z"/><path d="m775.649 177.787h-.943c-3.4 10-11.509 18.872-27.737 18.872-20.189 0-30.945-14.151-30.945-39.061v-59.43a2.832 2.832 0 0 1 2.832-2.832h22.263a2.832 2.832 0 0 1 2.832 2.832v56.98c0 12.076 3.962 18.867 14.151 18.867 8.678 0 17.547-4.9 17.547-14.341v-61.506a2.832 2.832 0 0 1 2.832-2.832h22.26a2.832 2.832 0 0 1 2.832 2.832v93.394a2.832 2.832 0 0 1 -2.832 2.832h-22.26a2.832 2.832 0 0 1 -2.832-2.832z"/><path d="m902.813 194.394c-10 0-17.17-6.791-18.869-17.36h-1.133c-3.019 12.829-13.962 19.625-29.057 19.625-19.81 0-30.755-11.7-30.755-28.871 0-20.943 16.227-30.943 42.454-30.943h15.661v-6.225c0-9.623-4.718-15.661-16.417-15.661-9.646 0-15.324 4.25-19.491 9.313a2.9 2.9 0 0 1 -4.166.314l-12.34-10.941a2.841 2.841 0 0 1 -.428-3.8c7.851-10.452 19.022-16.771 38.5-16.771 27.926 0 42.265 12.831 42.265 36.227v38.771a4.623 4.623 0 0 0 4.623 4.624 4.623 4.623 0 0 1 4.623 4.623v14.246a2.831 2.831 0 0 1 -2.831 2.832zm-21.7-30v-8.869a2.832 2.832 0 0 0 -2.831-2.832h-10.753c-10.756 0-16.417 3.962-16.417 11.133v2.829c0 7.17 4.718 10.569 13.021 10.569 9.244 0 16.981-3.773 16.981-12.83z"/><path d="m964.686 194.394c-19.057 0-27.734-9.626-27.734-27.17v-109.624a2.832 2.832 0 0 1 2.832-2.832h22.26a2.832 2.832 0 0 1 2.832 2.832v112.261a2.831 2.831 0 0 0 2.831 2.832h6.793a2.831 2.831 0 0 1 2.832 2.831v16.038a2.832 2.832 0 0 1 -2.832 2.832z"/><path d="m990.534 129.487c0-44.528 22.829-69.058 58.3-69.058 23.172 0 38.351 9.033 48.046 28.431a2.865 2.865 0 0 1 -1.255 3.788l-19.386 10.06a2.8 2.8 0 0 1 -3.894-1.389c-3.7-9.332-10.643-15.417-23.511-15.417-16.8 0-27.929 11.32-27.929 32.076v21.132c0 20.753 11.132 32.076 27.929 32.076 12.892 0 20.773-7.36 25.069-16.8a2.8 2.8 0 0 1 3.955-1.2l18.244 10.6a2.873 2.873 0 0 1 1.105 3.8c-9.873 18.5-25.221 29.075-48.373 29.075-35.471-.002-58.3-22.646-58.3-67.174z"/><path d="m1110.712 144.769c0-31.886 17.36-51.7 46.416-51.7s46.417 19.812 46.417 51.7-17.36 51.89-46.417 51.89-46.416-20.004-46.416-51.89zm63.776 10.189v-20.189c0-12.452-6.417-19.62-17.36-19.62s-17.36 7.168-17.36 19.62v20.189c0 12.455 6.417 19.621 17.36 19.621s17.36-7.166 17.36-19.621z"/><path d="m1224.291 117.035h-8.3a2.831 2.831 0 0 1 -2.831-2.832v-16.035a2.831 2.831 0 0 1 2.831-2.832h8.3a2.831 2.831 0 0 0 2.831-2.832v-8.867c0-19.057 10.38-28.867 29.626-28.867h15.282a2.831 2.831 0 0 1 2.831 2.832v16.033a2.83 2.83 0 0 1 -2.831 2.831h-14.152a2.832 2.832 0 0 0 -2.832 2.832v13.202a2.832 2.832 0 0 0 2.832 2.832h14.152a2.831 2.831 0 0 1 2.831 2.832v16.036a2.831 2.831 0 0 1 -2.831 2.832h-14.152a2.832 2.832 0 0 0 -2.832 2.831v71.7a2.832 2.832 0 0 1 -2.831 2.832h-22.261a2.832 2.832 0 0 1 -2.832-2.832v-71.7a2.831 2.831 0 0 0 -2.831-2.828z"/><path d="m1293.157 117.035h-8.3a2.832 2.832 0 0 1 -2.832-2.832v-16.035a2.832 2.832 0 0 1 2.832-2.832h8.3a2.832 2.832 0 0 0 2.832-2.832v-8.867c0-19.057 10.379-28.867 29.625-28.867h15.286a2.832 2.832 0 0 1 2.832 2.832v16.033a2.831 2.831 0 0 1 -2.832 2.831h-14.152a2.831 2.831 0 0 0 -2.831 2.832v13.202a2.831 2.831 0 0 0 2.831 2.832h14.152a2.832 2.832 0 0 1 2.832 2.832v16.036a2.832 2.832 0 0 1 -2.832 2.832h-14.152a2.831 2.831 0 0 0 -2.831 2.831v71.7a2.832 2.832 0 0 1 -2.832 2.832h-22.265a2.832 2.832 0 0 1 -2.831-2.832v-71.7a2.832 2.832 0 0 0 -2.832-2.828z"/><path d="m1352.206 144.769c0-31.32 16.606-51.7 46.416-51.7 32.834 0 46.037 23.774 46.037 50.565v5.472a2.83 2.83 0 0 1 -2.831 2.831h-60.751v1.507c0 13.024 6.981 21.322 21.886 21.322 10.311 0 16.519-4.249 22.111-9.652a2.845 2.845 0 0 1 4.208.225l10.435 12.975a2.83 2.83 0 0 1 -.128 3.738c-8.968 9.111-22.82 14.6-39.834 14.6-30.379.007-47.549-20.182-47.549-51.883zm28.871-10.753v1.509h34.716v-1.7c0-12.076-5.474-20.189-16.6-20.189s-18.116 8.114-18.116 20.38z"/><path d="m1458.242 144.769c0-31.32 16.607-51.7 46.417-51.7 32.833 0 46.037 23.774 46.037 50.565v5.472a2.831 2.831 0 0 1 -2.832 2.831h-60.75v1.507c0 13.024 6.981 21.322 21.886 21.322 10.31 0 16.519-4.249 22.111-9.652a2.844 2.844 0 0 1 4.207.225l10.435 12.975a2.828 2.828 0 0 1 -.128 3.738c-8.967 9.111-22.82 14.6-39.834 14.6-30.379.007-47.549-20.182-47.549-51.883zm28.872-10.753v1.509h34.715v-1.7c0-12.076-5.474-20.189-16.6-20.189s-18.115 8.114-18.115 20.38z"/><path d="m433.215 191.522-38.97-120.893a5.008 5.008 0 0 1 4.766-6.544h18.319a5.007 5.007 0 0 1 4.782 3.523l18.37 59.174c.027.088.052.176.074.265l10.282 40.94h.562l9.9-40.919c.025-.1.054-.2.085-.306l18.363-59.154a5.009 5.009 0 0 1 4.783-3.523h17.369a5.008 5.008 0 0 1 4.762 6.556l-39.32 120.893a5.006 5.006 0 0 1 -4.761 3.459h-24.6a5.008 5.008 0 0 1 -4.766-3.471z"/></g></svg>