<svg viewBox="0 0 1077.51 226.88" xmlns="http://www.w3.org/2000/svg"><path d="m342.932 48.922 20.18 63.434h.774l20.221-63.434h19.568l-28.781 83.492h-22.749l-28.822-83.492z" fill="#d9386e"/><path d="m422.142 61.723a9.436 9.436 0 0 1 -6.645-2.568 8.335 8.335 0 0 1 0-12.414 9.826 9.826 0 0 1 13.27-.021 8.376 8.376 0 0 1 0 12.414 9.321 9.321 0 0 1 -6.625 2.589zm-8.765 70.691v-62.614h17.367v62.619z" fill="#d9386e"/><path d="m444.6 132.414v-62.614h16.84v10.92h.652a16.268 16.268 0 0 1 5.749-8.826 15.18 15.18 0 0 1 9.3-3 26.456 26.456 0 0 1 2.812.163 20.127 20.127 0 0 1 2.651.448v15.41a22.933 22.933 0 0 0 -3.384-.652 30.639 30.639 0 0 0 -3.955-.285 13.917 13.917 0 0 0 -6.828 1.651 12.268 12.268 0 0 0 -4.73 4.586 13.064 13.064 0 0 0 -1.732 6.768v35.427z" fill="#d9386e"/><path d="m527.971 69.8v13.04h-37.71v-13.04zm-29.149-15h17.366v58.378a7.791 7.791 0 0 0 .735 3.731 4.008 4.008 0 0 0 2.058 1.854 8.239 8.239 0 0 0 3.079.531 13.481 13.481 0 0 0 2.445-.225c.815-.148 1.44-.265 1.876-.347l2.731 12.924q-1.3.408-3.669.958a30.705 30.705 0 0 1 -5.749.673 26.239 26.239 0 0 1 -10.986-1.672 15.343 15.343 0 0 1 -7.317-5.952 18.185 18.185 0 0 1 -2.569-10.191z" fill="#d9386e"/><path d="m579.418 105.751v-35.951h17.367v62.619h-16.674v-11.379h-.652a18.528 18.528 0 0 1 -7.032 8.846 20.765 20.765 0 0 1 -11.965 3.343 21.109 21.109 0 0 1 -11.049-2.853 19.481 19.481 0 0 1 -7.439-8.114 27.858 27.858 0 0 1 -2.711-12.6v-39.862h17.366v36.772q.04 5.544 2.976 8.766a10.129 10.129 0 0 0 7.869 3.219 12.34 12.34 0 0 0 5.87-1.447 11.194 11.194 0 0 0 4.424-4.3 13.363 13.363 0 0 0 1.65-7.059z" fill="#d9386e"/><path d="m628.5 133.6a25.887 25.887 0 0 1 -10.681-2.1 16.883 16.883 0 0 1 -7.4-6.238 18.471 18.471 0 0 1 -2.711-10.335 18.256 18.256 0 0 1 1.916-8.764 15.5 15.5 0 0 1 5.219-5.708 25.26 25.26 0 0 1 7.521-3.261 56.751 56.751 0 0 1 8.866-1.55q5.463-.57 8.806-1.08a12.316 12.316 0 0 0 4.852-1.528 3.406 3.406 0 0 0 1.508-3.018v-.244a7.539 7.539 0 0 0 -2.425-5.993q-2.427-2.118-6.869-2.119a12.242 12.242 0 0 0 -7.461 2.058 9.652 9.652 0 0 0 -3.669 5.158l-16.061-1.308a21.976 21.976 0 0 1 4.811-9.887 23.339 23.339 0 0 1 9.278-6.441 35.517 35.517 0 0 1 13.188-2.262 40.279 40.279 0 0 1 10.005 1.22 26.387 26.387 0 0 1 8.521 3.791 18.556 18.556 0 0 1 5.89 6.584 19.989 19.989 0 0 1 2.162 9.6v42.236h-16.471v-8.681h-.489a17.417 17.417 0 0 1 -4.036 5.157 18.161 18.161 0 0 1 -6.075 3.465 24.724 24.724 0 0 1 -8.195 1.248zm4.974-11.986a14.444 14.444 0 0 0 6.767-1.528 11.849 11.849 0 0 0 4.607-4.138 10.724 10.724 0 0 0 1.672-5.911v-6.646a8.86 8.86 0 0 1 -2.222.958q-1.407.427-3.159.775t-3.507.611q-1.752.267-3.18.469a21.541 21.541 0 0 0 -5.34 1.427 8.629 8.629 0 0 0 -3.547 2.629 6.548 6.548 0 0 0 -1.263 4.1 6.227 6.227 0 0 0 2.588 5.4 11.018 11.018 0 0 0 6.585 1.85z" fill="#d9386e"/><path d="m694.624 48.922v83.492h-17.366v-83.492z" fill="#d9386e"/><path d="m782.477 78.152h-17.856a17.678 17.678 0 0 0 -2-6.176 15.747 15.747 0 0 0 -3.873-4.627 17.087 17.087 0 0 0 -5.442-2.935 21.1 21.1 0 0 0 -6.665-1.02 19.914 19.914 0 0 0 -11.293 3.2 20.729 20.729 0 0 0 -7.46 9.3 36.951 36.951 0 0 0 -2.651 14.778 37.28 37.28 0 0 0 2.671 15 19.314 19.314 0 0 0 18.611 12.271 22.186 22.186 0 0 0 6.581-.943 17.05 17.05 0 0 0 5.4-2.752 15.713 15.713 0 0 0 3.933-4.422 17.593 17.593 0 0 0 2.182-5.953l17.856.082a32.359 32.359 0 0 1 -3.445 11.068 33.442 33.442 0 0 1 -7.379 9.5 34.519 34.519 0 0 1 -11.007 6.6 40.319 40.319 0 0 1 -14.412 2.426 39.275 39.275 0 0 1 -19.955-5.055 35.716 35.716 0 0 1 -13.861-14.635q-5.076-9.58-5.075-23.2 0-13.657 5.136-23.238a35.946 35.946 0 0 1 13.943-14.615 39.2 39.2 0 0 1 19.812-5.034 43.01 43.01 0 0 1 13.474 2.038 34.39 34.39 0 0 1 11.028 5.932 31.118 31.118 0 0 1 7.848 9.519 35.677 35.677 0 0 1 3.899 12.891z" fill="#d9386e"/><path d="m823.12 133.636a31.837 31.837 0 0 1 -16.408-4.055 27.413 27.413 0 0 1 -10.661-11.334 36.379 36.379 0 0 1 -3.75-16.9 36.562 36.562 0 0 1 3.75-16.979 27.407 27.407 0 0 1 10.661-11.334 35.218 35.218 0 0 1 32.817 0 27.419 27.419 0 0 1 10.661 11.336 36.574 36.574 0 0 1 3.75 16.979 36.391 36.391 0 0 1 -3.75 16.9 27.425 27.425 0 0 1 -10.661 11.334 31.84 31.84 0 0 1 -16.409 4.053zm.082-13.453a10.739 10.739 0 0 0 7.216-2.466 15.163 15.163 0 0 0 4.382-6.747 32.644 32.644 0 0 0 0-19.487 15.32 15.32 0 0 0 -4.382-6.768 10.691 10.691 0 0 0 -7.216-2.486 10.983 10.983 0 0 0 -7.318 2.486 15.081 15.081 0 0 0 -4.444 6.768 32.644 32.644 0 0 0 0 19.487 14.928 14.928 0 0 0 4.444 6.747 11.032 11.032 0 0 0 7.316 2.466z" fill="#d9386e"/><path d="m898.947 69.8v13.04h-38.647v-13.04zm-29.8 62.619v-67.149a21.778 21.778 0 0 1 2.67-11.293 16.906 16.906 0 0 1 7.318-6.726 24 24 0 0 1 10.558-2.243 40.517 40.517 0 0 1 7.319.612q3.322.612 4.953 1.1l-3.1 13.046a21.919 21.919 0 0 0 -2.507-.611 16.024 16.024 0 0 0 -3.037-.285q-3.831 0-5.341 1.773a7.417 7.417 0 0 0 -1.507 4.953v66.818z" fill="#d9386e"/><path d="m943.221 69.8v13.04h-38.648v-13.04zm-29.8 62.619v-67.149a21.778 21.778 0 0 1 2.67-11.293 16.9 16.9 0 0 1 7.317-6.726 24 24 0 0 1 10.559-2.243 40.506 40.506 0 0 1 7.318.612q3.323.612 4.953 1.1l-3.1 13.046a22.024 22.024 0 0 0 -2.507-.611 16.031 16.031 0 0 0 -3.037-.285q-3.833 0-5.341 1.773a7.411 7.411 0 0 0 -1.508 4.953v66.818z" fill="#d9386e"/><path d="m980.156 133.636a33.2 33.2 0 0 1 -16.613-3.933 26.609 26.609 0 0 1 -10.7-11.17 36.791 36.791 0 0 1 -3.75-17.144 36.6 36.6 0 0 1 3.75-16.959 27.681 27.681 0 0 1 10.579-11.374 30.709 30.709 0 0 1 16.042-4.076 33.152 33.152 0 0 1 11.558 1.977 26.056 26.056 0 0 1 9.376 5.931 27.047 27.047 0 0 1 6.258 9.927 39.675 39.675 0 0 1 2.242 13.963v4.77h-52.877v-10.762h36.529a13.321 13.321 0 0 0 -1.631-6.646 11.88 11.88 0 0 0 -4.5-4.546 13.151 13.151 0 0 0 -6.666-1.65 13.37 13.37 0 0 0 -6.991 1.813 13 13 0 0 0 -4.749 4.852 13.8 13.8 0 0 0 -1.753 6.747v10.232a17.407 17.407 0 0 0 1.732 8.032 12.4 12.4 0 0 0 4.912 5.218 14.84 14.84 0 0 0 7.542 1.834 16.41 16.41 0 0 0 5.3-.815 10.982 10.982 0 0 0 4.117-2.445 10.629 10.629 0 0 0 2.61-4l16.062 1.06a21.892 21.892 0 0 1 -4.994 10.09 25.09 25.09 0 0 1 -9.7 6.685 36.47 36.47 0 0 1 -13.685 2.389z" fill="#d9386e"/><path d="m1048.769 133.636a33.2 33.2 0 0 1 -16.614-3.933 26.609 26.609 0 0 1 -10.7-11.17 36.791 36.791 0 0 1 -3.75-17.144 36.6 36.6 0 0 1 3.75-16.959 27.681 27.681 0 0 1 10.579-11.374 30.711 30.711 0 0 1 16.042-4.076 33.148 33.148 0 0 1 11.558 1.977 26.069 26.069 0 0 1 9.377 5.931 27.06 27.06 0 0 1 6.258 9.927 39.675 39.675 0 0 1 2.242 13.963v4.77h-52.876v-10.762h36.528a13.321 13.321 0 0 0 -1.631-6.646 11.88 11.88 0 0 0 -4.5-4.546 13.149 13.149 0 0 0 -6.666-1.65 13.375 13.375 0 0 0 -6.991 1.813 13.01 13.01 0 0 0 -4.749 4.852 13.822 13.822 0 0 0 -1.753 6.747v10.232a17.394 17.394 0 0 0 1.733 8.032 12.392 12.392 0 0 0 4.912 5.218 14.837 14.837 0 0 0 7.542 1.834 16.418 16.418 0 0 0 5.3-.815 11 11 0 0 0 4.117-2.445 10.639 10.639 0 0 0 2.609-4l16.063 1.06a21.9 21.9 0 0 1 -5 10.09 25.082 25.082 0 0 1 -9.7 6.685 36.465 36.465 0 0 1 -13.68 2.389z" fill="#d9386e"/><path d="m47.911 226.88c-13.391 0-21.981-9.095-21.981-22.738v-56.594c0-14.118-9.615-21.9-22.973-22.455a1.577 1.577 0 0 1 -1.535-1.564v-20.429a1.577 1.577 0 0 1 1.535-1.564c13.358-.55 22.973-8.326 22.973-22.2v-56.598c0-13.638 8.59-22.738 21.981-22.738h22.18a1.569 1.569 0 0 1 1.569 1.569v17.331a1.57 1.57 0 0 1 -1.569 1.569h-17.833a1.569 1.569 0 0 0 -1.569 1.568v57.8c0 15.454-10.24 28.764-23.786 32.069a1.577 1.577 0 0 0 -1.226 1.524v.018a1.576 1.576 0 0 0 1.226 1.524c13.546 3.305 23.786 16.616 23.786 32.07v57.8a1.569 1.569 0 0 0 1.569 1.569h17.833a1.569 1.569 0 0 1 1.569 1.569v17.326a1.57 1.57 0 0 1 -1.569 1.569z" fill="#2a2a2a"/><path d="m206.184 0c13.391 0 22.485 9.1 22.485 22.738v56.594c0 13.876 9.617 21.652 22.974 22.2a1.577 1.577 0 0 1 1.534 1.564v20.431a1.577 1.577 0 0 1 -1.534 1.564c-13.357.55-22.974 8.337-22.974 22.455v56.594c0 13.643-9.094 22.738-22.485 22.738h-22.184a1.569 1.569 0 0 1 -1.569-1.569v-17.324a1.568 1.568 0 0 1 1.569-1.569h18.337a1.568 1.568 0 0 0 1.569-1.569v-57.8c0-15.465 9.78-28.784 23.775-32.077a1.577 1.577 0 0 0 1.238-1.526 1.578 1.578 0 0 0 -1.237-1.526c-14-3.293-23.776-16.611-23.776-32.076v-57.8a1.568 1.568 0 0 0 -1.569-1.568h-18.337a1.569 1.569 0 0 1 -1.569-1.569v-17.336a1.568 1.568 0 0 1 1.569-1.569z" fill="#2a2a2a"/><path d="m301.316 32.442v164.058a1.568 1.568 0 0 1 -1.569 1.568h-46.412a1.568 1.568 0 0 1 -1.569-1.568v-13.989a1.568 1.568 0 0 1 1.569-1.569h24.629a1.57 1.57 0 0 0 1.569-1.569v-129.801a1.57 1.57 0 0 0 -1.569-1.572h-24.629a1.568 1.568 0 0 1 -1.569-1.569v-13.989a1.568 1.568 0 0 1 1.569-1.568h46.412a1.568 1.568 0 0 1 1.569 1.568z" fill="#2a2a2a"/><path d="m64.733 116.494-.018-6.494a1.7 1.7 0 0 1 .78-1.431l36.04-23.088a1.694 1.694 0 0 1 2.607 1.422l.024 8.733a1.692 1.692 0 0 1 -.807 1.447l-25.669 15.787v.688l25.756 15.642a1.7 1.7 0 0 1 .815 1.443l.023 8.733a1.694 1.694 0 0 1 -2.6 1.436l-36.163-22.891a1.694 1.694 0 0 1 -.788-1.427z" fill="#d9386e"/><path d="m108.007 154.681 26.874-84.21a1.692 1.692 0 0 1 1.609-1.179l6.951-.019a1.694 1.694 0 0 1 1.618 2.209l-26.873 84.21a1.694 1.694 0 0 1 -1.61 1.179l-6.95.019a1.694 1.694 0 0 1 -1.619-2.209z" fill="#d9386e"/><path d="m150.692 130.518a1.692 1.692 0 0 1 .807-1.447l25.669-15.782v-.688l-25.756-15.644a1.693 1.693 0 0 1 -.815-1.443l-.023-8.732a1.694 1.694 0 0 1 2.6-1.436l36.162 22.892a1.692 1.692 0 0 1 .788 1.427l.018 6.4a1.7 1.7 0 0 1 -.776 1.427l-36.037 23.268a1.694 1.694 0 0 1 -2.613-1.419z" fill="#d9386e"/><g fill="#787878"><path d="m327.018 181.59h-2.118l8.028-22.068h2.155l8.028 22.068h-2.111l-6.918-19.45h-.15zm1.519-8.459h10.948v1.811h-10.948z"/><path d="m348.418 171.246v10.344h-1.918v-16.551h1.864v2.6h.173a4.657 4.657 0 0 1 1.816-2.042 5.674 5.674 0 0 1 3.054-.77 6.009 6.009 0 0 1 2.937.695 4.818 4.818 0 0 1 1.971 2.042 7.061 7.061 0 0 1 .706 3.309v10.717h-1.921v-10.6a4.46 4.46 0 0 0 -1.137-3.222 4.021 4.021 0 0 0 -3.044-1.185 4.7 4.7 0 0 0 -2.317.56 4.059 4.059 0 0 0 -1.6 1.611 5.041 5.041 0 0 0 -.584 2.492z"/><path d="m373.633 162.194a1.429 1.429 0 0 1 -1.019-.4 1.33 1.33 0 0 1 0-1.951 1.472 1.472 0 0 1 2.026 0 1.33 1.33 0 0 1 0 1.951 1.415 1.415 0 0 1 -1.007.4zm-.992 19.4v-16.555h1.929v16.551z"/><path d="m381.574 171.246v10.344h-1.918v-16.551h1.865v2.6h.172a4.663 4.663 0 0 1 1.816-2.042 5.674 5.674 0 0 1 3.054-.77 6.009 6.009 0 0 1 2.937.695 4.826 4.826 0 0 1 1.972 2.042 7.074 7.074 0 0 1 .706 3.309v10.717h-1.919v-10.6a4.463 4.463 0 0 0 -1.136-3.222 4.023 4.023 0 0 0 -3.044-1.185 4.7 4.7 0 0 0 -2.317.56 4.046 4.046 0 0 0 -1.6 1.611 5.031 5.031 0 0 0 -.588 2.492z"/><path d="m403.762 165.039v1.67h-7.9v-1.67zm-5.431-3.965h1.928v16.195a3.13 3.13 0 0 0 .356 1.622 1.971 1.971 0 0 0 .927.829 3.072 3.072 0 0 0 1.217.243 3.75 3.75 0 0 0 .647-.048c.179-.033.338-.067.474-.1l.41 1.735a5.1 5.1 0 0 1 -.69.2 4.81 4.81 0 0 1 -1.013.091 4.69 4.69 0 0 1 -2.031-.463 3.837 3.837 0 0 1 -2.225-3.654z"/><path d="m409.128 162.194a1.429 1.429 0 0 1 -1.019-.4 1.332 1.332 0 0 1 0-1.951 1.472 1.472 0 0 1 2.026 0 1.33 1.33 0 0 1 0 1.951 1.413 1.413 0 0 1 -1.007.4zm-.992 19.4v-16.555h1.929v16.551z"/><path d="m415.151 181.59v-16.551h1.864v2.543h.173a4.077 4.077 0 0 1 1.654-2.021 5.081 5.081 0 0 1 2.785-.738 4.676 4.676 0 0 1 2.818.8 4.837 4.837 0 0 1 1.654 2.2h.14a4.613 4.613 0 0 1 1.826-2.193 5.571 5.571 0 0 1 3.077-.814 4.708 4.708 0 0 1 3.642 1.45 6.028 6.028 0 0 1 1.336 4.229v11.095h-1.92v-11.09a3.945 3.945 0 0 0 -1-2.942 3.615 3.615 0 0 0 -2.64-.98 3.677 3.677 0 0 0 -2.92 1.164 4.305 4.305 0 0 0 -1.024 2.952v10.896h-1.961v-11.26a3.894 3.894 0 0 0 -.937-2.716 3.381 3.381 0 0 0 -2.64-1.034 3.833 3.833 0 0 0 -2.053.56 3.915 3.915 0 0 0 -1.433 1.557 4.854 4.854 0 0 0 -.523 2.29v10.6z"/><path d="m445.807 181.967a6.318 6.318 0 0 1 -2.737-.587 4.725 4.725 0 0 1 -1.971-1.7 4.82 4.82 0 0 1 -.733-2.71 4.237 4.237 0 0 1 .463-2.069 3.771 3.771 0 0 1 1.315-1.379 7.262 7.262 0 0 1 2.015-.851 18.669 18.669 0 0 1 2.564-.485q1.39-.172 2.355-.3a4.3 4.3 0 0 0 1.471-.409.958.958 0 0 0 .506-.905v-.389a3.537 3.537 0 0 0 -1.008-2.666 3.993 3.993 0 0 0 -2.893-.975 4.982 4.982 0 0 0 -2.914.786 4.338 4.338 0 0 0 -1.579 1.853l-1.821-.657a5.4 5.4 0 0 1 1.552-2.171 6.237 6.237 0 0 1 2.219-1.175 8.813 8.813 0 0 1 2.49-.361 8.459 8.459 0 0 1 1.977.248 5.706 5.706 0 0 1 1.912.857 4.445 4.445 0 0 1 1.434 1.692 6.045 6.045 0 0 1 .549 2.742v11.234h-1.918v-2.619h-.118a5.223 5.223 0 0 1 -1.024 1.423 5.308 5.308 0 0 1 -1.7 1.132 6.035 6.035 0 0 1 -2.406.441zm.259-1.757a5.014 5.014 0 0 0 2.651-.678 4.674 4.674 0 0 0 1.729-1.805 5.138 5.138 0 0 0 .609-2.483v-2.393a1.892 1.892 0 0 1 -.717.366 9.689 9.689 0 0 1 -1.152.286c-.435.082-.868.153-1.3.21s-.819.108-1.164.151a10.774 10.774 0 0 0 -2.392.539 3.465 3.465 0 0 0 -1.519 1.008 2.488 2.488 0 0 0 -.528 1.642 2.765 2.765 0 0 0 1.077 2.333 4.321 4.321 0 0 0 2.706.824z"/><path d="m464.589 165.039v1.67h-7.9v-1.67zm-5.431-3.965h1.929v16.195a3.13 3.13 0 0 0 .356 1.622 1.969 1.969 0 0 0 .926.829 3.077 3.077 0 0 0 1.218.243 3.738 3.738 0 0 0 .646-.048c.18-.033.338-.067.474-.1l.41 1.735a5.1 5.1 0 0 1 -.69.2 4.81 4.81 0 0 1 -1.013.091 4.69 4.69 0 0 1 -2.031-.463 3.837 3.837 0 0 1 -2.225-3.654z"/><path d="m475.462 181.935a7.275 7.275 0 0 1 -4.009-1.083 7.144 7.144 0 0 1 -2.613-3.007 10.148 10.148 0 0 1 -.921-4.433 10.272 10.272 0 0 1 .921-4.446 7.425 7.425 0 0 1 2.554-3.049 6.581 6.581 0 0 1 3.777-1.1 7.055 7.055 0 0 1 2.6.491 6.46 6.46 0 0 1 2.247 1.5 7.193 7.193 0 0 1 1.578 2.533 10.117 10.117 0 0 1 .582 3.6v.948h-12.934v-1.691h10.97a6.3 6.3 0 0 0 -.642-2.872 5.09 5.09 0 0 0 -1.778-2.021 4.992 4.992 0 0 0 -5.393.1 5.731 5.731 0 0 0 -1.87 2.22 6.878 6.878 0 0 0 -.683 3.016v1.014a8.088 8.088 0 0 0 .683 3.442 5.272 5.272 0 0 0 1.946 2.28 5.953 5.953 0 0 0 5.048.441 4.418 4.418 0 0 0 1.5-.986 4.315 4.315 0 0 0 .922-1.363l1.822.593a5.4 5.4 0 0 1 -1.235 1.929 6.317 6.317 0 0 1 -2.134 1.409 7.57 7.57 0 0 1 -2.938.535z"/><path d="m501.387 181.935a6.734 6.734 0 0 1 -3.863-1.11 7.334 7.334 0 0 1 -2.548-3.038 11.111 11.111 0 0 1 .016-8.826 7.409 7.409 0 0 1 2.559-3.044 6.644 6.644 0 0 1 3.8-1.1 6.9 6.9 0 0 1 3.007.642 5.955 5.955 0 0 1 2.225 1.8 5.764 5.764 0 0 1 1.1 2.7h-1.939a4.3 4.3 0 0 0 -4.364-3.4 4.743 4.743 0 0 0 -2.8.857 5.666 5.666 0 0 0 -1.9 2.381 8.549 8.549 0 0 0 -.685 3.529 8.912 8.912 0 0 0 .668 3.561 5.648 5.648 0 0 0 1.881 2.419 5.06 5.06 0 0 0 4.848.458 4.1 4.1 0 0 0 2.366-3h1.942a5.859 5.859 0 0 1 -3.248 4.5 6.794 6.794 0 0 1 -3.065.671z"/><path d="m518.24 181.935a6.7 6.7 0 0 1 -3.788-1.089 7.323 7.323 0 0 1 -2.569-3.012 10.117 10.117 0 0 1 -.927-4.444 10.244 10.244 0 0 1 .927-4.477 7.29 7.29 0 0 1 2.569-3.018 7.139 7.139 0 0 1 7.57.006 7.38 7.38 0 0 1 2.57 3.017 11.15 11.15 0 0 1 .006 8.916 7.342 7.342 0 0 1 -2.571 3.012 6.7 6.7 0 0 1 -3.787 1.089zm0-1.757a4.617 4.617 0 0 0 2.92-.927 5.758 5.758 0 0 0 1.816-2.467 9.63 9.63 0 0 0 0-6.8 5.84 5.84 0 0 0 -1.816-2.489 5.006 5.006 0 0 0 -5.835 0 5.817 5.817 0 0 0 -1.821 2.489 9.644 9.644 0 0 0 0 6.8 5.756 5.756 0 0 0 1.815 2.467 4.622 4.622 0 0 0 2.921.927z"/><path d="m529.737 181.59v-16.551h1.863v2.543h.172a4.077 4.077 0 0 1 1.654-2.021 5.085 5.085 0 0 1 2.786-.738 4.673 4.673 0 0 1 2.817.8 4.832 4.832 0 0 1 1.655 2.2h.139a4.621 4.621 0 0 1 1.827-2.193 5.567 5.567 0 0 1 3.077-.814 4.706 4.706 0 0 1 3.641 1.45 6.028 6.028 0 0 1 1.337 4.229v11.095h-1.918v-11.09a3.941 3.941 0 0 0 -1-2.942 3.615 3.615 0 0 0 -2.64-.98 3.676 3.676 0 0 0 -2.919 1.164 4.3 4.3 0 0 0 -1.028 2.958v10.89h-1.961v-11.26a3.889 3.889 0 0 0 -.937-2.716 3.379 3.379 0 0 0 -2.64-1.034 3.833 3.833 0 0 0 -2.053.56 3.922 3.922 0 0 0 -1.433 1.557 4.854 4.854 0 0 0 -.523 2.29v10.6z"/><path d="m555.771 181.59v-16.551h1.864v2.543h.173a4.075 4.075 0 0 1 1.653-2.021 5.085 5.085 0 0 1 2.786-.738 4.671 4.671 0 0 1 2.817.8 4.825 4.825 0 0 1 1.655 2.2h.139a4.617 4.617 0 0 1 1.828-2.193 5.563 5.563 0 0 1 3.076-.814 4.7 4.7 0 0 1 3.641 1.45 6.028 6.028 0 0 1 1.337 4.229v11.095h-1.918v-11.09a3.941 3.941 0 0 0 -1-2.942 3.614 3.614 0 0 0 -2.639-.98 3.677 3.677 0 0 0 -2.92 1.164 4.3 4.3 0 0 0 -1.025 2.952v10.896h-1.961v-11.26a3.889 3.889 0 0 0 -.937-2.716 3.379 3.379 0 0 0 -2.64-1.034 3.829 3.829 0 0 0 -2.052.56 3.925 3.925 0 0 0 -1.434 1.557 4.854 4.854 0 0 0 -.523 2.29v10.6z"/><path d="m592.321 175.265v-10.226h1.919v16.551h-1.919v-2.748h-.15a5.063 5.063 0 0 1 -1.843 2.117 5.4 5.4 0 0 1 -3.082.846 5.613 5.613 0 0 1 -2.812-.694 4.856 4.856 0 0 1 -1.929-2.042 7.112 7.112 0 0 1 -.7-3.309v-10.721h1.918v10.6a4.3 4.3 0 0 0 1.142 3.119 3.9 3.9 0 0 0 2.931 1.181 4.607 4.607 0 0 0 2.155-.539 4.45 4.45 0 0 0 1.7-1.579 4.635 4.635 0 0 0 .67-2.556z"/><path d="m601.222 171.246v10.344h-1.922v-16.551h1.864v2.6h.173a4.661 4.661 0 0 1 1.815-2.042 5.68 5.68 0 0 1 3.055-.77 6.008 6.008 0 0 1 2.936.695 4.826 4.826 0 0 1 1.972 2.042 7.061 7.061 0 0 1 .706 3.309v10.717h-1.918v-10.6a4.463 4.463 0 0 0 -1.136-3.222 4.026 4.026 0 0 0 -3.045-1.185 4.7 4.7 0 0 0 -2.317.56 4.044 4.044 0 0 0 -1.6 1.611 5.02 5.02 0 0 0 -.583 2.492z"/><path d="m617.9 162.194a1.426 1.426 0 0 1 -1.017-.4 1.33 1.33 0 0 1 0-1.951 1.413 1.413 0 0 1 1.007-.4 1.429 1.429 0 0 1 1.018.4 1.33 1.33 0 0 1 0 1.951 1.417 1.417 0 0 1 -1.008.4zm-.991 19.4v-16.555h1.929v16.551z"/><path d="m630.445 165.039v1.67h-7.9v-1.67zm-5.43-3.965h1.928v16.195a3.13 3.13 0 0 0 .356 1.622 1.971 1.971 0 0 0 .927.829 3.072 3.072 0 0 0 1.217.243 3.759 3.759 0 0 0 .647-.048c.179-.033.337-.067.473-.1l.41 1.735a5.056 5.056 0 0 1 -.69.2 4.793 4.793 0 0 1 -1.012.091 4.694 4.694 0 0 1 -2.032-.463 3.834 3.834 0 0 1 -2.224-3.654z"/><path d="m636.134 187.8a5.005 5.005 0 0 1 -1.067-.107 4.085 4.085 0 0 1 -.787-.237l.518-1.692a4.411 4.411 0 0 0 1.746.221 2.177 2.177 0 0 0 1.357-.689 5.327 5.327 0 0 0 1.056-1.859l.6-1.682-6.088-16.712h2.079l4.914 14.019h.151l4.913-14.019h2.08l-7 19.17a7.069 7.069 0 0 1 -1.087 2 4.182 4.182 0 0 1 -1.493 1.2 4.434 4.434 0 0 1 -1.892.387z"/><path d="m666.694 165.039v1.67h-8.135v-1.67zm-5.594 16.551v-18.976a3.927 3.927 0 0 1 .619-2.252 3.981 3.981 0 0 1 1.622-1.39 4.9 4.9 0 0 1 2.123-.474 5.367 5.367 0 0 1 1.255.124 6.058 6.058 0 0 1 .792.243l-.56 1.68q-.216-.064-.528-.151a3.045 3.045 0 0 0 -.787-.086 2.567 2.567 0 0 0 -1.929.7 2.77 2.77 0 0 0 -.679 2l-.01 18.577z"/><path d="m676.272 181.935a6.7 6.7 0 0 1 -3.787-1.089 7.34 7.34 0 0 1 -2.57-3.012 10.131 10.131 0 0 1 -.927-4.444 10.258 10.258 0 0 1 .927-4.477 7.307 7.307 0 0 1 2.57-3.018 7.141 7.141 0 0 1 7.571.006 7.385 7.385 0 0 1 2.569 3.017 11.15 11.15 0 0 1 .006 8.916 7.34 7.34 0 0 1 -2.57 3.012 6.7 6.7 0 0 1 -3.789 1.089zm0-1.757a4.618 4.618 0 0 0 2.921-.927 5.758 5.758 0 0 0 1.816-2.467 9.644 9.644 0 0 0 0-6.8 5.84 5.84 0 0 0 -1.816-2.489 5.006 5.006 0 0 0 -5.835 0 5.817 5.817 0 0 0 -1.821 2.489 9.63 9.63 0 0 0 0 6.8 5.758 5.758 0 0 0 1.816 2.467 4.614 4.614 0 0 0 2.919.927z"/><path d="m687.771 181.59v-16.551h1.864v2.543h.139a4.171 4.171 0 0 1 1.73-2.021 5.169 5.169 0 0 1 2.8-.77c.158 0 .334 0 .527.01s.357.015.485.022v1.951c-.085-.015-.237-.036-.452-.065a5.266 5.266 0 0 0 -.7-.043 4.76 4.76 0 0 0 -2.3.544 4.078 4.078 0 0 0 -2.172 3.691v10.689z"/><path d="m711.746 181.967a6.315 6.315 0 0 1 -2.737-.587 4.728 4.728 0 0 1 -1.972-1.7 4.82 4.82 0 0 1 -.733-2.71 4.237 4.237 0 0 1 .464-2.069 3.769 3.769 0 0 1 1.314-1.379 7.262 7.262 0 0 1 2.015-.851 18.655 18.655 0 0 1 2.565-.485q1.39-.172 2.355-.3a4.3 4.3 0 0 0 1.47-.409.958.958 0 0 0 .506-.905v-.389a3.54 3.54 0 0 0 -1.007-2.666 3.994 3.994 0 0 0 -2.893-.975 4.985 4.985 0 0 0 -2.915.786 4.335 4.335 0 0 0 -1.578 1.853l-1.822-.657a5.407 5.407 0 0 1 1.552-2.171 6.242 6.242 0 0 1 2.22-1.175 8.806 8.806 0 0 1 2.489-.361 8.467 8.467 0 0 1 1.978.248 5.714 5.714 0 0 1 1.912.857 4.443 4.443 0 0 1 1.433 1.692 6.032 6.032 0 0 1 .549 2.742v11.234h-1.918v-2.619h-.118a5.2 5.2 0 0 1 -1.023 1.423 5.324 5.324 0 0 1 -1.7 1.132 6.033 6.033 0 0 1 -2.406.441zm.259-1.757a5.013 5.013 0 0 0 2.65-.678 4.684 4.684 0 0 0 1.73-1.805 5.148 5.148 0 0 0 .608-2.483v-2.393a1.878 1.878 0 0 1 -.716.366 9.659 9.659 0 0 1 -1.153.286c-.435.082-.867.153-1.3.21s-.818.108-1.163.151a10.761 10.761 0 0 0 -2.392.539 3.468 3.468 0 0 0 -1.52 1.008 2.493 2.493 0 0 0 -.527 1.642 2.762 2.762 0 0 0 1.077 2.333 4.319 4.319 0 0 0 2.706.824z"/><path d="m725.927 159.522v22.068h-1.918v-22.068z"/><path d="m732.908 159.522v22.068h-1.918v-22.068z"/><path d="m752.466 181.935a6.033 6.033 0 0 1 -3.567-1.078 7.084 7.084 0 0 1 -2.386-3.006 12.154 12.154 0 0 1 0-8.971 7.028 7.028 0 0 1 2.4-3 6.124 6.124 0 0 1 3.588-1.072 5.311 5.311 0 0 1 2.511.534 4.857 4.857 0 0 1 1.605 1.32 7.77 7.77 0 0 1 .938 1.53h.173v-8.674h1.928v22.072h-1.875v-3.071h-.226a7.518 7.518 0 0 1 -.948 1.546 5 5 0 0 1 -1.623 1.331 5.284 5.284 0 0 1 -2.518.539zm.226-1.757a4.324 4.324 0 0 0 2.737-.878 5.472 5.472 0 0 0 1.729-2.424 9.768 9.768 0 0 0 .6-3.551 9.633 9.633 0 0 0 -.593-3.507 5.382 5.382 0 0 0 -1.725-2.393 4.789 4.789 0 0 0 -5.543.033 5.552 5.552 0 0 0 -1.724 2.43 9.516 9.516 0 0 0 -.588 3.437 9.7 9.7 0 0 0 .593 3.481 5.657 5.657 0 0 0 1.729 2.462 4.311 4.311 0 0 0 2.785.91z"/><path d="m771.808 181.935a7.271 7.271 0 0 1 -4.008-1.083 7.144 7.144 0 0 1 -2.613-3.007 10.134 10.134 0 0 1 -.922-4.433 10.258 10.258 0 0 1 .922-4.446 7.416 7.416 0 0 1 2.553-3.049 6.581 6.581 0 0 1 3.777-1.1 7.051 7.051 0 0 1 2.6.491 6.447 6.447 0 0 1 2.246 1.5 7.167 7.167 0 0 1 1.579 2.533 10.1 10.1 0 0 1 .582 3.6v.948h-12.93v-1.691h10.966a6.314 6.314 0 0 0 -.641-2.872 5.105 5.105 0 0 0 -1.778-2.021 4.992 4.992 0 0 0 -5.393.1 5.722 5.722 0 0 0 -1.87 2.22 6.894 6.894 0 0 0 -.685 3.016v1.014a8.088 8.088 0 0 0 .685 3.442 5.27 5.27 0 0 0 1.945 2.28 5.953 5.953 0 0 0 5.048.441 4.422 4.422 0 0 0 1.5-.986 4.331 4.331 0 0 0 .922-1.363l1.82.593a5.4 5.4 0 0 1 -1.233 1.929 6.317 6.317 0 0 1 -2.134 1.417 7.575 7.575 0 0 1 -2.938.527z"/><path d="m795.029 165.039-6.045 16.551h-2.047l-6.045-16.551h2.079l4.914 14.019h.151l4.913-14.019z"/><path d="m809.889 168.67-1.756.5a4.608 4.608 0 0 0 -.734-1.347 3.323 3.323 0 0 0 -1.233-.959 4.425 4.425 0 0 0 -1.88-.356 4.52 4.52 0 0 0 -2.759.8 2.457 2.457 0 0 0 -1.078 2.059 2.212 2.212 0 0 0 .739 1.729 5.369 5.369 0 0 0 2.279 1.051l2.5.614a6.2 6.2 0 0 1 3.119 1.606 3.856 3.856 0 0 1 1.04 2.759 4.185 4.185 0 0 1 -.775 2.488 5.175 5.175 0 0 1 -2.162 1.708 7.775 7.775 0 0 1 -3.2.62 6.84 6.84 0 0 1 -4-1.094 4.936 4.936 0 0 1 -2.014-3.163l1.841-.452a3.715 3.715 0 0 0 1.4 2.231 4.572 4.572 0 0 0 2.743.753 4.962 4.962 0 0 0 3.049-.856 2.59 2.59 0 0 0 1.143-2.149 2.323 2.323 0 0 0 -.668-1.687 4.113 4.113 0 0 0 -2.027-1.008l-2.7-.646a6.2 6.2 0 0 1 -3.189-1.638 3.938 3.938 0 0 1 -1.035-2.78 4.031 4.031 0 0 1 .744-2.408 4.971 4.971 0 0 1 2.047-1.633 7.113 7.113 0 0 1 2.974-.593 5.9 5.9 0 0 1 3.637 1.029 5.72 5.72 0 0 1 1.955 2.822z"/><path d="m817.518 178.573-.194 1.153q-.184 1.163-.517 2.565t-.69 2.661q-.355 1.262-.614 2.026h-1.477q.141-.732.362-1.864t.458-2.506q.236-1.373.43-2.828l.152-1.207z"/><path d="m837.548 181.935a6.7 6.7 0 0 1 -3.787-1.089 7.342 7.342 0 0 1 -2.571-3.012 10.131 10.131 0 0 1 -.926-4.444 10.258 10.258 0 0 1 .926-4.477 7.309 7.309 0 0 1 2.571-3.018 7.139 7.139 0 0 1 7.57.006 7.378 7.378 0 0 1 2.569 3.017 11.15 11.15 0 0 1 .006 8.916 7.333 7.333 0 0 1 -2.57 3.012 6.7 6.7 0 0 1 -3.788 1.089zm0-1.757a4.622 4.622 0 0 0 2.921-.927 5.756 5.756 0 0 0 1.815-2.467 9.644 9.644 0 0 0 0-6.8 5.838 5.838 0 0 0 -1.815-2.489 5.006 5.006 0 0 0 -5.835 0 5.819 5.819 0 0 0 -1.822 2.489 9.63 9.63 0 0 0 0 6.8 5.766 5.766 0 0 0 1.816 2.467 4.617 4.617 0 0 0 2.92.927z"/><path d="m849.014 187.8v-22.761h1.864v3.161h.237a7.657 7.657 0 0 1 .938-1.525 4.963 4.963 0 0 1 1.6-1.32 5.257 5.257 0 0 1 2.517-.539 6.126 6.126 0 0 1 3.588 1.072 7.036 7.036 0 0 1 2.4 3 12.134 12.134 0 0 1 0 8.971 7.133 7.133 0 0 1 -2.392 3.006 6.016 6.016 0 0 1 -3.556 1.078 5.291 5.291 0 0 1 -2.516-.539 5.046 5.046 0 0 1 -1.627-1.331 6.994 6.994 0 0 1 -.943-1.546h-.173v9.273zm1.9-14.471a9.789 9.789 0 0 0 .6 3.551 5.487 5.487 0 0 0 1.729 2.424 4.7 4.7 0 0 0 5.518-.032 5.625 5.625 0 0 0 1.734-2.462 9.677 9.677 0 0 0 .593-3.481 9.516 9.516 0 0 0 -.587-3.437 5.56 5.56 0 0 0 -1.724-2.43 4.808 4.808 0 0 0 -5.555-.033 5.356 5.356 0 0 0 -1.719 2.393 9.7 9.7 0 0 0 -.593 3.503z"/><path d="m873.744 165.039v1.67h-7.9v-1.67zm-5.431-3.965h1.929v16.195a3.12 3.12 0 0 0 .356 1.622 1.974 1.974 0 0 0 .926.829 3.08 3.08 0 0 0 1.218.243 3.759 3.759 0 0 0 .647-.048c.178-.033.337-.067.473-.1l.409 1.735a5.038 5.038 0 0 1 -.689.2 4.8 4.8 0 0 1 -1.013.091 4.69 4.69 0 0 1 -2.031-.463 3.837 3.837 0 0 1 -2.225-3.654z"/><path d="m879.109 162.194a1.426 1.426 0 0 1 -1.017-.4 1.33 1.33 0 0 1 0-1.951 1.413 1.413 0 0 1 1.007-.4 1.429 1.429 0 0 1 1.018.4 1.33 1.33 0 0 1 0 1.951 1.417 1.417 0 0 1 -1.008.4zm-.991 19.4v-16.555h1.929v16.551z"/><path d="m885.133 181.59v-16.551h1.867v2.543h.173a4.08 4.08 0 0 1 1.653-2.021 5.087 5.087 0 0 1 2.786-.738 4.676 4.676 0 0 1 2.818.8 4.83 4.83 0 0 1 1.654 2.2h.14a4.615 4.615 0 0 1 1.827-2.193 5.565 5.565 0 0 1 3.076-.814 4.708 4.708 0 0 1 3.642 1.45 6.033 6.033 0 0 1 1.331 4.234v11.09h-1.918v-11.09a3.941 3.941 0 0 0 -1-2.942 3.615 3.615 0 0 0 -2.64-.98 3.678 3.678 0 0 0 -2.92 1.164 4.3 4.3 0 0 0 -1.022 2.958v10.89h-1.961v-11.26a3.89 3.89 0 0 0 -.938-2.716 3.379 3.379 0 0 0 -2.639-1.034 3.83 3.83 0 0 0 -2.053.56 3.925 3.925 0 0 0 -1.434 1.557 4.866 4.866 0 0 0 -.522 2.29v10.6z"/><path d="m912.18 162.194a1.427 1.427 0 0 1 -1.018-.4 1.33 1.33 0 0 1 0-1.951 1.413 1.413 0 0 1 1.007-.4 1.433 1.433 0 0 1 1.019.4 1.332 1.332 0 0 1 0 1.951 1.421 1.421 0 0 1 -1.008.4zm-.992 19.4v-16.555h1.929v16.551z"/><path d="m917.686 181.59v-1.519l9.569-13.082v-.14h-9.155v-1.81h11.627v1.584l-9.4 13.017v.14h9.741v1.81z"/><path d="m940.509 181.935a7.271 7.271 0 0 1 -4.008-1.083 7.144 7.144 0 0 1 -2.613-3.007 10.134 10.134 0 0 1 -.922-4.433 10.258 10.258 0 0 1 .922-4.446 7.423 7.423 0 0 1 2.553-3.049 6.581 6.581 0 0 1 3.777-1.1 7.051 7.051 0 0 1 2.6.491 6.46 6.46 0 0 1 2.247 1.5 7.181 7.181 0 0 1 1.579 2.533 10.117 10.117 0 0 1 .582 3.6v.948h-12.934v-1.691h10.969a6.314 6.314 0 0 0 -.641-2.872 5.1 5.1 0 0 0 -1.778-2.021 4.992 4.992 0 0 0 -5.393.1 5.722 5.722 0 0 0 -1.87 2.22 6.879 6.879 0 0 0 -.684 3.016v1.014a8.088 8.088 0 0 0 .684 3.442 5.277 5.277 0 0 0 1.945 2.28 5.953 5.953 0 0 0 5.048.441 4.422 4.422 0 0 0 1.5-.986 4.315 4.315 0 0 0 .922-1.363l1.82.593a5.383 5.383 0 0 1 -1.233 1.929 6.317 6.317 0 0 1 -2.134 1.417 7.575 7.575 0 0 1 -2.938.527z"/><path d="m957.394 181.935a6.033 6.033 0 0 1 -3.567-1.078 7.093 7.093 0 0 1 -2.387-3.006 12.167 12.167 0 0 1 0-8.971 7.038 7.038 0 0 1 2.4-3 6.122 6.122 0 0 1 3.588-1.072 5.311 5.311 0 0 1 2.511.534 4.867 4.867 0 0 1 1.605 1.32 7.762 7.762 0 0 1 .937 1.53h.173v-8.674h1.929v22.072h-1.875v-3.071h-.227a7.474 7.474 0 0 1 -.948 1.546 4.983 4.983 0 0 1 -1.622 1.331 5.29 5.29 0 0 1 -2.517.539zm.226-1.757a4.322 4.322 0 0 0 2.736-.878 5.473 5.473 0 0 0 1.73-2.424 9.789 9.789 0 0 0 .6-3.551 9.654 9.654 0 0 0 -.593-3.507 5.39 5.39 0 0 0 -1.725-2.393 4.791 4.791 0 0 0 -5.544.033 5.55 5.55 0 0 0 -1.723 2.43 9.516 9.516 0 0 0 -.588 3.437 9.72 9.72 0 0 0 .592 3.481 5.667 5.667 0 0 0 1.73 2.462 4.311 4.311 0 0 0 2.785.91z"/><path d="m985.389 165.039v1.67h-8.136v-1.67zm-5.589 16.551v-18.976a3.927 3.927 0 0 1 .619-2.252 3.981 3.981 0 0 1 1.622-1.39 4.9 4.9 0 0 1 2.123-.474 5.367 5.367 0 0 1 1.255.124 6.01 6.01 0 0 1 .792.243l-.56 1.68q-.216-.064-.528-.151a3.045 3.045 0 0 0 -.787-.086 2.567 2.567 0 0 0 -1.929.7 2.77 2.77 0 0 0 -.678 2l-.011 18.577z"/><path d="m994.968 181.935a6.7 6.7 0 0 1 -3.787-1.089 7.342 7.342 0 0 1 -2.571-3.012 10.131 10.131 0 0 1 -.926-4.444 10.258 10.258 0 0 1 .926-4.477 7.309 7.309 0 0 1 2.571-3.018 7.139 7.139 0 0 1 7.57.006 7.378 7.378 0 0 1 2.569 3.017 11.15 11.15 0 0 1 .006 8.916 7.333 7.333 0 0 1 -2.57 3.012 6.7 6.7 0 0 1 -3.788 1.089zm0-1.757a4.622 4.622 0 0 0 2.921-.927 5.756 5.756 0 0 0 1.815-2.467 9.644 9.644 0 0 0 0-6.8 5.838 5.838 0 0 0 -1.815-2.489 5.006 5.006 0 0 0 -5.835 0 5.819 5.819 0 0 0 -1.822 2.489 9.63 9.63 0 0 0 0 6.8 5.766 5.766 0 0 0 1.816 2.467 4.617 4.617 0 0 0 2.92.927z"/><path d="m1006.466 181.59v-16.551h1.864v2.543h.14a4.169 4.169 0 0 1 1.729-2.021 5.169 5.169 0 0 1 2.8-.77c.158 0 .334 0 .527.01s.357.015.486.022v1.951c-.086-.015-.238-.036-.452-.065a5.293 5.293 0 0 0 -.7-.043 4.756 4.756 0 0 0 -2.3.544 4.073 4.073 0 0 0 -2.172 3.691v10.689z"/></g><path d="m1027.456 187.8a9.548 9.548 0 0 1 -1.633-.133 6.264 6.264 0 0 1 -1.255-.34l1.035-3.427a5.715 5.715 0 0 0 1.459.27 1.862 1.862 0 0 0 1.132-.3 2.269 2.269 0 0 0 .782-1.1l.269-.7-5.937-17.025h4.827l3.427 12.155h.171l3.459-12.155h4.861l-6.434 18.339a7.793 7.793 0 0 1 -1.255 2.333 5.267 5.267 0 0 1 -2 1.541 7.023 7.023 0 0 1 -2.908.542z" fill="#d9386e"/><path d="m1049.331 181.914a8.415 8.415 0 0 1 -4.338-1.073 7.247 7.247 0 0 1 -2.817-3 10.608 10.608 0 0 1 0-8.954 7.247 7.247 0 0 1 2.817-3 9.311 9.311 0 0 1 8.675 0 7.247 7.247 0 0 1 2.817 3 10.6 10.6 0 0 1 0 8.954 7.247 7.247 0 0 1 -2.817 3 8.414 8.414 0 0 1 -4.337 1.073zm.022-3.557a2.844 2.844 0 0 0 1.907-.651 4.022 4.022 0 0 0 1.158-1.784 8.615 8.615 0 0 0 0-5.151 4.047 4.047 0 0 0 -1.158-1.788 2.823 2.823 0 0 0 -1.907-.657 2.9 2.9 0 0 0 -1.935.657 3.981 3.981 0 0 0 -1.175 1.788 8.657 8.657 0 0 0 0 5.151 3.957 3.957 0 0 0 1.175 1.784 2.918 2.918 0 0 0 1.935.651z" fill="#d9386e"/><path d="m1071.087 174.543v-9.5h4.59v16.547h-4.407v-3.006h-.172a4.9 4.9 0 0 1 -1.86 2.338 5.487 5.487 0 0 1 -3.162.883 5.581 5.581 0 0 1 -2.921-.754 5.147 5.147 0 0 1 -1.966-2.144 7.361 7.361 0 0 1 -.716-3.329v-10.539h4.589v9.719a3.348 3.348 0 0 0 .788 2.317 2.674 2.674 0 0 0 2.08.851 3.247 3.247 0 0 0 1.55-.383 2.946 2.946 0 0 0 1.17-1.136 3.533 3.533 0 0 0 .437-1.864z" fill="#d9386e"/></svg>