<svg viewBox="0 0 1200 1200" xmlns="http://www.w3.org/2000/svg" xmlns:xlink="http://www.w3.org/1999/xlink"><clipPath id="a"><path d="m174.328 277.965h851.343v644.07h-851.343z"/></clipPath><path d="m0 0h1200v1200h-1200z" fill="#fff" stroke="#000" stroke-miterlimit="10"/><g clip-path="url(#a)"><g clip-path="url(#a)"><g fill="#2a2a2a"><path d="m306.3 922.035c-38.016 0-62.4-25.82-62.4-64.549v-160.66c0-40.079-27.3-62.184-65.215-63.744a4.477 4.477 0 0 1 -4.357-4.441v-58a4.477 4.477 0 0 1 4.357-4.439c37.919-1.56 65.215-23.638 65.215-63.028v-160.66c0-38.729 24.385-64.549 62.4-64.549h62.964a4.452 4.452 0 0 1 4.452 4.454v49.186a4.452 4.452 0 0 1 -4.452 4.454h-50.622a4.454 4.454 0 0 0 -4.454 4.453v164.1c0 43.871-29.07 81.657-67.527 91.039a4.476 4.476 0 0 0 -3.478 4.327v.051a4.481 4.481 0 0 0 3.478 4.328c38.457 9.378 67.527 47.166 67.527 91.039v164.1a4.454 4.454 0 0 0 4.454 4.454h50.624a4.451 4.451 0 0 1 4.452 4.453v49.186a4.453 4.453 0 0 1 -4.452 4.454z"/><path d="m755.61 277.964c38.014 0 63.832 25.82 63.832 64.549v160.661c0 39.391 27.3 61.466 65.217 63.026a4.48 4.48 0 0 1 4.355 4.441v58a4.481 4.481 0 0 1 -4.355 4.442c-37.919 1.558-65.217 23.662-65.217 63.741v160.66c0 38.731-25.818 64.549-63.832 64.549h-62.966a4.453 4.453 0 0 1 -4.454-4.453v-49.18a4.452 4.452 0 0 1 4.454-4.454h52.056a4.453 4.453 0 0 0 4.452-4.454v-164.1c0-43.9 27.764-81.714 67.5-91.059a4.428 4.428 0 0 0 0-8.663c-39.732-9.349-67.5-47.158-67.5-91.062v-164.094a4.452 4.452 0 0 0 -4.452-4.454h-52.056a4.455 4.455 0 0 1 -4.454-4.454v-49.188a4.454 4.454 0 0 1 4.454-4.454z"/><path d="m1025.672 370.062v465.738a4.452 4.452 0 0 1 -4.454 4.453h-131.757a4.452 4.452 0 0 1 -4.454-4.453v-39.72a4.454 4.454 0 0 1 4.454-4.454h69.919a4.454 4.454 0 0 0 4.454-4.453v-368.482a4.455 4.455 0 0 0 -4.454-4.454h-69.919a4.454 4.454 0 0 1 -4.454-4.453v-39.722a4.454 4.454 0 0 1 4.454-4.454h131.757a4.454 4.454 0 0 1 4.454 4.454"/></g><g fill="#d9376e"><path d="m354.055 608.671-.049-18.427a4.808 4.808 0 0 1 2.213-4.062l102.31-65.541a4.809 4.809 0 0 1 7.4 4.036l.071 24.791a4.809 4.809 0 0 1 -2.289 4.11l-72.871 44.8v1.951l73.113 44.409a4.81 4.81 0 0 1 2.312 4.1l.068 24.79a4.809 4.809 0 0 1 -7.38 4.077l-102.662-64.983a4.813 4.813 0 0 1 -2.236-4.051"/><path d="m476.9 717.075 76.289-239.056a4.81 4.81 0 0 1 4.568-3.348l19.733-.053a4.809 4.809 0 0 1 4.593 6.272l-76.283 239.054a4.811 4.811 0 0 1 -4.569 3.348l-19.733.053a4.808 4.808 0 0 1 -4.593-6.27"/><path d="m598.077 648.483a4.811 4.811 0 0 1 2.29-4.11l72.87-44.8v-1.952l-73.115-44.411a4.817 4.817 0 0 1 -2.314-4.1l-.066-24.79a4.809 4.809 0 0 1 7.38-4.078l102.66 64.989a4.805 4.805 0 0 1 2.236 4.049l.049 18.156a4.808 4.808 0 0 1 -2.2 4.055l-102.3 66.051a4.808 4.808 0 0 1 -7.417-4.026z"/></g></g></g></svg>