<svg viewBox="0 0 1287.274 275.443" xmlns="http://www.w3.org/2000/svg"><path d="m62.684 264.748c-15.137 0-24.846-10.28-24.846-25.7v-63.97c0-15.959-10.869-24.76-25.967-25.381a1.784 1.784 0 0 1 -1.735-1.768v-23.094a1.784 1.784 0 0 1 1.735-1.768c15.1-.621 25.967-9.411 25.967-25.095v-63.972c0-15.42 9.709-25.7 24.846-25.7h25.069a1.773 1.773 0 0 1 1.773 1.773v19.587a1.773 1.773 0 0 1 -1.773 1.773h-20.153a1.773 1.773 0 0 0 -1.773 1.774v65.337c0 17.468-11.575 32.513-26.887 36.248a1.783 1.783 0 0 0 -1.386 1.723v.02a1.784 1.784 0 0 0 1.386 1.723c15.312 3.735 26.887 18.78 26.887 36.249v65.337a1.773 1.773 0 0 0 1.773 1.773h20.153a1.773 1.773 0 0 1 1.773 1.773v19.584a1.773 1.773 0 0 1 -1.773 1.774z" fill="#2a2a2a"/><path d="m241.582 8.3c15.135 0 25.418 10.283 25.418 25.7v63.972c0 15.684 10.87 24.474 25.967 25.1a1.783 1.783 0 0 1 1.734 1.768v23.094a1.783 1.783 0 0 1 -1.734 1.768c-15.1.621-25.967 9.422-25.967 25.381v63.968c0 15.422-10.28 25.7-25.415 25.7h-25.074a1.774 1.774 0 0 1 -1.774-1.774v-19.587a1.773 1.773 0 0 1 1.774-1.773h20.727a1.773 1.773 0 0 0 1.773-1.773v-65.337c0-17.481 11.054-32.536 26.874-36.257a1.782 1.782 0 0 0 1.4-1.725 1.782 1.782 0 0 0 -1.4-1.725c-15.82-3.722-26.874-18.776-26.874-36.256v-65.337a1.773 1.773 0 0 0 -1.773-1.774h-20.727a1.773 1.773 0 0 1 -1.774-1.773v-19.585a1.773 1.773 0 0 1 1.774-1.775z" fill="#2a2a2a"/><path d="m349.111 44.972v185.44a1.773 1.773 0 0 1 -1.774 1.773h-52.461a1.773 1.773 0 0 1 -1.773-1.773v-15.812a1.773 1.773 0 0 1 1.773-1.773h27.839a1.773 1.773 0 0 0 1.773-1.773v-146.72a1.773 1.773 0 0 0 -1.773-1.773h-27.839a1.773 1.773 0 0 1 -1.773-1.774v-15.815a1.773 1.773 0 0 1 1.773-1.773h52.461a1.773 1.773 0 0 1 1.774 1.773z" fill="#2a2a2a"/><path d="m81.7 139.977-.02-7.336a1.915 1.915 0 0 1 .882-1.618l40.736-26.1a1.914 1.914 0 0 1 2.947 1.607l.027 9.871a1.914 1.914 0 0 1 -.912 1.636l-29.014 17.84v.777l29.11 17.681a1.918 1.918 0 0 1 .921 1.632l.027 9.87a1.914 1.914 0 0 1 -2.939 1.623l-40.877-25.87a1.917 1.917 0 0 1 -.888-1.613z" fill="#d9386e"/><path d="m130.611 183.14 30.375-95.184a1.914 1.914 0 0 1 1.819-1.332l7.857-.021a1.914 1.914 0 0 1 1.829 2.5l-30.376 95.184a1.913 1.913 0 0 1 -1.819 1.332l-7.856.022a1.915 1.915 0 0 1 -1.829-2.501z" fill="#d9386e"/><path d="m178.858 155.829a1.915 1.915 0 0 1 .912-1.637l29.014-17.838v-.777l-29.111-17.683a1.914 1.914 0 0 1 -.92-1.631l-.027-9.871a1.915 1.915 0 0 1 2.939-1.623l40.875 25.876a1.915 1.915 0 0 1 .891 1.612l.019 7.23a1.914 1.914 0 0 1 -.876 1.614l-40.734 26.3a1.914 1.914 0 0 1 -2.953-1.6z" fill="#d9386e"/><path d="m481.637 71.674v-3.149c0-6.015 3.722-10.454 12.313-10.454s12.316 4.439 12.316 10.454v3.149c0 6.016-3.723 10.455-12.316 10.455s-12.313-4.439-12.313-10.455zm3.863 18.474h16.9a2.149 2.149 0 0 1 2.149 2.149v70.882a2.149 2.149 0 0 1 -2.149 2.149h-16.9a2.149 2.149 0 0 1 -2.149-2.149v-70.879a2.149 2.149 0 0 1 2.149-2.152z" fill="#d9386e"/><path d="m524.306 163.179v-70.879a2.149 2.149 0 0 1 2.149-2.149h16.9a2.149 2.149 0 0 1 2.145 2.149v14.176h.716c1.717-8.306 7.445-16.325 19.187-16.325h3.725v19.761h-5.3c-12.316 0-18.33 2.721-18.33 11.456v41.814a2.149 2.149 0 0 1 -2.149 2.149h-16.9a2.149 2.149 0 0 1 -2.143-2.152z" fill="#d9386e"/><path d="m609.075 165.328c-14.607 0-22.338-7.589-22.338-21.912v-34.65a2.15 2.15 0 0 0 -2.149-2.15h-6.3a2.149 2.149 0 0 1 -2.149-2.149v-14.319h5.3c5.726 0 7.445-2.865 7.445-8.019v-10.167a2.149 2.149 0 0 1 2.149-2.149h14.748a2.149 2.149 0 0 1 2.149 2.149v16.038a2.149 2.149 0 0 0 2.149 2.149h10.6a2.149 2.149 0 0 1 2.149 2.149v12.17a2.149 2.149 0 0 1 -2.149 2.149h-10.6a2.15 2.15 0 0 0 -2.149 2.15v37.943a2.149 2.149 0 0 0 2.149 2.149h9.449a2.149 2.149 0 0 1 2.149 2.149v12.172a2.149 2.149 0 0 1 -2.149 2.149z" fill="#d9386e"/><path d="m681.963 152.725h-.716c-2.577 7.589-8.735 14.323-21.051 14.323-15.323 0-23.486-10.741-23.486-29.646v-45.102a2.149 2.149 0 0 1 2.149-2.149h16.9a2.149 2.149 0 0 1 2.149 2.149v43.246c0 9.164 3.007 14.319 10.74 14.319 6.586 0 13.318-3.723 13.318-10.885v-46.68a2.149 2.149 0 0 1 2.149-2.149h16.894a2.149 2.149 0 0 1 2.149 2.149v70.882a2.149 2.149 0 0 1 -2.149 2.149h-16.897a2.149 2.149 0 0 1 -2.149-2.149z" fill="#d9386e"/><path d="m778.474 165.328c-7.591 0-13.032-5.154-14.321-13.175h-.86c-2.291 9.737-10.6 14.9-22.052 14.9-15.035 0-23.342-8.881-23.342-21.913 0-15.894 12.315-23.484 32.221-23.484h11.886v-4.724c0-7.3-3.581-11.886-12.46-11.886a17.882 17.882 0 0 0 -14.793 7.068 2.2 2.2 0 0 1 -3.162.238l-9.368-8.3a2.154 2.154 0 0 1 -.324-2.885c5.958-7.933 14.436-12.729 29.222-12.729 21.2 0 32.077 9.738 32.077 27.494v29.426a3.509 3.509 0 0 0 3.509 3.509 3.509 3.509 0 0 1 3.509 3.509v10.812a2.149 2.149 0 0 1 -2.149 2.149zm-16.468-22.768v-6.732a2.15 2.15 0 0 0 -2.15-2.149h-8.156c-8.163 0-12.46 3.007-12.46 8.449v2.148c0 5.442 3.581 8.021 9.883 8.021 7.011.003 12.883-2.863 12.883-9.737z" fill="#d9386e"/><path d="m825.432 165.328c-14.463 0-21.048-7.305-21.048-20.621v-83.197a2.149 2.149 0 0 1 2.149-2.149h16.894a2.149 2.149 0 0 1 2.149 2.149v85.2a2.149 2.149 0 0 0 2.149 2.149h5.155a2.149 2.149 0 0 1 2.149 2.149v12.172a2.149 2.149 0 0 1 -2.149 2.149z" fill="#d9386e"/><path d="m845.05 116.067c0-33.794 17.326-52.412 44.249-52.412 17.586 0 29.107 6.856 36.464 21.578a2.174 2.174 0 0 1 -.952 2.875l-14.711 7.635a2.123 2.123 0 0 1 -2.955-1.054c-2.811-7.083-8.078-11.7-17.844-11.7-12.748 0-21.2 8.591-21.2 24.343v16.039c0 15.75 8.449 24.343 21.2 24.343 9.784 0 15.766-5.585 19.026-12.753a2.124 2.124 0 0 1 3-.908l13.846 8.043a2.181 2.181 0 0 1 .839 2.885c-7.493 14.037-19.141 22.067-36.713 22.067-26.923 0-44.249-17.186-44.249-50.981z" fill="#d9386e"/><path d="m936.259 127.665c0-24.2 13.176-39.236 35.228-39.236s35.228 15.037 35.228 39.236-13.176 39.383-35.228 39.383-35.228-15.183-35.228-39.383zm48.4 7.734v-15.323c0-9.451-4.87-14.891-13.175-14.891s-13.175 5.44-13.175 14.891v15.324c0 9.452 4.87 14.891 13.175 14.891s13.178-5.44 13.178-14.891z" fill="#d9386e"/><path d="m1022.46 106.616h-6.3a2.149 2.149 0 0 1 -2.149-2.149v-12.167a2.149 2.149 0 0 1 2.149-2.149h6.3a2.149 2.149 0 0 0 2.149-2.151v-6.73c0-14.463 7.877-21.908 22.484-21.908h11.6a2.149 2.149 0 0 1 2.149 2.149v12.167a2.149 2.149 0 0 1 -2.149 2.149h-10.741a2.149 2.149 0 0 0 -2.149 2.149v10.024a2.149 2.149 0 0 0 2.149 2.149h10.741a2.149 2.149 0 0 1 2.149 2.149v12.17a2.149 2.149 0 0 1 -2.149 2.149h-10.741a2.15 2.15 0 0 0 -2.149 2.15v54.413a2.149 2.149 0 0 1 -2.149 2.149h-16.895a2.149 2.149 0 0 1 -2.149-2.149v-54.414a2.15 2.15 0 0 0 -2.15-2.15z" fill="#d9386e"/><path d="m1074.726 106.616h-6.3a2.149 2.149 0 0 1 -2.149-2.149v-12.167a2.149 2.149 0 0 1 2.149-2.149h6.3a2.149 2.149 0 0 0 2.149-2.151v-6.73c0-14.463 7.878-21.908 22.485-21.908h11.6a2.149 2.149 0 0 1 2.149 2.149v12.167a2.149 2.149 0 0 1 -2.149 2.149h-10.741a2.149 2.149 0 0 0 -2.149 2.149v10.024a2.149 2.149 0 0 0 2.149 2.149h10.741a2.149 2.149 0 0 1 2.149 2.149v12.17a2.149 2.149 0 0 1 -2.149 2.149h-10.741a2.15 2.15 0 0 0 -2.149 2.15v54.413a2.149 2.149 0 0 1 -2.149 2.149h-16.9a2.149 2.149 0 0 1 -2.149-2.149v-54.414a2.15 2.15 0 0 0 -2.146-2.15z" fill="#d9386e"/><path d="m1119.541 127.665c0-23.77 12.6-39.236 35.228-39.236 24.919 0 34.94 18.044 34.94 38.377v4.152a2.149 2.149 0 0 1 -2.149 2.149h-46.106v1.144c0 9.885 5.3 16.183 16.61 16.183 7.825 0 12.537-3.226 16.781-7.326a2.159 2.159 0 0 1 3.193.17l7.92 9.848a2.148 2.148 0 0 1 -.1 2.837c-6.806 6.915-17.32 11.085-30.232 11.085-23.053 0-36.085-15.323-36.085-39.383zm21.913-8.161v1.146h26.346v-1.29c0-9.165-4.155-15.323-12.6-15.323s-13.746 6.163-13.746 15.463z" fill="#d9386e"/><path d="m1200.018 127.665c0-23.77 12.6-39.236 35.228-39.236 24.919 0 34.94 18.044 34.94 38.377v4.152a2.149 2.149 0 0 1 -2.149 2.149h-46.107v1.144c0 9.885 5.3 16.183 16.61 16.183 7.826 0 12.537-3.226 16.782-7.326a2.159 2.159 0 0 1 3.193.17l7.919 9.848a2.147 2.147 0 0 1 -.1 2.837c-6.805 6.915-17.319 11.085-30.232 11.085-23.053 0-36.084-15.323-36.084-39.383zm21.912-8.161v1.146h26.347v-1.29c0-9.165-4.154-15.323-12.6-15.323s-13.747 6.163-13.747 15.463z" fill="#d9386e"/><path d="m422.072 163.149-29.572-91.749a3.8 3.8 0 0 1 3.617-4.967h13.9a3.8 3.8 0 0 1 3.629 2.674l13.942 44.91c.02.067.039.134.056.2l7.8 31.071h.426l7.516-31.055c.019-.078.041-.155.064-.232l13.94-44.901a3.8 3.8 0 0 1 3.63-2.674h13.18a3.8 3.8 0 0 1 3.614 4.976l-29.839 91.752a3.8 3.8 0 0 1 -3.613 2.625h-18.67a3.8 3.8 0 0 1 -3.62-2.63z" fill="#d9386e"/><g fill="#787878"><path d="m412.047 219.227-1.431-4.749h-6.665l-1.43 4.749h-4.406l6.58-19.967h5.378l6.494 19.967zm-4.72-16.02h-.143l-2.2 7.581h4.578z"/><path d="m421.974 219.227v-15.018h4.234v2.546h.172a4.594 4.594 0 0 1 1.4-2.032 4.818 4.818 0 0 1 6.28.687 7.108 7.108 0 0 1 1.187 4.405v9.412h-4.234v-9.068a4.024 4.024 0 0 0 -.458-2.16 1.8 1.8 0 0 0 -1.63-.7 3.889 3.889 0 0 0 -1 .129 2.528 2.528 0 0 0 -.872.415 2.141 2.141 0 0 0 -.615.7 1.942 1.942 0 0 0 -.229.958v9.726z"/><path d="m453.613 202.606a2.567 2.567 0 0 1 -1.874-.586 2.035 2.035 0 0 1 -.586-1.5v-.63a2.035 2.035 0 0 1 .586-1.5 3.289 3.289 0 0 1 3.748 0 2.032 2.032 0 0 1 .586 1.5v.63a2.031 2.031 0 0 1 -.586 1.5 2.565 2.565 0 0 1 -1.874.586zm-2.117 1.6h4.234v15.018h-4.23z"/><path d="m462.538 219.227v-15.018h4.234v2.546h.172a4.6 4.6 0 0 1 1.4-2.032 4.816 4.816 0 0 1 6.279.687 7.108 7.108 0 0 1 1.187 4.405v9.412h-4.234v-9.068a4.015 4.015 0 0 0 -.458-2.16 1.8 1.8 0 0 0 -1.63-.7 3.889 3.889 0 0 0 -1 .129 2.528 2.528 0 0 0 -.872.415 2.141 2.141 0 0 0 -.615.7 1.953 1.953 0 0 0 -.229.958v9.726z"/><path d="m487.712 219.227a4.555 4.555 0 0 1 -3.332-1.115 4.384 4.384 0 0 1 -1.13-3.262v-7.35h-2.117v-3.289h1.058a1.4 1.4 0 0 0 1.173-.415 1.943 1.943 0 0 0 .315-1.188v-2.46h3.8v4.063h2.976v3.289h-2.976v8.439h2.746v3.29z"/><path d="m498.383 202.606a2.564 2.564 0 0 1 -1.874-.586 2.031 2.031 0 0 1 -.586-1.5v-.63a2.032 2.032 0 0 1 .586-1.5 3.289 3.289 0 0 1 3.748 0 2.035 2.035 0 0 1 .586 1.5v.63a2.035 2.035 0 0 1 -.586 1.5 2.568 2.568 0 0 1 -1.874.586zm-2.117 1.6h4.234v15.018h-4.234z"/><path d="m507.309 219.227v-15.018h4.234v2.546h.172a4.575 4.575 0 0 1 1.373-2.046 3.916 3.916 0 0 1 2.66-.844 4.433 4.433 0 0 1 2.632.772 4.315 4.315 0 0 1 1.573 2.26h.086a4.088 4.088 0 0 1 1.631-2.145 5.467 5.467 0 0 1 1.345-.644 5.119 5.119 0 0 1 1.6-.243 3.914 3.914 0 0 1 3.333 1.545 7.231 7.231 0 0 1 1.158 4.405v9.412h-4.233v-9.068q0-2.86-2.06-2.861a2.908 2.908 0 0 0 -1.716.544 1.891 1.891 0 0 0 -.773 1.659v9.726h-4.233v-9.068q0-2.86-2.061-2.861a3.205 3.205 0 0 0 -.9.129 2.273 2.273 0 0 0 -.8.415 2.13 2.13 0 0 0 -.571.7 2.041 2.041 0 0 0 -.215.958v9.726z"/><path d="m546.844 219.227a2.665 2.665 0 0 1 -1.9-.715 3.292 3.292 0 0 1 -.958-1.917h-.171a3.474 3.474 0 0 1 -1.516 2.217 5.219 5.219 0 0 1 -2.89.759 4.7 4.7 0 0 1 -3.462-1.2 4.275 4.275 0 0 1 -1.2-3.165 3.944 3.944 0 0 1 1.731-3.523 8.389 8.389 0 0 1 4.706-1.154h2.375v-.944a2.512 2.512 0 0 0 -.573-1.731 2.457 2.457 0 0 0 -1.917-.643 3.324 3.324 0 0 0 -2 .543 5.35 5.35 0 0 0 -1.229 1.23l-2.518-2.244a6.585 6.585 0 0 1 2.3-2.114 7.845 7.845 0 0 1 3.762-.763 7.13 7.13 0 0 1 4.807 1.4 5.148 5.148 0 0 1 1.6 4.091v6.579h1.4v3.29zm-5.865-2.6a3.468 3.468 0 0 0 1.817-.454 1.591 1.591 0 0 0 .759-1.477v-1.76h-2.061q-2.489 0-2.488 1.675v.427a1.405 1.405 0 0 0 .515 1.206 2.4 2.4 0 0 0 1.458.38z"/><path d="m559.974 219.227a4.555 4.555 0 0 1 -3.332-1.115 4.384 4.384 0 0 1 -1.13-3.262v-7.35h-2.112v-3.289h1.058a1.4 1.4 0 0 0 1.173-.415 1.943 1.943 0 0 0 .314-1.188v-2.46h3.8v4.063h2.976v3.289h-2.976v8.439h2.746v3.29z"/><path d="m574.679 219.571a7.912 7.912 0 0 1 -3.062-.559 6.311 6.311 0 0 1 -2.274-1.573 6.633 6.633 0 0 1 -1.4-2.474 11.545 11.545 0 0 1 -.014-6.48 6.83 6.83 0 0 1 1.359-2.474 6.025 6.025 0 0 1 2.217-1.588 7.648 7.648 0 0 1 3-.558 7.394 7.394 0 0 1 3.189.63 6.025 6.025 0 0 1 2.175 1.687 6.809 6.809 0 0 1 1.23 2.447 10.786 10.786 0 0 1 .386 2.9v1.259h-9.64v.226a2.921 2.921 0 0 0 3.318 3.206 3.959 3.959 0 0 0 2.146-.524 8.5 8.5 0 0 0 1.544-1.263l2.117 2.639a6.675 6.675 0 0 1 -2.618 1.836 9.67 9.67 0 0 1 -3.673.663zm-.086-12.588a2.526 2.526 0 0 0 -2.017.844 3.316 3.316 0 0 0 -.729 2.246v.229h5.263v-.257a3.681 3.681 0 0 0 -.615-2.218 2.2 2.2 0 0 0 -1.902-.844z"/><path d="m603.028 219.571a7.612 7.612 0 0 1 -3-.559 5.951 5.951 0 0 1 -2.2-1.573 6.79 6.79 0 0 1 -1.344-2.474 10.875 10.875 0 0 1 -.457-3.261 10.73 10.73 0 0 1 .457-3.247 6.953 6.953 0 0 1 1.344-2.475 5.754 5.754 0 0 1 2.2-1.573 7.816 7.816 0 0 1 3-.544 6.7 6.7 0 0 1 3.819 1.03 5.639 5.639 0 0 1 2.188 2.889l-3.432 1.488a2.889 2.889 0 0 0 -.83-1.459 2.426 2.426 0 0 0 -1.745-.6 2.319 2.319 0 0 0 -1.945.84 3.583 3.583 0 0 0 -.658 2.267v2.8a3.584 3.584 0 0 0 .658 2.268 2.319 2.319 0 0 0 1.945.84 2.416 2.416 0 0 0 1.873-.671 4.477 4.477 0 0 0 .93-1.588l3.29 1.43a5.9 5.9 0 0 1 -2.3 3.167 6.834 6.834 0 0 1 -3.793 1.005z"/><path d="m620.564 219.571a7.624 7.624 0 0 1 -2.96-.544 5.913 5.913 0 0 1 -2.2-1.573 7.172 7.172 0 0 1 -1.386-2.489 11.165 11.165 0 0 1 0-6.523 7.013 7.013 0 0 1 1.386-2.474 5.982 5.982 0 0 1 2.2-1.559 8.328 8.328 0 0 1 5.921 0 5.979 5.979 0 0 1 2.2 1.559 7.014 7.014 0 0 1 1.387 2.474 11.165 11.165 0 0 1 0 6.523 7.174 7.174 0 0 1 -1.387 2.489 5.91 5.91 0 0 1 -2.2 1.573 7.633 7.633 0 0 1 -2.961.544zm0-3.348a2.468 2.468 0 0 0 1.946-.772 3.206 3.206 0 0 0 .686-2.2v-3.062a3.211 3.211 0 0 0 -.686-2.2 2.84 2.84 0 0 0 -3.891 0 3.211 3.211 0 0 0 -.686 2.2v3.062a3.206 3.206 0 0 0 .686 2.2 2.466 2.466 0 0 0 1.945.772z"/><path d="m633.467 219.227v-15.018h4.233v2.546h.172a4.591 4.591 0 0 1 1.373-2.046 3.918 3.918 0 0 1 2.66-.844 4.43 4.43 0 0 1 2.632.772 4.31 4.31 0 0 1 1.573 2.26h.086a4.088 4.088 0 0 1 1.631-2.145 5.484 5.484 0 0 1 1.345-.644 5.119 5.119 0 0 1 1.6-.243 3.913 3.913 0 0 1 3.333 1.545 7.231 7.231 0 0 1 1.159 4.405v9.412h-4.234v-9.068q0-2.86-2.059-2.861a2.911 2.911 0 0 0 -1.717.544 1.891 1.891 0 0 0 -.773 1.659v9.726h-4.231v-9.068q0-2.86-2.061-2.861a3.205 3.205 0 0 0 -.9.129 2.281 2.281 0 0 0 -.8.415 2.143 2.143 0 0 0 -.571.7 2.041 2.041 0 0 0 -.215.958v9.726z"/><path d="m661.9 219.227v-15.018h4.235v2.546h.172a4.575 4.575 0 0 1 1.373-2.046 3.916 3.916 0 0 1 2.66-.844 4.433 4.433 0 0 1 2.632.772 4.315 4.315 0 0 1 1.573 2.26h.086a4.088 4.088 0 0 1 1.631-2.145 5.46 5.46 0 0 1 1.344-.644 5.13 5.13 0 0 1 1.6-.243 3.914 3.914 0 0 1 3.333 1.545 7.238 7.238 0 0 1 1.158 4.405v9.412h-4.233v-9.068q0-2.86-2.06-2.861a2.911 2.911 0 0 0 -1.717.544 1.893 1.893 0 0 0 -.772 1.659v9.726h-4.233v-9.068q0-2.86-2.061-2.861a3.2 3.2 0 0 0 -.9.129 2.273 2.273 0 0 0 -.8.415 2.13 2.13 0 0 0 -.571.7 2.041 2.041 0 0 0 -.215.958v9.726z"/><path d="m699.206 216.71h-.143a5.178 5.178 0 0 1 -.529 1.087 3.686 3.686 0 0 1 -.844.916 4 4 0 0 1 -1.215.629 5.229 5.229 0 0 1 -1.617.229 4.163 4.163 0 0 1 -3.5-1.531 7.036 7.036 0 0 1 -1.187-4.391v-9.44h4.229v9.068a3.858 3.858 0 0 0 .487 2.117 1.83 1.83 0 0 0 1.659.743 3.415 3.415 0 0 0 .973-.142 2.759 2.759 0 0 0 .858-.415 2.151 2.151 0 0 0 .6-.672 1.88 1.88 0 0 0 .228-.944v-9.755h4.234v15.018h-4.234z"/><path d="m710.248 219.227v-15.018h4.234v2.546h.172a4.6 4.6 0 0 1 1.4-2.032 4.816 4.816 0 0 1 6.279.687 7.108 7.108 0 0 1 1.187 4.405v9.412h-4.234v-9.068a4.015 4.015 0 0 0 -.458-2.16 1.8 1.8 0 0 0 -1.63-.7 3.889 3.889 0 0 0 -1 .129 2.528 2.528 0 0 0 -.872.415 2.141 2.141 0 0 0 -.615.7 1.953 1.953 0 0 0 -.229.958v9.726z"/><path d="m732.276 202.606a2.567 2.567 0 0 1 -1.874-.586 2.035 2.035 0 0 1 -.586-1.5v-.63a2.035 2.035 0 0 1 .586-1.5 3.289 3.289 0 0 1 3.748 0 2.032 2.032 0 0 1 .586 1.5v.63a2.031 2.031 0 0 1 -.586 1.5 2.565 2.565 0 0 1 -1.874.586zm-2.117 1.6h4.235v15.018h-4.235z"/><path d="m746.465 219.227a4.555 4.555 0 0 1 -3.332-1.115 4.384 4.384 0 0 1 -1.133-3.262v-7.35h-2.117v-3.289h1.058a1.4 1.4 0 0 0 1.173-.415 1.943 1.943 0 0 0 .315-1.188v-2.46h3.8v4.063h2.976v3.289h-2.976v8.439h2.746v3.29z"/><path d="m764.2 204.209h3.947l-5.778 17.336a5.3 5.3 0 0 1 -1.616 2.574 4.709 4.709 0 0 1 -2.989.83h-2.633v-3.29h2.833l.516-1.659-5.263-15.791h4.205l2.2 7.009 1.087 4.347h.172l1.119-4.347z"/><path d="m783.512 207.5h-2.112v-3.289h2.117v-1.775a4.343 4.343 0 0 1 1.144-3.275 4.649 4.649 0 0 1 3.347-1.1h2.746v3.29h-3v2.862h3v3.287h-3v11.729h-4.233z"/><path d="m801.935 219.571a7.626 7.626 0 0 1 -2.961-.544 5.9 5.9 0 0 1 -2.2-1.573 7.158 7.158 0 0 1 -1.387-2.489 11.165 11.165 0 0 1 0-6.523 7 7 0 0 1 1.387-2.474 5.97 5.97 0 0 1 2.2-1.559 8.33 8.33 0 0 1 5.922 0 5.983 5.983 0 0 1 2.2 1.559 7.014 7.014 0 0 1 1.387 2.474 11.165 11.165 0 0 1 0 6.523 7.174 7.174 0 0 1 -1.387 2.489 5.914 5.914 0 0 1 -2.2 1.573 7.64 7.64 0 0 1 -2.961.544zm0-3.348a2.467 2.467 0 0 0 1.945-.772 3.206 3.206 0 0 0 .686-2.2v-3.062a3.211 3.211 0 0 0 -.686-2.2 2.84 2.84 0 0 0 -3.891 0 3.211 3.211 0 0 0 -.686 2.2v3.062a3.206 3.206 0 0 0 .686 2.2 2.467 2.467 0 0 0 1.946.772z"/><path d="m814.836 219.227v-15.018h4.234v3.261h.143a4.689 4.689 0 0 1 .4-1.216 3.709 3.709 0 0 1 .759-1.044 3.555 3.555 0 0 1 1.13-.73 4.047 4.047 0 0 1 1.545-.271h.743v3.947h-1.059a6.026 6.026 0 0 0 -2.759.486 1.863 1.863 0 0 0 -.9 1.8v8.782z"/><path d="m849.966 219.227a2.665 2.665 0 0 1 -1.9-.715 3.292 3.292 0 0 1 -.958-1.917h-.171a3.474 3.474 0 0 1 -1.516 2.217 5.219 5.219 0 0 1 -2.89.759 4.7 4.7 0 0 1 -3.462-1.2 4.275 4.275 0 0 1 -1.2-3.165 3.944 3.944 0 0 1 1.731-3.523 8.389 8.389 0 0 1 4.706-1.154h2.375v-.944a2.512 2.512 0 0 0 -.573-1.731 2.456 2.456 0 0 0 -1.916-.643 3.32 3.32 0 0 0 -2 .543 5.335 5.335 0 0 0 -1.23 1.23l-2.517-2.244a6.573 6.573 0 0 1 2.3-2.114 7.845 7.845 0 0 1 3.762-.763 7.13 7.13 0 0 1 4.807 1.4 5.148 5.148 0 0 1 1.6 4.091v6.579h1.4v3.29zm-5.864-2.6a3.467 3.467 0 0 0 1.816-.454 1.591 1.591 0 0 0 .759-1.477v-1.76h-2.061q-2.488 0-2.488 1.675v.427a1.405 1.405 0 0 0 .515 1.206 2.4 2.4 0 0 0 1.457.38z"/><path d="m862.21 219.227a3.672 3.672 0 0 1 -4.21-4.119v-17.051h4.234v17.88h1.888v3.29z"/><path d="m873.51 219.227a3.671 3.671 0 0 1 -4.206-4.119v-17.051h4.234v17.88h1.888v3.29z"/><path d="m899.656 216.71h-.143a3.786 3.786 0 0 1 -.543 1.13 3.92 3.92 0 0 1 -.9.916 4.211 4.211 0 0 1 -1.2.6 4.539 4.539 0 0 1 -1.388.215 4.989 4.989 0 0 1 -4.319-2.018 12.428 12.428 0 0 1 0-11.685 5 5 0 0 1 4.319-2 4.373 4.373 0 0 1 2.589.8 3.521 3.521 0 0 1 1.445 2.06h.143v-8.669h4.234v21.17h-4.234zm-2.775-.573a3.238 3.238 0 0 0 1.988-.585 1.9 1.9 0 0 0 .787-1.617v-4.435a1.9 1.9 0 0 0 -.787-1.616 3.232 3.232 0 0 0 -1.988-.587 2.6 2.6 0 0 0 -1.987.844 3.2 3.2 0 0 0 -.788 2.274v2.6a3.2 3.2 0 0 0 .788 2.275 2.6 2.6 0 0 0 1.987.847z"/><path d="m916.963 219.571a7.912 7.912 0 0 1 -3.062-.559 6.311 6.311 0 0 1 -2.274-1.573 6.618 6.618 0 0 1 -1.4-2.474 11.533 11.533 0 0 1 -.015-6.48 6.845 6.845 0 0 1 1.359-2.474 6.025 6.025 0 0 1 2.217-1.588 7.648 7.648 0 0 1 3-.558 7.394 7.394 0 0 1 3.189.63 6.025 6.025 0 0 1 2.175 1.687 6.809 6.809 0 0 1 1.23 2.447 10.747 10.747 0 0 1 .386 2.9v1.259h-9.64v.226a2.922 2.922 0 0 0 3.318 3.206 3.959 3.959 0 0 0 2.146-.524 8.537 8.537 0 0 0 1.545-1.263l2.116 2.639a6.678 6.678 0 0 1 -2.617 1.836 9.676 9.676 0 0 1 -3.673.663zm-.086-12.588a2.528 2.528 0 0 0 -2.017.844 3.316 3.316 0 0 0 -.729 2.246v.229h5.269v-.257a3.681 3.681 0 0 0 -.616-2.218 2.2 2.2 0 0 0 -1.907-.844z"/><path d="m932.554 219.227-4.92-15.018h4.177l1.859 6.064 1.4 5.436h.229l1.4-5.436 1.8-6.064h4.006l-4.921 15.018z"/><path d="m952.637 219.571a8.561 8.561 0 0 1 -3.662-.7 8.448 8.448 0 0 1 -2.661-1.988l2.489-2.518a6.426 6.426 0 0 0 1.773 1.4 4.63 4.63 0 0 0 2.2.516 2.9 2.9 0 0 0 1.745-.387 1.26 1.26 0 0 0 .487-1.044q0-1.057-1.517-1.258l-1.63-.2q-5.064-.628-5.063-4.634a4.7 4.7 0 0 1 .414-1.989 4.439 4.439 0 0 1 1.173-1.544 5.5 5.5 0 0 1 1.831-1 7.634 7.634 0 0 1 2.418-.357 12.257 12.257 0 0 1 2.073.157 7.267 7.267 0 0 1 1.6.458 6.11 6.11 0 0 1 1.288.744 13.752 13.752 0 0 1 1.159.987l-2.432 2.489a5.532 5.532 0 0 0 -1.617-1.13 4.379 4.379 0 0 0 -1.845-.415 2.641 2.641 0 0 0 -1.545.343 1.089 1.089 0 0 0 -.458.916 1.264 1.264 0 0 0 .329.93 2.3 2.3 0 0 0 1.246.471l1.687.23q4.948.657 4.949 4.519a4.417 4.417 0 0 1 -.458 2 4.684 4.684 0 0 1 -1.3 1.587 6.179 6.179 0 0 1 -2.031 1.045 8.851 8.851 0 0 1 -2.642.372z"/><path d="m967.111 214.392a2.522 2.522 0 0 1 1.9.644 2.285 2.285 0 0 1 .615 1.645v.573a7.6 7.6 0 0 1 -.844 3.432 7.816 7.816 0 0 1 -2.217 2.746h-2.861a16.068 16.068 0 0 0 1.717-1.874 6.844 6.844 0 0 0 1.087-2.073 2.186 2.186 0 0 1 -1.459-.787 2.348 2.348 0 0 1 -.458-1.444v-.573a2.285 2.285 0 0 1 .615-1.645 2.521 2.521 0 0 1 1.905-.644z"/><path d="m992.028 219.571a7.633 7.633 0 0 1 -2.961-.544 5.918 5.918 0 0 1 -2.2-1.573 7.172 7.172 0 0 1 -1.386-2.489 11.165 11.165 0 0 1 0-6.523 7.013 7.013 0 0 1 1.386-2.474 5.987 5.987 0 0 1 2.2-1.559 8.33 8.33 0 0 1 5.922 0 5.975 5.975 0 0 1 2.2 1.559 7 7 0 0 1 1.388 2.474 11.187 11.187 0 0 1 0 6.523 7.16 7.16 0 0 1 -1.388 2.489 5.906 5.906 0 0 1 -2.2 1.573 7.633 7.633 0 0 1 -2.961.544zm0-3.348a2.468 2.468 0 0 0 1.946-.772 3.206 3.206 0 0 0 .686-2.2v-3.062a3.211 3.211 0 0 0 -.686-2.2 2.84 2.84 0 0 0 -3.891 0 3.211 3.211 0 0 0 -.687 2.2v3.062a3.206 3.206 0 0 0 .687 2.2 2.465 2.465 0 0 0 1.945.772z"/><path d="m1004.93 204.209h4.234v2.517h.143a3.517 3.517 0 0 1 1.445-2.06 4.37 4.37 0 0 1 2.589-.8 5 5 0 0 1 4.319 2 12.428 12.428 0 0 1 0 11.685 4.989 4.989 0 0 1 -4.319 2.018 4.5 4.5 0 0 1 -1.4-.215 4.242 4.242 0 0 1 -1.186-.6 3.878 3.878 0 0 1 -.9-.916 3.741 3.741 0 0 1 -.544-1.13h-.143v8.239h-4.234zm7.008 11.928a2.6 2.6 0 0 0 1.989-.843 3.206 3.206 0 0 0 .787-2.275v-2.6a3.205 3.205 0 0 0 -.787-2.274 2.6 2.6 0 0 0 -1.989-.844 3.238 3.238 0 0 0 -1.988.587 1.9 1.9 0 0 0 -.786 1.616v4.434a1.906 1.906 0 0 0 .786 1.617 3.244 3.244 0 0 0 1.988.582z"/><path d="m1030.276 219.227a4.556 4.556 0 0 1 -3.332-1.115 4.384 4.384 0 0 1 -1.13-3.262v-7.35h-2.114v-3.289h1.059a1.4 1.4 0 0 0 1.173-.415 1.943 1.943 0 0 0 .314-1.188v-2.46h3.805v4.063h2.975v3.289h-2.975v8.439h2.746v3.29z"/><path d="m1040.946 202.606a2.567 2.567 0 0 1 -1.874-.586 2.035 2.035 0 0 1 -.586-1.5v-.63a2.035 2.035 0 0 1 .586-1.5 3.289 3.289 0 0 1 3.748 0 2.032 2.032 0 0 1 .586 1.5v.63a2.031 2.031 0 0 1 -.586 1.5 2.565 2.565 0 0 1 -1.874.586zm-2.117 1.6h4.234v15.018h-4.234z"/><path d="m1049.872 219.227v-15.018h4.234v2.546h.172a4.591 4.591 0 0 1 1.373-2.046 3.92 3.92 0 0 1 2.661-.844 4.427 4.427 0 0 1 2.631.772 4.317 4.317 0 0 1 1.574 2.26h.086a4 4 0 0 1 .615-1.186 4.055 4.055 0 0 1 1.015-.959 5.484 5.484 0 0 1 1.345-.644 5.121 5.121 0 0 1 1.6-.243 3.915 3.915 0 0 1 3.333 1.545 7.238 7.238 0 0 1 1.158 4.405v9.412h-4.233v-9.068q0-2.86-2.06-2.861a2.911 2.911 0 0 0 -1.717.544 1.89 1.89 0 0 0 -.772 1.659v9.726h-4.234v-9.068q0-2.86-2.06-2.861a3.207 3.207 0 0 0 -.9.129 2.268 2.268 0 0 0 -.8.415 2.133 2.133 0 0 0 -.572.7 2.053 2.053 0 0 0 -.215.958v9.726z"/><path d="m1080.425 202.606a2.564 2.564 0 0 1 -1.874-.586 2.031 2.031 0 0 1 -.586-1.5v-.63a2.032 2.032 0 0 1 .586-1.5 3.289 3.289 0 0 1 3.748 0 2.035 2.035 0 0 1 .586 1.5v.63a2.035 2.035 0 0 1 -.586 1.5 2.568 2.568 0 0 1 -1.874.586zm-2.117 1.6h4.234v15.018h-4.234z"/><path d="m1088.491 219.227v-3.346l7.467-8.383h-7.209v-3.289h12.13v3.318l-7.495 8.41h7.695v3.29z"/><path d="m1112.951 219.571a7.906 7.906 0 0 1 -3.061-.559 6.307 6.307 0 0 1 -2.275-1.573 6.618 6.618 0 0 1 -1.4-2.474 10.555 10.555 0 0 1 -.472-3.261 10.661 10.661 0 0 1 .457-3.219 6.832 6.832 0 0 1 1.36-2.474 6.013 6.013 0 0 1 2.216-1.588 7.648 7.648 0 0 1 3-.558 7.4 7.4 0 0 1 3.19.63 6.042 6.042 0 0 1 2.175 1.687 6.824 6.824 0 0 1 1.229 2.447 10.747 10.747 0 0 1 .387 2.9v1.259h-9.641v.226a2.922 2.922 0 0 0 3.319 3.206 3.958 3.958 0 0 0 2.145-.524 8.5 8.5 0 0 0 1.545-1.263l2.116 2.639a6.678 6.678 0 0 1 -2.617 1.836 9.676 9.676 0 0 1 -3.673.663zm-.086-12.588a2.525 2.525 0 0 0 -2.016.844 3.312 3.312 0 0 0 -.73 2.246v.229h5.264v-.257a3.681 3.681 0 0 0 -.615-2.218 2.2 2.2 0 0 0 -1.903-.844z"/><path d="m1134.836 216.71h-.144a3.762 3.762 0 0 1 -.543 1.13 3.916 3.916 0 0 1 -.9.916 4.211 4.211 0 0 1 -1.2.6 4.539 4.539 0 0 1 -1.388.215 4.987 4.987 0 0 1 -4.319-2.018 12.428 12.428 0 0 1 0-11.685 5 5 0 0 1 4.319-2 4.373 4.373 0 0 1 2.589.8 3.519 3.519 0 0 1 1.444 2.06h.144v-8.669h4.233v21.17h-4.233zm-2.775-.573a3.242 3.242 0 0 0 1.988-.585 1.907 1.907 0 0 0 .787-1.617v-4.435a1.9 1.9 0 0 0 -.787-1.616 3.236 3.236 0 0 0 -1.988-.587 2.6 2.6 0 0 0 -1.988.844 3.2 3.2 0 0 0 -.787 2.274v2.6a3.2 3.2 0 0 0 .787 2.275 2.6 2.6 0 0 0 1.988.847z"/><path d="m1156.233 207.5h-2.117v-3.289h2.117v-1.775a4.339 4.339 0 0 1 1.145-3.275 4.649 4.649 0 0 1 3.347-1.1h2.746v3.29h-3v2.862h3v3.287h-3v11.729h-4.234z"/><path d="m1174.656 219.571a7.629 7.629 0 0 1 -2.961-.544 5.918 5.918 0 0 1 -2.2-1.573 7.19 7.19 0 0 1 -1.387-2.489 11.187 11.187 0 0 1 0-6.523 7.03 7.03 0 0 1 1.387-2.474 5.987 5.987 0 0 1 2.2-1.559 8.33 8.33 0 0 1 5.922 0 5.975 5.975 0 0 1 2.2 1.559 7 7 0 0 1 1.388 2.474 11.187 11.187 0 0 1 0 6.523 7.16 7.16 0 0 1 -1.388 2.489 5.906 5.906 0 0 1 -2.2 1.573 7.633 7.633 0 0 1 -2.961.544zm0-3.348a2.468 2.468 0 0 0 1.946-.772 3.206 3.206 0 0 0 .686-2.2v-3.062a3.211 3.211 0 0 0 -.686-2.2 2.84 2.84 0 0 0 -3.891 0 3.211 3.211 0 0 0 -.687 2.2v3.062a3.206 3.206 0 0 0 .687 2.2 2.465 2.465 0 0 0 1.945.772z"/><path d="m1187.558 219.227v-15.018h4.234v3.261h.143a4.689 4.689 0 0 1 .4-1.216 3.671 3.671 0 0 1 .759-1.044 3.544 3.544 0 0 1 1.13-.73 4.047 4.047 0 0 1 1.545-.271h.743v3.947h-1.059a6.034 6.034 0 0 0 -2.76.486 1.864 1.864 0 0 0 -.9 1.8v8.782z"/></g><path d="m1221.344 204.209h3.947l-5.778 17.336a5.291 5.291 0 0 1 -1.617 2.574 4.709 4.709 0 0 1 -2.989.83h-2.633v-3.29h2.833l.515-1.659-5.264-15.791h4.205l2.2 7.009 1.087 4.347h.171l1.116-4.347z" fill="#d9386e"/><path d="m1236.162 219.571a7.629 7.629 0 0 1 -2.961-.544 5.918 5.918 0 0 1 -2.2-1.573 7.174 7.174 0 0 1 -1.387-2.489 11.187 11.187 0 0 1 0-6.523 7.014 7.014 0 0 1 1.387-2.474 5.987 5.987 0 0 1 2.2-1.559 8.33 8.33 0 0 1 5.922 0 5.975 5.975 0 0 1 2.2 1.559 7 7 0 0 1 1.388 2.474 11.187 11.187 0 0 1 0 6.523 7.16 7.16 0 0 1 -1.388 2.489 5.906 5.906 0 0 1 -2.2 1.573 7.633 7.633 0 0 1 -2.961.544zm0-3.348a2.466 2.466 0 0 0 1.945-.772 3.206 3.206 0 0 0 .687-2.2v-3.062a3.211 3.211 0 0 0 -.687-2.2 2.839 2.839 0 0 0 -3.89 0 3.211 3.211 0 0 0 -.687 2.2v3.062a3.206 3.206 0 0 0 .687 2.2 2.465 2.465 0 0 0 1.945.772z" fill="#d9386e"/><path d="m1257.932 216.71h-.143a5.228 5.228 0 0 1 -.529 1.087 3.686 3.686 0 0 1 -.844.916 4.008 4.008 0 0 1 -1.216.629 5.227 5.227 0 0 1 -1.616.229 4.165 4.165 0 0 1 -3.505-1.531 7.042 7.042 0 0 1 -1.186-4.391v-9.44h4.233v9.068a3.867 3.867 0 0 0 .486 2.117 1.831 1.831 0 0 0 1.659.743 3.405 3.405 0 0 0 .973-.142 2.775 2.775 0 0 0 .859-.415 2.135 2.135 0 0 0 .6-.672 1.88 1.88 0 0 0 .229-.944v-9.755h4.234v15.018h-4.234z" fill="#d9386e"/></svg>