<?xml version="1.0" encoding="UTF-8"?>
<svg width="160px" height="40px" viewBox="0 0 160 40" version="1.1" xmlns="http://www.w3.org/2000/svg" xmlns:xlink="http://www.w3.org/1999/xlink">
    <title>Amazon Music</title>
    <defs>
        <polygon id="path-1" points="0.00457943925 0.0387725857 13.5312512 0.0387725857 13.5312512 4.36153427 0.00457943925 4.36153427"></polygon>
    </defs>
    <g id="Page-1" stroke="none" stroke-width="1" fill="none" fill-rule="evenodd">
        <g id="Listen-On" transform="translate(-1049.000000, -485.000000)">
            <g id="Amazon-Music" transform="translate(1049.000000, 485.000000)">
                <rect id="Rectangle" fill="#000000" x="0" y="0" width="160" height="40" rx="7"></rect>
                <path d="M43,14.8958032 L43,9.10419682 L43.9101895,9.10419682 L43.9101895,14.1316932 L46.6680638,14.1316932 L46.6680638,14.8958032 L43,14.8958032 Z M48.0087195,9.99855282 C47.7265607,9.99855282 47.4808095,9.78147612 47.4808095,9.50361795 C47.4808095,9.22575977 47.7265607,9 48.0087195,9 C48.2999801,9 48.5366294,9.22575977 48.5366294,9.50361795 C48.5366294,9.78147612 48.2999801,9.99855282 48.0087195,9.99855282 Z M47.6082361,14.8958032 L47.6082361,10.7018813 L48.4274066,10.7018813 L48.4274066,14.8958032 L47.6082361,14.8958032 Z M49.3038656,14.3487699 L49.6952471,13.7756874 C49.9956097,14.0882779 50.578131,14.3748191 51.1697542,14.3748191 C51.7886831,14.3748191 52.1163513,14.1316932 52.1163513,13.7756874 C52.1163513,13.3589001 51.615747,13.2199711 51.0514295,13.0984081 C50.3050741,12.9334298 49.4312922,12.7424023 49.4312922,11.8393632 C49.4312922,11.170767 50.0320173,10.5976845 51.1060409,10.5976845 C51.8614982,10.5976845 52.4076119,10.8581766 52.7807896,11.1968162 L52.4167138,11.7438495 C52.1618608,11.4486252 51.6703584,11.2315485 51.1151428,11.2315485 C50.5599272,11.2315485 50.2140552,11.4399421 50.2140552,11.7785818 C50.2140552,12.1432706 50.6873537,12.2648336 51.2334674,12.3863965 C51.9980266,12.5513748 52.9082162,12.7510854 52.9082162,13.7149059 C52.9082162,14.4356006 52.2892873,15 51.1333466,15 C50.3960931,15 49.7498585,14.7829233 49.3038656,14.3487699 Z M55.1135519,15 C54.4218078,15 54.0668339,14.6266281 54.0668339,13.9667149 L54.0668339,11.3878437 L53.3386823,11.3878437 L53.3386823,10.7018813 L54.0668339,10.7018813 L54.0668339,9.55571635 L54.8860045,9.55571635 L54.8860045,10.7018813 L55.7779902,10.7018813 L55.7779902,11.3878437 L54.8860045,11.3878437 L54.8860045,13.7930535 C54.8860045,14.0882779 55.0316348,14.3053546 55.3137936,14.3053546 C55.5049334,14.3053546 55.6778694,14.2272069 55.7597864,14.1403763 L55.96913,14.7308249 C55.796194,14.8871201 55.541341,15 55.1135519,15 Z M56.3722905,12.7945007 C56.3722905,11.5788712 57.2915819,10.5976845 58.5749491,10.5976845 C59.894724,10.5976845 60.7138945,11.5788712 60.7138945,12.8639653 L60.7138945,13.0549928 L57.2369705,13.0549928 C57.3006838,13.7670043 57.8467975,14.357453 58.7296814,14.357453 C59.193878,14.357453 59.7035842,14.1837916 60.0312524,13.8625181 L60.413532,14.3748191 C59.976641,14.7829233 59.3577121,15 58.6477643,15 C57.3370914,15 56.3722905,14.1143271 56.3722905,12.7945007 Z M58.5749491,11.2402315 C57.6920653,11.2402315 57.2733781,11.9175109 57.2278686,12.4905933 L59.9129278,12.4905933 C59.894724,11.934877 59.5033425,11.2402315 58.5749491,11.2402315 Z M64.6667941,14.8958032 L64.6667941,12.2127352 C64.6667941,11.5180897 64.2936164,11.29233 63.7292989,11.29233 C63.2195928,11.29233 62.7553961,11.5875543 62.5187468,11.9001447 L62.5187468,14.8958032 L61.6995763,14.8958032 L61.6995763,10.7018813 L62.5187468,10.7018813 L62.5187468,11.29233 C62.8100075,10.9536903 63.3925288,10.5976845 64.0751709,10.5976845 C65.0035643,10.5976845 65.4859647,11.0665702 65.4859647,11.9522431 L65.4859647,14.8958032 L64.6667941,14.8958032 Z M70.9979655,15 C69.6326812,15 68.777103,14.0101302 68.777103,12.7945007 C68.777103,11.5875543 69.6326812,10.5976845 70.9979655,10.5976845 C72.3723517,10.5976845 73.2188279,11.5875543 73.2188279,12.7945007 C73.2188279,14.0101302 72.3723517,15 70.9979655,15 Z M70.9979655,14.3053546 C71.8808493,14.3053546 72.3632498,13.593343 72.3632498,12.7945007 C72.3632498,12.0043415 71.8808493,11.29233 70.9979655,11.29233 C70.1241835,11.29233 69.6326812,12.0043415 69.6326812,12.7945007 C69.6326812,13.593343 70.1241835,14.3053546 70.9979655,14.3053546 Z M77.1808294,14.8958032 L77.1808294,12.2127352 C77.1808294,11.5180897 76.8076517,11.29233 76.2433342,11.29233 C75.7336281,11.29233 75.2694314,11.5875543 75.0327821,11.9001447 L75.0327821,14.8958032 L74.2136115,14.8958032 L74.2136115,10.7018813 L75.0327821,10.7018813 L75.0327821,11.29233 C75.3240428,10.9536903 75.9065641,10.5976845 76.5892062,10.5976845 C77.5175995,10.5976845 78,11.0665702 78,11.9522431 L78,14.8958032 L77.1808294,14.8958032 Z" id="Listenon-Copy-4" fill="#FFFFFF" fill-rule="nonzero"></path>
                <path d="M44.0234375,31 L45.0546875,27.953125 L49.3515625,27.953125 L50.3828125,31 L52.234375,31 L48.1640625,19.7265625 L46.2734375,19.7265625 L42.203125,31 L44.0234375,31 Z M48.90625,26.546875 L45.5,26.546875 L47.1796875,21.6015625 L47.2265625,21.6015625 L48.90625,26.546875 Z M54.9609375,31 L54.9609375,25.921875 C54.9609375,24.8671875 55.671875,24.0859375 56.671875,24.0859375 C57.625,24.0859375 58.2265625,24.6875 58.2265625,25.6328125 L58.2265625,31 L59.8828125,31 L59.8828125,25.8671875 C59.8828125,24.828125 60.578125,24.0859375 61.578125,24.0859375 C62.578125,24.0859375 63.1484375,24.6953125 63.1484375,25.7578125 L63.1484375,31 L64.84375,31 L64.84375,25.3515625 C64.84375,23.71875 63.78125,22.640625 62.15625,22.640625 C60.984375,22.640625 60.015625,23.25 59.59375,24.25 L59.5546875,24.25 C59.2265625,23.2265625 58.3984375,22.640625 57.2578125,22.640625 C56.1484375,22.640625 55.2890625,23.25 54.921875,24.1640625 L54.8828125,24.1640625 L54.8828125,22.78125 L53.2734375,22.78125 L53.2734375,31 L54.9609375,31 Z M68.875,31.140625 C69.953125,31.140625 70.9921875,30.5625 71.46875,29.6484375 L71.5078125,29.6484375 L71.5078125,31 L73.125,31 L73.125,25.3359375 C73.125,23.6875 71.8515625,22.6328125 69.859375,22.6328125 C67.828125,22.6328125 66.5625,23.7265625 66.46875,25.2109375 L68.0625,25.2109375 C68.2109375,24.4765625 68.8203125,24.0078125 69.796875,24.0078125 C70.828125,24.0078125 71.4453125,24.5546875 71.4453125,25.46875 L71.4453125,26.1015625 L69.1953125,26.234375 C67.2421875,26.34375 66.140625,27.2265625 66.140625,28.6640625 C66.140625,30.140625 67.265625,31.140625 68.875,31.140625 Z M69.34375,29.8046875 C68.4375,29.8046875 67.84375,29.3359375 67.84375,28.6171875 C67.84375,27.9140625 68.4140625,27.46875 69.421875,27.3984375 L71.4453125,27.2734375 L71.4453125,27.921875 C71.4453125,28.9921875 70.5234375,29.8046875 69.34375,29.8046875 Z M80.953125,31 L80.953125,29.65625 L76.6328125,29.65625 L76.6328125,29.625 L80.90625,23.9375 L80.90625,22.78125 L74.6171875,22.78125 L74.6171875,24.125 L78.96875,24.125 L78.96875,24.15625 L74.5859375,29.9140625 L74.5859375,31 L80.953125,31 Z M85.9921875,31.15625 C88.34375,31.15625 89.890625,29.5390625 89.890625,26.890625 C89.890625,24.25 88.3359375,22.6328125 85.9921875,22.6328125 C83.6484375,22.6328125 82.09375,24.25 82.09375,26.890625 C82.09375,29.5390625 83.640625,31.15625 85.9921875,31.15625 Z M85.9921875,29.765625 C84.671875,29.765625 83.8125,28.71875 83.8125,26.890625 C83.8125,25.0703125 84.671875,24.0234375 85.9921875,24.0234375 C87.3125,24.0234375 88.171875,25.0703125 88.171875,26.890625 C88.171875,28.71875 87.3203125,29.765625 85.9921875,29.765625 Z M92.8828125,31 L92.8828125,26.2109375 C92.8828125,24.9375 93.6484375,24.09375 94.8359375,24.09375 C96.0078125,24.09375 96.5859375,24.7734375 96.5859375,26.0078125 L96.5859375,31 L98.28125,31 L98.28125,25.6796875 C98.28125,23.796875 97.2421875,22.640625 95.4296875,22.640625 C94.1640625,22.640625 93.2890625,23.21875 92.84375,24.15625 L92.8046875,24.15625 L92.8046875,22.78125 L91.1953125,22.78125 L91.1953125,31 L92.8828125,31 Z M104.945312,31 L104.945312,22.703125 L105,22.703125 L108.40625,31 L109.703125,31 L113.101562,22.703125 L113.15625,22.703125 L113.15625,31 L114.757812,31 L114.757812,19.7265625 L112.726562,19.7265625 L109.085938,28.7109375 L109.023438,28.7109375 L105.375,19.7265625 L103.351562,19.7265625 L103.351562,31 L104.945312,31 Z M119.476562,31.1484375 C120.734375,31.1484375 121.570312,30.59375 122.023438,29.609375 L122.0625,29.609375 L122.0625,31 L123.679688,31 L123.679688,22.78125 L121.992188,22.78125 L121.992188,27.5703125 C121.992188,28.8515625 121.257812,29.6953125 120.039062,29.6953125 C118.875,29.6953125 118.28125,29.0234375 118.28125,27.7734375 L118.28125,22.78125 L116.59375,22.78125 L116.59375,28.1015625 C116.59375,29.984375 117.6875,31.1484375 119.476562,31.1484375 Z M128.429688,31.15625 C130.367188,31.15625 131.765625,30.125 131.765625,28.625 C131.765625,27.4375 131.125,26.78125 129.445312,26.390625 L128.109375,26.0859375 C127.21875,25.8828125 126.84375,25.53125 126.84375,25.015625 C126.84375,24.359375 127.453125,23.9140625 128.367188,23.9140625 C129.3125,23.9140625 129.898438,24.4140625 129.992188,25.2109375 L131.578125,25.2109375 C131.523438,23.6953125 130.28125,22.6328125 128.367188,22.6328125 C126.476562,22.6328125 125.195312,23.640625 125.195312,25.109375 C125.195312,26.3046875 125.96875,27.0546875 127.53125,27.4140625 L128.867188,27.7265625 C129.765625,27.9296875 130.070312,28.2421875 130.070312,28.7734375 C130.070312,29.4453125 129.445312,29.8671875 128.429688,29.8671875 C127.398438,29.8671875 126.8125,29.4453125 126.65625,28.5859375 L124.984375,28.5859375 C125.140625,30.1484375 126.375,31.15625 128.429688,31.15625 Z M133.96875,21.453125 C134.507812,21.453125 134.9375,21.015625 134.9375,20.484375 C134.9375,19.9453125 134.507812,19.515625 133.96875,19.515625 C133.429688,19.515625 132.992188,19.9453125 132.992188,20.484375 C132.992188,21.015625 133.429688,21.453125 133.96875,21.453125 Z M134.8125,31 L134.8125,22.78125 L133.125,22.78125 L133.125,31 L134.8125,31 Z M140.054688,31.15625 C142.03125,31.15625 143.429688,29.96875 143.609375,28.21875 L141.984375,28.21875 C141.789062,29.171875 141.109375,29.7421875 140.070312,29.7421875 C138.757812,29.7421875 137.890625,28.6953125 137.890625,26.890625 C137.890625,25.125 138.75,24.0390625 140.054688,24.0390625 C141.15625,24.0390625 141.8125,24.734375 141.984375,25.609375 L143.59375,25.609375 C143.445312,23.9921875 142.15625,22.6328125 140.039062,22.6328125 C137.703125,22.6328125 136.171875,24.28125 136.171875,26.890625 C136.171875,29.546875 137.703125,31.15625 140.054688,31.15625 Z" id="AmazonMusic" fill="#FFFFFF" fill-rule="nonzero"></path>
                <g id="Group-9" transform="translate(9.000000, 11.000000)">
                    <g id="Group-5" transform="translate(0.000000, 5.000000)" fill="#FFFFFF">
                        <path d="M16.6166592,6.31916667 C16.4480481,6.43138889 16.1954092,6.51569444 15.8863814,6.51569444 C15.4090203,6.51569444 14.9595759,6.45958333 14.5102703,6.31916667 C14.3979092,6.29097222 14.3136037,6.26291667 14.2574925,6.26291667 C14.173187,6.26291667 14.1451314,6.31916667 14.1451314,6.43138889 L14.1451314,6.71236111 C14.1451314,6.79652778 14.173187,6.85277778 14.2012425,6.90888889 C14.229437,6.93694444 14.2855481,6.99319444 14.3698537,7.02125 C14.8191592,7.21777778 15.3247148,7.30208333 15.8863814,7.30208333 C16.4762425,7.30208333 16.9255481,7.16166667 17.290687,6.88083333 C17.655687,6.6 17.8242981,6.23486111 17.8242981,5.7575 C17.8242981,5.42041667 17.7399925,5.16763889 17.5715203,4.94291667 C17.4030481,4.74638889 17.1220759,4.54972222 16.7288814,4.40930556 L15.9424925,4.10041667 C15.6336037,3.98805556 15.4088814,3.87569444 15.3247148,3.76333333 C15.2123537,3.65111111 15.1562425,3.53875 15.1562425,3.34208333 C15.1562425,2.92083333 15.4651314,2.69611111 16.1111037,2.69611111 C16.4762425,2.69611111 16.8412425,2.75236111 17.1783259,2.86472222 C17.290687,2.89277778 17.3748537,2.92083333 17.4029092,2.92083333 C17.4872148,2.92083333 17.5433259,2.86472222 17.5433259,2.75236111 L17.5433259,2.47152778 C17.5433259,2.38722222 17.5152703,2.33111111 17.4872148,2.27486111 C17.4591592,2.21875 17.4029092,2.19069444 17.3187425,2.1625 C16.8974925,2.02222222 16.4762425,1.93791667 16.0548537,1.93791667 C15.5212425,1.93791667 15.071937,2.07833333 14.7348537,2.33111111 C14.3979092,2.58375 14.2292981,2.94888889 14.2292981,3.37013889 C14.2292981,4.01611111 14.594437,4.49361111 15.3247148,4.77444444 L16.1672148,5.08333333 C16.4480481,5.19569444 16.6165203,5.28 16.7288814,5.39236111 C16.8412425,5.50458333 16.8692981,5.61694444 16.8692981,5.78555556 C16.8692981,6.01013889 16.7851314,6.20680556 16.6166592,6.31916667 Z" id="Path"></path>
                        <path d="M19.6216592,0.168472222 C19.5092981,0.05625 19.3408259,3.94745964e-15 19.1442981,3.94745964e-15 C18.9476314,3.94745964e-15 18.8072148,0.05625 18.6948537,0.168472222 C18.5824925,0.280972222 18.5263814,0.42125 18.5263814,0.589861111 C18.5263814,0.758333333 18.5824925,0.926805556 18.6948537,1.01111111 C18.8072148,1.12347222 18.9476314,1.17958333 19.1442981,1.17958333 C19.3408259,1.17958333 19.4812425,1.12347222 19.5936037,1.01111111 C19.7059648,0.89875 19.7620759,0.758333333 19.7620759,0.589861111 C19.7620759,0.42125 19.7340203,0.252777778 19.6216592,0.168472222 Z" id="Path"></path>
                        <path d="M19.453187,2.07833333 L18.8633259,2.07833333 C18.7230481,2.07833333 18.6667981,2.13444444 18.6667981,2.27486111 L18.6667981,6.93694444 C18.6667981,7.07736111 18.7230481,7.13361111 18.8633259,7.13361111 L19.453187,7.13361111 C19.5936037,7.13361111 19.6497148,7.07736111 19.6497148,6.93694444 L19.6497148,2.27486111 C19.6497148,2.1625 19.5936037,2.07833333 19.453187,2.07833333 Z" id="Path"></path>
                        <path d="M22.093187,3.20166667 C22.3459648,2.92083333 22.7390203,2.78041667 23.3008259,2.78041667 C23.5816592,2.78041667 23.8624925,2.80847222 24.1152703,2.89277778 C24.1995759,2.92083333 24.2276314,2.92083333 24.2837425,2.92083333 C24.3680481,2.92083333 24.4241592,2.86472222 24.4241592,2.72430556 L24.4241592,2.44347222 C24.4241592,2.35916667 24.3961037,2.27486111 24.3680481,2.24680556 C24.3398537,2.21875 24.2837425,2.1625 24.2276314,2.13444444 C23.8624925,2.05027778 23.4973537,1.96597222 23.1604092,1.96597222 C22.3740203,1.96597222 21.7841592,2.19069444 21.3348537,2.66805556 C20.9136037,3.1175 20.6888814,3.79152778 20.6888814,4.63402778 C20.6888814,5.47652778 20.8855481,6.1225 21.3067981,6.57194444 C21.7280481,7.02125 22.3177703,7.24583333 23.1041592,7.24583333 C23.5254092,7.24583333 23.9187425,7.18972222 24.2276314,7.04930556 C24.311937,7.02125 24.3680481,6.99319444 24.3961037,6.93694444 C24.4241592,6.90888889 24.4241592,6.82458333 24.4241592,6.74041667 L24.4241592,6.45958333 C24.4241592,6.31902778 24.3680481,6.26291667 24.2837425,6.26291667 C24.255687,6.26291667 24.1995759,6.26291667 24.1433259,6.29097222 C23.834437,6.37527778 23.5255481,6.43138889 23.2445759,6.43138889 C22.7111037,6.43138889 22.3179092,6.29097222 22.0651314,6.01013889 C21.8123537,5.72930556 21.6999925,5.28 21.6999925,4.69013889 L21.6999925,4.54972222 C21.7280481,3.93194444 21.8404092,3.4825 22.093187,3.20166667 Z" id="Path"></path>
                        <path d="M6.87110366,7.13361111 L7.46096477,7.13361111 C7.60138144,7.13361111 7.65749255,7.07736111 7.65749255,6.93694444 L7.65749255,3.42638889 C7.65749255,2.94888889 7.54513144,2.58375 7.29249255,2.33111111 C7.03971477,2.07833333 6.70263144,1.93791667 6.22513144,1.93791667 C5.5792981,1.93791667 4.90527032,2.1625 4.2592981,2.64 C4.03457588,2.1625 3.61332588,1.93791667 2.99540921,1.93791667 C2.37763144,1.93791667 1.75971477,2.1625 1.1417981,2.58375 L1.08568699,2.27486111 C1.08568699,2.19069444 1.05763144,2.1625 1.00138144,2.13444444 C0.97332588,2.10638889 0.917214769,2.10638889 0.860964769,2.10638889 L0.411659214,2.10638889 C0.271242547,2.10638889 0.215131436,2.1625 0.215131436,2.30305556 L0.215131436,6.96513889 C0.215131436,7.10555556 0.271242547,7.16166667 0.411659214,7.16166667 L1.00138144,7.16166667 C1.1417981,7.16166667 1.1980481,7.10555556 1.1980481,6.96513889 L1.1980481,3.17361111 C1.67540921,2.89277778 2.15290921,2.72430556 2.65846477,2.72430556 C2.9392981,2.72430556 3.13596477,2.80847222 3.24818699,2.97708333 C3.3605481,3.14555556 3.44485366,3.37013889 3.44485366,3.70722222 L3.44485366,6.93694444 C3.44485366,7.07736111 3.50096477,7.13361111 3.64138144,7.13361111 L4.23124255,7.13361111 C4.37165921,7.13361111 4.42777032,7.07736111 4.42777032,6.93694444 L4.42777032,3.31402778 C4.42777032,3.25791667 4.42777032,3.20166667 4.42777032,3.17361111 C4.93332588,2.86472222 5.41068699,2.72430556 5.88818699,2.72430556 C6.16902032,2.72430556 6.36568699,2.80847222 6.4780481,2.97708333 C6.59040921,3.14555556 6.67457588,3.37027778 6.67457588,3.70722222 L6.67457588,6.93694444 C6.67457588,7.07736111 6.73068699,7.13361111 6.87110366,7.13361111 Z" id="Path"></path>
                        <path d="M12.2072148,2.27486111 L12.2072148,6.01013889 C11.7298537,6.31916667 11.2523537,6.48763889 10.7749925,6.48763889 C10.4659648,6.48763889 10.2413814,6.40333333 10.1009648,6.23486111 C9.9605481,6.06638889 9.9042981,5.81361111 9.9042981,5.44847222 L9.9042981,2.27486111 C9.9042981,2.13444444 9.84818699,2.07833333 9.70777032,2.07833333 L9.11790921,2.07833333 C8.97749255,2.07833333 8.92138144,2.13444444 8.92138144,2.27486111 L8.92138144,5.7575 C8.92138144,6.23486111 9.03374255,6.62805556 9.28638144,6.88083333 C9.5392981,7.13361111 9.9042981,7.27402778 10.3817981,7.27402778 C11.0277703,7.27402778 11.6737425,7.04930556 12.2915203,6.6 L12.3477703,6.93694444 C12.3477703,7.02125 12.3758259,7.04930556 12.431937,7.07736111 C12.4601314,7.10555556 12.5162425,7.10555556 12.6004092,7.10555556 L13.0217981,7.10555556 C13.1622148,7.10555556 13.2183259,7.04930556 13.2183259,6.90888889 L13.2183259,2.27486111 C13.2183259,2.13444444 13.1622148,2.07833333 13.0217981,2.07833333 L12.431937,2.07833333 C12.2634648,2.07833333 12.2072148,2.1625 12.2072148,2.27486111 L12.2072148,2.27486111 Z" id="Path"></path>
                        <path d="M23.356937,13.5088889 C24.8173537,12.2730556 25.2105481,9.71736111 24.9016592,9.32416667 C24.7612425,9.15569444 24.0872148,8.98722222 23.2445759,8.98722222 C22.3459648,8.98722222 21.2787425,9.18375 20.4642981,9.74541667 C20.2115203,9.91402778 20.2676314,10.1386111 20.5204092,10.1105556 C21.3911037,9.99819444 23.356937,9.77361111 23.7220759,10.2229167 C24.0590203,10.6722222 23.3288814,12.5259722 22.991937,13.3404167 C22.9076314,13.5930556 23.1041592,13.6773611 23.356937,13.5088889 Z" id="Path"></path>
                        <path d="M22.1773537,10.8688889 C19.1161037,12.1608333 15.7740203,12.8066667 12.7409648,12.8066667 C8.24735366,12.8066667 3.89415921,11.5709722 0.383603658,9.52083333 C0.327353658,9.49277778 0.271242547,9.46458333 0.215131436,9.46458333 C0.0184647693,9.46458333 -0.0938963418,9.68930556 0.102770325,9.88583333 C3.3605481,12.8348611 7.68568699,14.6041667 12.4599925,14.6041667 C15.8863814,14.6041667 19.8463814,13.5369444 22.5705481,11.5148611 C23.0480481,11.1777778 22.6548537,10.6722222 22.1773537,10.8688889 L22.1773537,10.8688889 Z" id="Path"></path>
                    </g>
                    <g id="Group-8">
                        <path d="M14.1262726,0.84315109 L14.1262726,0.288428349 C14.1268069,0.203937695 14.1903084,0.14776324 14.2669377,0.147992212 L16.7531916,0.14776324 C16.8327212,0.14776324 16.896528,0.205540498 16.896528,0.287741433 L16.896528,0.763468847 C16.8957648,0.843303738 16.8285234,0.947333333 16.7093816,1.11265109 L15.4214907,2.9514486 C15.8994315,2.94022897 16.4051542,3.01197352 16.8395903,3.25605763 C16.937514,3.31108723 16.9637695,3.39252492 16.9714782,3.47251246 L16.9714782,4.06448131 C16.9714782,4.145919 16.8821028,4.2404081 16.7883006,4.19117913 C16.0231526,3.79032555 15.007662,3.7465919 14.1613816,4.19614019 C14.0749065,4.24216355 13.9844626,4.14912461 13.9844626,4.06745794 L13.9844626,3.50487383 C13.9844626,3.4147352 13.9862181,3.26086604 14.0770436,3.12363551 L15.5691012,0.982976636 L14.2699907,0.982823988 C14.1905374,0.982823988 14.1268069,0.926267913 14.1262726,0.84315109" id="Fill-5" fill="#FFFFFF"></path>
                        <path d="M5.05715109,4.30780218 L4.30078037,4.30780218 C4.22880685,4.30314642 4.17133489,4.24910903 4.16545794,4.1799595 L4.16606854,0.297892523 C4.16606854,0.220194704 4.23132555,0.158219626 4.31207632,0.158219626 L5.0164704,0.157990654 C5.09012305,0.16173053 5.14927414,0.217523364 5.15385358,0.288428349 L5.15385358,0.795219626 L5.16812617,0.795219626 C5.35168536,0.305066978 5.69766199,0.0762476636 6.16354361,0.0762476636 C6.63659969,0.0762476636 6.9331947,0.305066978 7.14499377,0.795219626 C7.32862928,0.305066978 7.74520561,0.0762476636 8.19002181,0.0762476636 C8.50775857,0.0762476636 8.85365888,0.206990654 9.06545794,0.501066978 C9.30549688,0.827962617 9.25626791,1.30162928 9.25626791,1.71828193 L9.25550467,4.16812928 C9.25550467,4.24559813 9.19032399,4.30780218 9.10957321,4.30780218 L8.3541947,4.30780218 C8.27817601,4.30299377 8.21849065,4.24292679 8.21849065,4.16843458 L8.21826168,2.11028193 C8.21826168,1.94717757 8.23238162,1.53861526 8.19696729,1.3834486 C8.14056386,1.12188629 7.97112461,1.04830997 7.75230374,1.04830997 C7.56866822,1.04830997 7.3780109,1.17088629 7.30023676,1.36688629 C7.22269159,1.56303894 7.2297134,1.88970561 7.2297134,2.11028193 L7.2297134,4.16812928 C7.2297134,4.24559813 7.16445639,4.30780218 7.08385826,4.30780218 L6.32840343,4.30780218 C6.25238474,4.30299377 6.19254673,4.24292679 6.19254673,4.16843458 L6.19178349,2.11028193 C6.19178349,1.67737227 6.26238318,1.04037227 5.72590187,1.04037227 C5.18209346,1.04037227 5.20338785,1.66103894 5.20338785,2.11028193 L5.20308255,4.16812928 C5.20308255,4.24559813 5.13774922,4.30780218 5.05715109,4.30780218" id="Fill-6" fill="#FFFFFF"></path>
                        <path d="M19.0437508,0.86879595 C18.4860514,0.86879595 18.450786,1.62829595 18.450786,2.10219159 C18.450786,2.5760109 18.4437679,3.58890654 19.0368816,3.58890654 C19.6230498,3.58890654 19.6511371,2.7720109 19.6511371,2.27392056 C19.6511371,1.94717757 19.6370171,1.5549486 19.5380249,1.24453894 C19.4533816,0.974809969 19.2837897,0.86879595 19.0437508,0.86879595 Z M19.0368816,0.0762476636 C20.1595312,0.0762476636 20.7666121,1.04037227 20.7666121,2.26567757 C20.7666121,3.44999688 20.0960296,4.38969782 19.0368816,4.38969782 C17.9353738,4.38969782 17.3352383,3.42549688 17.3352383,2.22476791 C17.3352383,1.01571963 17.9423956,0.0762476636 19.0368816,0.0762476636 L19.0368816,0.0762476636 Z" id="Fill-7" fill="#FFFFFF"></path>
                        <path d="M22.2225685,4.30780218 L21.4689455,4.30780218 C21.3932321,4.30299377 21.3332414,4.24292679 21.3332414,4.16843458 L21.3319439,0.284917445 C21.3383551,0.213859813 21.4010935,0.158219626 21.4772648,0.158219626 L22.1788349,0.157990654 C22.2449315,0.161501558 22.2994268,0.206456386 22.3133178,0.266676012 L22.3133178,0.860476636 L22.327514,0.860476636 C22.5394657,0.329338006 22.8357555,0.0762476636 23.3582695,0.0762476636 C23.697148,0.0762476636 24.029081,0.198747664 24.2408801,0.533809969 C24.4385592,0.844143302 24.4385592,1.36688629 24.4385592,1.74278193 L24.4385592,4.1856838 C24.4301636,4.25437539 24.3683411,4.30780218 24.2936199,4.30780218 L23.5354174,4.30780218 C23.465352,4.30337539 23.4088723,4.2518567 23.4007819,4.1856838 L23.4007819,2.07792056 C23.4007819,1.65302492 23.4502399,1.03205296 22.9277259,1.03205296 C22.7440903,1.03205296 22.5746511,1.15462928 22.4899315,1.34246262 C22.3839938,1.5794486 22.3697975,1.81620561 22.3697975,2.07792056 L22.3697975,4.16812928 C22.3685,4.24559813 22.3031667,4.30780218 22.2225685,4.30780218" id="Fill-8" fill="#FFFFFF"></path>
                        <g id="Group-12">
                            <mask id="mask-2" fill="white">
                                <use xlink:href="#path-1"></use>
                            </mask>
                            <g id="Clip-10"></g>
                            <path d="M12.9067679,4.29810903 C12.856852,4.34306386 12.7846495,4.3460405 12.7282461,4.31573988 C12.4770639,4.10699377 12.4320327,4.01052025 12.2945732,3.81169626 C11.879447,4.23460748 11.585447,4.36153427 11.0475919,4.36153427 C10.4108209,4.36153427 9.91547819,3.96846573 9.91547819,3.18263396 C9.91547819,2.56860748 10.2480981,2.15111526 10.7220701,1.94641433 C11.1323879,1.76628972 11.7056573,1.73354673 12.1444439,1.68424143 L12.1444439,1.58608879 C12.1444439,1.40588785 12.1585639,1.19324922 12.0523972,1.03762461 C11.9602741,0.898333333 11.7835078,0.841090343 11.6278069,0.841090343 C11.3393022,0.841090343 11.0829299,0.988853583 11.01981,1.29521807 C11.0066822,1.36337539 10.9569953,1.43092212 10.8885327,1.43443302 L10.1553645,1.35497975 C10.0933894,1.34093614 10.0246978,1.29132555 10.042405,1.19676012 C10.211081,0.307356698 11.0142383,0.0387725857 11.7338972,0.0387725857 C12.1020078,0.0387725857 12.5830016,0.13684891 12.873109,0.41535514 C13.2411433,0.759194704 13.2056526,1.21774922 13.2056526,1.71728972 L13.2056526,2.89542679 C13.2056526,3.25010436 13.3529579,3.4055 13.4911807,3.59638629 C13.5395701,3.66538318 13.5503318,3.74712617 13.488662,3.7975 C13.3342586,3.92702181 13.0597212,4.16538162 12.9087523,4.29986449 L12.9067679,4.29810903 Z M12.1444439,2.45389252 C12.1444439,2.74880841 12.1513894,2.99419003 12.0027866,3.25636293 C11.8825763,3.46907788 11.6913847,3.60020249 11.479204,3.60020249 C11.1891729,3.60020249 11.019352,3.37901558 11.019352,3.05150935 C11.019352,2.40733489 11.5972009,2.29025389 12.1444439,2.29025389 L12.1444439,2.45389252 L12.1444439,2.45389252 Z" id="Fill-9" fill="#FFFFFF" mask="url(#mask-2)"></path>
                            <path d="M2.99136604,4.29810903 C2.94145016,4.34306386 2.86909502,4.3460405 2.81269159,4.31573988 C2.5613567,4.10699377 2.51632555,4.01052025 2.37917134,3.81169626 C1.9638162,4.23460748 1.6698162,4.36153427 1.13211371,4.36153427 C0.495266355,4.36153427 0,3.96846573 0,3.18263396 C0,2.56860748 0.33246729,2.15111526 0.8065919,1.94641433 C1.21690966,1.76628972 1.79017913,1.73354673 2.22873676,1.68424143 L2.22873676,1.58608879 C2.22873676,1.40588785 2.24300935,1.19324922 2.136919,1.03762461 C2.04479595,0.898333333 1.86787695,0.841090343 1.71232866,0.841090343 C1.42382399,0.841090343 1.16722274,0.988853583 1.1044081,1.29521807 C1.09128037,1.36337539 1.04151713,1.43092212 0.972978193,1.43443302 L0.239886293,1.35497975 C0.177911215,1.34093614 0.109066978,1.29132555 0.126926791,1.19676012 C0.295373832,0.307356698 1.09853115,0.0387725857 1.818419,0.0387725857 C2.18637695,0.0387725857 2.66752336,0.13684891 2.95763084,0.41535514 C3.32551246,0.759194704 3.29025078,1.21774922 3.29025078,1.71728972 L3.29025078,2.89542679 C3.29025078,3.25010436 3.43740343,3.4055 3.57562617,3.59638629 C3.6237866,3.66538318 3.63485358,3.74712617 3.57326012,3.7975 C3.41870405,3.92702181 3.14409034,4.16538162 2.9931215,4.29986449 L2.99136604,4.29810903 Z M2.22873676,2.45389252 C2.22873676,2.74880841 2.23583489,2.99419003 2.08730841,3.25636293 C1.96709813,3.46907788 1.77598287,3.60020249 1.56364953,3.60020249 C1.2736947,3.60020249 1.10372118,3.37901558 1.10372118,3.05150935 C1.10372118,2.40733489 1.68172274,2.29025389 2.22873676,2.29025389 L2.22873676,2.45389252 L2.22873676,2.45389252 Z" id="Fill-11" fill="#FFFFFF" mask="url(#mask-2)"></path>
                        </g>
                    </g>
                </g>
            </g>
        </g>
    </g>
</svg>