<?xml version="1.0" encoding="UTF-8"?>
<svg width="160px" height="40px" viewBox="0 0 160 40" version="1.1" xmlns="http://www.w3.org/2000/svg" xmlns:xlink="http://www.w3.org/1999/xlink">
    <title>Castbox</title>
    <g id="Page-1" stroke="none" stroke-width="1" fill="none" fill-rule="evenodd">
        <g id="Listen-On" transform="translate(-149.000000, -545.000000)">
            <g id="Castbox" transform="translate(149.000000, 545.000000)">
                <rect id="Rectangle" fill="#000000" x="0" y="0" width="160" height="40" rx="7"></rect>
                <path d="M43,14.8958032 L43,9.10419682 L43.9101895,9.10419682 L43.9101895,14.1316932 L46.6680638,14.1316932 L46.6680638,14.8958032 L43,14.8958032 Z M48.0087195,9.99855282 C47.7265607,9.99855282 47.4808095,9.78147612 47.4808095,9.50361795 C47.4808095,9.22575977 47.7265607,9 48.0087195,9 C48.2999801,9 48.5366294,9.22575977 48.5366294,9.50361795 C48.5366294,9.78147612 48.2999801,9.99855282 48.0087195,9.99855282 Z M47.6082361,14.8958032 L47.6082361,10.7018813 L48.4274066,10.7018813 L48.4274066,14.8958032 L47.6082361,14.8958032 Z M49.3038656,14.3487699 L49.6952471,13.7756874 C49.9956097,14.0882779 50.578131,14.3748191 51.1697542,14.3748191 C51.7886831,14.3748191 52.1163513,14.1316932 52.1163513,13.7756874 C52.1163513,13.3589001 51.615747,13.2199711 51.0514295,13.0984081 C50.3050741,12.9334298 49.4312922,12.7424023 49.4312922,11.8393632 C49.4312922,11.170767 50.0320173,10.5976845 51.1060409,10.5976845 C51.8614982,10.5976845 52.4076119,10.8581766 52.7807896,11.1968162 L52.4167138,11.7438495 C52.1618608,11.4486252 51.6703584,11.2315485 51.1151428,11.2315485 C50.5599272,11.2315485 50.2140552,11.4399421 50.2140552,11.7785818 C50.2140552,12.1432706 50.6873537,12.2648336 51.2334674,12.3863965 C51.9980266,12.5513748 52.9082162,12.7510854 52.9082162,13.7149059 C52.9082162,14.4356006 52.2892873,15 51.1333466,15 C50.3960931,15 49.7498585,14.7829233 49.3038656,14.3487699 Z M55.1135519,15 C54.4218078,15 54.0668339,14.6266281 54.0668339,13.9667149 L54.0668339,11.3878437 L53.3386823,11.3878437 L53.3386823,10.7018813 L54.0668339,10.7018813 L54.0668339,9.55571635 L54.8860045,9.55571635 L54.8860045,10.7018813 L55.7779902,10.7018813 L55.7779902,11.3878437 L54.8860045,11.3878437 L54.8860045,13.7930535 C54.8860045,14.0882779 55.0316348,14.3053546 55.3137936,14.3053546 C55.5049334,14.3053546 55.6778694,14.2272069 55.7597864,14.1403763 L55.96913,14.7308249 C55.796194,14.8871201 55.541341,15 55.1135519,15 Z M56.3722905,12.7945007 C56.3722905,11.5788712 57.2915819,10.5976845 58.5749491,10.5976845 C59.894724,10.5976845 60.7138945,11.5788712 60.7138945,12.8639653 L60.7138945,13.0549928 L57.2369705,13.0549928 C57.3006838,13.7670043 57.8467975,14.357453 58.7296814,14.357453 C59.193878,14.357453 59.7035842,14.1837916 60.0312524,13.8625181 L60.413532,14.3748191 C59.976641,14.7829233 59.3577121,15 58.6477643,15 C57.3370914,15 56.3722905,14.1143271 56.3722905,12.7945007 Z M58.5749491,11.2402315 C57.6920653,11.2402315 57.2733781,11.9175109 57.2278686,12.4905933 L59.9129278,12.4905933 C59.894724,11.934877 59.5033425,11.2402315 58.5749491,11.2402315 Z M64.6667941,14.8958032 L64.6667941,12.2127352 C64.6667941,11.5180897 64.2936164,11.29233 63.7292989,11.29233 C63.2195928,11.29233 62.7553961,11.5875543 62.5187468,11.9001447 L62.5187468,14.8958032 L61.6995763,14.8958032 L61.6995763,10.7018813 L62.5187468,10.7018813 L62.5187468,11.29233 C62.8100075,10.9536903 63.3925288,10.5976845 64.0751709,10.5976845 C65.0035643,10.5976845 65.4859647,11.0665702 65.4859647,11.9522431 L65.4859647,14.8958032 L64.6667941,14.8958032 Z M70.9979655,15 C69.6326812,15 68.777103,14.0101302 68.777103,12.7945007 C68.777103,11.5875543 69.6326812,10.5976845 70.9979655,10.5976845 C72.3723517,10.5976845 73.2188279,11.5875543 73.2188279,12.7945007 C73.2188279,14.0101302 72.3723517,15 70.9979655,15 Z M70.9979655,14.3053546 C71.8808493,14.3053546 72.3632498,13.593343 72.3632498,12.7945007 C72.3632498,12.0043415 71.8808493,11.29233 70.9979655,11.29233 C70.1241835,11.29233 69.6326812,12.0043415 69.6326812,12.7945007 C69.6326812,13.593343 70.1241835,14.3053546 70.9979655,14.3053546 Z M77.1808294,14.8958032 L77.1808294,12.2127352 C77.1808294,11.5180897 76.8076517,11.29233 76.2433342,11.29233 C75.7336281,11.29233 75.2694314,11.5875543 75.0327821,11.9001447 L75.0327821,14.8958032 L74.2136115,14.8958032 L74.2136115,10.7018813 L75.0327821,10.7018813 L75.0327821,11.29233 C75.3240428,10.9536903 75.9065641,10.5976845 76.5892062,10.5976845 C77.5175995,10.5976845 78,11.0665702 78,11.9522431 L78,14.8958032 L77.1808294,14.8958032 Z" id="Listenon-Copy" fill="#FFFFFF" fill-rule="nonzero"></path>
                <path d="M48.1591797,31.1992188 C50.9150391,31.1992188 52.7910156,29.746582 53.2475586,27.2729492 L51.3964844,27.2729492 C51.0229492,28.7172852 49.8359375,29.5722656 48.1674805,29.5722656 C45.9677734,29.5722656 44.5732422,27.8041992 44.5732422,25.0068359 C44.5732422,22.234375 45.984375,20.449707 48.1591797,20.449707 C49.7861328,20.449707 51.0644531,21.4541016 51.3964844,22.9897461 L53.2392578,22.9897461 C52.9238281,20.4912109 50.8735352,18.8227539 48.1591797,18.8227539 C44.8139648,18.8227539 42.6723633,21.2133789 42.6723633,25.0068359 C42.6723633,28.8251953 44.7973633,31.1992188 48.1591797,31.1992188 Z M57.2651367,31.1494141 C58.4106445,31.1494141 59.5146484,30.5351562 60.0209961,29.5639648 L60.0625,29.5639648 L60.0625,31 L61.7807617,31 L61.7807617,24.9819336 C61.7807617,23.2304688 60.4277344,22.1098633 58.3110352,22.1098633 C56.152832,22.1098633 54.8081055,23.2719727 54.7084961,24.8491211 L56.4018555,24.8491211 C56.5595703,24.0688477 57.2070312,23.5708008 58.2446289,23.5708008 C59.340332,23.5708008 59.9960938,24.1518555 59.9960938,25.1230469 L59.9960938,25.7954102 L57.6054688,25.9365234 C55.5302734,26.0527344 54.3598633,26.9907227 54.3598633,28.5180664 C54.3598633,30.0869141 55.5551758,31.1494141 57.2651367,31.1494141 Z M57.7631836,29.7299805 C56.800293,29.7299805 56.1694336,29.2319336 56.1694336,28.4682617 C56.1694336,27.7211914 56.7753906,27.2480469 57.8461914,27.1733398 L59.9960938,27.0405273 L59.9960938,27.7294922 C59.9960938,28.8666992 59.0166016,29.7299805 57.7631836,29.7299805 Z M66.7944336,31.1660156 C68.8530273,31.1660156 70.3388672,30.0703125 70.3388672,28.4765625 C70.3388672,27.2148438 69.6582031,26.5175781 67.8735352,26.1025391 L66.4541016,25.7788086 C65.5078125,25.5629883 65.109375,25.1894531 65.109375,24.6416016 C65.109375,23.9443359 65.7568359,23.4711914 66.7280273,23.4711914 C67.7324219,23.4711914 68.3549805,24.0024414 68.4545898,24.8491211 L70.1396484,24.8491211 C70.081543,23.2387695 68.7617188,22.1098633 66.7280273,22.1098633 C64.7192383,22.1098633 63.3579102,23.1806641 63.3579102,24.7412109 C63.3579102,26.0112305 64.1796875,26.8081055 65.8398438,27.1899414 L67.2592773,27.5219727 C68.2138672,27.737793 68.5375977,28.0698242 68.5375977,28.6342773 C68.5375977,29.3481445 67.8735352,29.7963867 66.7944336,29.7963867 C65.6987305,29.7963867 65.0761719,29.3481445 64.9101562,28.4350586 L63.1337891,28.4350586 C63.2998047,30.0952148 64.6113281,31.1660156 66.7944336,31.1660156 Z M74.7050781,31.0581055 C75.1035156,31.0581055 75.5019531,31.0249023 75.7011719,30.9750977 L75.7011719,29.5556641 C75.5849609,29.5805664 75.2944336,29.597168 75.1118164,29.597168 C74.3813477,29.597168 74.0493164,29.2568359 74.0493164,28.5014648 L74.0493164,23.6870117 L75.7094727,23.6870117 L75.7094727,22.2675781 L74.0493164,22.2675781 L74.0493164,20.2006836 L72.2480469,20.2006836 L72.2480469,22.2675781 L70.9780273,22.2675781 L70.9780273,23.6870117 L72.2480469,23.6870117 L72.2480469,28.7006836 C72.2480469,30.3857422 72.9370117,31.0581055 74.7050781,31.0581055 Z M81.8271484,31.1494141 C84.043457,31.1494141 85.4711914,29.40625 85.4711914,26.6337891 C85.4711914,23.8696289 84.0351562,22.1264648 81.8354492,22.1264648 C80.5986328,22.1264648 79.6025391,22.7407227 79.0795898,23.753418 L79.0380859,23.753418 L79.0380859,19.0219727 L77.2451172,19.0219727 L77.2451172,31 L78.9882812,31 L78.9882812,29.5141602 L79.0214844,29.5141602 C79.5610352,30.5268555 80.5488281,31.1494141 81.8271484,31.1494141 Z M81.3457031,29.6303711 C79.984375,29.6303711 79.0297852,28.4516602 79.0297852,26.6337891 C79.0297852,24.8325195 79.984375,23.637207 81.3457031,23.637207 C82.7568359,23.637207 83.628418,24.7993164 83.628418,26.6337891 C83.628418,28.4848633 82.7568359,29.6303711 81.3457031,29.6303711 Z M90.6176758,31.1660156 C93.1162109,31.1660156 94.7597656,29.4477539 94.7597656,26.6337891 C94.7597656,23.828125 93.1079102,22.1098633 90.6176758,22.1098633 C88.1274414,22.1098633 86.4755859,23.828125 86.4755859,26.6337891 C86.4755859,29.4477539 88.1191406,31.1660156 90.6176758,31.1660156 Z M90.6176758,29.6884766 C89.2148438,29.6884766 88.3017578,28.5761719 88.3017578,26.6337891 C88.3017578,24.699707 89.2148438,23.5874023 90.6176758,23.5874023 C92.0205078,23.5874023 92.9335938,24.699707 92.9335938,26.6337891 C92.9335938,28.5761719 92.0288086,29.6884766 90.6176758,29.6884766 Z M97.440918,31 L99.375,27.7875977 L99.4165039,27.7875977 L101.342285,31 L103.317871,31 L100.487305,26.5839844 L103.351074,22.2675781 L101.375488,22.2675781 L99.4912109,25.4301758 L99.4580078,25.4301758 L97.5488281,22.2675781 L95.5400391,22.2675781 L98.3789062,26.6420898 L95.4985352,31 L97.440918,31 Z" fill="#FFFFFF" fill-rule="nonzero"></path>
                <g id="castboxfm-icon" transform="translate(11.000000, 7.000000)" fill-rule="nonzero">
                    <path d="M0.1125,12.3076923 L0.1125,7.15923077 C0.107625,6.37230769 0.43125,5.81307692 1.089375,5.41153846 L9.4635,0.323076923 C10.16325,-0.105384615 10.8135,-0.108846154 11.517375,0.32 L19.9275,5.425 C20.57175,5.81461538 20.8905,6.38653846 20.89125,7.14615385 L20.892,17.4511538 C20.892,18.2088462 20.5845,18.7857692 19.938,19.1765385 L11.5005,24.3034615 C10.8255,24.7134615 10.1865,24.7265385 9.5115,24.3111538 L1.095,19.2061538 C0.42225,18.8007692 0.10125,18.2269231 0.10716745,17.4253846 L0.1125,12.3076923 Z M12.640125,12.2392308 L12.637875,9.87576923 C12.634125,9.43153846 12.380625,9.14576923 11.992875,9.11576923 C11.540625,9.07730769 11.212875,9.37192308 11.200875,9.84653846 L11.194875,11.3965385 C11.188875,11.7311538 10.975875,11.9053846 10.681125,11.8388462 C10.438125,11.7842308 10.373625,11.6061538 10.375125,11.3753846 L10.377375,9.32153846 C10.3785,9.03153846 10.30125,8.78538462 10.04925,8.62615385 C9.53625,8.30230769 8.9415,8.63384615 8.925,9.26461538 L8.91975,10.9311538 C8.916,11.2365385 8.781,11.3826923 8.5275,11.3919231 C8.265,11.4011538 8.097375,11.24 8.07975,10.9303846 L8.076,10.3534615 C8.062875,10.0326923 7.90425,9.815 7.61625,9.715 C7.12875,9.53961538 6.658125,9.87192308 6.64875,10.4096154 L6.64275,11.8826923 C6.63675,12.1503846 6.482625,12.2969231 6.246,12.3042308 C6.003,12.3119231 5.84925,12.1757692 5.81475,11.9146154 C5.804625,11.8384615 5.81475,11.7588462 5.80575,11.6826923 C5.76075,11.3 5.44875,11.0088462 5.09325,11.0134615 C4.73325,11.0173077 4.392,11.3096154 4.383,11.685 L4.38375,14.01 C4.393875,14.3946154 4.734,14.6819231 5.09175,14.6815385 C5.4555,14.6803846 5.75775,14.3992308 5.80425,14.0123077 C5.8155,13.9230769 5.78175,13.8111538 5.823,13.7457692 C5.9055,13.6157692 6.00825,13.4546154 6.136125,13.4123077 C6.247125,13.3753846 6.438,13.4484615 6.529875,13.5403846 C6.612375,13.6223077 6.637875,13.7942308 6.63975,13.9280769 L6.64725,16.2142308 C6.65475,16.7711538 7.21425,17.1142308 7.69425,16.8657692 C7.96725,16.7242308 8.082,16.4903846 8.079,16.1703846 L8.076,13.1473077 C8.07675,12.6773077 8.21325,12.4665385 8.51175,12.4711538 C8.79675,12.475 8.92425,12.6711538 8.92425,13.1242308 L8.926125,14.4803846 C8.935125,14.9511538 9.220875,15.2496154 9.640125,15.2580769 C10.072125,15.2630769 10.369125,14.9503846 10.377375,14.4619231 L10.380375,13.4157692 C10.386375,13.0988462 10.540125,12.9246154 10.793625,12.9296154 C11.047125,12.9346154 11.195625,13.1073077 11.19975,13.4238462 L11.204625,14.625 C11.218875,15.0596154 11.528625,15.3557692 11.93475,15.3492308 C12.353625,15.3423077 12.63675,15.0392308 12.640875,14.5657692 L12.64275,12.2388462 L12.640125,12.2392308 Z M14.922375,13.0607692 L14.92125,11.7446154 C14.916,11.2973077 14.64525,11.0030769 14.236125,10.9869231 C13.808625,10.9696154 13.486125,11.2246154 13.480875,11.6688462 L13.48575,14.4553846 C13.497,14.8873077 13.8435,15.1715385 14.23875,15.1484615 C14.65125,15.1238462 14.915625,14.8284615 14.922,14.3780769 L14.92275,13.0619231 L14.922375,13.0607692 Z M15.763125,13.4269231 L15.763875,13.7746154 C15.782625,14.1723077 16.048125,14.4476923 16.429125,14.4692308 C16.833,14.4923077 17.152875,14.2403846 17.191125,13.8353846 C17.2160877,13.5659792 17.2158366,13.2947409 17.190375,13.0253846 C17.152875,12.6253846 16.815375,12.3546154 16.432875,12.3784615 C16.05975,12.4015385 15.785625,12.6869231 15.763125,13.0784615 C15.756375,13.1938462 15.762375,13.3103846 15.762375,13.4261538 L15.763125,13.4269231 Z" id="Shape" fill="#F25C31"></path>
                    <path d="M12.63975,12.2434615 L12.637875,14.5684615 C12.633,15.0415385 12.350625,15.3453846 11.93175,15.3519231 C11.525625,15.3588462 11.21925,15.0626923 11.201625,14.6276923 L11.19675,13.4265385 C11.193,13.1103846 11.0445,12.9365385 10.790625,12.9323077 C10.53675,12.9280769 10.383375,13.1015385 10.377375,13.4184615 L10.374375,14.4646154 C10.366125,14.9492308 10.069125,15.2657692 9.637125,15.2607692 C9.217875,15.2557692 8.932125,14.9530769 8.923125,14.4830769 L8.925,13.1269231 C8.92425,12.6738462 8.80125,12.4776923 8.5125,12.4738462 C8.214375,12.47 8.0775,12.68 8.07675,13.15 L8.07975,16.1730769 C8.08275,16.4930769 7.968,16.7269231 7.695,16.8684615 C7.215,17.1169231 6.65625,16.7738462 6.648,16.2169231 L6.6405,13.9307692 C6.638625,13.7976923 6.6135,13.625 6.530625,13.5430769 C6.437625,13.4515385 6.2475,13.3788462 6.136875,13.415 C6.009375,13.4534615 5.906625,13.6180769 5.82375,13.7484615 C5.78625,13.8138462 5.8155,13.9253846 5.805,14.015 C5.758125,14.4015385 5.45625,14.6834615 5.0925,14.6842308 C4.73475,14.6853846 4.39425,14.3930769 4.3845,14.0126923 L4.38375,11.6876923 C4.3935,11.3123077 4.733625,11.0207692 5.094,11.0161538 C5.45025,11.0123077 5.7615,11.3030769 5.8065,11.6853846 C5.8155,11.7615385 5.805375,11.8411538 5.8155,11.9173077 C5.853,12.1780769 6.003,12.3142308 6.24675,12.3069231 C6.483,12.2992308 6.6375,12.1530769 6.6435,11.8853846 L6.6495,10.4123077 C6.65925,9.87461538 7.1295,9.54307692 7.617,9.71769231 C7.905,9.82153846 8.067,10.0353846 8.07675,10.3561538 L8.0805,10.9330769 C8.09775,11.2388462 8.262375,11.4007692 8.52825,11.3946154 C8.781375,11.3853846 8.916375,11.2388462 8.9205,10.9338462 L8.92575,9.26730769 C8.942625,8.63653846 9.537,8.305 10.05,8.62884615 C10.30275,8.78807692 10.38,9.03423077 10.378125,9.32423077 L10.375875,11.3780769 C10.37475,11.6080769 10.439625,11.7865385 10.681875,11.8415385 C10.977,11.9084615 11.19,11.7338462 11.195625,11.3992308 L11.201625,9.84923077 C11.213625,9.37461538 11.541375,9.08 11.993625,9.11846154 C12.380625,9.14846154 12.63375,9.43384615 12.638625,9.87846154 L12.640875,12.2438462 L12.63975,12.2434615 Z M14.922,13.0653846 L14.920875,14.3815385 C14.914125,14.8315385 14.647125,15.1276923 14.237625,15.1519231 C13.842375,15.175 13.495125,14.8911538 13.484625,14.4588462 L13.47975,11.6723077 C13.489875,11.2280769 13.808625,10.9730769 14.235,10.9903846 C14.6475,11.0069231 14.914875,11.3011538 14.920125,11.7480769 L14.922,13.0642308 L14.922,13.0653846 Z M15.76275,13.4307692 L15.763875,13.0830769 C15.785625,12.6907692 16.063875,12.4061538 16.433625,12.3830769 C16.819875,12.3592308 17.154375,12.63 17.191125,13.03 C17.215875,13.2976923 17.217375,13.5684615 17.191875,13.84 C17.153625,14.245 16.83375,14.4965385 16.429875,14.4738462 C16.048875,14.4523077 15.783,14.1765385 15.764625,13.7792308 C15.758625,13.6638462 15.7635,13.5473077 15.7635,13.4315385 L15.76275,13.4307692 Z" id="Shape" fill="#FEFEFE"></path>
                </g>
            </g>
        </g>
    </g>
</svg>