<?xml version="1.0" encoding="UTF-8"?>
<svg width="160px" height="40px" viewBox="0 0 160 40" version="1.1" xmlns="http://www.w3.org/2000/svg" xmlns:xlink="http://www.w3.org/1999/xlink">
    <title>Google Podcasts</title>
    <g id="Page-1" stroke="none" stroke-width="1" fill="none" fill-rule="evenodd">
        <g id="Listen-On" transform="translate(-509.000000, -485.000000)">
            <g id="Google-Podcasts" transform="translate(509.000000, 485.000000)">
                <rect id="Rectangle" fill="#000000" x="0" y="0" width="160" height="40" rx="7"></rect>
                <path d="M43,14.8958032 L43,9.10419682 L43.9101895,9.10419682 L43.9101895,14.1316932 L46.6680638,14.1316932 L46.6680638,14.8958032 L43,14.8958032 Z M48.0087195,9.99855282 C47.7265607,9.99855282 47.4808095,9.78147612 47.4808095,9.50361795 C47.4808095,9.22575977 47.7265607,9 48.0087195,9 C48.2999801,9 48.5366294,9.22575977 48.5366294,9.50361795 C48.5366294,9.78147612 48.2999801,9.99855282 48.0087195,9.99855282 Z M47.6082361,14.8958032 L47.6082361,10.7018813 L48.4274066,10.7018813 L48.4274066,14.8958032 L47.6082361,14.8958032 Z M49.3038656,14.3487699 L49.6952471,13.7756874 C49.9956097,14.0882779 50.578131,14.3748191 51.1697542,14.3748191 C51.7886831,14.3748191 52.1163513,14.1316932 52.1163513,13.7756874 C52.1163513,13.3589001 51.615747,13.2199711 51.0514295,13.0984081 C50.3050741,12.9334298 49.4312922,12.7424023 49.4312922,11.8393632 C49.4312922,11.170767 50.0320173,10.5976845 51.1060409,10.5976845 C51.8614982,10.5976845 52.4076119,10.8581766 52.7807896,11.1968162 L52.4167138,11.7438495 C52.1618608,11.4486252 51.6703584,11.2315485 51.1151428,11.2315485 C50.5599272,11.2315485 50.2140552,11.4399421 50.2140552,11.7785818 C50.2140552,12.1432706 50.6873537,12.2648336 51.2334674,12.3863965 C51.9980266,12.5513748 52.9082162,12.7510854 52.9082162,13.7149059 C52.9082162,14.4356006 52.2892873,15 51.1333466,15 C50.3960931,15 49.7498585,14.7829233 49.3038656,14.3487699 Z M55.1135519,15 C54.4218078,15 54.0668339,14.6266281 54.0668339,13.9667149 L54.0668339,11.3878437 L53.3386823,11.3878437 L53.3386823,10.7018813 L54.0668339,10.7018813 L54.0668339,9.55571635 L54.8860045,9.55571635 L54.8860045,10.7018813 L55.7779902,10.7018813 L55.7779902,11.3878437 L54.8860045,11.3878437 L54.8860045,13.7930535 C54.8860045,14.0882779 55.0316348,14.3053546 55.3137936,14.3053546 C55.5049334,14.3053546 55.6778694,14.2272069 55.7597864,14.1403763 L55.96913,14.7308249 C55.796194,14.8871201 55.541341,15 55.1135519,15 Z M56.3722905,12.7945007 C56.3722905,11.5788712 57.2915819,10.5976845 58.5749491,10.5976845 C59.894724,10.5976845 60.7138945,11.5788712 60.7138945,12.8639653 L60.7138945,13.0549928 L57.2369705,13.0549928 C57.3006838,13.7670043 57.8467975,14.357453 58.7296814,14.357453 C59.193878,14.357453 59.7035842,14.1837916 60.0312524,13.8625181 L60.413532,14.3748191 C59.976641,14.7829233 59.3577121,15 58.6477643,15 C57.3370914,15 56.3722905,14.1143271 56.3722905,12.7945007 Z M58.5749491,11.2402315 C57.6920653,11.2402315 57.2733781,11.9175109 57.2278686,12.4905933 L59.9129278,12.4905933 C59.894724,11.934877 59.5033425,11.2402315 58.5749491,11.2402315 Z M64.6667941,14.8958032 L64.6667941,12.2127352 C64.6667941,11.5180897 64.2936164,11.29233 63.7292989,11.29233 C63.2195928,11.29233 62.7553961,11.5875543 62.5187468,11.9001447 L62.5187468,14.8958032 L61.6995763,14.8958032 L61.6995763,10.7018813 L62.5187468,10.7018813 L62.5187468,11.29233 C62.8100075,10.9536903 63.3925288,10.5976845 64.0751709,10.5976845 C65.0035643,10.5976845 65.4859647,11.0665702 65.4859647,11.9522431 L65.4859647,14.8958032 L64.6667941,14.8958032 Z M70.9979655,15 C69.6326812,15 68.777103,14.0101302 68.777103,12.7945007 C68.777103,11.5875543 69.6326812,10.5976845 70.9979655,10.5976845 C72.3723517,10.5976845 73.2188279,11.5875543 73.2188279,12.7945007 C73.2188279,14.0101302 72.3723517,15 70.9979655,15 Z M70.9979655,14.3053546 C71.8808493,14.3053546 72.3632498,13.593343 72.3632498,12.7945007 C72.3632498,12.0043415 71.8808493,11.29233 70.9979655,11.29233 C70.1241835,11.29233 69.6326812,12.0043415 69.6326812,12.7945007 C69.6326812,13.593343 70.1241835,14.3053546 70.9979655,14.3053546 Z M77.1808294,14.8958032 L77.1808294,12.2127352 C77.1808294,11.5180897 76.8076517,11.29233 76.2433342,11.29233 C75.7336281,11.29233 75.2694314,11.5875543 75.0327821,11.9001447 L75.0327821,14.8958032 L74.2136115,14.8958032 L74.2136115,10.7018813 L75.0327821,10.7018813 L75.0327821,11.29233 C75.3240428,10.9536903 75.9065641,10.5976845 76.5892062,10.5976845 C77.5175995,10.5976845 78,11.0665702 78,11.9522431 L78,14.8958032 L77.1808294,14.8958032 Z" id="Listenon-Copy-3" fill="#FFFFFF" fill-rule="nonzero"></path>
                <g id="_logo_Podcasts_192px" transform="translate(10.000000, 7.000000)">
                    <polygon id="Shape" fill="#FAB908" points="10.9375 7.95454545 10.9375 11.7428977 10.9375 13.2571023 10.9375 17.0454545 14.0625 17.0454545 14.0625 13.2571023 14.0625 11.7428977 14.0625 7.95454545"></polygon>
                    <circle id="Oval" fill="#0066D9" cx="1.5625" cy="11.6477273" r="1.5625"></circle>
                    <circle id="Oval" fill="#0066D9" cx="1.5625" cy="13.3522727" r="1.5625"></circle>
                    <rect id="Rectangle-path" fill="#0066D9" x="0" y="11.6477273" width="3.125" height="1.70454545"></rect>
                    <circle id="Oval" fill="#4285F4" cx="23.4375" cy="13.3522727" r="1.5625"></circle>
                    <circle id="Oval" fill="#4285F4" cx="23.4375" cy="11.6477273" r="1.5625"></circle>
                    <rect id="Rectangle-path" fill="#4285F4" transform="translate(23.437500, 12.500000) rotate(180.000000) translate(-23.437500, -12.500000) " x="21.875" y="11.6477273" width="3.125" height="1.70454545"></rect>
                    <circle id="Oval" fill="#EA4335" cx="6.96022727" cy="16.7613636" r="1.5625"></circle>
                    <circle id="Oval" fill="#EA4335" cx="6.96022727" cy="18.4659091" r="1.5625"></circle>
                    <rect id="Rectangle-path" fill="#EA4335" x="5.39772727" y="16.7613636" width="3.125" height="1.70454545"></rect>
                    <circle id="Oval" fill="#EA4335" cx="6.96022727" cy="6.53409091" r="1.5625"></circle>
                    <circle id="Oval" fill="#EA4335" cx="6.96022727" cy="12.0738636" r="1.5625"></circle>
                    <rect id="Rectangle-path" fill="#EA4335" x="5.39772727" y="6.53409091" width="3.125" height="5.57528409"></rect>
                    <circle id="Oval" fill="#34A853" cx="18.0397727" cy="8.23863636" r="1.5625"></circle>
                    <circle id="Oval" fill="#34A853" cx="18.0397727" cy="6.53409091" r="1.5625"></circle>
                    <rect id="Rectangle-path" fill="#34A853" transform="translate(18.039773, 7.386364) rotate(180.000000) translate(-18.039773, -7.386364) " x="16.4772727" y="6.53409091" width="3.125" height="1.70454545"></rect>
                    <circle id="Oval" fill="#FAB908" cx="12.5" cy="3.26704545" r="1.5625"></circle>
                    <circle id="Oval" fill="#FAB908" cx="12.5" cy="1.5625" r="1.5625"></circle>
                    <rect id="Rectangle-path" fill="#FAB908" transform="translate(12.500000, 2.414773) rotate(180.000000) translate(-12.500000, -2.414773) " x="10.9375" y="1.5625" width="3.125" height="1.70454545"></rect>
                    <circle id="Oval" fill="#FAB908" cx="12.5" cy="23.4375" r="1.5625"></circle>
                    <circle id="Oval" fill="#FAB908" cx="12.5" cy="21.7329545" r="1.5625"></circle>
                    <rect id="Rectangle-path" fill="#FAB908" transform="translate(12.500000, 22.585227) rotate(180.000000) translate(-12.500000, -22.585227) " x="10.9375" y="21.7329545" width="3.125" height="1.70454545"></rect>
                    <circle id="Oval" fill="#34A853" cx="18.0397727" cy="18.4659091" r="1.5625"></circle>
                    <circle id="Oval" fill="#34A853" cx="18.0397727" cy="12.9261364" r="1.5625"></circle>
                    <rect id="Rectangle-path" fill="#34A853" transform="translate(18.039773, 15.696023) rotate(180.000000) translate(-18.039773, -15.696023) " x="16.4772727" y="12.9261364" width="3.125" height="5.53977273"></rect>
                    <circle id="Oval" fill="#FAB908" cx="12.5" cy="7.95454545" r="1.5625"></circle>
                    <circle id="Oval" fill="#FAB908" cx="12.5" cy="17.0454545" r="1.5625"></circle>
                </g>
                <path d="M47.5224609,31.1757812 C50.3862305,31.1757812 52.078125,29.4692383 52.078125,26.6054688 L52.078125,25.5288086 L47.7275391,25.5288086 L47.7275391,26.8544922 L50.4594727,26.8544922 L50.4594727,27.0375977 C50.4375,28.6416016 49.2509766,29.7402344 47.5371094,29.7402344 C45.5229492,29.7402344 44.2705078,28.1801758 44.2705078,25.6533203 C44.2705078,23.1704102 45.4863281,21.690918 47.5078125,21.690918 C48.8847656,21.690918 49.9174805,22.4453125 50.3129883,23.7563477 L51.9975586,23.7563477 C51.6313477,21.6469727 49.8515625,20.2553711 47.5004883,20.2553711 C44.4902344,20.2553711 42.5932617,22.3354492 42.5932617,25.6679688 C42.5932617,29.059082 44.4975586,31.1757812 47.5224609,31.1757812 Z M56.8022461,31.1464844 C59.0068359,31.1464844 60.4570312,29.6303711 60.4570312,27.1474609 C60.4570312,24.671875 58.9995117,23.1557617 56.8022461,23.1557617 C54.6049805,23.1557617 53.1474609,24.671875 53.1474609,27.1474609 C53.1474609,29.6303711 54.5976562,31.1464844 56.8022461,31.1464844 Z M56.8022461,29.8427734 C55.5644531,29.8427734 54.7587891,28.8613281 54.7587891,27.1474609 C54.7587891,25.440918 55.5644531,24.4594727 56.8022461,24.4594727 C58.0400391,24.4594727 58.8457031,25.440918 58.8457031,27.1474609 C58.8457031,28.8613281 58.0473633,29.8427734 56.8022461,29.8427734 Z M64.9907227,31.1464844 C67.1953125,31.1464844 68.6455078,29.6303711 68.6455078,27.1474609 C68.6455078,24.671875 67.1879883,23.1557617 64.9907227,23.1557617 C62.793457,23.1557617 61.3359375,24.671875 61.3359375,27.1474609 C61.3359375,29.6303711 62.7861328,31.1464844 64.9907227,31.1464844 Z M64.9907227,29.8427734 C63.7529297,29.8427734 62.9472656,28.8613281 62.9472656,27.1474609 C62.9472656,25.440918 63.7529297,24.4594727 64.9907227,24.4594727 C66.2285156,24.4594727 67.0341797,25.440918 67.0341797,27.1474609 C67.0341797,28.8613281 66.2358398,29.8427734 64.9907227,29.8427734 Z M73.1645508,33.9003906 C75.3618164,33.9003906 76.7827148,32.6992188 76.7827148,30.8608398 L76.7827148,23.2949219 L75.2446289,23.2949219 L75.2446289,24.6132812 L75.215332,24.6132812 C74.746582,23.7197266 73.8530273,23.1704102 72.7617188,23.1704102 C70.7841797,23.1704102 69.5244141,24.6938477 69.5244141,27.1181641 C69.5244141,29.5205078 70.7915039,31.0292969 72.7250977,31.0292969 C73.8237305,31.0292969 74.7319336,30.4799805 75.1640625,29.6450195 L75.1933594,29.6450195 L75.1933594,30.9121094 C75.1933594,31.9667969 74.4609375,32.6699219 73.2231445,32.6699219 C72.3222656,32.6699219 71.6191406,32.2451172 71.3920898,31.6005859 L69.8027344,31.6005859 C70.0004883,32.9335938 71.3481445,33.9003906 73.1645508,33.9003906 Z M73.1499023,29.7182617 C71.934082,29.7182617 71.1430664,28.7368164 71.1430664,27.1254883 C71.1430664,25.5214844 71.934082,24.503418 73.1499023,24.503418 C74.3876953,24.503418 75.2006836,25.543457 75.2006836,27.1254883 C75.2006836,28.7148438 74.3876953,29.7182617 73.1499023,29.7182617 Z M79.9833984,31 L79.9833984,20.4311523 L78.4013672,20.4311523 L78.4013672,31 L79.9833984,31 Z M84.8979492,31.1464844 C86.6630859,31.1464844 87.9960938,30.1430664 88.2158203,28.7368164 L86.7143555,28.7368164 C86.5019531,29.4106445 85.8354492,29.8647461 84.9345703,29.8647461 C83.6674805,29.8647461 82.8618164,28.9785156 82.8618164,27.6381836 L82.8618164,27.5429688 L88.3037109,27.5429688 L88.3037109,27.0009766 C88.3037109,24.6645508 86.9707031,23.1557617 84.8320312,23.1557617 C82.6567383,23.1557617 81.2651367,24.7670898 81.2651367,27.184082 C81.2651367,29.6157227 82.6347656,31.1464844 84.8979492,31.1464844 Z M86.7216797,26.4370117 L82.8691406,26.4370117 C82.949707,25.2724609 83.7260742,24.4301758 84.8320312,24.4301758 C85.9379883,24.4301758 86.6850586,25.2578125 86.7216797,26.4370117 Z M94.3974609,31 L94.3974609,27.3891602 L96.6679688,27.3891602 C98.7407227,27.3891602 100.198242,25.9682617 100.198242,23.902832 C100.198242,21.8447266 98.7700195,20.4311523 96.7192383,20.4311523 L92.7568359,20.4311523 L92.7568359,31 L94.3974609,31 Z M96.2797852,26.012207 L94.3974609,26.012207 L94.3974609,21.8154297 L96.2871094,21.8154297 C97.7080078,21.8154297 98.5209961,22.5771484 98.5209961,23.9101562 C98.5209961,25.2431641 97.7080078,26.012207 96.2797852,26.012207 Z M104.753906,31.1464844 C106.958496,31.1464844 108.408691,29.6303711 108.408691,27.1474609 C108.408691,24.671875 106.951172,23.1557617 104.753906,23.1557617 C102.556641,23.1557617 101.099121,24.671875 101.099121,27.1474609 C101.099121,29.6303711 102.549316,31.1464844 104.753906,31.1464844 Z M104.753906,29.8427734 C103.516113,29.8427734 102.710449,28.8613281 102.710449,27.1474609 C102.710449,25.440918 103.516113,24.4594727 104.753906,24.4594727 C105.991699,24.4594727 106.797363,25.440918 106.797363,27.1474609 C106.797363,28.8613281 105.999023,29.8427734 104.753906,29.8427734 Z M112.524902,31.1318359 C113.645508,31.1318359 114.524414,30.5678711 114.978516,29.6889648 L115.007812,29.6889648 L115.007812,31 L116.545898,31 L116.545898,20.4311523 L114.956543,20.4311523 L114.956543,24.5766602 L114.927246,24.5766602 C114.495117,23.7270508 113.616211,23.1704102 112.510254,23.1704102 C110.57666,23.1704102 109.287598,24.7158203 109.287598,27.1474609 C109.287598,29.5791016 110.57666,31.1318359 112.524902,31.1318359 Z M112.942383,29.7915039 C111.689941,29.7915039 110.90625,28.7734375 110.90625,27.1474609 C110.90625,25.5288086 111.689941,24.503418 112.942383,24.503418 C114.158203,24.503418 114.971191,25.5507812 114.971191,27.1474609 C114.971191,28.7587891 114.158203,29.7915039 112.942383,29.7915039 Z M121.460449,31.1464844 C123.313477,31.1464844 124.624512,30.0332031 124.792969,28.3925781 L123.269531,28.3925781 C123.086426,29.2861328 122.449219,29.8208008 121.475098,29.8208008 C120.244629,29.8208008 119.431641,28.8393555 119.431641,27.1474609 C119.431641,25.4921875 120.237305,24.4741211 121.460449,24.4741211 C122.493164,24.4741211 123.108398,25.1259766 123.269531,25.9462891 L124.77832,25.9462891 C124.63916,24.4301758 123.430664,23.1557617 121.445801,23.1557617 C119.255859,23.1557617 117.820312,24.7011719 117.820312,27.1474609 C117.820312,29.6376953 119.255859,31.1464844 121.460449,31.1464844 Z M128.169434,31.1318359 C129.180176,31.1318359 130.154297,30.5898438 130.601074,29.7329102 L130.637695,29.7329102 L130.637695,31 L132.153809,31 L132.153809,25.6899414 C132.153809,24.1445312 130.959961,23.1557617 129.092285,23.1557617 C127.187988,23.1557617 126.001465,24.1811523 125.913574,25.5727539 L127.407715,25.5727539 C127.546875,24.8842773 128.118164,24.4448242 129.033691,24.4448242 C130.000488,24.4448242 130.579102,24.9575195 130.579102,25.8144531 L130.579102,26.4077148 L128.469727,26.5322266 C126.638672,26.6347656 125.605957,27.4624023 125.605957,28.8100586 C125.605957,30.1943359 126.660645,31.1318359 128.169434,31.1318359 Z M128.608887,29.8793945 C127.759277,29.8793945 127.202637,29.4399414 127.202637,28.7661133 C127.202637,28.1069336 127.737305,27.6894531 128.682129,27.6235352 L130.579102,27.5063477 L130.579102,28.1142578 C130.579102,29.1176758 129.714844,29.8793945 128.608887,29.8793945 Z M136.577637,31.1464844 C138.394043,31.1464844 139.705078,30.1796875 139.705078,28.7734375 C139.705078,27.6601562 139.104492,27.0449219 137.529785,26.6787109 L136.277344,26.3930664 C135.442383,26.2026367 135.09082,25.8730469 135.09082,25.3896484 C135.09082,24.7744141 135.662109,24.3569336 136.519043,24.3569336 C137.405273,24.3569336 137.95459,24.8256836 138.04248,25.5727539 L139.529297,25.5727539 C139.478027,24.1518555 138.313477,23.1557617 136.519043,23.1557617 C134.746582,23.1557617 133.54541,24.1005859 133.54541,25.4775391 C133.54541,26.5981445 134.270508,27.3012695 135.735352,27.6381836 L136.987793,27.9311523 C137.830078,28.121582 138.115723,28.4145508 138.115723,28.9125977 C138.115723,29.5424805 137.529785,29.9379883 136.577637,29.9379883 C135.61084,29.9379883 135.061523,29.5424805 134.915039,28.7368164 L133.347656,28.7368164 C133.494141,30.2016602 134.651367,31.1464844 136.577637,31.1464844 Z M143.557617,31.0512695 C143.90918,31.0512695 144.260742,31.0219727 144.436523,30.9780273 L144.436523,29.7255859 C144.333984,29.7475586 144.077637,29.762207 143.916504,29.762207 C143.271973,29.762207 142.979004,29.4619141 142.979004,28.7954102 L142.979004,24.5473633 L144.443848,24.5473633 L144.443848,23.2949219 L142.979004,23.2949219 L142.979004,21.4711914 L141.389648,21.4711914 L141.389648,23.2949219 L140.269043,23.2949219 L140.269043,24.5473633 L141.389648,24.5473633 L141.389648,28.9711914 C141.389648,30.4580078 141.997559,31.0512695 143.557617,31.0512695 Z M148.633301,31.1464844 C150.449707,31.1464844 151.760742,30.1796875 151.760742,28.7734375 C151.760742,27.6601562 151.160156,27.0449219 149.585449,26.6787109 L148.333008,26.3930664 C147.498047,26.2026367 147.146484,25.8730469 147.146484,25.3896484 C147.146484,24.7744141 147.717773,24.3569336 148.574707,24.3569336 C149.460938,24.3569336 150.010254,24.8256836 150.098145,25.5727539 L151.584961,25.5727539 C151.533691,24.1518555 150.369141,23.1557617 148.574707,23.1557617 C146.802246,23.1557617 145.601074,24.1005859 145.601074,25.4775391 C145.601074,26.5981445 146.326172,27.3012695 147.791016,27.6381836 L149.043457,27.9311523 C149.885742,28.121582 150.171387,28.4145508 150.171387,28.9125977 C150.171387,29.5424805 149.585449,29.9379883 148.633301,29.9379883 C147.666504,29.9379883 147.117188,29.5424805 146.970703,28.7368164 L145.40332,28.7368164 C145.549805,30.2016602 146.707031,31.1464844 148.633301,31.1464844 Z" id="GooglePodcasts" fill="#FFFFFF" fill-rule="nonzero"></path>
            </g>
        </g>
    </g>
</svg>