<?xml version="1.0" encoding="UTF-8"?>
<svg width="160px" height="40px" viewBox="0 0 160 40" version="1.1" xmlns="http://www.w3.org/2000/svg" xmlns:xlink="http://www.w3.org/1999/xlink">
    <title>Overcast</title>
    <g id="Page-1" stroke="none" stroke-width="1" fill="none" fill-rule="evenodd">
        <g id="Listen-On" transform="translate(-869.000000, -485.000000)">
            <g id="Overcast" transform="translate(869.000000, 485.000000)">
                <rect id="Rectangle" fill="#000000" x="0" y="0" width="160" height="40" rx="7"></rect>
                <path d="M43,14.8958032 L43,9.10419682 L43.9101895,9.10419682 L43.9101895,14.1316932 L46.6680638,14.1316932 L46.6680638,14.8958032 L43,14.8958032 Z M48.0087195,9.99855282 C47.7265607,9.99855282 47.4808095,9.78147612 47.4808095,9.50361795 C47.4808095,9.22575977 47.7265607,9 48.0087195,9 C48.2999801,9 48.5366294,9.22575977 48.5366294,9.50361795 C48.5366294,9.78147612 48.2999801,9.99855282 48.0087195,9.99855282 Z M47.6082361,14.8958032 L47.6082361,10.7018813 L48.4274066,10.7018813 L48.4274066,14.8958032 L47.6082361,14.8958032 Z M49.3038656,14.3487699 L49.6952471,13.7756874 C49.9956097,14.0882779 50.578131,14.3748191 51.1697542,14.3748191 C51.7886831,14.3748191 52.1163513,14.1316932 52.1163513,13.7756874 C52.1163513,13.3589001 51.615747,13.2199711 51.0514295,13.0984081 C50.3050741,12.9334298 49.4312922,12.7424023 49.4312922,11.8393632 C49.4312922,11.170767 50.0320173,10.5976845 51.1060409,10.5976845 C51.8614982,10.5976845 52.4076119,10.8581766 52.7807896,11.1968162 L52.4167138,11.7438495 C52.1618608,11.4486252 51.6703584,11.2315485 51.1151428,11.2315485 C50.5599272,11.2315485 50.2140552,11.4399421 50.2140552,11.7785818 C50.2140552,12.1432706 50.6873537,12.2648336 51.2334674,12.3863965 C51.9980266,12.5513748 52.9082162,12.7510854 52.9082162,13.7149059 C52.9082162,14.4356006 52.2892873,15 51.1333466,15 C50.3960931,15 49.7498585,14.7829233 49.3038656,14.3487699 Z M55.1135519,15 C54.4218078,15 54.0668339,14.6266281 54.0668339,13.9667149 L54.0668339,11.3878437 L53.3386823,11.3878437 L53.3386823,10.7018813 L54.0668339,10.7018813 L54.0668339,9.55571635 L54.8860045,9.55571635 L54.8860045,10.7018813 L55.7779902,10.7018813 L55.7779902,11.3878437 L54.8860045,11.3878437 L54.8860045,13.7930535 C54.8860045,14.0882779 55.0316348,14.3053546 55.3137936,14.3053546 C55.5049334,14.3053546 55.6778694,14.2272069 55.7597864,14.1403763 L55.96913,14.7308249 C55.796194,14.8871201 55.541341,15 55.1135519,15 Z M56.3722905,12.7945007 C56.3722905,11.5788712 57.2915819,10.5976845 58.5749491,10.5976845 C59.894724,10.5976845 60.7138945,11.5788712 60.7138945,12.8639653 L60.7138945,13.0549928 L57.2369705,13.0549928 C57.3006838,13.7670043 57.8467975,14.357453 58.7296814,14.357453 C59.193878,14.357453 59.7035842,14.1837916 60.0312524,13.8625181 L60.413532,14.3748191 C59.976641,14.7829233 59.3577121,15 58.6477643,15 C57.3370914,15 56.3722905,14.1143271 56.3722905,12.7945007 Z M58.5749491,11.2402315 C57.6920653,11.2402315 57.2733781,11.9175109 57.2278686,12.4905933 L59.9129278,12.4905933 C59.894724,11.934877 59.5033425,11.2402315 58.5749491,11.2402315 Z M64.6667941,14.8958032 L64.6667941,12.2127352 C64.6667941,11.5180897 64.2936164,11.29233 63.7292989,11.29233 C63.2195928,11.29233 62.7553961,11.5875543 62.5187468,11.9001447 L62.5187468,14.8958032 L61.6995763,14.8958032 L61.6995763,10.7018813 L62.5187468,10.7018813 L62.5187468,11.29233 C62.8100075,10.9536903 63.3925288,10.5976845 64.0751709,10.5976845 C65.0035643,10.5976845 65.4859647,11.0665702 65.4859647,11.9522431 L65.4859647,14.8958032 L64.6667941,14.8958032 Z M70.9979655,15 C69.6326812,15 68.777103,14.0101302 68.777103,12.7945007 C68.777103,11.5875543 69.6326812,10.5976845 70.9979655,10.5976845 C72.3723517,10.5976845 73.2188279,11.5875543 73.2188279,12.7945007 C73.2188279,14.0101302 72.3723517,15 70.9979655,15 Z M70.9979655,14.3053546 C71.8808493,14.3053546 72.3632498,13.593343 72.3632498,12.7945007 C72.3632498,12.0043415 71.8808493,11.29233 70.9979655,11.29233 C70.1241835,11.29233 69.6326812,12.0043415 69.6326812,12.7945007 C69.6326812,13.593343 70.1241835,14.3053546 70.9979655,14.3053546 Z M77.1808294,14.8958032 L77.1808294,12.2127352 C77.1808294,11.5180897 76.8076517,11.29233 76.2433342,11.29233 C75.7336281,11.29233 75.2694314,11.5875543 75.0327821,11.9001447 L75.0327821,14.8958032 L74.2136115,14.8958032 L74.2136115,10.7018813 L75.0327821,10.7018813 L75.0327821,11.29233 C75.3240428,10.9536903 75.9065641,10.5976845 76.5892062,10.5976845 C77.5175995,10.5976845 78,11.0665702 78,11.9522431 L78,14.8958032 L77.1808294,14.8958032 Z" id="Listenon-Copy-4" fill="#FFFFFF" fill-rule="nonzero"></path>
                <g id="logo" transform="translate(10.000000, 7.000000)" fill="#FC7E0F" fill-rule="nonzero">
                    <path d="M12.5,25 C5.5728125,25 0,19.4271875 0,12.5 C0,5.5728125 5.5728125,0 12.5,0 C19.4271875,0 25,5.5728125 25,12.5 C25,19.4271875 19.4271875,25 12.5,25 Z M12.5,20.0521875 L13.4375,19.1146875 L12.5,15.5209375 L11.5625,19.1146875 L12.5,20.0521875 Z M11.3021875,20 L10.8334375,21.7709375 L11.9271875,20.6771875 L11.3021875,20 Z M13.6978125,20 L13.0728125,20.625 L14.1665625,21.71875 L13.6978125,20 Z M14.5834375,23.2290625 L12.5,21.1459375 L10.4165625,23.2290625 C11.09375,23.3334375 11.7709375,23.4375 12.5,23.4375 C13.2290625,23.4375 13.90625,23.3853125 14.5834375,23.2290625 Z M12.5,1.5625 C6.4584375,1.5625 1.5625,6.4584375 1.5625,12.5 C1.5625,17.2915625 4.6353125,21.3540625 8.90625,22.8125 L11.25,14.1146875 C10.7290625,13.75 10.4165625,13.125 10.4165625,12.4478125 C10.4165625,11.3021875 11.3540625,10.3646875 12.5,10.3646875 C13.6459375,10.3646875 14.5834375,11.3021875 14.5834375,12.4478125 C14.5834375,13.125 14.2709375,13.6978125 13.75,14.1146875 L16.09375,22.8125 C20.3646875,21.3540625 23.4375,17.2915625 23.4375,12.5 C23.4375,6.4584375 18.5415625,1.5625 12.5,1.5625 Z M19.6353125,17.9165625 C19.375,18.2290625 18.90625,18.3334375 18.5415625,18.0728125 C18.1771875,17.8125 18.125,17.34375 18.3853125,17.03125 C18.3853125,17.03125 19.7915625,15.15625 19.7915625,12.5 C19.7915625,9.84375 18.3853125,7.96875 18.3853125,7.96875 C18.125,7.65625 18.1771875,7.1875 18.5415625,6.9271875 C18.90625,6.6665625 19.375,6.7709375 19.6353125,7.0834375 C19.7396875,7.1875 21.3540625,9.3228125 21.3540625,12.5 C21.3540625,15.6771875 19.7396875,17.8125 19.6353125,17.9165625 Z M15.8334375,15.8853125 C15.5209375,15.5728125 15.5728125,15 15.8853125,14.6875 C15.8853125,14.6875 16.6665625,13.8540625 16.6665625,12.5 C16.6665625,11.1459375 15.8853125,10.3646875 15.8853125,10.3125 C15.5728125,10 15.5728125,9.4790625 15.8334375,9.1146875 C16.1459375,8.75 16.6146875,8.75 16.9271875,9.0625 C16.9790625,9.1146875 18.2290625,10.4165625 18.2290625,12.5 C18.2290625,14.5834375 16.9790625,15.8853125 16.9271875,15.9375 C16.6146875,16.25 16.1459375,16.1978125 15.8334375,15.8853125 Z M9.1665625,15.8853125 C8.8540625,16.1978125 8.3853125,16.25 8.0728125,15.9375 C8.0209375,15.8334375 6.7709375,14.5834375 6.7709375,12.5 C6.7709375,10.4165625 8.0209375,9.1665625 8.0728125,9.0625 C8.3853125,8.75 8.90625,8.75 9.1665625,9.1146875 C9.4790625,9.4271875 9.4271875,10 9.1146875,10.3125 C9.1146875,10.3646875 8.3334375,11.1459375 8.3334375,12.5 C8.3334375,13.8540625 9.1146875,14.6875 9.1146875,14.6875 C9.4271875,15 9.4790625,15.5209375 9.1665625,15.8853125 Z M6.4584375,18.0728125 C6.09375,18.3334375 5.625,18.2290625 5.3646875,17.9165625 C5.2603125,17.8125 3.6459375,15.6771875 3.6459375,12.5 C3.6459375,9.3228125 5.2603125,7.1875 5.3646875,7.0834375 C5.625,6.7709375 6.09375,6.6665625 6.4584375,6.9271875 C6.8228125,7.1875 6.875,7.65625 6.6146875,7.96875 C6.6146875,7.96875 5.2084375,9.84375 5.2084375,12.5 C5.2084375,15.15625 6.6146875,17.03125 6.6146875,17.03125 C6.875,17.34375 6.7709375,17.8125 6.4584375,18.0728125 Z" id="overcastCanvas-bezier"></path>
                </g>
                <path d="M48.2836914,31.1992188 C51.7285156,31.1992188 53.8950195,28.8251953 53.8950195,25.0151367 C53.8950195,21.2050781 51.7285156,18.8227539 48.2836914,18.8227539 C44.8305664,18.8227539 42.6723633,21.2050781 42.6723633,25.0151367 C42.6723633,28.8251953 44.8305664,31.1992188 48.2836914,31.1992188 Z M48.2836914,29.5639648 C46.0092773,29.5639648 44.5732422,27.8041992 44.5732422,25.0151367 C44.5732422,22.2177734 46.0092773,20.4580078 48.2836914,20.4580078 C50.5581055,20.4580078 51.9858398,22.2177734 51.9858398,25.0151367 C51.9858398,27.8041992 50.5581055,29.5639648 48.2836914,29.5639648 Z M59.7719727,31 L62.9013672,22.2675781 L61.0253906,22.2675781 L58.8339844,29.2485352 L58.8007812,29.2485352 L56.609375,22.2675781 L54.7001953,22.2675781 L57.8461914,31 L59.7719727,31 Z M67.6577148,31.1660156 C69.6582031,31.1660156 71.1689453,30.0288086 71.4179688,28.4350586 L69.7163086,28.4350586 C69.4755859,29.1987305 68.7202148,29.7133789 67.6992188,29.7133789 C66.2631836,29.7133789 65.3500977,28.7089844 65.3500977,27.1899414 L65.3500977,27.0820312 L71.5175781,27.0820312 L71.5175781,26.4677734 C71.5175781,23.8198242 70.0068359,22.1098633 67.5830078,22.1098633 C65.1176758,22.1098633 63.5405273,23.9360352 63.5405273,26.675293 C63.5405273,29.4311523 65.0927734,31.1660156 67.6577148,31.1660156 Z M69.7246094,25.8286133 L65.3583984,25.8286133 C65.449707,24.5087891 66.3295898,23.5541992 67.5830078,23.5541992 C68.8364258,23.5541992 69.6831055,24.4921875 69.7246094,25.8286133 Z M74.6967773,31 L74.6967773,25.7705078 C74.6967773,24.5336914 75.4106445,23.7617188 76.5644531,23.7617188 C76.9130859,23.7617188 77.2285156,23.8032227 77.3696289,23.8613281 L77.3696289,22.1928711 C77.2368164,22.1679688 77.0126953,22.1264648 76.7553711,22.1264648 C75.7260742,22.1264648 74.9458008,22.7324219 74.6552734,23.753418 L74.6137695,23.753418 L74.6137695,22.2675781 L72.9038086,22.2675781 L72.9038086,31 L74.6967773,31 Z M82.2172852,31.1660156 C84.3173828,31.1660156 85.8032227,29.9042969 85.9941406,28.0449219 L84.2675781,28.0449219 C84.0600586,29.0576172 83.3378906,29.6635742 82.2338867,29.6635742 C80.8393555,29.6635742 79.9179688,28.5512695 79.9179688,26.6337891 C79.9179688,24.7578125 80.8310547,23.6040039 82.2172852,23.6040039 C83.3876953,23.6040039 84.0849609,24.3427734 84.2675781,25.2724609 L85.9775391,25.2724609 C85.8198242,23.5541992 84.4501953,22.1098633 82.2006836,22.1098633 C79.71875,22.1098633 78.0917969,23.8613281 78.0917969,26.6337891 C78.0917969,29.4560547 79.71875,31.1660156 82.2172852,31.1660156 Z M89.8208008,31.1494141 C90.9663086,31.1494141 92.0703125,30.5351562 92.5766602,29.5639648 L92.6181641,29.5639648 L92.6181641,31 L94.3364258,31 L94.3364258,24.9819336 C94.3364258,23.2304688 92.9833984,22.1098633 90.8666992,22.1098633 C88.7084961,22.1098633 87.3637695,23.2719727 87.2641602,24.8491211 L88.9575195,24.8491211 C89.1152344,24.0688477 89.7626953,23.5708008 90.800293,23.5708008 C91.8959961,23.5708008 92.5517578,24.1518555 92.5517578,25.1230469 L92.5517578,25.7954102 L90.1611328,25.9365234 C88.0859375,26.0527344 86.9155273,26.9907227 86.9155273,28.5180664 C86.9155273,30.0869141 88.1108398,31.1494141 89.8208008,31.1494141 Z M90.3188477,29.7299805 C89.355957,29.7299805 88.7250977,29.2319336 88.7250977,28.4682617 C88.7250977,27.7211914 89.3310547,27.2480469 90.4018555,27.1733398 L92.5517578,27.0405273 L92.5517578,27.7294922 C92.5517578,28.8666992 91.5722656,29.7299805 90.3188477,29.7299805 Z M99.3500977,31.1660156 C101.408691,31.1660156 102.894531,30.0703125 102.894531,28.4765625 C102.894531,27.2148438 102.213867,26.5175781 100.429199,26.1025391 L99.0097656,25.7788086 C98.0634766,25.5629883 97.6650391,25.1894531 97.6650391,24.6416016 C97.6650391,23.9443359 98.3125,23.4711914 99.2836914,23.4711914 C100.288086,23.4711914 100.910645,24.0024414 101.010254,24.8491211 L102.695312,24.8491211 C102.637207,23.2387695 101.317383,22.1098633 99.2836914,22.1098633 C97.2749023,22.1098633 95.9135742,23.1806641 95.9135742,24.7412109 C95.9135742,26.0112305 96.7353516,26.8081055 98.3955078,27.1899414 L99.8149414,27.5219727 C100.769531,27.737793 101.093262,28.0698242 101.093262,28.6342773 C101.093262,29.3481445 100.429199,29.7963867 99.3500977,29.7963867 C98.2543945,29.7963867 97.6318359,29.3481445 97.4658203,28.4350586 L95.6894531,28.4350586 C95.8554688,30.0952148 97.1669922,31.1660156 99.3500977,31.1660156 Z M107.260742,31.0581055 C107.65918,31.0581055 108.057617,31.0249023 108.256836,30.9750977 L108.256836,29.5556641 C108.140625,29.5805664 107.850098,29.597168 107.66748,29.597168 C106.937012,29.597168 106.60498,29.2568359 106.60498,28.5014648 L106.60498,23.6870117 L108.265137,23.6870117 L108.265137,22.2675781 L106.60498,22.2675781 L106.60498,20.2006836 L104.803711,20.2006836 L104.803711,22.2675781 L103.533691,22.2675781 L103.533691,23.6870117 L104.803711,23.6870117 L104.803711,28.7006836 C104.803711,30.3857422 105.492676,31.0581055 107.260742,31.0581055 Z" fill="#FFFFFF" fill-rule="nonzero"></path>
            </g>
        </g>
    </g>
</svg>