<?xml version="1.0" encoding="UTF-8"?>
<svg width="160px" height="40px" viewBox="0 0 160 40" version="1.1" xmlns="http://www.w3.org/2000/svg" xmlns:xlink="http://www.w3.org/1999/xlink">
    <title>Pandora</title>
    <g id="Page-1" stroke="none" stroke-width="1" fill="none" fill-rule="evenodd">
        <g id="Listen-On" transform="translate(-869.000000, -545.000000)">
            <g id="Pandora" transform="translate(869.000000, 545.000000)">
                <rect id="Rectangle" fill="#000000" x="0" y="0" width="160" height="40" rx="7"></rect>
                <path d="M43,14.8958032 L43,9.10419682 L43.9101895,9.10419682 L43.9101895,14.1316932 L46.6680638,14.1316932 L46.6680638,14.8958032 L43,14.8958032 Z M48.0087195,9.99855282 C47.7265607,9.99855282 47.4808095,9.78147612 47.4808095,9.50361795 C47.4808095,9.22575977 47.7265607,9 48.0087195,9 C48.2999801,9 48.5366294,9.22575977 48.5366294,9.50361795 C48.5366294,9.78147612 48.2999801,9.99855282 48.0087195,9.99855282 Z M47.6082361,14.8958032 L47.6082361,10.7018813 L48.4274066,10.7018813 L48.4274066,14.8958032 L47.6082361,14.8958032 Z M49.3038656,14.3487699 L49.6952471,13.7756874 C49.9956097,14.0882779 50.578131,14.3748191 51.1697542,14.3748191 C51.7886831,14.3748191 52.1163513,14.1316932 52.1163513,13.7756874 C52.1163513,13.3589001 51.615747,13.2199711 51.0514295,13.0984081 C50.3050741,12.9334298 49.4312922,12.7424023 49.4312922,11.8393632 C49.4312922,11.170767 50.0320173,10.5976845 51.1060409,10.5976845 C51.8614982,10.5976845 52.4076119,10.8581766 52.7807896,11.1968162 L52.4167138,11.7438495 C52.1618608,11.4486252 51.6703584,11.2315485 51.1151428,11.2315485 C50.5599272,11.2315485 50.2140552,11.4399421 50.2140552,11.7785818 C50.2140552,12.1432706 50.6873537,12.2648336 51.2334674,12.3863965 C51.9980266,12.5513748 52.9082162,12.7510854 52.9082162,13.7149059 C52.9082162,14.4356006 52.2892873,15 51.1333466,15 C50.3960931,15 49.7498585,14.7829233 49.3038656,14.3487699 Z M55.1135519,15 C54.4218078,15 54.0668339,14.6266281 54.0668339,13.9667149 L54.0668339,11.3878437 L53.3386823,11.3878437 L53.3386823,10.7018813 L54.0668339,10.7018813 L54.0668339,9.55571635 L54.8860045,9.55571635 L54.8860045,10.7018813 L55.7779902,10.7018813 L55.7779902,11.3878437 L54.8860045,11.3878437 L54.8860045,13.7930535 C54.8860045,14.0882779 55.0316348,14.3053546 55.3137936,14.3053546 C55.5049334,14.3053546 55.6778694,14.2272069 55.7597864,14.1403763 L55.96913,14.7308249 C55.796194,14.8871201 55.541341,15 55.1135519,15 Z M56.3722905,12.7945007 C56.3722905,11.5788712 57.2915819,10.5976845 58.5749491,10.5976845 C59.894724,10.5976845 60.7138945,11.5788712 60.7138945,12.8639653 L60.7138945,13.0549928 L57.2369705,13.0549928 C57.3006838,13.7670043 57.8467975,14.357453 58.7296814,14.357453 C59.193878,14.357453 59.7035842,14.1837916 60.0312524,13.8625181 L60.413532,14.3748191 C59.976641,14.7829233 59.3577121,15 58.6477643,15 C57.3370914,15 56.3722905,14.1143271 56.3722905,12.7945007 Z M58.5749491,11.2402315 C57.6920653,11.2402315 57.2733781,11.9175109 57.2278686,12.4905933 L59.9129278,12.4905933 C59.894724,11.934877 59.5033425,11.2402315 58.5749491,11.2402315 Z M64.6667941,14.8958032 L64.6667941,12.2127352 C64.6667941,11.5180897 64.2936164,11.29233 63.7292989,11.29233 C63.2195928,11.29233 62.7553961,11.5875543 62.5187468,11.9001447 L62.5187468,14.8958032 L61.6995763,14.8958032 L61.6995763,10.7018813 L62.5187468,10.7018813 L62.5187468,11.29233 C62.8100075,10.9536903 63.3925288,10.5976845 64.0751709,10.5976845 C65.0035643,10.5976845 65.4859647,11.0665702 65.4859647,11.9522431 L65.4859647,14.8958032 L64.6667941,14.8958032 Z M70.9979655,15 C69.6326812,15 68.777103,14.0101302 68.777103,12.7945007 C68.777103,11.5875543 69.6326812,10.5976845 70.9979655,10.5976845 C72.3723517,10.5976845 73.2188279,11.5875543 73.2188279,12.7945007 C73.2188279,14.0101302 72.3723517,15 70.9979655,15 Z M70.9979655,14.3053546 C71.8808493,14.3053546 72.3632498,13.593343 72.3632498,12.7945007 C72.3632498,12.0043415 71.8808493,11.29233 70.9979655,11.29233 C70.1241835,11.29233 69.6326812,12.0043415 69.6326812,12.7945007 C69.6326812,13.593343 70.1241835,14.3053546 70.9979655,14.3053546 Z M77.1808294,14.8958032 L77.1808294,12.2127352 C77.1808294,11.5180897 76.8076517,11.29233 76.2433342,11.29233 C75.7336281,11.29233 75.2694314,11.5875543 75.0327821,11.9001447 L75.0327821,14.8958032 L74.2136115,14.8958032 L74.2136115,10.7018813 L75.0327821,10.7018813 L75.0327821,11.29233 C75.3240428,10.9536903 75.9065641,10.5976845 76.5892062,10.5976845 C77.5175995,10.5976845 78,11.0665702 78,11.9522431 L78,14.8958032 L77.1808294,14.8958032 Z" id="Listenon-Copy-4" fill="#FFFFFF" fill-rule="nonzero"></path>
                <path d="M44.9633789,31 L44.9633789,26.9077148 L47.5366211,26.9077148 C49.8857422,26.9077148 51.5375977,25.2973633 51.5375977,22.956543 C51.5375977,20.6240234 49.9189453,19.0219727 47.5947266,19.0219727 L43.1040039,19.0219727 L43.1040039,31 L44.9633789,31 Z M47.0966797,25.347168 L44.9633789,25.347168 L44.9633789,20.5908203 L47.1049805,20.5908203 C48.715332,20.5908203 49.6367188,21.4541016 49.6367188,22.9648438 C49.6367188,24.4755859 48.715332,25.347168 47.0966797,25.347168 Z M55.5053711,31.1494141 C56.6508789,31.1494141 57.7548828,30.5351562 58.2612305,29.5639648 L58.3027344,29.5639648 L58.3027344,31 L60.0209961,31 L60.0209961,24.9819336 C60.0209961,23.2304688 58.6679688,22.1098633 56.5512695,22.1098633 C54.3930664,22.1098633 53.0483398,23.2719727 52.9487305,24.8491211 L54.6420898,24.8491211 C54.7998047,24.0688477 55.4472656,23.5708008 56.4848633,23.5708008 C57.5805664,23.5708008 58.2363281,24.1518555 58.2363281,25.1230469 L58.2363281,25.7954102 L55.8457031,25.9365234 C53.7705078,26.0527344 52.6000977,26.9907227 52.6000977,28.5180664 C52.6000977,30.0869141 53.7954102,31.1494141 55.5053711,31.1494141 Z M56.003418,29.7299805 C55.0405273,29.7299805 54.409668,29.2319336 54.409668,28.4682617 C54.409668,27.7211914 55.015625,27.2480469 56.0864258,27.1733398 L58.2363281,27.0405273 L58.2363281,27.7294922 C58.2363281,28.8666992 57.2568359,29.7299805 56.003418,29.7299805 Z M63.5488281,31 L63.5488281,25.9116211 C63.5488281,24.5585938 64.3623047,23.6621094 65.6240234,23.6621094 C66.8691406,23.6621094 67.4833984,24.3842773 67.4833984,25.6958008 L67.4833984,31 L69.284668,31 L69.284668,25.347168 C69.284668,23.3466797 68.1806641,22.1181641 66.2548828,22.1181641 C64.9101562,22.1181641 63.9804688,22.7324219 63.5073242,23.7285156 L63.4658203,23.7285156 L63.4658203,22.2675781 L61.7558594,22.2675781 L61.7558594,31 L63.5488281,31 Z M74.2900391,31.1494141 C75.5600586,31.1494141 76.5561523,30.5102539 77.0708008,29.5141602 L77.1040039,29.5141602 L77.1040039,31 L78.847168,31 L78.847168,19.0219727 L77.0458984,19.0219727 L77.0458984,23.7202148 L77.0126953,23.7202148 C76.5229492,22.7573242 75.5268555,22.1264648 74.2734375,22.1264648 C72.0820312,22.1264648 70.6210938,23.8779297 70.6210938,26.6337891 C70.6210938,29.3896484 72.0820312,31.1494141 74.2900391,31.1494141 Z M74.7631836,29.6303711 C73.34375,29.6303711 72.4555664,28.4765625 72.4555664,26.6337891 C72.4555664,24.7993164 73.34375,23.637207 74.7631836,23.637207 C76.1411133,23.637207 77.0625,24.8242188 77.0625,26.6337891 C77.0625,28.4599609 76.1411133,29.6303711 74.7631836,29.6303711 Z M84.4335938,31.1660156 C86.9321289,31.1660156 88.5756836,29.4477539 88.5756836,26.6337891 C88.5756836,23.828125 86.9238281,22.1098633 84.4335938,22.1098633 C81.9433594,22.1098633 80.2915039,23.828125 80.2915039,26.6337891 C80.2915039,29.4477539 81.9350586,31.1660156 84.4335938,31.1660156 Z M84.4335938,29.6884766 C83.0307617,29.6884766 82.1176758,28.5761719 82.1176758,26.6337891 C82.1176758,24.699707 83.0307617,23.5874023 84.4335938,23.5874023 C85.8364258,23.5874023 86.7495117,24.699707 86.7495117,26.6337891 C86.7495117,28.5761719 85.8447266,29.6884766 84.4335938,29.6884766 Z M91.7548828,31 L91.7548828,25.7705078 C91.7548828,24.5336914 92.46875,23.7617188 93.6225586,23.7617188 C93.9711914,23.7617188 94.2866211,23.8032227 94.4277344,23.8613281 L94.4277344,22.1928711 C94.2949219,22.1679688 94.0708008,22.1264648 93.8134766,22.1264648 C92.7841797,22.1264648 92.0039062,22.7324219 91.7133789,23.753418 L91.671875,23.753418 L91.671875,22.2675781 L89.9619141,22.2675781 L89.9619141,31 L91.7548828,31 Z M98.0966797,31.1494141 C99.2421875,31.1494141 100.346191,30.5351562 100.852539,29.5639648 L100.894043,29.5639648 L100.894043,31 L102.612305,31 L102.612305,24.9819336 C102.612305,23.2304688 101.259277,22.1098633 99.1425781,22.1098633 C96.984375,22.1098633 95.6396484,23.2719727 95.5400391,24.8491211 L97.2333984,24.8491211 C97.3911133,24.0688477 98.0385742,23.5708008 99.0761719,23.5708008 C100.171875,23.5708008 100.827637,24.1518555 100.827637,25.1230469 L100.827637,25.7954102 L98.4370117,25.9365234 C96.3618164,26.0527344 95.1914062,26.9907227 95.1914062,28.5180664 C95.1914062,30.0869141 96.3867188,31.1494141 98.0966797,31.1494141 Z M98.5947266,29.7299805 C97.6318359,29.7299805 97.0009766,29.2319336 97.0009766,28.4682617 C97.0009766,27.7211914 97.6069336,27.2480469 98.6777344,27.1733398 L100.827637,27.0405273 L100.827637,27.7294922 C100.827637,28.8666992 99.8481445,29.7299805 98.5947266,29.7299805 Z" fill="#FFFFFF" fill-rule="nonzero"></path>
                <g id="iconfinder_53-pandora_4202082" transform="translate(14.000000, 7.000000)" fill="#2299F8" fill-rule="nonzero">
                    <path d="M20.9473995,8.13 C20.5129306,3.592 16.4267727,0.0375 11.6436459,0.0375 L0.0101483254,0.0375 L0.0101483254,23.9625 L6.00399043,23.9625 C6.82962201,23.9625 7.50227512,23.29245 7.50227512,22.46695 L7.50227512,17.98105 L11.9976316,17.98105 C14.5253182,17.98105 16.9513206,16.9106 18.6504115,15.04265 C20.3765311,13.14985 21.1916124,10.6948 20.9473995,8.13 L20.9473995,8.13 Z" id="Path"></path>
                </g>
            </g>
        </g>
    </g>
</svg>