<?xml version="1.0" encoding="UTF-8"?>
<svg width="160px" height="40px" viewBox="0 0 160 40" version="1.1" xmlns="http://www.w3.org/2000/svg" xmlns:xlink="http://www.w3.org/1999/xlink">
    <title>Pocket Casts</title>
    <defs>
        <polygon id="path-1" points="0.0178571429 0.162202381 24.8375 0.162202381 24.8375 24.9821429 0.0178571429 24.9821429"></polygon>
    </defs>
    <g id="Page-1" stroke="none" stroke-width="1" fill="none" fill-rule="evenodd">
        <g id="Listen-On" transform="translate(-509.000000, -545.000000)">
            <g id="Pocket-Casts" transform="translate(509.000000, 545.000000)">
                <rect id="Rectangle" fill="#000000" x="0" y="0" width="160" height="40" rx="7"></rect>
                <path d="M43,14.8958032 L43,9.10419682 L43.9101895,9.10419682 L43.9101895,14.1316932 L46.6680638,14.1316932 L46.6680638,14.8958032 L43,14.8958032 Z M48.0087195,9.99855282 C47.7265607,9.99855282 47.4808095,9.78147612 47.4808095,9.50361795 C47.4808095,9.22575977 47.7265607,9 48.0087195,9 C48.2999801,9 48.5366294,9.22575977 48.5366294,9.50361795 C48.5366294,9.78147612 48.2999801,9.99855282 48.0087195,9.99855282 Z M47.6082361,14.8958032 L47.6082361,10.7018813 L48.4274066,10.7018813 L48.4274066,14.8958032 L47.6082361,14.8958032 Z M49.3038656,14.3487699 L49.6952471,13.7756874 C49.9956097,14.0882779 50.578131,14.3748191 51.1697542,14.3748191 C51.7886831,14.3748191 52.1163513,14.1316932 52.1163513,13.7756874 C52.1163513,13.3589001 51.615747,13.2199711 51.0514295,13.0984081 C50.3050741,12.9334298 49.4312922,12.7424023 49.4312922,11.8393632 C49.4312922,11.170767 50.0320173,10.5976845 51.1060409,10.5976845 C51.8614982,10.5976845 52.4076119,10.8581766 52.7807896,11.1968162 L52.4167138,11.7438495 C52.1618608,11.4486252 51.6703584,11.2315485 51.1151428,11.2315485 C50.5599272,11.2315485 50.2140552,11.4399421 50.2140552,11.7785818 C50.2140552,12.1432706 50.6873537,12.2648336 51.2334674,12.3863965 C51.9980266,12.5513748 52.9082162,12.7510854 52.9082162,13.7149059 C52.9082162,14.4356006 52.2892873,15 51.1333466,15 C50.3960931,15 49.7498585,14.7829233 49.3038656,14.3487699 Z M55.1135519,15 C54.4218078,15 54.0668339,14.6266281 54.0668339,13.9667149 L54.0668339,11.3878437 L53.3386823,11.3878437 L53.3386823,10.7018813 L54.0668339,10.7018813 L54.0668339,9.55571635 L54.8860045,9.55571635 L54.8860045,10.7018813 L55.7779902,10.7018813 L55.7779902,11.3878437 L54.8860045,11.3878437 L54.8860045,13.7930535 C54.8860045,14.0882779 55.0316348,14.3053546 55.3137936,14.3053546 C55.5049334,14.3053546 55.6778694,14.2272069 55.7597864,14.1403763 L55.96913,14.7308249 C55.796194,14.8871201 55.541341,15 55.1135519,15 Z M56.3722905,12.7945007 C56.3722905,11.5788712 57.2915819,10.5976845 58.5749491,10.5976845 C59.894724,10.5976845 60.7138945,11.5788712 60.7138945,12.8639653 L60.7138945,13.0549928 L57.2369705,13.0549928 C57.3006838,13.7670043 57.8467975,14.357453 58.7296814,14.357453 C59.193878,14.357453 59.7035842,14.1837916 60.0312524,13.8625181 L60.413532,14.3748191 C59.976641,14.7829233 59.3577121,15 58.6477643,15 C57.3370914,15 56.3722905,14.1143271 56.3722905,12.7945007 Z M58.5749491,11.2402315 C57.6920653,11.2402315 57.2733781,11.9175109 57.2278686,12.4905933 L59.9129278,12.4905933 C59.894724,11.934877 59.5033425,11.2402315 58.5749491,11.2402315 Z M64.6667941,14.8958032 L64.6667941,12.2127352 C64.6667941,11.5180897 64.2936164,11.29233 63.7292989,11.29233 C63.2195928,11.29233 62.7553961,11.5875543 62.5187468,11.9001447 L62.5187468,14.8958032 L61.6995763,14.8958032 L61.6995763,10.7018813 L62.5187468,10.7018813 L62.5187468,11.29233 C62.8100075,10.9536903 63.3925288,10.5976845 64.0751709,10.5976845 C65.0035643,10.5976845 65.4859647,11.0665702 65.4859647,11.9522431 L65.4859647,14.8958032 L64.6667941,14.8958032 Z M70.9979655,15 C69.6326812,15 68.777103,14.0101302 68.777103,12.7945007 C68.777103,11.5875543 69.6326812,10.5976845 70.9979655,10.5976845 C72.3723517,10.5976845 73.2188279,11.5875543 73.2188279,12.7945007 C73.2188279,14.0101302 72.3723517,15 70.9979655,15 Z M70.9979655,14.3053546 C71.8808493,14.3053546 72.3632498,13.593343 72.3632498,12.7945007 C72.3632498,12.0043415 71.8808493,11.29233 70.9979655,11.29233 C70.1241835,11.29233 69.6326812,12.0043415 69.6326812,12.7945007 C69.6326812,13.593343 70.1241835,14.3053546 70.9979655,14.3053546 Z M77.1808294,14.8958032 L77.1808294,12.2127352 C77.1808294,11.5180897 76.8076517,11.29233 76.2433342,11.29233 C75.7336281,11.29233 75.2694314,11.5875543 75.0327821,11.9001447 L75.0327821,14.8958032 L74.2136115,14.8958032 L74.2136115,10.7018813 L75.0327821,10.7018813 L75.0327821,11.29233 C75.3240428,10.9536903 75.9065641,10.5976845 76.5892062,10.5976845 C77.5175995,10.5976845 78,11.0665702 78,11.9522431 L78,14.8958032 L77.1808294,14.8958032 Z" id="Listenon-Copy-3" fill="#FFFFFF" fill-rule="nonzero"></path>
                <path d="M44.9633789,31 L44.9633789,26.9077148 L47.5366211,26.9077148 C49.8857422,26.9077148 51.5375977,25.2973633 51.5375977,22.956543 C51.5375977,20.6240234 49.9189453,19.0219727 47.5947266,19.0219727 L43.1040039,19.0219727 L43.1040039,31 L44.9633789,31 Z M47.0966797,25.347168 L44.9633789,25.347168 L44.9633789,20.5908203 L47.1049805,20.5908203 C48.715332,20.5908203 49.6367188,21.4541016 49.6367188,22.9648438 C49.6367188,24.4755859 48.715332,25.347168 47.0966797,25.347168 Z M56.7006836,31.1660156 C59.1992188,31.1660156 60.8427734,29.4477539 60.8427734,26.6337891 C60.8427734,23.828125 59.190918,22.1098633 56.7006836,22.1098633 C54.2104492,22.1098633 52.5585938,23.828125 52.5585938,26.6337891 C52.5585938,29.4477539 54.2021484,31.1660156 56.7006836,31.1660156 Z M56.7006836,29.6884766 C55.2978516,29.6884766 54.3847656,28.5761719 54.3847656,26.6337891 C54.3847656,24.699707 55.2978516,23.5874023 56.7006836,23.5874023 C58.1035156,23.5874023 59.0166016,24.699707 59.0166016,26.6337891 C59.0166016,28.5761719 58.1118164,29.6884766 56.7006836,29.6884766 Z M65.9643555,31.1660156 C68.0644531,31.1660156 69.550293,29.9042969 69.7412109,28.0449219 L68.0146484,28.0449219 C67.8071289,29.0576172 67.0849609,29.6635742 65.980957,29.6635742 C64.5864258,29.6635742 63.6650391,28.5512695 63.6650391,26.6337891 C63.6650391,24.7578125 64.578125,23.6040039 65.9643555,23.6040039 C67.1347656,23.6040039 67.8320312,24.3427734 68.0146484,25.2724609 L69.7246094,25.2724609 C69.5668945,23.5541992 68.1972656,22.1098633 65.9477539,22.1098633 C63.4658203,22.1098633 61.8388672,23.8613281 61.8388672,26.6337891 C61.8388672,29.4560547 63.4658203,31.1660156 65.9643555,31.1660156 Z M72.8706055,31 L72.8706055,27.8623047 L73.6176758,27.1235352 L76.5810547,31 L78.6645508,31 L74.9042969,26.027832 L78.5234375,22.2675781 L76.4150391,22.2675781 L72.887207,26.0112305 L72.8706055,26.0112305 L72.8706055,19.0219727 L71.0776367,19.0219727 L71.0776367,31 L72.8706055,31 Z M83.3129883,31.1660156 C85.3134766,31.1660156 86.8242188,30.0288086 87.0732422,28.4350586 L85.371582,28.4350586 C85.1308594,29.1987305 84.3754883,29.7133789 83.3544922,29.7133789 C81.918457,29.7133789 81.0053711,28.7089844 81.0053711,27.1899414 L81.0053711,27.0820312 L87.1728516,27.0820312 L87.1728516,26.4677734 C87.1728516,23.8198242 85.6621094,22.1098633 83.2382812,22.1098633 C80.7729492,22.1098633 79.1958008,23.9360352 79.1958008,26.675293 C79.1958008,29.4311523 80.7480469,31.1660156 83.3129883,31.1660156 Z M85.3798828,25.8286133 L81.0136719,25.8286133 C81.1049805,24.5087891 81.9848633,23.5541992 83.2382812,23.5541992 C84.4916992,23.5541992 85.3383789,24.4921875 85.3798828,25.8286133 Z M91.5390625,31.0581055 C91.9375,31.0581055 92.3359375,31.0249023 92.5351562,30.9750977 L92.5351562,29.5556641 C92.4189453,29.5805664 92.128418,29.597168 91.9458008,29.597168 C91.215332,29.597168 90.8833008,29.2568359 90.8833008,28.5014648 L90.8833008,23.6870117 L92.543457,23.6870117 L92.543457,22.2675781 L90.8833008,22.2675781 L90.8833008,20.2006836 L89.0820312,20.2006836 L89.0820312,22.2675781 L87.8120117,22.2675781 L87.8120117,23.6870117 L89.0820312,23.6870117 L89.0820312,28.7006836 C89.0820312,30.3857422 89.7709961,31.0581055 91.5390625,31.0581055 Z M102.728516,31.1992188 C105.484375,31.1992188 107.360352,29.746582 107.816895,27.2729492 L105.96582,27.2729492 C105.592285,28.7172852 104.405273,29.5722656 102.736816,29.5722656 C100.537109,29.5722656 99.1425781,27.8041992 99.1425781,25.0068359 C99.1425781,22.234375 100.553711,20.449707 102.728516,20.449707 C104.355469,20.449707 105.633789,21.4541016 105.96582,22.9897461 L107.808594,22.9897461 C107.493164,20.4912109 105.442871,18.8227539 102.728516,18.8227539 C99.3833008,18.8227539 97.2416992,21.2133789 97.2416992,25.0068359 C97.2416992,28.8251953 99.3666992,31.1992188 102.728516,31.1992188 Z M111.834473,31.1494141 C112.97998,31.1494141 114.083984,30.5351562 114.590332,29.5639648 L114.631836,29.5639648 L114.631836,31 L116.350098,31 L116.350098,24.9819336 C116.350098,23.2304688 114.99707,22.1098633 112.880371,22.1098633 C110.722168,22.1098633 109.377441,23.2719727 109.277832,24.8491211 L110.971191,24.8491211 C111.128906,24.0688477 111.776367,23.5708008 112.813965,23.5708008 C113.909668,23.5708008 114.56543,24.1518555 114.56543,25.1230469 L114.56543,25.7954102 L112.174805,25.9365234 C110.099609,26.0527344 108.929199,26.9907227 108.929199,28.5180664 C108.929199,30.0869141 110.124512,31.1494141 111.834473,31.1494141 Z M112.33252,29.7299805 C111.369629,29.7299805 110.73877,29.2319336 110.73877,28.4682617 C110.73877,27.7211914 111.344727,27.2480469 112.415527,27.1733398 L114.56543,27.0405273 L114.56543,27.7294922 C114.56543,28.8666992 113.585938,29.7299805 112.33252,29.7299805 Z M121.36377,31.1660156 C123.422363,31.1660156 124.908203,30.0703125 124.908203,28.4765625 C124.908203,27.2148438 124.227539,26.5175781 122.442871,26.1025391 L121.023438,25.7788086 C120.077148,25.5629883 119.678711,25.1894531 119.678711,24.6416016 C119.678711,23.9443359 120.326172,23.4711914 121.297363,23.4711914 C122.301758,23.4711914 122.924316,24.0024414 123.023926,24.8491211 L124.708984,24.8491211 C124.650879,23.2387695 123.331055,22.1098633 121.297363,22.1098633 C119.288574,22.1098633 117.927246,23.1806641 117.927246,24.7412109 C117.927246,26.0112305 118.749023,26.8081055 120.40918,27.1899414 L121.828613,27.5219727 C122.783203,27.737793 123.106934,28.0698242 123.106934,28.6342773 C123.106934,29.3481445 122.442871,29.7963867 121.36377,29.7963867 C120.268066,29.7963867 119.645508,29.3481445 119.479492,28.4350586 L117.703125,28.4350586 C117.869141,30.0952148 119.180664,31.1660156 121.36377,31.1660156 Z M129.274414,31.0581055 C129.672852,31.0581055 130.071289,31.0249023 130.270508,30.9750977 L130.270508,29.5556641 C130.154297,29.5805664 129.86377,29.597168 129.681152,29.597168 C128.950684,29.597168 128.618652,29.2568359 128.618652,28.5014648 L128.618652,23.6870117 L130.278809,23.6870117 L130.278809,22.2675781 L128.618652,22.2675781 L128.618652,20.2006836 L126.817383,20.2006836 L126.817383,22.2675781 L125.547363,22.2675781 L125.547363,23.6870117 L126.817383,23.6870117 L126.817383,28.7006836 C126.817383,30.3857422 127.506348,31.0581055 129.274414,31.0581055 Z M135.026855,31.1660156 C137.085449,31.1660156 138.571289,30.0703125 138.571289,28.4765625 C138.571289,27.2148438 137.890625,26.5175781 136.105957,26.1025391 L134.686523,25.7788086 C133.740234,25.5629883 133.341797,25.1894531 133.341797,24.6416016 C133.341797,23.9443359 133.989258,23.4711914 134.960449,23.4711914 C135.964844,23.4711914 136.587402,24.0024414 136.687012,24.8491211 L138.37207,24.8491211 C138.313965,23.2387695 136.994141,22.1098633 134.960449,22.1098633 C132.95166,22.1098633 131.590332,23.1806641 131.590332,24.7412109 C131.590332,26.0112305 132.412109,26.8081055 134.072266,27.1899414 L135.491699,27.5219727 C136.446289,27.737793 136.77002,28.0698242 136.77002,28.6342773 C136.77002,29.3481445 136.105957,29.7963867 135.026855,29.7963867 C133.931152,29.7963867 133.308594,29.3481445 133.142578,28.4350586 L131.366211,28.4350586 C131.532227,30.0952148 132.84375,31.1660156 135.026855,31.1660156 Z" id="PocketCasts" fill="#FFFFFF" fill-rule="nonzero"></path>
                <g id="Group-2" transform="translate(10.000000, 7.000000)">
                    <g id="Group-3">
                        <mask id="mask-2" fill="white">
                            <use xlink:href="#path-1"></use>
                        </mask>
                        <g id="Clip-2"></g>
                        <path d="M24.8375,12.5809524 C24.8375,19.439881 19.2776786,25 12.41875,25 C5.55982143,25 0,19.439881 0,12.5809524 C0,5.72232143 5.55982143,0.162202381 12.41875,0.162202381 C19.2776786,0.162202381 24.8375,5.72232143 24.8375,12.5809524" id="Fill-1" fill="#F43E37" mask="url(#mask-2)"></path>
                    </g>
                    <path d="M12.533631,18.5604167 C9.29494048,18.5604167 6.66934524,15.9348214 6.66934524,12.696131 C6.66934524,9.45714286 9.29494048,6.83154762 12.533631,6.83154762 C15.772619,6.83154762 18.3982143,9.45714286 18.3982143,12.696131 L16.2657738,12.696131 C16.2657738,10.6348214 14.5949405,8.9639881 12.533631,8.9639881 C10.472619,8.9639881 8.80178571,10.6348214 8.80178571,12.696131 C8.80178571,14.7571429 10.472619,16.4276786 12.533631,16.4276786 L12.533631,18.5604167 Z M2.75952381,12.696131 C2.75952381,7.29791667 7.13571429,2.92202381 12.533631,2.92202381 C17.9318452,2.92202381 22.3077381,7.29791667 22.3077381,12.696131 L19.8642857,12.696131 C19.8642857,8.64761905 16.5824405,5.36547619 12.533631,5.36547619 C8.48511905,5.36547619 5.20327381,8.64761905 5.20327381,12.696131 C5.20327381,16.7446429 8.48511905,20.0264881 12.533631,20.0264881 L12.533631,22.4702381 C7.13571429,22.4702381 2.75952381,18.0940476 2.75952381,12.696131 L2.75952381,12.696131 Z" id="Fill-4" fill="#FFFFFE"></path>
                </g>
            </g>
        </g>
    </g>
</svg>