<?xml version="1.0" encoding="UTF-8"?>
<svg width="160px" height="40px" viewBox="0 0 160 40" version="1.1" xmlns="http://www.w3.org/2000/svg" xmlns:xlink="http://www.w3.org/1999/xlink">
    <title>Podcast Addict</title>
    <defs>
        <rect id="path-1" x="0" y="0" width="25" height="25" rx="4"></rect>
    </defs>
    <g id="Page-1" stroke="none" stroke-width="1" fill="none" fill-rule="evenodd">
        <g id="Listen-On" transform="translate(-329.000000, -545.000000)">
            <g id="Podcast-Addict" transform="translate(329.000000, 545.000000)">
                <rect id="Rectangle" fill="#000000" x="0" y="0" width="160" height="40" rx="7"></rect>
                <path d="M43,14.8958032 L43,9.10419682 L43.9101895,9.10419682 L43.9101895,14.1316932 L46.6680638,14.1316932 L46.6680638,14.8958032 L43,14.8958032 Z M48.0087195,9.99855282 C47.7265607,9.99855282 47.4808095,9.78147612 47.4808095,9.50361795 C47.4808095,9.22575977 47.7265607,9 48.0087195,9 C48.2999801,9 48.5366294,9.22575977 48.5366294,9.50361795 C48.5366294,9.78147612 48.2999801,9.99855282 48.0087195,9.99855282 Z M47.6082361,14.8958032 L47.6082361,10.7018813 L48.4274066,10.7018813 L48.4274066,14.8958032 L47.6082361,14.8958032 Z M49.3038656,14.3487699 L49.6952471,13.7756874 C49.9956097,14.0882779 50.578131,14.3748191 51.1697542,14.3748191 C51.7886831,14.3748191 52.1163513,14.1316932 52.1163513,13.7756874 C52.1163513,13.3589001 51.615747,13.2199711 51.0514295,13.0984081 C50.3050741,12.9334298 49.4312922,12.7424023 49.4312922,11.8393632 C49.4312922,11.170767 50.0320173,10.5976845 51.1060409,10.5976845 C51.8614982,10.5976845 52.4076119,10.8581766 52.7807896,11.1968162 L52.4167138,11.7438495 C52.1618608,11.4486252 51.6703584,11.2315485 51.1151428,11.2315485 C50.5599272,11.2315485 50.2140552,11.4399421 50.2140552,11.7785818 C50.2140552,12.1432706 50.6873537,12.2648336 51.2334674,12.3863965 C51.9980266,12.5513748 52.9082162,12.7510854 52.9082162,13.7149059 C52.9082162,14.4356006 52.2892873,15 51.1333466,15 C50.3960931,15 49.7498585,14.7829233 49.3038656,14.3487699 Z M55.1135519,15 C54.4218078,15 54.0668339,14.6266281 54.0668339,13.9667149 L54.0668339,11.3878437 L53.3386823,11.3878437 L53.3386823,10.7018813 L54.0668339,10.7018813 L54.0668339,9.55571635 L54.8860045,9.55571635 L54.8860045,10.7018813 L55.7779902,10.7018813 L55.7779902,11.3878437 L54.8860045,11.3878437 L54.8860045,13.7930535 C54.8860045,14.0882779 55.0316348,14.3053546 55.3137936,14.3053546 C55.5049334,14.3053546 55.6778694,14.2272069 55.7597864,14.1403763 L55.96913,14.7308249 C55.796194,14.8871201 55.541341,15 55.1135519,15 Z M56.3722905,12.7945007 C56.3722905,11.5788712 57.2915819,10.5976845 58.5749491,10.5976845 C59.894724,10.5976845 60.7138945,11.5788712 60.7138945,12.8639653 L60.7138945,13.0549928 L57.2369705,13.0549928 C57.3006838,13.7670043 57.8467975,14.357453 58.7296814,14.357453 C59.193878,14.357453 59.7035842,14.1837916 60.0312524,13.8625181 L60.413532,14.3748191 C59.976641,14.7829233 59.3577121,15 58.6477643,15 C57.3370914,15 56.3722905,14.1143271 56.3722905,12.7945007 Z M58.5749491,11.2402315 C57.6920653,11.2402315 57.2733781,11.9175109 57.2278686,12.4905933 L59.9129278,12.4905933 C59.894724,11.934877 59.5033425,11.2402315 58.5749491,11.2402315 Z M64.6667941,14.8958032 L64.6667941,12.2127352 C64.6667941,11.5180897 64.2936164,11.29233 63.7292989,11.29233 C63.2195928,11.29233 62.7553961,11.5875543 62.5187468,11.9001447 L62.5187468,14.8958032 L61.6995763,14.8958032 L61.6995763,10.7018813 L62.5187468,10.7018813 L62.5187468,11.29233 C62.8100075,10.9536903 63.3925288,10.5976845 64.0751709,10.5976845 C65.0035643,10.5976845 65.4859647,11.0665702 65.4859647,11.9522431 L65.4859647,14.8958032 L64.6667941,14.8958032 Z M70.9979655,15 C69.6326812,15 68.777103,14.0101302 68.777103,12.7945007 C68.777103,11.5875543 69.6326812,10.5976845 70.9979655,10.5976845 C72.3723517,10.5976845 73.2188279,11.5875543 73.2188279,12.7945007 C73.2188279,14.0101302 72.3723517,15 70.9979655,15 Z M70.9979655,14.3053546 C71.8808493,14.3053546 72.3632498,13.593343 72.3632498,12.7945007 C72.3632498,12.0043415 71.8808493,11.29233 70.9979655,11.29233 C70.1241835,11.29233 69.6326812,12.0043415 69.6326812,12.7945007 C69.6326812,13.593343 70.1241835,14.3053546 70.9979655,14.3053546 Z M77.1808294,14.8958032 L77.1808294,12.2127352 C77.1808294,11.5180897 76.8076517,11.29233 76.2433342,11.29233 C75.7336281,11.29233 75.2694314,11.5875543 75.0327821,11.9001447 L75.0327821,14.8958032 L74.2136115,14.8958032 L74.2136115,10.7018813 L75.0327821,10.7018813 L75.0327821,11.29233 C75.3240428,10.9536903 75.9065641,10.5976845 76.5892062,10.5976845 C77.5175995,10.5976845 78,11.0665702 78,11.9522431 L78,14.8958032 L77.1808294,14.8958032 Z" id="Listenon" fill="#FFFFFF" fill-rule="nonzero"></path>
                <path d="M44.7890625,31 L44.7890625,27.1484375 L47.2109375,27.1484375 C49.421875,27.1484375 50.9765625,25.6328125 50.9765625,23.4296875 C50.9765625,21.234375 49.453125,19.7265625 47.265625,19.7265625 L43.0390625,19.7265625 L43.0390625,31 L44.7890625,31 Z M46.796875,25.6796875 L44.7890625,25.6796875 L44.7890625,21.203125 L46.8046875,21.203125 C48.3203125,21.203125 49.1875,22.015625 49.1875,23.4375 C49.1875,24.859375 48.3203125,25.6796875 46.796875,25.6796875 Z M55.8359375,31.15625 C58.1875,31.15625 59.734375,29.5390625 59.734375,26.890625 C59.734375,24.25 58.1796875,22.6328125 55.8359375,22.6328125 C53.4921875,22.6328125 51.9375,24.25 51.9375,26.890625 C51.9375,29.5390625 53.484375,31.15625 55.8359375,31.15625 Z M55.8359375,29.765625 C54.515625,29.765625 53.65625,28.71875 53.65625,26.890625 C53.65625,25.0703125 54.515625,24.0234375 55.8359375,24.0234375 C57.15625,24.0234375 58.015625,25.0703125 58.015625,26.890625 C58.015625,28.71875 57.1640625,29.765625 55.8359375,29.765625 Z M64.125,31.140625 C65.3203125,31.140625 66.2578125,30.5390625 66.7421875,29.6015625 L66.7734375,29.6015625 L66.7734375,31 L68.4140625,31 L68.4140625,19.7265625 L66.71875,19.7265625 L66.71875,24.1484375 L66.6875,24.1484375 C66.2265625,23.2421875 65.2890625,22.6484375 64.109375,22.6484375 C62.046875,22.6484375 60.671875,24.296875 60.671875,26.890625 C60.671875,29.484375 62.046875,31.140625 64.125,31.140625 Z M64.5703125,29.7109375 C63.234375,29.7109375 62.3984375,28.625 62.3984375,26.890625 C62.3984375,25.1640625 63.234375,24.0703125 64.5703125,24.0703125 C65.8671875,24.0703125 66.734375,25.1875 66.734375,26.890625 C66.734375,28.609375 65.8671875,29.7109375 64.5703125,29.7109375 Z M73.65625,31.15625 C75.6328125,31.15625 77.03125,29.96875 77.2109375,28.21875 L75.5859375,28.21875 C75.390625,29.171875 74.7109375,29.7421875 73.671875,29.7421875 C72.359375,29.7421875 71.4921875,28.6953125 71.4921875,26.890625 C71.4921875,25.125 72.3515625,24.0390625 73.65625,24.0390625 C74.7578125,24.0390625 75.4140625,24.734375 75.5859375,25.609375 L77.1953125,25.609375 C77.046875,23.9921875 75.7578125,22.6328125 73.640625,22.6328125 C71.3046875,22.6328125 69.7734375,24.28125 69.7734375,26.890625 C69.7734375,29.546875 71.3046875,31.15625 73.65625,31.15625 Z M80.8125,31.140625 C81.890625,31.140625 82.9296875,30.5625 83.40625,29.6484375 L83.4453125,29.6484375 L83.4453125,31 L85.0625,31 L85.0625,25.3359375 C85.0625,23.6875 83.7890625,22.6328125 81.796875,22.6328125 C79.765625,22.6328125 78.5,23.7265625 78.40625,25.2109375 L80,25.2109375 C80.1484375,24.4765625 80.7578125,24.0078125 81.734375,24.0078125 C82.765625,24.0078125 83.3828125,24.5546875 83.3828125,25.46875 L83.3828125,26.1015625 L81.1328125,26.234375 C79.1796875,26.34375 78.078125,27.2265625 78.078125,28.6640625 C78.078125,30.140625 79.203125,31.140625 80.8125,31.140625 Z M81.28125,29.8046875 C80.375,29.8046875 79.78125,29.3359375 79.78125,28.6171875 C79.78125,27.9140625 80.3515625,27.46875 81.359375,27.3984375 L83.3828125,27.2734375 L83.3828125,27.921875 C83.3828125,28.9921875 82.4609375,29.8046875 81.28125,29.8046875 Z M89.78125,31.15625 C91.71875,31.15625 93.1171875,30.125 93.1171875,28.625 C93.1171875,27.4375 92.4765625,26.78125 90.796875,26.390625 L89.4609375,26.0859375 C88.5703125,25.8828125 88.1953125,25.53125 88.1953125,25.015625 C88.1953125,24.359375 88.8046875,23.9140625 89.71875,23.9140625 C90.6640625,23.9140625 91.25,24.4140625 91.34375,25.2109375 L92.9296875,25.2109375 C92.875,23.6953125 91.6328125,22.6328125 89.71875,22.6328125 C87.828125,22.6328125 86.546875,23.640625 86.546875,25.109375 C86.546875,26.3046875 87.3203125,27.0546875 88.8828125,27.4140625 L90.21875,27.7265625 C91.1171875,27.9296875 91.421875,28.2421875 91.421875,28.7734375 C91.421875,29.4453125 90.796875,29.8671875 89.78125,29.8671875 C88.75,29.8671875 88.1640625,29.4453125 88.0078125,28.5859375 L86.3359375,28.5859375 C86.4921875,30.1484375 87.7265625,31.15625 89.78125,31.15625 Z M97.2265625,31.0546875 C97.6015625,31.0546875 97.9765625,31.0234375 98.1640625,30.9765625 L98.1640625,29.640625 C98.0546875,29.6640625 97.78125,29.6796875 97.609375,29.6796875 C96.921875,29.6796875 96.609375,29.359375 96.609375,28.6484375 L96.609375,24.1171875 L98.171875,24.1171875 L98.171875,22.78125 L96.609375,22.78125 L96.609375,20.8359375 L94.9140625,20.8359375 L94.9140625,22.78125 L93.71875,22.78125 L93.71875,24.1171875 L94.9140625,24.1171875 L94.9140625,28.8359375 C94.9140625,30.421875 95.5625,31.0546875 97.2265625,31.0546875 Z M103.984375,31 L105.015625,27.953125 L109.3125,27.953125 L110.34375,31 L112.195312,31 L108.125,19.7265625 L106.234375,19.7265625 L102.164062,31 L103.984375,31 Z M108.867188,26.546875 L105.460938,26.546875 L107.140625,21.6015625 L107.1875,21.6015625 L108.867188,26.546875 Z M116.320312,31.140625 C117.515625,31.140625 118.453125,30.5390625 118.9375,29.6015625 L118.96875,29.6015625 L118.96875,31 L120.609375,31 L120.609375,19.7265625 L118.914062,19.7265625 L118.914062,24.1484375 L118.882812,24.1484375 C118.421875,23.2421875 117.484375,22.6484375 116.304688,22.6484375 C114.242188,22.6484375 112.867188,24.296875 112.867188,26.890625 C112.867188,29.484375 114.242188,31.140625 116.320312,31.140625 Z M116.765625,29.7109375 C115.429688,29.7109375 114.59375,28.625 114.59375,26.890625 C114.59375,25.1640625 115.429688,24.0703125 116.765625,24.0703125 C118.0625,24.0703125 118.929688,25.1875 118.929688,26.890625 C118.929688,28.609375 118.0625,29.7109375 116.765625,29.7109375 Z M125.421875,31.140625 C126.617188,31.140625 127.554688,30.5390625 128.039062,29.6015625 L128.070312,29.6015625 L128.070312,31 L129.710938,31 L129.710938,19.7265625 L128.015625,19.7265625 L128.015625,24.1484375 L127.984375,24.1484375 C127.523438,23.2421875 126.585938,22.6484375 125.40625,22.6484375 C123.34375,22.6484375 121.96875,24.296875 121.96875,26.890625 C121.96875,29.484375 123.34375,31.140625 125.421875,31.140625 Z M125.867188,29.7109375 C124.53125,29.7109375 123.695312,28.625 123.695312,26.890625 C123.695312,25.1640625 124.53125,24.0703125 125.867188,24.0703125 C127.164062,24.0703125 128.03125,25.1875 128.03125,26.890625 C128.03125,28.609375 127.164062,29.7109375 125.867188,29.7109375 Z M132.335938,21.453125 C132.875,21.453125 133.304688,21.015625 133.304688,20.484375 C133.304688,19.9453125 132.875,19.515625 132.335938,19.515625 C131.796875,19.515625 131.359375,19.9453125 131.359375,20.484375 C131.359375,21.015625 131.796875,21.453125 132.335938,21.453125 Z M133.179688,31 L133.179688,22.78125 L131.492188,22.78125 L131.492188,31 L133.179688,31 Z M138.421875,31.15625 C140.398438,31.15625 141.796875,29.96875 141.976562,28.21875 L140.351562,28.21875 C140.15625,29.171875 139.476562,29.7421875 138.4375,29.7421875 C137.125,29.7421875 136.257812,28.6953125 136.257812,26.890625 C136.257812,25.125 137.117188,24.0390625 138.421875,24.0390625 C139.523438,24.0390625 140.179688,24.734375 140.351562,25.609375 L141.960938,25.609375 C141.8125,23.9921875 140.523438,22.6328125 138.40625,22.6328125 C136.070312,22.6328125 134.539062,24.28125 134.539062,26.890625 C134.539062,29.546875 136.070312,31.15625 138.421875,31.15625 Z M145.976562,31.0546875 C146.351562,31.0546875 146.726562,31.0234375 146.914062,30.9765625 L146.914062,29.640625 C146.804688,29.6640625 146.53125,29.6796875 146.359375,29.6796875 C145.671875,29.6796875 145.359375,29.359375 145.359375,28.6484375 L145.359375,24.1171875 L146.921875,24.1171875 L146.921875,22.78125 L145.359375,22.78125 L145.359375,20.8359375 L143.664062,20.8359375 L143.664062,22.78125 L142.46875,22.78125 L142.46875,24.1171875 L143.664062,24.1171875 L143.664062,28.8359375 C143.664062,30.421875 144.3125,31.0546875 145.976562,31.0546875 Z" id="PodcastAddict" fill="#FFFFFF" fill-rule="nonzero"></path>
                <g id="Group" transform="translate(10.000000, 8.000000)">
                    <mask id="mask-2" fill="white">
                        <use xlink:href="#path-1"></use>
                    </mask>
                    <use id="Rectangle" fill="#F3842D" xlink:href="#path-1"></use>
                    <g id="Group-94" mask="url(#mask-2)">
                        <g transform="translate(4.000000, 0.000000)">
                            <path d="M13.734169,24.9369061 L12.0721191,24.9369061 C11.9658864,24.711837 12.0633934,24.5587983 12.226482,24.3976105 C13.3868698,23.2510635 14.5407479,22.0978867 15.6924792,20.9425 C15.7942798,20.8404282 15.8654709,20.7079696 15.950928,20.5895994 C16.0311911,20.5884945 16.1115928,20.5895994 16.1917175,20.5853867 C16.235831,20.5831077 16.2794598,20.572058 16.3233657,20.5649448 C16.2787673,20.5531354 16.2342382,20.5310359 16.1896399,20.5310359 C15.1230194,20.5312431 14.0563296,20.5338674 12.9897091,20.5360773 C12.9827839,20.5136326 12.9759972,20.4912569 12.969072,20.4688122 C14.0184488,20.4717127 15.0678255,20.4757182 16.1172022,20.4768232 C16.4584072,20.4772376 16.461385,20.4736464 16.4615235,20.1374586 C16.4622161,18.3318646 16.460831,16.5262707 16.4609695,14.7206077 C16.4609695,13.8009254 16.4624931,12.881174 16.4633934,11.9614227 C16.4818144,11.9891851 16.500097,12.0168785 16.518518,12.0446409 C16.517964,14.7059669 16.5170637,17.3674309 16.5183102,20.0287569 C16.5183795,20.1314503 16.5397784,20.2341436 16.551205,20.336837 C16.559446,20.2358702 16.567687,20.1349033 16.5759972,20.0339365 C16.6951108,19.9487155 16.8285596,19.8779282 16.9311911,19.7762017 C18.0606233,18.6569337 19.1827839,17.5304834 20.3133241,16.4124586 C20.5053601,16.2225414 20.7279363,16.0633564 20.936385,15.8899448 L20.936385,18.1689503 C20.892964,18.1548619 20.835277,18.1537569 20.8084765,18.1245442 C20.6406094,17.9416022 20.5142936,17.9965746 20.3556371,18.1554834 C18.2120776,20.3014779 16.0618698,22.4408425 13.918795,24.5873895 C13.8298061,24.676547 13.7944875,24.8192265 13.734169,24.9369061" id="Fill-4" fill="#ED722F"></path>
                            <path d="M13.734169,24.9369061 C13.7944875,24.8192265 13.8298061,24.676547 13.918795,24.5873895 C16.0618698,22.4408425 18.2120776,20.3014779 20.3556371,18.1554834 C20.5142936,17.9965746 20.6406094,17.9416022 20.8084765,18.1245442 C20.835277,18.1537569 20.892964,18.1548619 20.936385,18.1689503 L20.936385,19.7573481 C20.8782825,19.807279 20.809169,19.8488536 20.7640166,19.9085221 C20.585831,20.1434669 20.44241,20.410663 20.2374931,20.6181215 C19.0343075,21.8359392 17.8156787,23.0384945 16.6068837,24.2507182 C16.3830609,24.4752348 16.1381856,24.648232 15.8304294,24.7406354 C15.7219114,24.773232 15.6327147,24.8696409 15.534723,24.9369061 L13.734169,24.9369061 Z" id="Fill-6" fill="#EE742A"></path>
                            <path d="M20.936385,15.8899448 C20.7279363,16.0633564 20.5053601,16.2225414 20.3133241,16.4124586 C19.1827839,17.5304834 18.0606233,18.6569337 16.9311911,19.7762017 C16.8285596,19.8779282 16.6951108,19.9487155 16.5759972,20.0339365 C16.575928,19.020953 16.575928,18.0080387 16.5758587,16.9950552 C16.6868698,16.9181215 16.8119391,16.8554144 16.9065374,16.7620442 C17.7663712,15.9120442 18.6222576,15.0581768 19.476205,14.2023066 C19.7604155,13.9174309 20.0354155,13.6235773 20.3147091,13.3337983 L20.936385,13.8871823 L20.936385,15.8899448 Z" id="Fill-8" fill="#EB6B29"></path>
                            <path d="M15.534723,24.9369061 C15.6327147,24.8696409 15.7219114,24.773232 15.8304294,24.7406354 C16.1381856,24.648232 16.3830609,24.4752348 16.6068837,24.2507182 C17.8156787,23.0384945 19.0343075,21.8359392 20.2374931,20.6181215 C20.44241,20.410663 20.585831,20.1434669 20.7640166,19.9085221 C20.809169,19.8488536 20.8782825,19.807279 20.936385,19.7573481 C20.936385,21.4263398 20.933892,23.0953315 20.9407555,24.7642541 C20.9413019,24.9125276 20.9119391,24.9417403 20.7632548,24.9411955 C19.0203878,24.934489 17.27759,24.9369061 15.534723,24.9369061" id="Fill-10" fill="#F0782B"></path>
                            <path d="M15.9509141,20.5895856 C15.8655263,20.7079558 15.7942659,20.8404144 15.6925346,20.9424862 C14.5408033,22.0978729 13.3869252,23.2510497 12.2265374,24.3976657 C12.0633795,24.5588536 11.9658726,24.7118232 12.0721053,24.9368923 L9.50977839,24.9368923 C9.44004155,24.8226657 9.37044321,24.7084392 9.30070637,24.5941436 C9.39184211,24.4913122 9.47785319,24.3835083 9.5749446,24.2864779 C10.6484903,23.2134116 11.7267452,22.1449033 12.7948199,21.0664503 C12.9266066,20.9333702 13.0070083,20.7495304 13.1112327,20.5893094 C14.0577701,20.5893785 15.0043767,20.5895166 15.9509141,20.5895856" id="Fill-12" fill="#EB6A29"></path>
                            <path d="M15.3962188,0.0750972376 C15.2748892,0.108397238 15.1536288,0.170797238 15.0322992,0.170897238 C10.9120083,0.175897238 6.7917867,0.175897238 2.6715651,0.170897238 C2.5501662,0.170797238 2.42890582,0.108397238 2.30757618,0.0750972376 L15.3962188,0.0750972376 Z" id="Fill-14" fill="#F48936"></path>
                            <path d="M7.00910665,12.2730939 C7.00225069,13.2667403 7.59310942,13.9153591 8.35169668,13.9585912 C9.15322022,14.0042403 9.81942521,13.4574862 9.91838643,12.6726796 C10.0052978,11.9831768 9.56208449,11.2911188 8.88978532,11.1175 C8.7025277,11.0690884 8.48957756,11.1078315 8.28978532,11.123163 C8.1242036,11.1358702 7.93867729,11.1322099 7.79982687,11.2064503 C7.29677978,11.4751657 7.01963296,11.9018923 7.00910665,12.2730939 L7.00910665,12.2730939 Z M10.0274584,10.5355939 C10.0597299,10.5615608 10.0920014,10.5875276 10.1243421,10.6134945 C10.2067521,10.6971961 10.2893006,10.7809669 10.3717798,10.8646685 C10.6864612,11.2967127 10.9276662,11.7589365 10.9596607,12.3052762 C10.9694945,12.4726796 11.0720568,12.5087983 11.2167244,12.5067956 C11.4923476,12.5029282 11.7684557,12.495953 12.0435249,12.5090746 C12.2257964,12.5177762 12.2871537,12.4559669 12.2694252,12.2756492 C12.1820983,11.3847652 11.8907548,10.5842818 11.2489958,9.93469613 C11.0922091,9.78842541 10.9417936,9.63469613 10.777597,9.49719613 C10.1620152,8.98138122 9.42274931,8.79374309 8.64511773,8.71308011 C8.54276316,8.70244475 8.46533934,8.71529006 8.46697512,8.85002762 C8.47136427,9.19505525 8.4642313,9.54022099 8.47351108,9.88497238 C8.47475762,9.93041436 8.54470222,10.0128039 8.5824446,10.0125276 C9.07302632,10.009489 9.48992382,10.2235083 9.90640582,10.4417403 C9.94768006,10.4758564 9.98902355,10.5099033 10.0302285,10.5440193 L10.0274584,10.5355939 Z M11.3507271,8.74512431 L11.345187,8.73359116 C11.3771122,8.75803867 11.4090374,8.78241713 11.4409626,8.80686464 C11.7812673,9.19132597 12.1216413,9.57585635 12.461946,9.96031768 C12.5088989,10.0335912 12.5557825,10.1069337 12.6028047,10.1802072 L12.5978878,10.1738536 C12.6273199,10.2233011 12.6567521,10.2728177 12.6861842,10.3223343 C12.7059903,10.3619751 12.7257271,10.401616 12.7455332,10.4412569 C12.9359072,10.9444337 13.1256579,11.4471961 13.1729571,11.9901519 C13.2179709,12.506174 13.2209488,12.5085912 13.7363227,12.5047238 C13.9756579,12.5029282 14.2149238,12.4883564 14.4541898,12.4795856 C14.4481648,12.2326243 14.4615305,11.983384 14.4323753,11.7391851 C14.3476801,11.0282044 14.154813,10.3484392 13.7877078,9.72578729 C13.7900623,9.70203039 13.7799515,9.68621547 13.7573061,9.6784116 C13.7302285,9.62640884 13.7032202,9.57440608 13.6761427,9.52240331 L13.680367,9.52827348 C13.6320983,9.47523481 13.5838989,9.42219613 13.5356302,9.36915746 C13.277874,8.82813536 12.9086219,8.37709945 12.4336911,8.01135359 C12.4067521,7.98662983 12.379813,7.96190608 12.352874,7.93725138 L12.3593144,7.94077348 C12.3188712,7.90714088 12.2784972,7.87357735 12.238054,7.83994475 L12.245187,7.84726519 C12.2165166,7.82461326 12.1878463,7.80196133 12.1591066,7.77930939 L12.1593144,7.77558011 C11.4915859,7.22143646 10.7213643,6.87516575 9.88472992,6.66674033 C9.78313712,6.64146409 9.67427285,6.64698895 9.56963296,6.63220994 C9.25356648,6.58752762 8.93846953,6.53393646 8.62129501,6.50009669 C8.57503463,6.49512431 8.47635042,6.57723757 8.47482687,6.62164365 C8.46312327,6.95444751 8.46797091,7.28794199 8.47129501,7.62122928 C8.4726108,7.75272099 8.55169668,7.78718232 8.6757964,7.7909116 C9.63777701,7.81991713 10.4951177,8.15223757 11.2770429,8.6976105 L11.280644,8.69809392 C11.303982,8.71377072 11.3273199,8.72944751 11.3507271,8.74512431 L11.3507271,8.74512431 Z M16.4634003,11.9614227 C16.4625,12.881174 16.4609765,13.8009254 16.4609765,14.7206077 C16.460838,16.5262707 16.4621537,18.3318646 16.4615305,20.1374586 C16.461392,20.4736464 16.4584141,20.4772376 16.1172091,20.4768232 C15.0678324,20.4757182 14.0184557,20.4717127 12.9690789,20.4688122 C12.9595222,20.0708149 12.9500346,19.6727486 12.9404778,19.2748204 C12.935838,19.238011 12.9311981,19.2011326 12.9265582,19.1642541 C12.8924169,19.1991989 12.8582064,19.2341436 12.8239958,19.2690884 C12.7499654,19.2898066 12.6713643,19.3007873 12.6025277,19.3326934 C12.0754501,19.5771685 11.5502424,19.8255801 11.0244114,20.0728867 C10.5215028,20.2020994 10.0203947,20.3387707 9.51471607,20.4558287 C9.35799861,20.4922238 9.18895429,20.4752348 9.02558864,20.4826934 C8.95675208,20.4795856 8.88784626,20.4733011 8.81907895,20.4739227 C8.0441482,20.4812431 7.2708795,20.4733011 6.51783241,20.2532044 C6.36132271,20.2074862 6.20370499,20.1651519 6.04657202,20.1213674 C6.0159626,20.0916022 5.98542244,20.0619061 5.95481302,20.032279 C5.95335873,19.9889779 5.95190443,19.9456768 5.95045014,19.9023066 C5.95051939,19.876547 5.95058864,19.8507182 5.95058864,19.8249586 C5.95058864,19.1350414 5.95051939,18.4451934 5.95045014,17.7554144 C5.95058864,17.4555525 5.95072715,17.1557597 5.9509349,16.8558978 L5.9509349,16.5815884 L5.9509349,16.4415331 C5.95100416,16.1889779 5.95107341,15.9364917 5.95121191,15.6839365 C5.95107341,15.6165331 5.9509349,15.5491298 5.9507964,15.4817265 C5.96457756,15.4619751 5.96810942,15.4405663 5.96139197,15.4174309 C6.03860803,15.4615608 6.12191828,15.4976796 6.19200139,15.5511326 C6.58424515,15.8500276 7.01367729,16.0670166 7.50176593,16.159558 C8.67039474,16.488011 9.74186288,16.2494061 10.713054,15.5641851 C11.4105609,15.072058 11.877597,14.3956768 12.1118075,13.5701934 C12.1899931,13.294779 12.1473338,13.2392541 11.8670014,13.2327624 C11.6249654,13.2270994 11.3822368,13.2398066 11.1406163,13.2286188 C10.9408934,13.2192956 10.8345914,13.2926381 10.7530125,13.4835221 C10.3261427,14.4826934 9.48985457,14.9113536 8.47060249,15.0717127 C8.31353878,15.0486464 8.1541205,15.0361464 7.99996537,15.0005801 C7.43306787,14.8698481 6.97551939,14.550442 6.56492382,14.153826 C6.53659972,14.123232 6.50827562,14.0925691 6.47988227,14.061837 L6.49290166,14.0621823 C6.19324792,13.6348343 5.99518698,13.1694337 5.9590374,12.6434669 C5.96166898,12.6206768 5.96644737,12.5979558 5.96665512,12.5751657 C5.97600416,11.4520304 6.49297091,10.6570028 7.52157202,10.2003039 C7.68542244,10.1275829 7.72628116,10.0076934 7.72718144,9.8530663 C7.72842798,9.61225138 7.73022853,9.37129834 7.72725069,9.13048343 C7.72461911,8.91004144 7.6675554,8.84975138 7.45432825,8.855 C7.37586565,8.8569337 7.29567175,8.88283149 7.22046399,8.90969613 C5.70405125,9.45133978 4.76693213,10.8006492 4.68756925,12.1642541 C4.67268006,12.1839365 4.67129501,12.2045166 4.68334488,12.2260635 C4.68057479,12.5495442 4.67787396,12.8730249 4.67510388,13.1964365 C4.67517313,14.0021685 4.67517313,14.8079696 4.67517313,15.6137017 C4.67510388,16.6994061 4.67503463,17.7850414 4.67496537,18.8706768 C4.66984072,18.949268 4.66637812,19.0280663 4.65910665,19.1064503 C4.64788781,19.226547 4.63396814,19.3463674 4.62122576,19.466326 C4.51083795,19.4137017 4.3973338,19.3666713 4.29075485,19.307279 C4.06201524,19.1799309 3.83694598,19.0460912 3.61035319,18.9149448 C2.90869114,18.2375967 2.20716759,17.5657044 1.67524238,16.7324862 C-0.0842451524,13.976547 0.0936634349,10.2088674 2.12060249,7.64477901 C3.49123961,5.91093923 5.26824792,4.83013812 7.46360803,4.59588398 C10.7735111,4.24270718 13.3728186,5.51100829 15.2385388,8.26425414 C15.2769044,8.32088398 15.3173476,8.3761326 15.3568906,8.43207182 C15.3905471,8.48227901 15.4242729,8.53255525 15.4579986,8.58283149 L15.4487881,8.57937845 C15.5746191,8.84740331 15.7055748,9.11321823 15.8254501,9.38393646 C16.189162,10.2054834 16.3667244,11.0737155 16.4634003,11.9614227 L16.4634003,11.9614227 Z" id="Fill-16" fill="#FEFDFC"></path>
                            <path d="M11.0244114,20.0729144 C11.5502424,19.8256077 12.0754501,19.5771271 12.6025277,19.3326519 C12.6713643,19.3007459 12.7499654,19.2897652 12.8239958,19.269047 C12.8628463,19.2710497 12.9016274,19.2729144 12.9404778,19.274779 C12.9500346,19.6727762 12.9595222,20.0708425 12.9690789,20.4687707 C12.9760042,20.4912845 12.9827909,20.5136602 12.9897161,20.536105 L13.1112535,20.5893508 C13.0070291,20.7495718 12.9266274,20.9333425 12.7947715,21.0664917 C11.7267659,22.1449448 10.6484418,23.213453 9.57489612,24.2865193 C9.47787396,24.3834807 9.39186288,24.4913536 9.30065789,24.5941851 C8.86187673,24.1569613 8.42309557,23.7196685 7.98438366,23.2824448 C8.06707064,23.1880387 8.14484072,23.0886602 8.23334488,23.0000552 C8.97060249,22.2620718 9.71513158,21.5313398 10.4451177,20.7863122 C10.6586219,20.5684254 10.8324446,20.3117956 11.0244114,20.0729144" id="Fill-18" fill="#E96528"></path>
                            <path d="M20.3147368,13.333826 C20.0354432,13.6235359 19.760374,13.9174586 19.4762327,14.2022652 C18.6222853,15.0582044 17.7663296,15.9120718 16.9064958,16.7620718 C16.8119668,16.855442 16.6868283,16.9180801 16.5758864,16.9950829 C16.5760942,15.8902486 16.5763712,14.7854144 16.5765789,13.680511 C16.687313,13.6033702 16.8112742,13.5396961 16.9066343,13.4468094 C17.3517867,13.0131768 17.7817036,12.5637293 18.2329501,12.1367265 C18.396385,11.9821685 18.528795,11.8238812 18.5835042,11.6058564 C19.1605817,12.1818232 19.7376593,12.7577901 20.3147368,13.333826" id="Fill-20" fill="#E96428"></path>
                            <path d="M11.0244114,20.0729144 C10.8324446,20.3117956 10.6586219,20.5684254 10.4451177,20.7863122 C9.71513158,21.5313398 8.97060249,22.2620718 8.23334488,23.0000552 C8.14484072,23.0886602 8.06707064,23.1880387 7.98438366,23.2824448 C7.49885734,22.7988122 7.01340028,22.3151796 6.52794321,21.831547 C6.90633657,21.7291298 7.11277701,21.4089641 7.37184903,21.1590331 C7.56083795,20.9766436 7.69158587,20.687279 7.91104571,20.5961878 C8.14317867,20.4999171 8.45003463,20.5914917 8.72351108,20.5810635 C8.82531163,20.5772652 8.92496537,20.5171823 9.02558864,20.482721 C9.18895429,20.4751934 9.35806787,20.4921823 9.51471607,20.4558564 C10.0203947,20.3387983 10.5215028,20.202058 11.0244114,20.0729144" id="Fill-22" fill="#E8612A"></path>
                            <path d="M18.5835042,11.6058564 C18.528795,11.8238812 18.396385,11.9821685 18.2329501,12.1367265 C17.7817036,12.5637293 17.3517867,13.0131768 16.9066343,13.4468094 C16.8112742,13.5396961 16.687313,13.6033702 16.5765789,13.680511 C16.5756094,13.2796823 16.5794183,12.8787845 16.5713158,12.4780939 C16.568338,12.3333425 16.5369668,12.1891436 16.5185457,12.0446685 C16.5001247,12.0169061 16.4817729,11.9891436 16.4634211,11.9614503 C16.3666759,11.073674 16.1891828,10.205511 15.8254709,9.38389503 C15.7055263,9.1131768 15.5746399,8.84743094 15.4487396,8.57933702 C15.5376593,8.62367403 15.645554,8.64895028 15.7125208,8.71531768 C16.6531717,9.64722376 17.5882825,10.5846547 18.5240859,11.5214641 C18.5480471,11.5454282 18.5639058,11.5775414 18.5835042,11.6058564" id="Fill-24" fill="#E75D27"></path>
                            <path d="M5.95480609,20.0322445 C5.98541551,20.0619406 6.01595568,20.0915677 6.0465651,20.1213329 C6.14026316,20.4954351 5.93049861,20.7496478 5.49040166,20.795297 C4.86373961,20.1685704 4.23707756,19.5417058 3.61034626,18.9149102 C3.83693906,19.0461257 4.06200831,19.1798964 4.29074792,19.3073135 C4.39732687,19.3666367 4.51083102,19.4137362 4.62121884,19.4663605 C4.63396122,19.3463329 4.64788089,19.2265124 4.65909972,19.1064848 C4.66644044,19.0280318 4.6698338,18.9492334 4.67495845,18.8707113 C4.75286704,18.7971616 4.84247922,18.7325898 4.90660665,18.6486119 C5.17121884,18.3018577 5.44261773,17.9644268 5.83853186,17.7546202 C5.83880886,18.3350069 5.8334072,18.9154627 5.84441828,19.4956423 C5.84649584,19.6060014 5.91353186,19.7151865 5.95058172,19.824924 C5.95058172,19.8506837 5.95051247,19.8765124 5.95051247,19.9022721 C5.90736842,19.9470925 5.83313019,19.9929489 5.95480609,20.0322445" id="Fill-26" fill="#E4562A"></path>
                            <path d="M5.49042936,20.7952831 C5.93045706,20.749634 6.14022161,20.4954213 6.0465928,20.1213191 C6.20365651,20.1651727 6.36127424,20.2074378 6.51785319,20.2531561 C7.27090028,20.4733218 8.04409972,20.4811948 8.81909972,20.4739434 C8.88786704,20.4733218 8.9567036,20.4796064 9.02554017,20.4827141 C8.9249169,20.5171754 8.82533241,20.5772583 8.72353186,20.5810566 C8.4500554,20.5914848 8.14313019,20.4999102 7.91106648,20.5961809 C7.6915374,20.6873412 7.56078947,20.9766367 7.37180055,21.1590262 C7.11279778,21.4089572 6.90628809,21.7291229 6.52796399,21.8315401 C6.18211911,21.4860981 5.83627424,21.1407251 5.49042936,20.7952831" id="Fill-28" fill="#E65E2D"></path>
                            <path d="M15.4580332,8.58282459 C15.4243075,8.53254834 15.3905125,8.4822721 15.356856,8.43206492 C15.3905125,8.4822721 15.4243075,8.53254834 15.4580332,8.58282459" id="Fill-30" fill="#E75D27"></path>
                            <path d="M16.5211765,12.044634 C16.5478765,12.1891091 16.5931765,12.333308 16.5974765,12.4781285 C16.6090765,12.8788191 16.6035765,13.2796478 16.6049765,13.6804765 C16.6046765,14.7853798 16.6042765,15.8902141 16.6039765,16.9950483 C16.6040765,18.0080318 16.6040765,19.0209461 16.6041765,20.0339296 C16.5921765,20.1348964 16.5802765,20.2358633 16.5683765,20.3368301 C16.5518765,20.2341367 16.5209765,20.1314434 16.5208765,20.02875 C16.5190765,17.367424 16.5203765,14.706029 16.5211765,12.044634" id="Fill-32" fill="#E95E04"></path>
                            <path d="M13.1112396,20.6177804 L12.9897022,20.5406804 C14.0563227,20.5374804 15.1230125,20.5336804 16.189633,20.5333804 C16.2342313,20.5333804 16.2787604,20.5654804 16.3233587,20.5824804 C16.2794529,20.5927804 16.2358241,20.6087804 16.1917105,20.6120804 C16.1115859,20.6181804 16.0311842,20.6165804 15.9509211,20.6181804 C15.0043837,20.6180804 14.057777,20.6178804 13.1112396,20.6177804" id="Fill-34" fill="#EA6302"></path>
                            <path d="M5.83851801,17.7545856 C5.44267313,17.9643923 5.17120499,18.3018923 4.9065928,18.6485773 C4.84253463,18.7325552 4.75285319,18.7971961 4.6749446,18.8706768 C4.67501385,17.7849724 4.6750831,16.6994061 4.67515235,15.6137017 C4.79101108,15.5514088 4.92722992,15.5104558 5.01905817,15.4230249 C5.39855956,15.0620442 5.76109418,14.6831768 6.13796399,14.3192956 C6.24198061,14.2188122 6.37383657,14.1471271 6.49288089,14.0621823 L6.47993075,14.061837 C6.50825485,14.0925691 6.5366482,14.123232 6.5649723,14.153826 C6.97549861,14.550442 7.43304709,14.8698481 7.9999446,15.0005801 C8.15409972,15.0361464 8.31358726,15.0486464 8.47058172,15.0717127 C8.4216205,15.1314503 8.37487535,15.1931215 8.3232133,15.250511 C8.0500831,15.5541713 7.77570637,15.8567265 7.50174515,16.159558 C7.01372576,16.0669475 6.58429363,15.8500276 6.19198061,15.5511326 C6.12189751,15.4976796 6.03858726,15.4615608 5.96137119,15.4174309 C5.95783934,15.4389088 5.95430748,15.4602486 5.95077562,15.4817265 C5.95091413,15.5490608 5.95105263,15.6165331 5.95119114,15.6839365 C5.79405817,15.9059669 5.79391967,16.2184669 5.95091413,16.4415331 L5.95091413,16.5815884 C5.80278393,16.6730249 5.80354571,16.7644613 5.95091413,16.8558978 C5.95077562,17.1557597 5.95063712,17.4555525 5.95049861,17.7554144 C5.91317175,17.7551381 5.87584488,17.7548619 5.83851801,17.7545856" id="Fill-36" fill="#E24F24"></path>
                            <path d="M7.00910665,12.2730939 C7.01963296,11.9018923 7.29677978,11.4751657 7.79982687,11.2064503 C7.93867729,11.1322099 8.1242036,11.1358702 8.28978532,11.123163 C8.48957756,11.1078315 8.7025277,11.0690884 8.88978532,11.1175 C9.56208449,11.2911188 10.0052978,11.9831768 9.91838643,12.6726796 C9.81942521,13.4574862 9.15322022,14.0042403 8.35169668,13.9585912 C7.59310942,13.9153591 7.00225069,13.2667403 7.00910665,12.2730939" id="Fill-38" fill="#E24E24"></path>
                            <path d="M7.50175208,16.1595787 C7.7757133,15.8566782 8.05009003,15.5541229 8.32322022,15.2505318 C8.37481302,15.1931423 8.42162742,15.1314019 8.47058864,15.0717334 C9.48984072,14.9113743 10.3261288,14.4827141 10.7529986,13.4835428 C10.8345776,13.2925898 10.9408795,13.2193163 11.1406025,13.2286395 C11.382223,13.2398273 11.6249515,13.2271202 11.8669875,13.2327141 C12.1473199,13.2392749 12.1899792,13.2947997 12.1117936,13.5702141 C11.8776524,14.3956975 11.4105471,15.0720787 10.7130402,15.5642058 C9.74191828,16.2494268 8.67038089,16.4880318 7.50175208,16.1595787" id="Fill-40" fill="#E55727"></path>
                            <path d="M4.67513158,13.1964434 C4.67790166,12.8729627 4.68060249,12.5495511 4.68330332,12.2260704 C4.68877424,12.2200622 4.6992313,12.2135704 4.69874654,12.2080456 C4.69756925,12.1932666 4.69161357,12.1788329 4.6875277,12.164261 C4.76695983,10.8006561 5.7040097,9.45134669 7.22049169,8.90970304 C7.29563019,8.8828384 7.37589335,8.85694061 7.45435596,8.85500691 C7.6675831,8.84975829 7.72457756,8.91004834 7.72720914,9.13049033 C7.73018698,9.37130525 7.72845568,9.61225829 7.72713989,9.8530732 C7.72630886,10.0077003 7.68545014,10.1275207 7.52159972,10.2003108 C6.49299861,10.6570097 5.97603186,11.4520373 5.96661357,12.5751727 C5.96640582,12.5979627 5.96169668,12.6206837 5.9590651,12.6434738 C5.92457756,12.6163329 5.87907895,12.5959599 5.8574723,12.5609461 C5.72201524,12.3411257 5.71245845,12.3349102 5.52693213,12.5094959 C5.34569945,12.6800069 5.18067175,12.8684738 4.99327562,13.0315953 C4.90581025,13.1077693 4.7823338,13.1427831 4.67513158,13.1964434" id="Fill-42" fill="#DF4523"></path>
                            <path d="M11.2770706,8.6976105 C10.4951454,8.15223757 9.63780471,7.81991713 8.67575485,7.7909116 C8.55172438,7.78718232 8.4726385,7.75272099 8.47125346,7.62122928 C8.46799861,7.28794199 8.46308172,6.95444751 8.47478532,6.62157459 C8.47637812,6.57723757 8.57499307,6.49512431 8.62125346,6.50009669 C8.93842798,6.53393646 9.25352493,6.58752762 9.56966066,6.63220994 C9.6742313,6.64698895 9.78316482,6.64146409 9.88475762,6.66674033 C10.721392,6.87516575 11.4916136,7.22143646 12.1592729,7.77558011 C11.8975,7.83946133 11.7693144,8.07357735 11.5756856,8.22406077 C11.4122507,8.35106354 11.3020014,8.49270718 11.2770706,8.6976105" id="Fill-44" fill="#E04825"></path>
                            <path d="M4.67513158,13.1964434 C4.7823338,13.1427831 4.90581025,13.1077693 4.99327562,13.0315953 C5.18067175,12.8684738 5.34569945,12.6800069 5.52693213,12.5094959 C5.71245845,12.3349102 5.72201524,12.3411257 5.8574723,12.5609461 C5.87907895,12.5959599 5.92457756,12.6163329 5.9590651,12.6434738 C5.99521468,13.1694406 6.19327562,13.6348412 6.49292936,14.0621892 C6.37381579,14.147134 6.24195983,14.2188191 6.13801247,14.3193025 C5.76114266,14.6831837 5.39860803,15.0620511 5.0190374,15.4230318 C4.92720914,15.5104627 4.7909903,15.5514157 4.67513158,15.6137086 C4.67513158,14.8079765 4.67513158,14.0021754 4.67513158,13.1964434" id="Fill-46" fill="#E14924"></path>
                            <path d="M10.3717867,10.8646961 C10.2893075,10.7809945 10.206759,10.6972238 10.124349,10.613453 C10.0920083,10.5874862 10.0597368,10.5615193 10.0274654,10.5355525 L10.0302355,10.544047 C9.98903047,10.5099309 9.94768698,10.4758149 9.90641274,10.4416989 C9.48993075,10.2234669 9.07303324,10.0094475 8.58245152,10.0125552 C8.54470914,10.0127624 8.47469529,9.93044199 8.47351801,9.885 C8.46423823,9.54017956 8.47137119,9.19501381 8.46698205,8.85005525 C8.46534626,8.71524862 8.54277008,8.70240331 8.6450554,8.71303867 C9.42275623,8.79377072 10.1620222,8.98140884 10.7776039,9.4971547 C10.9417313,9.6346547 11.0922161,9.78845304 11.2490028,9.93472376 C10.9565512,10.2446685 10.6642382,10.5546823 10.3717867,10.8646961" id="Fill-48" fill="#E14B25"></path>
                            <path d="M13.7877285,9.7258011 C14.1548338,10.348453 14.3477008,11.0281492 14.4323961,11.7391298 C14.461482,11.9833287 14.4481856,12.2326381 14.4542105,12.4795994 C14.2149446,12.4883702 13.9756787,12.502942 13.7363435,12.5047376 C13.2209003,12.508605 13.2179224,12.5061878 13.1729778,11.9901657 C13.1256094,11.4471409 12.9358587,10.9444475 12.745554,10.4412707 C13.0320499,10.4269751 13.1103047,10.1494199 13.2925069,10.0037017 C13.4450693,9.88174033 13.5662604,9.72013812 13.7877285,9.7258011" id="Fill-50" fill="#E55627"></path>
                            <path d="M13.7877285,9.7258011 C13.5662604,9.72013812 13.4450693,9.88174033 13.2925069,10.0037017 C13.1103047,10.1494199 13.0320499,10.4269751 12.745554,10.4412707 C12.7257479,10.4016298 12.7060111,10.361989 12.686205,10.3223481 C12.6567729,10.2728315 12.6273407,10.2233149 12.5978393,10.1737983 L12.6028255,10.180221 C12.5558033,10.1069475 12.5088504,10.033605 12.4618975,9.96033149 C12.1215928,9.57587017 11.7812188,9.19133978 11.4409141,8.80687845 C11.4089889,8.78243094 11.3770637,8.75798343 11.3451385,8.73353591 L11.3507479,8.74513812 C11.3273407,8.72946133 11.3040028,8.71378453 11.2806648,8.69810773 L11.2770637,8.69762431 C11.3019945,8.49272099 11.4122438,8.35107735 11.5757479,8.22407459 C11.7693075,8.07359116 11.8974931,7.83947514 12.1592659,7.77559392 L12.1590582,7.7793232 C12.1877978,7.80197514 12.2165374,7.82462707 12.2452078,7.84727901 L12.2380748,7.83995856 C12.278518,7.87359116 12.318892,7.9071547 12.3593352,7.94078729 L12.3528255,7.93726519 C12.3798338,7.96191989 12.4067729,7.98664365 12.4336427,8.0113674 C12.9086427,8.37711326 13.2778947,8.82814917 13.5355817,9.36917127 C13.5839197,9.42220994 13.6321191,9.47524862 13.6803878,9.52828729 L13.6761634,9.52241713 C13.7031717,9.57441989 13.7302493,9.62642265 13.7573269,9.67835635 C13.7799723,9.68616022 13.7900831,9.70197514 13.7877285,9.7258011" id="Fill-52" fill="#E24E24"></path>
                            <path d="M10.3717867,10.8646961 C10.6642382,10.5546823 10.9565512,10.2446685 11.2490028,9.93472376 C11.8907618,10.5842403 12.1821053,11.3847238 12.2694321,12.2756077 C12.2871607,12.4559945 12.2257341,12.5178039 12.0435319,12.5091022 C11.7684626,12.4959116 11.4923546,12.5029558 11.2167313,12.5067541 C11.0720637,12.508826 10.9695014,12.4726381 10.9596676,12.3053039 C10.9276731,11.758895 10.6864681,11.2967403 10.3717867,10.8646961" id="Fill-54" fill="#E35126"></path>
                            <path d="M5.83851801,17.7545856 C5.87584488,17.7548619 5.91317175,17.7551381 5.95049861,17.7554144 C5.95056787,18.4451934 5.95056787,19.1350414 5.95063712,19.8249586 C5.91351801,19.715221 5.84648199,19.6060359 5.84440443,19.4956768 C5.83339335,18.9154972 5.83879501,18.3349724 5.83851801,17.7545856" id="Fill-56" fill="#E34D19"></path>
                            <path d="M5.95091413,16.4415608 C5.79391967,16.2184945 5.79405817,15.9059945 5.95119114,15.683895 C5.95105263,15.9365193 5.95098338,16.1890055 5.95091413,16.4415608" id="Fill-58" fill="#E34D19"></path>
                            <path d="M5.95091413,16.8559254 C5.80354571,16.764489 5.80278393,16.6730525 5.95091413,16.581547 L5.95091413,16.8559254 Z" id="Fill-60" fill="#E34D19"></path>
                            <path d="M12.9404709,19.2747997 L12.8239889,19.2691367 C12.8582687,19.2341229 12.89241,19.1991782 12.9265512,19.1642334 C12.9311911,19.2011809 12.935831,19.2379903 12.9404709,19.2747997" id="Fill-62" fill="#ED722F"></path>
                            <path d="M12.4619321,9.96033149 C12.508885,10.033605 12.5557687,10.1069475 12.6027909,10.180221 C12.5557687,10.1069475 12.508885,10.033605 12.4619321,9.96033149" id="Fill-64" fill="#E55627"></path>
                            <path d="M13.6804017,9.5283011 C13.632133,9.47526243 13.5838643,9.42222376 13.5355956,9.36918508 C13.5838643,9.42222376 13.632133,9.47526243 13.6804017,9.5283011" id="Fill-66" fill="#E55627"></path>
                            <path d="M5.98494579,20.0322445 C5.80924579,19.9929489 5.91644579,19.9470925 5.97874579,19.9022721 C5.98074579,19.9456423 5.98284579,19.9889434 5.98494579,20.0322445" id="Fill-68" fill="#E34D19"></path>
                            <path d="M12.597867,10.1738191 C12.6312788,10.2233356 12.6646121,10.2728522 12.697867,10.3222997 C12.6646121,10.2728522 12.6312788,10.2233356 12.597867,10.1738191" id="Fill-70" fill="#E55627"></path>
                            <path d="M12.3593352,7.94077348 C12.318892,7.90714088 12.278518,7.87357735 12.2380748,7.83994475 C12.278518,7.87357735 12.318892,7.90714088 12.3593352,7.94077348" id="Fill-72" fill="#E04825"></path>
                            <path d="M9.90643352,10.4417334 C9.94770776,10.4758494 9.98898199,10.5098964 10.0302562,10.5440124 C9.98898199,10.5098964 9.94770776,10.4758494 9.90643352,10.4417334" id="Fill-74" fill="#E35126"></path>
                            <path d="M13.7761357,9.67839088 C13.742774,9.62638812 13.7094975,9.57438536 13.6761357,9.5223826 C13.7094975,9.57438536 13.742774,9.62638812 13.7761357,9.67839088" id="Fill-76" fill="#E55627"></path>
                            <path d="M5.96306791,15.5115914 C5.96816791,15.4804914 5.97326791,15.4495914 5.97836791,15.4184914 C5.98806791,15.4519914 5.98306791,15.4829914 5.96306791,15.5115914" id="Fill-78" fill="#E34D19"></path>
                            <path d="M6.57990997,14.1618646 C6.54660378,14.1286064 6.51321616,14.095198 6.47990997,14.0618646 C6.51321616,14.095198 6.54660378,14.1286064 6.57990997,14.1618646" id="Fill-80" fill="#E14924"></path>
                            <path d="M12.2590997,7.87795691 C12.2257932,7.84515691 12.1924867,7.81235691 12.1590997,7.77955691 C12.1924867,7.81235691 12.2257932,7.84515691 12.2590997,7.87795691" id="Fill-82" fill="#E04825"></path>
                            <path d="M10.0274931,10.5355801 C10.0608264,10.5689134 10.0941597,10.6022468 10.1274931,10.6355801 C10.0941597,10.6022468 10.0608264,10.5689134 10.0274931,10.5355801" id="Fill-84" fill="#E35126"></path>
                            <path d="M11.3451731,8.73355663 C11.3785065,8.76688996 11.4118398,8.8002233 11.4451731,8.83355663 C11.4118398,8.8002233 11.3785065,8.76688996 11.3451731,8.73355663" id="Fill-86" fill="#E04825"></path>
                            <path d="M11.2806579,8.70305635 C11.3139583,8.72575635 11.3472587,8.74845635 11.3806579,8.77115635 C11.3472587,8.74845635 11.3139583,8.72575635 11.2806579,8.70305635" id="Fill-88" fill="#E04825"></path>
                            <path d="M4.70315721,12.1658492 C4.70905721,12.1869492 4.71765721,12.2078492 4.71935721,12.2292492 C4.72005721,12.2372492 4.70495721,12.2466492 4.69705721,12.2554492 C4.67965721,12.2241492 4.68165721,12.1943492 4.70315721,12.1658492" id="Fill-90" fill="#E4562A"></path>
                            <path d="M12.4528463,8.03725138 C12.4195129,8.00388698 12.3862653,7.97052258 12.3528463,7.93725138 C12.3862653,7.97052258 12.4195129,8.00388698 12.4528463,8.03725138" id="Fill-92" fill="#E04825"></path>
                        </g>
                    </g>
                </g>
            </g>
        </g>
    </g>
</svg>