<svg width="160" height="40" xmlns="http://www.w3.org/2000/svg"><g fill="none" fill-rule="evenodd"><rect fill="#000" width="160" height="40" rx="7"/><path d="M44.79 31v-4.336h2.405L49.492 31h2.016l-2.524-4.61c1.375-.46 2.188-1.695 2.188-3.218 0-2.102-1.445-3.445-3.766-3.445H43.04V31h1.75zm2.452-5.75H44.79v-4.055h2.406c1.352 0 2.172.766 2.172 2.024 0 1.289-.773 2.031-2.125 2.031zm9.461 5.938c2.625 0 4.297-1.336 4.297-3.461 0-1.641-.969-2.586-3.328-3.086l-1.234-.258c-1.461-.313-2.04-.86-2.04-1.68 0-1.031.97-1.672 2.29-1.672 1.367 0 2.296.696 2.406 1.828h1.695c-.055-1.968-1.687-3.32-4.078-3.32-2.398 0-4.094 1.328-4.094 3.258 0 1.625 1.024 2.672 3.281 3.148l1.227.258c1.508.328 2.102.875 2.102 1.75 0 1.008-1.024 1.742-2.454 1.742-1.5 0-2.562-.672-2.718-1.789h-1.703c.109 2.008 1.804 3.282 4.351 3.282zm9.711 0c2.625 0 4.297-1.336 4.297-3.461 0-1.641-.969-2.586-3.328-3.086l-1.235-.258c-1.46-.313-2.039-.86-2.039-1.68 0-1.031.97-1.672 2.29-1.672 1.367 0 2.296.696 2.406 1.828H70.5c-.055-1.968-1.688-3.32-4.078-3.32-2.399 0-4.094 1.328-4.094 3.258 0 1.625 1.024 2.672 3.281 3.148l1.227.258c1.508.328 2.102.875 2.102 1.75 0 1.008-1.024 1.742-2.454 1.742-1.5 0-2.562-.672-2.718-1.789h-1.703c.109 2.008 1.804 3.282 4.351 3.282zM77.274 31v-4.719h4.843v-1.476h-4.844v-3.57h5.29v-1.508h-7.04V31h1.75zm10.117.156c1.882 0 3.304-1.07 3.539-2.57h-1.602c-.226.719-.937 1.203-1.898 1.203-1.352 0-2.211-.945-2.211-2.375v-.102h5.804v-.578c0-2.492-1.421-4.101-3.703-4.101-2.32 0-3.804 1.719-3.804 4.297 0 2.593 1.46 4.226 3.875 4.226zm1.945-5.023h-4.11c.087-1.242.915-2.14 2.094-2.14 1.18 0 1.977.882 2.016 2.14zm6.5 5.023c1.883 0 3.305-1.07 3.539-2.57h-1.602c-.226.719-.937 1.203-1.898 1.203-1.352 0-2.21-.945-2.21-2.375v-.102h5.804v-.578c0-2.492-1.422-4.101-3.703-4.101-2.32 0-3.805 1.719-3.805 4.297 0 2.593 1.46 4.226 3.875 4.226zm1.945-5.023h-4.11c.087-1.242.915-2.14 2.095-2.14 1.18 0 1.976.882 2.015 2.14zm6.078 5.008c1.196 0 2.133-.602 2.618-1.54h.03V31h1.641V19.727h-1.695v4.421h-.031c-.461-.906-1.399-1.5-2.578-1.5-2.063 0-3.438 1.649-3.438 4.243 0 2.593 1.375 4.25 3.453 4.25zm.446-1.43c-1.336 0-2.172-1.086-2.172-2.82 0-1.727.836-2.82 2.172-2.82 1.297 0 2.164 1.116 2.164 2.82 0 1.718-.867 2.82-2.164 2.82zM43 11.996C43 10.19 44.378 9 46.076 9c1.111 0 1.849.495 2.347 1.146l-.72.408a2.061 2.061 0 00-1.627-.781c-1.236 0-2.16.92-2.16 2.223 0 1.293.924 2.231 2.16 2.231a2.33 2.33 0 001.502-.573v-1.042h-1.902v-.764h2.791v2.127C47.898 14.592 47.08 15 46.076 15 44.378 15 43 13.802 43 11.996zm6.279.79c0-1.216.897-2.197 2.15-2.197 1.29 0 2.09.981 2.09 2.266v.191h-3.396c.062.712.596 1.303 1.458 1.303.453 0 .951-.174 1.271-.495l.374.512c-.427.408-1.032.625-1.725.625-1.28 0-2.222-.885-2.222-2.205zm2.15-1.554c-.861 0-1.27.677-1.315 1.25h2.623c-.018-.556-.4-1.25-1.307-1.25zm4.235 3.76c-.676 0-1.022-.374-1.022-1.034v-2.579h-.712v-.686h.712V9.547h.8v1.146h.87v.686h-.87v2.405c0 .296.142.513.418.513a.623.623 0 00.435-.165l.205.59c-.17.156-.418.27-.836.27zm4.93 0c-.676 0-1.022-.374-1.022-1.034v-2.579h-.711v-.686h.71V9.547h.8v1.146h.872v.686h-.871v2.405c0 .296.142.513.418.513a.623.623 0 00.435-.165l.205.59c-.17.156-.418.27-.836.27zm4.394-.105v-2.7c0-.695-.364-.903-.916-.903-.497 0-.95.295-1.182.607v2.996h-.8V9.096h.8v2.188a2.082 2.082 0 011.52-.695c.916 0 1.378.452 1.378 1.337v2.961h-.8zm1.772-2.101c0-1.216.898-2.197 2.151-2.197 1.289 0 2.089.981 2.089 2.266v.191h-3.396c.062.712.596 1.303 1.458 1.303.453 0 .951-.174 1.271-.495l.374.512c-.427.408-1.032.625-1.725.625-1.28 0-2.222-.885-2.222-2.205zm2.151-1.554c-.862 0-1.271.677-1.316 1.25h2.623c-.018-.556-.4-1.25-1.307-1.25z" fill="#FFF" fill-rule="nonzero"/><path d="M10 15.654c9.01 0 16.346 7.332 16.346 16.346h-4.768c0-3.1-1.206-6.02-3.392-8.204A11.502 11.502 0 0010 20.399zm3.363 9.615a3.373 3.373 0 013.368 3.37A3.36 3.36 0 0113.363 32 3.361 3.361 0 0110 28.638a3.374 3.374 0 013.363-3.369zM10 7c13.784 0 25 11.219 25 25h-4.808c0-11.14-9.061-20.206-20.192-20.206z" fill="#F5A623"/></g></svg>