<svg width="160" height="40" xmlns="http://www.w3.org/2000/svg"><g fill="none" fill-rule="evenodd"><rect fill="#000" width="160" height="40" rx="7"/><path d="M43 14.896V9.104h.91v5.028h2.758v.764H43zm5.009-4.897c-.282 0-.528-.218-.528-.495 0-.278.246-.504.528-.504.291 0 .528.226.528.504 0 .277-.237.495-.528.495zm-.4 4.897v-4.194h.818v4.194h-.819zm1.695-.547l.391-.573c.3.312.883.599 1.475.599.619 0 .946-.243.946-.6 0-.416-.5-.555-1.065-.677-.746-.165-1.62-.356-1.62-1.259 0-.668.601-1.241 1.675-1.241.755 0 1.302.26 1.675.599l-.364.547c-.255-.295-.747-.512-1.302-.512s-.9.208-.9.547c0 .364.472.486 1.018.607.765.165 1.675.365 1.675 1.329 0 .72-.619 1.285-1.775 1.285-.737 0-1.383-.217-1.83-.651zm5.81.651c-.692 0-1.047-.373-1.047-1.033v-2.58h-.728v-.685h.728V9.556h.819v1.146h.892v.686h-.892v2.405c0 .295.146.512.428.512a.646.646 0 00.446-.165l.21.59c-.174.157-.429.27-.856.27zm1.258-2.205c0-1.216.92-2.197 2.203-2.197 1.32 0 2.139.98 2.139 2.266v.191h-3.477c.064.712.61 1.302 1.493 1.302.464 0 .974-.173 1.301-.494l.383.512c-.437.408-1.056.625-1.766.625-1.31 0-2.276-.886-2.276-2.205zm2.203-1.555c-.883 0-1.302.678-1.347 1.25h2.685c-.018-.555-.41-1.25-1.338-1.25zm6.092 3.656v-2.683c0-.695-.373-.92-.938-.92-.51 0-.974.295-1.21.607v2.996h-.82v-4.194h.82v.59a2.136 2.136 0 011.556-.694c.929 0 1.411.469 1.411 1.354v2.944h-.82zm6.331.104c-1.365 0-2.22-.99-2.22-2.205 0-1.207.855-2.197 2.22-2.197 1.374 0 2.22.99 2.22 2.197 0 1.215-.846 2.205-2.22 2.205zm0-.695c.883 0 1.365-.712 1.365-1.51 0-.79-.482-1.503-1.365-1.503-.874 0-1.365.712-1.365 1.503 0 .798.491 1.51 1.365 1.51zm6.183.59v-2.682c0-.695-.373-.92-.938-.92-.51 0-.974.295-1.21.607v2.996h-.82v-4.194h.82v.59a2.136 2.136 0 011.556-.694c.929 0 1.411.469 1.411 1.354v2.944h-.82z" fill="#FFF" fill-rule="nonzero"/><path d="M29.894 18.082c-4.03-2.393-10.675-2.613-14.522-1.446a1.169 1.169 0 11-.679-2.237c4.416-1.34 11.756-1.082 16.395 1.672a1.17 1.17 0 01-1.194 2.01zm-.132 3.544a.975.975 0 01-1.34.32c-3.36-2.064-8.482-2.662-12.456-1.456a.976.976 0 01-1.216-.65.976.976 0 01.65-1.215c4.54-1.377 10.183-.71 14.042 1.66a.975.975 0 01.32 1.34zm-1.53 3.403a.778.778 0 01-1.07.26c-2.936-1.794-6.63-2.2-10.982-1.206a.779.779 0 11-.347-1.518c4.762-1.089 8.846-.62 12.141 1.393a.78.78 0 01.259 1.071zM22.5 7C15.597 7 10 12.596 10 19.5S15.597 32 22.5 32C29.404 32 35 26.404 35 19.5S29.404 7 22.5 7z" fill="#1ED760"/><path d="M47.188 31.2c2.79 0 4.565-1.42 4.565-3.678 0-1.743-1.029-2.748-3.536-3.279l-1.311-.274c-1.552-.332-2.167-.913-2.167-1.784 0-1.096 1.03-1.777 2.432-1.777 1.453 0 2.44.739 2.557 1.943h1.801c-.058-2.092-1.793-3.528-4.333-3.528-2.548 0-4.35 1.41-4.35 3.461 0 1.727 1.088 2.839 3.487 3.345l1.303.274c1.602.349 2.233.93 2.233 1.86 0 1.07-1.087 1.85-2.606 1.85-1.594 0-2.723-.713-2.889-1.9h-1.81c.117 2.133 1.918 3.486 4.624 3.486zm7.811 2.689v-4.325h.042c.498.971 1.494 1.585 2.747 1.585 2.191 0 3.644-1.751 3.644-4.515s-1.46-4.508-3.677-4.508c-1.262 0-2.266.64-2.78 1.644h-.034v-1.502h-1.735v11.62H55zm2.283-4.259c-1.378 0-2.291-1.178-2.291-2.996 0-1.801.921-2.997 2.29-2.997 1.42 0 2.308 1.17 2.308 2.997 0 1.834-.888 2.996-2.307 2.996zm9.28 1.536c2.499 0 4.142-1.718 4.142-4.532 0-2.806-1.652-4.524-4.142-4.524s-4.142 1.718-4.142 4.524c0 2.814 1.643 4.532 4.142 4.532zm0-1.478c-1.403 0-2.316-1.112-2.316-3.054 0-1.934.913-3.047 2.316-3.047 1.403 0 2.316 1.113 2.316 3.047 0 1.942-.905 3.054-2.316 3.054zm8.508 1.37c.399 0 .797-.033.996-.083v-1.42a3.923 3.923 0 01-.589.042c-.73 0-1.062-.34-1.062-1.096v-4.814h1.66v-1.42h-1.66v-2.066h-1.802v2.067h-1.27v1.419h1.27v5.014c0 1.685.69 2.357 2.457 2.357zM78.5 20.856a1.03 1.03 0 100-2.058 1.03 1.03 0 00-1.038 1.03c0 .564.465 1.028 1.038 1.028zM79.395 31v-8.732h-1.793V31h1.793zm4.159 0v-7.313h1.743v-1.403h-1.768v-.822c0-.772.365-1.162 1.145-1.162.241 0 .482.017.656.05v-1.328a6.424 6.424 0 00-1.004-.083c-1.777 0-2.574.797-2.574 2.49v.855H80.55v1.403h1.203V31h1.802zm4.026 3.254c1.81 0 2.672-.68 3.42-2.797l3.27-9.19h-1.893l-2.208 7.106h-.033l-2.208-7.105h-1.942l3.154 8.74c0 .009-.158.523-.158.54-.274.896-.722 1.245-1.552 1.245-.15 0-.448 0-.58-.033v1.452c.132.025.58.042.73.042z" fill="#FFF" fill-rule="nonzero"/></g></svg>