<?xml version="1.0" encoding="UTF-8"?>
<svg width="160px" height="40px" viewBox="0 0 160 40" version="1.1" xmlns="http://www.w3.org/2000/svg" xmlns:xlink="http://www.w3.org/1999/xlink">
    <title>Stitcher</title>
    <g id="Page-1" stroke="none" stroke-width="1" fill="none" fill-rule="evenodd">
        <g id="Listen-On" transform="translate(-689.000000, -485.000000)">
            <g id="Stitcher" transform="translate(689.000000, 485.000000)">
                <rect id="Rectangle" fill="#000000" x="0" y="0" width="160" height="40" rx="7"></rect>
                <path d="M43,14.8958032 L43,9.10419682 L43.9101895,9.10419682 L43.9101895,14.1316932 L46.6680638,14.1316932 L46.6680638,14.8958032 L43,14.8958032 Z M48.0087195,9.99855282 C47.7265607,9.99855282 47.4808095,9.78147612 47.4808095,9.50361795 C47.4808095,9.22575977 47.7265607,9 48.0087195,9 C48.2999801,9 48.5366294,9.22575977 48.5366294,9.50361795 C48.5366294,9.78147612 48.2999801,9.99855282 48.0087195,9.99855282 Z M47.6082361,14.8958032 L47.6082361,10.7018813 L48.4274066,10.7018813 L48.4274066,14.8958032 L47.6082361,14.8958032 Z M49.3038656,14.3487699 L49.6952471,13.7756874 C49.9956097,14.0882779 50.578131,14.3748191 51.1697542,14.3748191 C51.7886831,14.3748191 52.1163513,14.1316932 52.1163513,13.7756874 C52.1163513,13.3589001 51.615747,13.2199711 51.0514295,13.0984081 C50.3050741,12.9334298 49.4312922,12.7424023 49.4312922,11.8393632 C49.4312922,11.170767 50.0320173,10.5976845 51.1060409,10.5976845 C51.8614982,10.5976845 52.4076119,10.8581766 52.7807896,11.1968162 L52.4167138,11.7438495 C52.1618608,11.4486252 51.6703584,11.2315485 51.1151428,11.2315485 C50.5599272,11.2315485 50.2140552,11.4399421 50.2140552,11.7785818 C50.2140552,12.1432706 50.6873537,12.2648336 51.2334674,12.3863965 C51.9980266,12.5513748 52.9082162,12.7510854 52.9082162,13.7149059 C52.9082162,14.4356006 52.2892873,15 51.1333466,15 C50.3960931,15 49.7498585,14.7829233 49.3038656,14.3487699 Z M55.1135519,15 C54.4218078,15 54.0668339,14.6266281 54.0668339,13.9667149 L54.0668339,11.3878437 L53.3386823,11.3878437 L53.3386823,10.7018813 L54.0668339,10.7018813 L54.0668339,9.55571635 L54.8860045,9.55571635 L54.8860045,10.7018813 L55.7779902,10.7018813 L55.7779902,11.3878437 L54.8860045,11.3878437 L54.8860045,13.7930535 C54.8860045,14.0882779 55.0316348,14.3053546 55.3137936,14.3053546 C55.5049334,14.3053546 55.6778694,14.2272069 55.7597864,14.1403763 L55.96913,14.7308249 C55.796194,14.8871201 55.541341,15 55.1135519,15 Z M56.3722905,12.7945007 C56.3722905,11.5788712 57.2915819,10.5976845 58.5749491,10.5976845 C59.894724,10.5976845 60.7138945,11.5788712 60.7138945,12.8639653 L60.7138945,13.0549928 L57.2369705,13.0549928 C57.3006838,13.7670043 57.8467975,14.357453 58.7296814,14.357453 C59.193878,14.357453 59.7035842,14.1837916 60.0312524,13.8625181 L60.413532,14.3748191 C59.976641,14.7829233 59.3577121,15 58.6477643,15 C57.3370914,15 56.3722905,14.1143271 56.3722905,12.7945007 Z M58.5749491,11.2402315 C57.6920653,11.2402315 57.2733781,11.9175109 57.2278686,12.4905933 L59.9129278,12.4905933 C59.894724,11.934877 59.5033425,11.2402315 58.5749491,11.2402315 Z M64.6667941,14.8958032 L64.6667941,12.2127352 C64.6667941,11.5180897 64.2936164,11.29233 63.7292989,11.29233 C63.2195928,11.29233 62.7553961,11.5875543 62.5187468,11.9001447 L62.5187468,14.8958032 L61.6995763,14.8958032 L61.6995763,10.7018813 L62.5187468,10.7018813 L62.5187468,11.29233 C62.8100075,10.9536903 63.3925288,10.5976845 64.0751709,10.5976845 C65.0035643,10.5976845 65.4859647,11.0665702 65.4859647,11.9522431 L65.4859647,14.8958032 L64.6667941,14.8958032 Z M70.9979655,15 C69.6326812,15 68.777103,14.0101302 68.777103,12.7945007 C68.777103,11.5875543 69.6326812,10.5976845 70.9979655,10.5976845 C72.3723517,10.5976845 73.2188279,11.5875543 73.2188279,12.7945007 C73.2188279,14.0101302 72.3723517,15 70.9979655,15 Z M70.9979655,14.3053546 C71.8808493,14.3053546 72.3632498,13.593343 72.3632498,12.7945007 C72.3632498,12.0043415 71.8808493,11.29233 70.9979655,11.29233 C70.1241835,11.29233 69.6326812,12.0043415 69.6326812,12.7945007 C69.6326812,13.593343 70.1241835,14.3053546 70.9979655,14.3053546 Z M77.1808294,14.8958032 L77.1808294,12.2127352 C77.1808294,11.5180897 76.8076517,11.29233 76.2433342,11.29233 C75.7336281,11.29233 75.2694314,11.5875543 75.0327821,11.9001447 L75.0327821,14.8958032 L74.2136115,14.8958032 L74.2136115,10.7018813 L75.0327821,10.7018813 L75.0327821,11.29233 C75.3240428,10.9536903 75.9065641,10.5976845 76.5892062,10.5976845 C77.5175995,10.5976845 78,11.0665702 78,11.9522431 L78,14.8958032 L77.1808294,14.8958032 Z" id="Listenon-Copy-4" fill="#FFFFFF" fill-rule="nonzero"></path>
                <rect id="Rectangle" fill="#3392C5" x="10" y="15" width="5" height="15"></rect>
                <rect id="Rectangle" fill="#622268" x="15" y="13" width="5" height="15"></rect>
                <rect id="Rectangle" fill="#FBC818" x="20" y="15" width="5" height="15"></rect>
                <rect id="Rectangle" fill="#EC8A22" x="25" y="12" width="5" height="15"></rect>
                <rect id="Rectangle" fill="#C53726" x="30" y="14" width="5" height="15"></rect>
                <path d="M47.1879883,31.1992188 C49.9770508,31.1992188 51.753418,29.7797852 51.753418,27.5219727 C51.753418,25.7788086 50.7241211,24.7744141 48.2172852,24.2431641 L46.9057617,23.9692383 C45.3535156,23.637207 44.7392578,23.0561523 44.7392578,22.1845703 C44.7392578,21.0888672 45.7685547,20.4082031 47.1713867,20.4082031 C48.6240234,20.4082031 49.6118164,21.1469727 49.7280273,22.3505859 L51.5292969,22.3505859 C51.4711914,20.2587891 49.7363281,18.8227539 47.1962891,18.8227539 C44.6479492,18.8227539 42.8466797,20.2338867 42.8466797,22.2841797 C42.8466797,24.0107422 43.934082,25.1230469 46.3330078,25.6293945 L47.6362305,25.9033203 C49.2382812,26.2519531 49.8691406,26.8330078 49.8691406,27.7626953 C49.8691406,28.8334961 48.7817383,29.6137695 47.2626953,29.6137695 C45.6689453,29.6137695 44.5400391,28.8999023 44.3740234,27.7128906 L42.5644531,27.7128906 C42.6806641,29.8461914 44.4819336,31.1992188 47.1879883,31.1992188 Z M56.1860352,31.0581055 C56.5844727,31.0581055 56.9829102,31.0249023 57.1821289,30.9750977 L57.1821289,29.5556641 C57.065918,29.5805664 56.7753906,29.597168 56.5927734,29.597168 C55.8623047,29.597168 55.5302734,29.2568359 55.5302734,28.5014648 L55.5302734,23.6870117 L57.1904297,23.6870117 L57.1904297,22.2675781 L55.5302734,22.2675781 L55.5302734,20.2006836 L53.7290039,20.2006836 L53.7290039,22.2675781 L52.4589844,22.2675781 L52.4589844,23.6870117 L53.7290039,23.6870117 L53.7290039,28.7006836 C53.7290039,30.3857422 54.4179688,31.0581055 56.1860352,31.0581055 Z M59.6142578,20.8564453 C60.1870117,20.8564453 60.6435547,20.3916016 60.6435547,19.8271484 C60.6435547,19.2543945 60.1870117,18.7978516 59.6142578,18.7978516 C59.0415039,18.7978516 58.5766602,19.2543945 58.5766602,19.8271484 C58.5766602,20.3916016 59.0415039,20.8564453 59.6142578,20.8564453 Z M60.5107422,31 L60.5107422,22.2675781 L58.7177734,22.2675781 L58.7177734,31 L60.5107422,31 Z M65.3251953,31.0581055 C65.7236328,31.0581055 66.1220703,31.0249023 66.3212891,30.9750977 L66.3212891,29.5556641 C66.2050781,29.5805664 65.9145508,29.597168 65.7319336,29.597168 C65.0014648,29.597168 64.6694336,29.2568359 64.6694336,28.5014648 L64.6694336,23.6870117 L66.3295898,23.6870117 L66.3295898,22.2675781 L64.6694336,22.2675781 L64.6694336,20.2006836 L62.8681641,20.2006836 L62.8681641,22.2675781 L61.5981445,22.2675781 L61.5981445,23.6870117 L62.8681641,23.6870117 L62.8681641,28.7006836 C62.8681641,30.3857422 63.5571289,31.0581055 65.3251953,31.0581055 Z M71.5341797,31.1660156 C73.6342773,31.1660156 75.1201172,29.9042969 75.3110352,28.0449219 L73.5844727,28.0449219 C73.3769531,29.0576172 72.6547852,29.6635742 71.5507812,29.6635742 C70.15625,29.6635742 69.2348633,28.5512695 69.2348633,26.6337891 C69.2348633,24.7578125 70.1479492,23.6040039 71.5341797,23.6040039 C72.7045898,23.6040039 73.4018555,24.3427734 73.5844727,25.2724609 L75.2944336,25.2724609 C75.1367188,23.5541992 73.7670898,22.1098633 71.5175781,22.1098633 C69.0356445,22.1098633 67.4086914,23.8613281 67.4086914,26.6337891 C67.4086914,29.4560547 69.0356445,31.1660156 71.5341797,31.1660156 Z M78.4404297,31 L78.4404297,25.953125 C78.4404297,24.5751953 79.2539062,23.6621094 80.5820312,23.6621094 C81.84375,23.6621094 82.4912109,24.434082 82.4912109,25.7207031 L82.4912109,31 L84.2924805,31 L84.2924805,25.3720703 C84.2924805,23.3964844 83.1469727,22.1181641 81.2294922,22.1181641 C79.9013672,22.1181641 78.9467773,22.7075195 78.465332,23.7285156 L78.4238281,23.7285156 L78.4238281,19.0219727 L76.6474609,19.0219727 L76.6474609,31 L78.4404297,31 Z M89.7460938,31.1660156 C91.746582,31.1660156 93.2573242,30.0288086 93.5063477,28.4350586 L91.8046875,28.4350586 C91.5639648,29.1987305 90.8085938,29.7133789 89.7875977,29.7133789 C88.3515625,29.7133789 87.4384766,28.7089844 87.4384766,27.1899414 L87.4384766,27.0820312 L93.605957,27.0820312 L93.605957,26.4677734 C93.605957,23.8198242 92.0952148,22.1098633 89.6713867,22.1098633 C87.2060547,22.1098633 85.6289062,23.9360352 85.6289062,26.675293 C85.6289062,29.4311523 87.1811523,31.1660156 89.7460938,31.1660156 Z M91.8129883,25.8286133 L87.4467773,25.8286133 C87.5380859,24.5087891 88.4179688,23.5541992 89.6713867,23.5541992 C90.9248047,23.5541992 91.7714844,24.4921875 91.8129883,25.8286133 Z M96.7851562,31 L96.7851562,25.7705078 C96.7851562,24.5336914 97.4990234,23.7617188 98.652832,23.7617188 C99.0014648,23.7617188 99.3168945,23.8032227 99.4580078,23.8613281 L99.4580078,22.1928711 C99.3251953,22.1679688 99.1010742,22.1264648 98.84375,22.1264648 C97.8144531,22.1264648 97.0341797,22.7324219 96.7436523,23.753418 L96.7021484,23.753418 L96.7021484,22.2675781 L94.9921875,22.2675781 L94.9921875,31 L96.7851562,31 Z" fill="#FFFFFF" fill-rule="nonzero"></path>
            </g>
        </g>
    </g>
</svg>