<svg height="1200pt" preserveAspectRatio="xMidYMid meet" viewBox="0 0 1200 1200" width="1200pt" xmlns="http://www.w3.org/2000/svg"><g transform="matrix(.1 0 0 -.1 0 1200)"><path d="m2880 9204c-211-55-360-207-422-431-22-77-22-91-28-1018l-5-940-26-71c-83-226-265-358-545-395-49-6-95-16-101-21-10-8-13-85-13-324 0-312 0-313 22-328 12-9 40-16 61-16 75 0 193-31 285-76 149-72 245-183 298-344 17-51 19-122 24-995 6-927 6-941 28-1018 63-226 213-378 427-432 78-20 823-23 843-3 9 9 12 85 12 279 0 236-2 268-17 280-12 11-79 15-292 19l-276 5-6 905c-4 639-9 920-17 955-51 214-140 374-289 516-95 90-194 152-306 189-122 41-130 79-26 111 132 40 230 100 338 203 143 139 233 301 283 511 8 35 13 316 17 955l6 905 276 5c213 4 280 8 292 19 15 12 17 44 17 280 0 194-3 270-12 279-19 19-774 16-848-4z"/><path d="m6892 9208c-9-9-12-85-12-279 0-265 0-268 22-283 19-14 64-16 295-16 206 0 274-3 280-12 4-7 10-425 13-928 6-1050 0-975 105-1185 114-227 299-388 525-455 105-31 105-69 0-100-226-67-411-228-525-455-105-210-99-135-105-1185-3-503-9-921-13-927-6-10-74-13-280-13-231 0-276-2-295-16-22-15-22-18-22-283 0-194 3-270 12-279 20-20 765-17 843 3 214 54 376 213 441 431 16 54 18 139 24 1004 6 1052 1 977 76 1120 87 168 290 290 506 307 43 3 86 12 96 19 15 11 17 41 20 314 2 253 0 306-12 325s-30 24-107 34c-242 31-424 144-510 316-66 134-62 76-69 1110-6 860-8 945-24 999-65 218-227 377-441 431-78 20-823 23-843 3z"/><path d="m8862 8338c-18-18-17-464 1-475 6-4 181-10 387-13l375-5 3-1869c2-1489 0-1871-10-1878-7-4-177-8-379-8-270 0-368-3-377-12s-12-76-12-240c0-214 1-228 19-238 13-6 247-10 690-10 595 0 671 2 685 16s16 242 16 2364-2 2350-16 2364-90 16-693 16c-513 0-680-3-689-12z"/><path d="m5547 7248c-9-8-165-481-397-1208-209-657-383-1204-386-1216-4-15 1-29 15-43 19-19 33-21 134-21 75 0 119 4 129 13 10 7 167 484 398 1207 209 657 383 1205 386 1217 4 14-2 29-15 42-19 19-33 21-134 21-75 0-119-4-130-12z"/><path d="m4439 6705c-90-57-328-209-529-338l-365-234-3-126-3-125 531-336c292-185 539-336 550-336 40 0 50 36 50 180 0 74-4 140-8 147s-173 112-375 235c-201 123-368 227-369 233-2 5 165 113 370 239l372 229v153c0 147-1 154-22 168-12 9-25 16-29 16-3 0-80-47-170-105z"/><path d="m5986 6788c-24-35-23-277 2-307 9-12 178-119 375-239 197-119 359-221 360-227 1-5-160-109-358-231s-366-227-372-233c-9-8-13-54-13-161 0-122 3-151 16-164 8-9 22-16 31-16 8 0 253 153 543 341 370 239 530 347 534 362 11 40 6 191-7 215-15 27-1048 682-1076 682-11 0-27-10-35-22z"/></g></svg>