<svg viewBox="0 0 1104.129 226.88" xmlns="http://www.w3.org/2000/svg"><path d="m369.553 48.923 20.18 63.433h.774l20.221-63.433h19.572l-28.781 83.491h-22.753l-28.822-83.491z" fill="#d9386e"/><path d="m448.763 61.724a9.437 9.437 0 0 1 -6.645-2.569 8.335 8.335 0 0 1 0-12.414 9.824 9.824 0 0 1 13.27-.02 8.378 8.378 0 0 1 0 12.414 9.325 9.325 0 0 1 -6.625 2.589zm-8.763 70.69v-62.614h17.367v62.618z" fill="#d9386e"/><path d="m471.225 132.414v-62.614h16.837v10.921h.651a16.273 16.273 0 0 1 5.749-8.826 15.175 15.175 0 0 1 9.3-3 26.208 26.208 0 0 1 2.812.164 19.962 19.962 0 0 1 2.651.448v15.413a22.8 22.8 0 0 0 -3.384-.652 30.462 30.462 0 0 0 -3.955-.286 13.906 13.906 0 0 0 -6.828 1.652 12.268 12.268 0 0 0 -4.73 4.586 13.062 13.062 0 0 0 -1.732 6.767v35.427z" fill="#d9386e"/><path d="m554.591 69.8v13.041h-37.709v-13.041zm-29.148-15h17.367v58.379a7.776 7.776 0 0 0 .734 3.73 4 4 0 0 0 2.059 1.855 8.247 8.247 0 0 0 3.078.53 13.392 13.392 0 0 0 2.445-.225c.816-.148 1.439-.264 1.875-.346l2.732 12.924q-1.306.407-3.67.958a30.691 30.691 0 0 1 -5.748.672 26.239 26.239 0 0 1 -10.986-1.671 15.345 15.345 0 0 1 -7.317-5.953 18.183 18.183 0 0 1 -2.569-10.191z" fill="#d9386e"/><path d="m606.039 105.752v-35.952h17.367v62.618h-16.674v-11.378h-.652a18.535 18.535 0 0 1 -7.032 8.847 20.772 20.772 0 0 1 -11.965 3.342 21.109 21.109 0 0 1 -11.049-2.853 19.473 19.473 0 0 1 -7.439-8.113 27.859 27.859 0 0 1 -2.711-12.6v-39.863h17.366v36.771q.041 5.546 2.977 8.766a10.128 10.128 0 0 0 7.868 3.22 12.336 12.336 0 0 0 5.87-1.448 11.191 11.191 0 0 0 4.424-4.3 13.366 13.366 0 0 0 1.65-7.057z" fill="#d9386e"/><path d="m655.122 133.6a25.887 25.887 0 0 1 -10.681-2.1 16.875 16.875 0 0 1 -7.4-6.237 18.474 18.474 0 0 1 -2.711-10.335 18.258 18.258 0 0 1 1.916-8.765 15.518 15.518 0 0 1 5.219-5.708 25.311 25.311 0 0 1 7.521-3.261 56.627 56.627 0 0 1 8.867-1.549q5.461-.57 8.8-1.08a12.3 12.3 0 0 0 4.852-1.529 3.4 3.4 0 0 0 1.509-3.017v-.245a7.54 7.54 0 0 0 -2.426-5.993q-2.426-2.118-6.869-2.119a12.242 12.242 0 0 0 -7.461 2.059 9.654 9.654 0 0 0 -3.669 5.157l-16.057-1.308a21.977 21.977 0 0 1 4.811-9.886 23.331 23.331 0 0 1 9.275-6.442 35.517 35.517 0 0 1 13.188-2.262 40.326 40.326 0 0 1 10.008 1.22 26.408 26.408 0 0 1 8.521 3.791 18.569 18.569 0 0 1 5.891 6.584 20 20 0 0 1 2.161 9.6v42.235h-16.471v-8.68h-.489a17.434 17.434 0 0 1 -4.036 5.158 18.2 18.2 0 0 1 -6.075 3.465 24.724 24.724 0 0 1 -8.194 1.247zm4.978-11.99a14.432 14.432 0 0 0 6.767-1.528 11.841 11.841 0 0 0 4.607-4.138 10.724 10.724 0 0 0 1.672-5.911v-6.645a8.9 8.9 0 0 1 -2.222.958q-1.407.427-3.159.774t-3.507.611q-1.752.267-3.18.469a21.54 21.54 0 0 0 -5.34 1.428 8.6 8.6 0 0 0 -3.546 2.629 6.539 6.539 0 0 0 -1.264 4.1 6.227 6.227 0 0 0 2.588 5.4 11.024 11.024 0 0 0 6.584 1.853z" fill="#d9386e"/><path d="m721.245 48.923v83.491h-17.366v-83.491z" fill="#d9386e"/><path d="m809.1 78.152h-17.858a17.672 17.672 0 0 0 -2-6.175 15.747 15.747 0 0 0 -3.873-4.627 17.089 17.089 0 0 0 -5.442-2.936 21.1 21.1 0 0 0 -6.665-1.019 19.914 19.914 0 0 0 -11.293 3.2 20.718 20.718 0 0 0 -7.46 9.3 36.945 36.945 0 0 0 -2.651 14.777 37.288 37.288 0 0 0 2.671 15 19.311 19.311 0 0 0 18.611 12.27 22.2 22.2 0 0 0 6.584-.937 17.055 17.055 0 0 0 5.4-2.752 15.749 15.749 0 0 0 3.934-4.423 17.608 17.608 0 0 0 2.181-5.952l17.856.081a32.359 32.359 0 0 1 -3.445 11.068 33.442 33.442 0 0 1 -7.379 9.5 34.492 34.492 0 0 1 -11.007 6.6 40.341 40.341 0 0 1 -14.412 2.426 39.276 39.276 0 0 1 -19.952-5.053 35.7 35.7 0 0 1 -13.861-14.635q-5.076-9.579-5.075-23.2 0-13.657 5.137-23.237a35.946 35.946 0 0 1 13.942-14.616 39.211 39.211 0 0 1 19.812-5.034 43.034 43.034 0 0 1 13.474 2.038 34.409 34.409 0 0 1 11.028 5.932 31.142 31.142 0 0 1 7.848 9.519 35.677 35.677 0 0 1 3.895 12.885z" fill="#d9386e"/><path d="m849.741 133.637a31.837 31.837 0 0 1 -16.408-4.056 27.407 27.407 0 0 1 -10.661-11.334 36.375 36.375 0 0 1 -3.75-16.9 36.569 36.569 0 0 1 3.75-16.98 27.419 27.419 0 0 1 10.661-11.334 35.218 35.218 0 0 1 32.817 0 27.428 27.428 0 0 1 10.662 11.337 36.581 36.581 0 0 1 3.75 16.98 36.387 36.387 0 0 1 -3.75 16.9 27.416 27.416 0 0 1 -10.662 11.334 31.841 31.841 0 0 1 -16.409 4.053zm.082-13.453a10.744 10.744 0 0 0 7.216-2.466 15.174 15.174 0 0 0 4.382-6.747 32.648 32.648 0 0 0 0-19.488 15.316 15.316 0 0 0 -4.382-6.767 10.692 10.692 0 0 0 -7.216-2.487 10.985 10.985 0 0 0 -7.318 2.487 15.068 15.068 0 0 0 -4.443 6.767 32.627 32.627 0 0 0 0 19.488 14.93 14.93 0 0 0 4.443 6.747 11.039 11.039 0 0 0 7.318 2.466z" fill="#d9386e"/><path d="m925.568 69.8v13.041h-38.647v-13.041zm-29.8 62.618v-67.148a21.765 21.765 0 0 1 2.67-11.292 16.894 16.894 0 0 1 7.317-6.727 24.012 24.012 0 0 1 10.558-2.242 40.6 40.6 0 0 1 7.319.611 50.7 50.7 0 0 1 4.953 1.1l-3.1 13.046a22.111 22.111 0 0 0 -2.507-.612 16.106 16.106 0 0 0 -3.037-.285q-3.831 0-5.34 1.774a7.41 7.41 0 0 0 -1.508 4.953v66.817z" fill="#d9386e"/><path d="m969.842 69.8v13.041h-38.648v-13.041zm-29.8 62.618v-67.148a21.774 21.774 0 0 1 2.67-11.292 16.9 16.9 0 0 1 7.317-6.727 24.014 24.014 0 0 1 10.559-2.242 40.6 40.6 0 0 1 7.318.611 50.7 50.7 0 0 1 4.953 1.1l-3.1 13.046a22.219 22.219 0 0 0 -2.507-.612 16.114 16.114 0 0 0 -3.037-.285q-3.833 0-5.341 1.774a7.41 7.41 0 0 0 -1.508 4.953v66.817z" fill="#d9386e"/><path d="m1006.777 133.637a33.2 33.2 0 0 1 -16.613-3.934 26.609 26.609 0 0 1 -10.7-11.17 36.79 36.79 0 0 1 -3.75-17.143 36.6 36.6 0 0 1 3.75-16.959 27.669 27.669 0 0 1 10.579-11.374 30.709 30.709 0 0 1 16.042-4.077 33.175 33.175 0 0 1 11.558 1.977 26.071 26.071 0 0 1 9.377 5.932 27.054 27.054 0 0 1 6.257 9.926 39.656 39.656 0 0 1 2.243 13.963v4.771h-52.877v-10.763h36.528a13.315 13.315 0 0 0 -1.631-6.645 11.873 11.873 0 0 0 -4.5-4.546 13.142 13.142 0 0 0 -6.666-1.651 13.37 13.37 0 0 0 -6.991 1.814 13.014 13.014 0 0 0 -4.749 4.851 13.806 13.806 0 0 0 -1.753 6.747v10.233a17.406 17.406 0 0 0 1.732 8.031 12.4 12.4 0 0 0 4.913 5.219 14.834 14.834 0 0 0 7.541 1.834 16.409 16.409 0 0 0 5.3-.816 10.982 10.982 0 0 0 4.117-2.445 10.629 10.629 0 0 0 2.61-4l16.062 1.061a21.889 21.889 0 0 1 -4.994 10.089 25.084 25.084 0 0 1 -9.7 6.686 36.47 36.47 0 0 1 -13.685 2.389z" fill="#d9386e"/><path d="m1075.389 133.637a33.2 33.2 0 0 1 -16.614-3.934 26.615 26.615 0 0 1 -10.7-11.17 36.79 36.79 0 0 1 -3.75-17.143 36.6 36.6 0 0 1 3.75-16.959 27.676 27.676 0 0 1 10.579-11.374 30.712 30.712 0 0 1 16.046-4.077 33.171 33.171 0 0 1 11.558 1.977 26.071 26.071 0 0 1 9.377 5.932 27.043 27.043 0 0 1 6.258 9.926 39.679 39.679 0 0 1 2.242 13.963v4.771h-52.876v-10.763h36.528a13.315 13.315 0 0 0 -1.631-6.645 11.873 11.873 0 0 0 -4.505-4.546 13.139 13.139 0 0 0 -6.666-1.651 13.375 13.375 0 0 0 -6.991 1.814 13.014 13.014 0 0 0 -4.749 4.851 13.828 13.828 0 0 0 -1.753 6.747v10.233a17.393 17.393 0 0 0 1.733 8.031 12.4 12.4 0 0 0 4.912 5.219 14.837 14.837 0 0 0 7.542 1.834 16.414 16.414 0 0 0 5.3-.816 11 11 0 0 0 4.117-2.445 10.627 10.627 0 0 0 2.609-4l16.063 1.061a21.908 21.908 0 0 1 -4.994 10.089 25.088 25.088 0 0 1 -9.7 6.686 36.465 36.465 0 0 1 -13.685 2.389z" fill="#d9386e"/><path d="m47.911 226.88c-13.391 0-21.981-9.095-21.981-22.738v-56.594c0-14.118-9.615-21.9-22.973-22.455a1.577 1.577 0 0 1 -1.535-1.564v-20.429a1.577 1.577 0 0 1 1.535-1.564c13.358-.55 22.973-8.326 22.973-22.2v-56.598c0-13.638 8.59-22.738 21.981-22.738h22.18a1.569 1.569 0 0 1 1.569 1.569v17.331a1.57 1.57 0 0 1 -1.569 1.569h-17.833a1.569 1.569 0 0 0 -1.569 1.568v57.8c0 15.454-10.24 28.764-23.786 32.069a1.577 1.577 0 0 0 -1.226 1.524v.018a1.576 1.576 0 0 0 1.226 1.524c13.546 3.305 23.786 16.616 23.786 32.07v57.8a1.569 1.569 0 0 0 1.569 1.569h17.833a1.569 1.569 0 0 1 1.569 1.569v17.326a1.57 1.57 0 0 1 -1.569 1.569z" fill="#2a2a2a"/><path d="m206.184 0c13.391 0 22.485 9.1 22.485 22.738v56.594c0 13.876 9.617 21.652 22.974 22.2a1.577 1.577 0 0 1 1.534 1.564v20.431a1.577 1.577 0 0 1 -1.534 1.564c-13.357.55-22.974 8.337-22.974 22.455v56.594c0 13.643-9.094 22.738-22.485 22.738h-22.184a1.569 1.569 0 0 1 -1.569-1.569v-17.324a1.568 1.568 0 0 1 1.569-1.569h18.337a1.568 1.568 0 0 0 1.569-1.569v-57.8c0-15.465 9.78-28.784 23.775-32.077a1.577 1.577 0 0 0 1.238-1.526 1.578 1.578 0 0 0 -1.237-1.526c-14-3.293-23.776-16.611-23.776-32.076v-57.8a1.568 1.568 0 0 0 -1.569-1.568h-18.337a1.569 1.569 0 0 1 -1.569-1.569v-17.336a1.568 1.568 0 0 1 1.569-1.569z" fill="#2a2a2a"/><path d="m301.316 32.442v164.058a1.568 1.568 0 0 1 -1.569 1.568h-46.412a1.568 1.568 0 0 1 -1.569-1.568v-13.989a1.568 1.568 0 0 1 1.569-1.569h24.629a1.57 1.57 0 0 0 1.569-1.569v-129.801a1.57 1.57 0 0 0 -1.569-1.572h-24.629a1.568 1.568 0 0 1 -1.569-1.569v-13.989a1.568 1.568 0 0 1 1.569-1.568h46.412a1.568 1.568 0 0 1 1.569 1.568z" fill="#2a2a2a"/><path d="m64.733 116.494-.018-6.494a1.7 1.7 0 0 1 .78-1.431l36.04-23.088a1.694 1.694 0 0 1 2.607 1.422l.024 8.733a1.692 1.692 0 0 1 -.807 1.447l-25.669 15.787v.688l25.756 15.642a1.7 1.7 0 0 1 .815 1.443l.023 8.733a1.694 1.694 0 0 1 -2.6 1.436l-36.163-22.891a1.694 1.694 0 0 1 -.788-1.427z" fill="#d9386e"/><path d="m108.007 154.681 26.874-84.21a1.692 1.692 0 0 1 1.609-1.179l6.951-.019a1.694 1.694 0 0 1 1.618 2.209l-26.873 84.21a1.694 1.694 0 0 1 -1.61 1.179l-6.95.019a1.694 1.694 0 0 1 -1.619-2.209z" fill="#d9386e"/><path d="m150.692 130.518a1.692 1.692 0 0 1 .807-1.447l25.669-15.782v-.688l-25.756-15.644a1.693 1.693 0 0 1 -.815-1.443l-.023-8.732a1.694 1.694 0 0 1 2.6-1.436l36.162 22.892a1.692 1.692 0 0 1 .788 1.427l.018 6.4a1.7 1.7 0 0 1 -.776 1.427l-36.037 23.268a1.694 1.694 0 0 1 -2.613-1.419z" fill="#d9386e"/><g fill="#787878"><path d="m352.907 181.59h-2.113l8.028-22.068h2.156l8.027 22.068h-2.111l-6.918-19.45h-.151zm1.519-8.459h10.948v1.811h-10.948z"/><path d="m374.307 171.246v10.344h-1.918v-16.551h1.864v2.6h.173a4.647 4.647 0 0 1 1.816-2.042 5.665 5.665 0 0 1 3.054-.771 6 6 0 0 1 2.937.7 4.815 4.815 0 0 1 1.972 2.042 7.064 7.064 0 0 1 .706 3.308v10.714h-1.919v-10.6a4.461 4.461 0 0 0 -1.137-3.222 4.019 4.019 0 0 0 -3.043-1.185 4.71 4.71 0 0 0 -2.317.56 4.059 4.059 0 0 0 -1.6 1.611 5.031 5.031 0 0 0 -.588 2.492z"/><path d="m399.522 162.194a1.425 1.425 0 0 1 -1.019-.4 1.331 1.331 0 0 1 0-1.95 1.472 1.472 0 0 1 2.026 0 1.329 1.329 0 0 1 0 1.95 1.409 1.409 0 0 1 -1.007.4zm-.992 19.4v-16.555h1.929v16.551z"/><path d="m407.463 171.246v10.344h-1.918v-16.551h1.865v2.6h.172a4.653 4.653 0 0 1 1.816-2.042 5.666 5.666 0 0 1 3.055-.771 6 6 0 0 1 2.936.7 4.815 4.815 0 0 1 1.972 2.042 7.051 7.051 0 0 1 .706 3.308v10.714h-1.919v-10.6a4.461 4.461 0 0 0 -1.136-3.222 4.023 4.023 0 0 0 -3.044-1.185 4.713 4.713 0 0 0 -2.317.56 4.065 4.065 0 0 0 -1.6 1.611 5.031 5.031 0 0 0 -.588 2.492z"/><path d="m429.651 165.039v1.67h-7.9v-1.67zm-5.431-3.965h1.928v16.2a3.128 3.128 0 0 0 .356 1.621 1.979 1.979 0 0 0 .927.83 3.092 3.092 0 0 0 1.217.242 3.75 3.75 0 0 0 .647-.048c.18-.033.338-.067.474-.1l.41 1.735a4.958 4.958 0 0 1 -.69.2 4.744 4.744 0 0 1 -1.013.091 4.676 4.676 0 0 1 -2.031-.463 3.837 3.837 0 0 1 -2.225-3.653z"/><path d="m435.017 162.194a1.423 1.423 0 0 1 -1.018-.4 1.329 1.329 0 0 1 0-1.95 1.471 1.471 0 0 1 2.025 0 1.329 1.329 0 0 1 0 1.95 1.409 1.409 0 0 1 -1.007.4zm-.992 19.4v-16.555h1.929v16.551z"/><path d="m441.04 181.59v-16.551h1.86v2.543h.173a4.074 4.074 0 0 1 1.654-2.02 5.076 5.076 0 0 1 2.785-.739 4.674 4.674 0 0 1 2.818.8 4.83 4.83 0 0 1 1.654 2.2h.14a4.614 4.614 0 0 1 1.827-2.193 5.574 5.574 0 0 1 3.076-.814 4.711 4.711 0 0 1 3.642 1.45 6.028 6.028 0 0 1 1.337 4.229v11.095h-1.919v-11.09a3.941 3.941 0 0 0 -1-2.941 3.612 3.612 0 0 0 -2.64-.981 3.682 3.682 0 0 0 -2.92 1.164 4.309 4.309 0 0 0 -1.024 2.952v10.896h-1.961v-11.26a3.894 3.894 0 0 0 -.937-2.716 3.383 3.383 0 0 0 -2.64-1.034 3.842 3.842 0 0 0 -2.053.56 3.929 3.929 0 0 0 -1.433 1.557 4.854 4.854 0 0 0 -.523 2.29v10.6z"/><path d="m471.7 181.967a6.314 6.314 0 0 1 -2.736-.587 4.739 4.739 0 0 1 -1.972-1.7 4.824 4.824 0 0 1 -.733-2.71 4.227 4.227 0 0 1 .464-2.07 3.766 3.766 0 0 1 1.314-1.378 7.245 7.245 0 0 1 2.015-.852 18.82 18.82 0 0 1 2.564-.485q1.39-.172 2.355-.3a4.294 4.294 0 0 0 1.471-.409.958.958 0 0 0 .506-.905v-.388a3.541 3.541 0 0 0 -1.007-2.667 3.993 3.993 0 0 0 -2.893-.975 4.987 4.987 0 0 0 -2.915.786 4.353 4.353 0 0 0 -1.579 1.854l-1.821-.657a5.42 5.42 0 0 1 1.552-2.172 6.239 6.239 0 0 1 2.22-1.174 8.766 8.766 0 0 1 2.489-.362 8.4 8.4 0 0 1 1.977.249 5.688 5.688 0 0 1 1.913.856 4.451 4.451 0 0 1 1.433 1.692 6.033 6.033 0 0 1 .549 2.743v11.234h-1.918v-2.618h-.118a5.215 5.215 0 0 1 -1.023 1.422 5.319 5.319 0 0 1 -1.7 1.132 6.043 6.043 0 0 1 -2.407.441zm.259-1.756a5.012 5.012 0 0 0 2.651-.679 4.676 4.676 0 0 0 1.73-1.805 5.145 5.145 0 0 0 .608-2.483v-2.393a1.892 1.892 0 0 1 -.716.367 9.67 9.67 0 0 1 -1.153.285c-.434.083-.868.153-1.3.21s-.819.108-1.164.151a10.764 10.764 0 0 0 -2.391.539 3.468 3.468 0 0 0 -1.52 1.008 2.5 2.5 0 0 0 -.528 1.643 2.764 2.764 0 0 0 1.078 2.333 4.322 4.322 0 0 0 2.701.824z"/><path d="m490.479 165.039v1.67h-7.9v-1.67zm-5.431-3.965h1.929v16.2a3.129 3.129 0 0 0 .355 1.621 1.979 1.979 0 0 0 .927.83 3.093 3.093 0 0 0 1.218.242 3.746 3.746 0 0 0 .646-.048c.18-.033.338-.067.474-.1l.41 1.735a4.975 4.975 0 0 1 -.691.2 4.969 4.969 0 0 1 -3.044-.372 3.838 3.838 0 0 1 -2.224-3.653z"/><path d="m501.352 181.935a7.275 7.275 0 0 1 -4.009-1.083 7.15 7.15 0 0 1 -2.614-3.006 10.156 10.156 0 0 1 -.92-4.434 10.268 10.268 0 0 1 .92-4.445 7.436 7.436 0 0 1 2.554-3.05 6.586 6.586 0 0 1 3.778-1.1 7.049 7.049 0 0 1 2.6.491 6.463 6.463 0 0 1 2.247 1.5 7.175 7.175 0 0 1 1.578 2.532 10.1 10.1 0 0 1 .582 3.6v.949h-12.93v-1.692h10.962a6.3 6.3 0 0 0 -.642-2.872 5.1 5.1 0 0 0 -1.778-2.02 4.989 4.989 0 0 0 -5.393.1 5.722 5.722 0 0 0 -1.87 2.22 6.9 6.9 0 0 0 -.684 3.017v1.013a8.088 8.088 0 0 0 .684 3.442 5.27 5.27 0 0 0 1.945 2.28 5.945 5.945 0 0 0 5.049.441 4.418 4.418 0 0 0 1.5-.986 4.331 4.331 0 0 0 .922-1.363l1.821.593a5.4 5.4 0 0 1 -1.234 1.929 6.317 6.317 0 0 1 -2.134 1.417 7.57 7.57 0 0 1 -2.934.527z"/><path d="m527.276 181.935a6.733 6.733 0 0 1 -3.862-1.11 7.336 7.336 0 0 1 -2.549-3.038 11.116 11.116 0 0 1 .017-8.826 7.414 7.414 0 0 1 2.558-3.044 6.647 6.647 0 0 1 3.8-1.1 6.9 6.9 0 0 1 3.007.642 5.963 5.963 0 0 1 2.225 1.8 5.764 5.764 0 0 1 1.1 2.7h-1.939a4.305 4.305 0 0 0 -4.365-3.4 4.749 4.749 0 0 0 -2.8.857 5.668 5.668 0 0 0 -1.9 2.381 8.549 8.549 0 0 0 -.684 3.529 8.9 8.9 0 0 0 .668 3.562 5.666 5.666 0 0 0 1.881 2.419 4.723 4.723 0 0 0 2.838.873 4.778 4.778 0 0 0 2.01-.415 4.106 4.106 0 0 0 2.365-3h1.94a5.861 5.861 0 0 1 -3.248 4.5 6.8 6.8 0 0 1 -3.062.67z"/><path d="m544.13 181.935a6.707 6.707 0 0 1 -3.788-1.088 7.345 7.345 0 0 1 -2.57-3.012 10.122 10.122 0 0 1 -.926-4.445 10.244 10.244 0 0 1 .926-4.477 7.3 7.3 0 0 1 2.57-3.018 7.139 7.139 0 0 1 7.57.006 7.378 7.378 0 0 1 2.569 3.017 11.141 11.141 0 0 1 .006 8.917 7.345 7.345 0 0 1 -2.57 3.012 6.706 6.706 0 0 1 -3.787 1.088zm0-1.756a4.625 4.625 0 0 0 2.92-.927 5.757 5.757 0 0 0 1.815-2.468 9.016 9.016 0 0 0 .62-3.394 9.107 9.107 0 0 0 -.62-3.4 5.83 5.83 0 0 0 -1.815-2.489 5.006 5.006 0 0 0 -5.835 0 5.817 5.817 0 0 0 -1.821 2.489 9.087 9.087 0 0 0 -.62 3.4 9 9 0 0 0 .62 3.394 5.765 5.765 0 0 0 1.815 2.468 4.626 4.626 0 0 0 2.921.927z"/><path d="m555.627 181.59v-16.551h1.864v2.543h.173a4.078 4.078 0 0 1 1.653-2.02 5.083 5.083 0 0 1 2.787-.739 4.673 4.673 0 0 1 2.817.8 4.83 4.83 0 0 1 1.654 2.2h.14a4.62 4.62 0 0 1 1.827-2.193 5.574 5.574 0 0 1 3.076-.814 4.711 4.711 0 0 1 3.642 1.45 6.033 6.033 0 0 1 1.34 4.234v11.09h-1.918v-11.09a3.937 3.937 0 0 0 -1-2.941 3.612 3.612 0 0 0 -2.64-.981 3.682 3.682 0 0 0 -2.92 1.164 4.309 4.309 0 0 0 -1.024 2.952v10.896h-1.961v-11.26a3.89 3.89 0 0 0 -.938-2.716 3.382 3.382 0 0 0 -2.639-1.034 3.839 3.839 0 0 0 -2.053.56 3.939 3.939 0 0 0 -1.434 1.557 4.866 4.866 0 0 0 -.522 2.29v10.6z"/><path d="m581.66 181.59v-16.551h1.864v2.543h.173a4.074 4.074 0 0 1 1.654-2.02 5.077 5.077 0 0 1 2.786-.739 4.673 4.673 0 0 1 2.817.8 4.83 4.83 0 0 1 1.654 2.2h.14a4.62 4.62 0 0 1 1.827-2.193 5.574 5.574 0 0 1 3.076-.814 4.711 4.711 0 0 1 3.642 1.45 6.028 6.028 0 0 1 1.337 4.229v11.095h-1.918v-11.09a3.937 3.937 0 0 0 -1-2.941 3.612 3.612 0 0 0 -2.64-.981 3.683 3.683 0 0 0 -2.92 1.164 4.309 4.309 0 0 0 -1.024 2.952v10.896h-1.961v-11.26a3.889 3.889 0 0 0 -.937-2.716 3.383 3.383 0 0 0 -2.64-1.034 3.842 3.842 0 0 0 -2.053.56 3.929 3.929 0 0 0 -1.437 1.56 4.854 4.854 0 0 0 -.523 2.29v10.6z"/><path d="m618.211 175.265v-10.226h1.919v16.551h-1.919v-2.747h-.15a5.075 5.075 0 0 1 -1.843 2.117 5.407 5.407 0 0 1 -3.082.846 5.62 5.62 0 0 1 -2.813-.7 4.848 4.848 0 0 1 -1.928-2.042 7.107 7.107 0 0 1 -.7-3.308v-10.717h1.918v10.6a4.3 4.3 0 0 0 1.143 3.12 3.9 3.9 0 0 0 2.931 1.18 4.61 4.61 0 0 0 2.155-.539 4.442 4.442 0 0 0 1.7-1.579 4.641 4.641 0 0 0 .669-2.556z"/><path d="m627.111 171.246v10.344h-1.918v-16.551h1.865v2.6h.172a4.653 4.653 0 0 1 1.816-2.042 5.669 5.669 0 0 1 3.055-.771 6 6 0 0 1 2.936.7 4.815 4.815 0 0 1 1.972 2.042 7.064 7.064 0 0 1 .706 3.308v10.714h-1.915v-10.6a4.461 4.461 0 0 0 -1.137-3.222 4.025 4.025 0 0 0 -3.045-1.185 4.709 4.709 0 0 0 -2.316.56 4.065 4.065 0 0 0 -1.6 1.611 5.031 5.031 0 0 0 -.591 2.492z"/><path d="m643.792 162.194a1.425 1.425 0 0 1 -1.018-.4 1.331 1.331 0 0 1 0-1.95 1.472 1.472 0 0 1 2.026 0 1.329 1.329 0 0 1 0 1.95 1.413 1.413 0 0 1 -1.008.4zm-.991 19.4v-16.555h1.928v16.551z"/><path d="m656.335 165.039v1.67h-7.9v-1.67zm-5.431-3.965h1.929v16.2a3.129 3.129 0 0 0 .355 1.621 1.983 1.983 0 0 0 .927.83 3.093 3.093 0 0 0 1.218.242 3.738 3.738 0 0 0 .646-.048c.179-.033.337-.067.474-.1l.409 1.735a4.9 4.9 0 0 1 -.689.2 4.744 4.744 0 0 1 -1.013.091 4.676 4.676 0 0 1 -2.031-.463 3.833 3.833 0 0 1 -2.225-3.653z"/><path d="m662.023 187.8a5 5 0 0 1 -1.066-.108 4.063 4.063 0 0 1 -.787-.237l.518-1.692a4.411 4.411 0 0 0 1.746.221 2.174 2.174 0 0 0 1.357-.689 5.317 5.317 0 0 0 1.056-1.859l.6-1.681-6.088-16.713h2.079l4.914 14.019h.152l4.913-14.019h2.08l-7 19.17a7.07 7.07 0 0 1 -1.088 2 4.159 4.159 0 0 1 -1.492 1.2 4.436 4.436 0 0 1 -1.894.388z"/><path d="m692.584 165.039v1.67h-8.136v-1.67zm-5.593 16.551v-18.976a3.93 3.93 0 0 1 .619-2.252 3.989 3.989 0 0 1 1.622-1.39 4.9 4.9 0 0 1 2.123-.474 5.367 5.367 0 0 1 1.255.124 6.01 6.01 0 0 1 .792.243l-.559 1.68q-.217-.064-.529-.15a3 3 0 0 0 -.787-.086 2.561 2.561 0 0 0 -1.928.7 2.762 2.762 0 0 0 -.679 2l-.011 18.577z"/><path d="m702.162 181.935a6.706 6.706 0 0 1 -3.787-1.088 7.345 7.345 0 0 1 -2.57-3.012 10.136 10.136 0 0 1 -.927-4.445 10.258 10.258 0 0 1 .927-4.477 7.3 7.3 0 0 1 2.57-3.018 7.139 7.139 0 0 1 7.57.006 7.38 7.38 0 0 1 2.57 3.017 11.163 11.163 0 0 1 .006 8.917 7.355 7.355 0 0 1 -2.571 3.012 6.707 6.707 0 0 1 -3.788 1.088zm0-1.756a4.626 4.626 0 0 0 2.921-.927 5.765 5.765 0 0 0 1.815-2.468 9 9 0 0 0 .62-3.394 9.087 9.087 0 0 0 -.62-3.4 5.838 5.838 0 0 0 -1.815-2.489 5.006 5.006 0 0 0 -5.835 0 5.809 5.809 0 0 0 -1.821 2.489 9.107 9.107 0 0 0 -.62 3.4 9.016 9.016 0 0 0 .62 3.394 5.765 5.765 0 0 0 1.815 2.468 4.625 4.625 0 0 0 2.92.927z"/><path d="m713.66 181.59v-16.551h1.864v2.543h.14a4.16 4.16 0 0 1 1.73-2.02 5.166 5.166 0 0 1 2.8-.771c.159 0 .334 0 .528.011s.356.014.485.021v1.951c-.086-.014-.237-.036-.452-.065a5.451 5.451 0 0 0 -.7-.043 4.769 4.769 0 0 0 -2.3.544 4.073 4.073 0 0 0 -2.172 3.691v10.689z"/><path d="m737.636 181.967a6.323 6.323 0 0 1 -2.738-.587 4.73 4.73 0 0 1 -1.971-1.7 4.825 4.825 0 0 1 -.734-2.71 4.249 4.249 0 0 1 .464-2.07 3.769 3.769 0 0 1 1.315-1.378 7.239 7.239 0 0 1 2.014-.852 18.822 18.822 0 0 1 2.566-.485q1.391-.172 2.354-.3a4.3 4.3 0 0 0 1.471-.409.958.958 0 0 0 .506-.905v-.388a3.541 3.541 0 0 0 -1.007-2.667 4 4 0 0 0 -2.894-.975 4.987 4.987 0 0 0 -2.915.786 4.35 4.35 0 0 0 -1.578 1.854l-1.821-.657a5.41 5.41 0 0 1 1.552-2.172 6.243 6.243 0 0 1 2.219-1.174 8.783 8.783 0 0 1 2.49-.362 8.4 8.4 0 0 1 1.977.249 5.684 5.684 0 0 1 1.912.856 4.445 4.445 0 0 1 1.434 1.692 6.046 6.046 0 0 1 .549 2.743v11.234h-1.918v-2.618h-.118a5.22 5.22 0 0 1 -1.024 1.422 5.308 5.308 0 0 1 -1.7 1.132 6.036 6.036 0 0 1 -2.405.441zm.259-1.756a5.013 5.013 0 0 0 2.65-.679 4.681 4.681 0 0 0 1.729-1.805 5.135 5.135 0 0 0 .609-2.483v-2.393a1.9 1.9 0 0 1 -.716.367 9.719 9.719 0 0 1 -1.153.285q-.653.125-1.3.21t-1.163.151a10.758 10.758 0 0 0 -2.393.539 3.465 3.465 0 0 0 -1.519 1.008 2.5 2.5 0 0 0 -.528 1.643 2.766 2.766 0 0 0 1.077 2.333 4.328 4.328 0 0 0 2.712.824z"/><path d="m751.816 159.522v22.068h-1.916v-22.068z"/><path d="m758.8 159.522v22.068h-1.92v-22.068z"/><path d="m778.355 181.935a6.032 6.032 0 0 1 -3.566-1.078 7.093 7.093 0 0 1 -2.387-3.006 12.167 12.167 0 0 1 0-8.971 7.027 7.027 0 0 1 2.4-3 6.12 6.12 0 0 1 3.588-1.073 5.306 5.306 0 0 1 2.51.534 4.873 4.873 0 0 1 1.606 1.32 7.762 7.762 0 0 1 .937 1.53h.173v-8.674h1.929v22.073h-1.875v-3.071h-.227a7.474 7.474 0 0 1 -.948 1.546 4.971 4.971 0 0 1 -1.622 1.331 5.291 5.291 0 0 1 -2.518.539zm.227-1.756a4.324 4.324 0 0 0 2.736-.879 5.481 5.481 0 0 0 1.73-2.424 9.789 9.789 0 0 0 .6-3.551 9.658 9.658 0 0 0 -.592-3.507 5.392 5.392 0 0 0 -1.725-2.392 4.789 4.789 0 0 0 -5.544.032 5.55 5.55 0 0 0 -1.723 2.43 9.52 9.52 0 0 0 -.588 3.437 9.72 9.72 0 0 0 .592 3.481 5.667 5.667 0 0 0 1.73 2.462 4.315 4.315 0 0 0 2.784.911z"/><path d="m797.7 181.935a7.271 7.271 0 0 1 -4.008-1.083 7.148 7.148 0 0 1 -2.613-3.006 10.156 10.156 0 0 1 -.922-4.434 10.268 10.268 0 0 1 .922-4.445 7.421 7.421 0 0 1 2.554-3.05 6.58 6.58 0 0 1 3.776-1.1 7.052 7.052 0 0 1 2.6.491 6.45 6.45 0 0 1 2.246 1.5 7.176 7.176 0 0 1 1.579 2.532 10.1 10.1 0 0 1 .582 3.6v.949h-12.936v-1.692h10.969a6.329 6.329 0 0 0 -.64-2.872 5.09 5.09 0 0 0 -1.779-2.02 4.987 4.987 0 0 0 -5.392.1 5.722 5.722 0 0 0 -1.87 2.22 6.884 6.884 0 0 0 -.685 3.017v1.013a8.088 8.088 0 0 0 .685 3.442 5.27 5.27 0 0 0 1.945 2.28 5.943 5.943 0 0 0 5.048.441 4.422 4.422 0 0 0 1.5-.986 4.331 4.331 0 0 0 .922-1.363l1.82.593a5.388 5.388 0 0 1 -1.233 1.929 6.337 6.337 0 0 1 -2.134 1.417 7.58 7.58 0 0 1 -2.936.527z"/><path d="m820.919 165.039-6.045 16.551h-2.048l-6.045-16.551h2.079l4.914 14.019h.152l4.913-14.019z"/><path d="m835.778 168.67-1.756.5a4.618 4.618 0 0 0 -.733-1.347 3.331 3.331 0 0 0 -1.233-.959 4.425 4.425 0 0 0 -1.88-.356 4.514 4.514 0 0 0 -2.759.8 2.451 2.451 0 0 0 -1.078 2.058 2.215 2.215 0 0 0 .738 1.729 5.375 5.375 0 0 0 2.279 1.051l2.5.614a6.215 6.215 0 0 1 3.12 1.606 3.857 3.857 0 0 1 1.04 2.759 4.179 4.179 0 0 1 -.776 2.488 5.173 5.173 0 0 1 -2.161 1.708 7.763 7.763 0 0 1 -3.2.62 6.84 6.84 0 0 1 -4-1.094 4.934 4.934 0 0 1 -2.015-3.162l1.842-.453a3.706 3.706 0 0 0 1.4 2.231 4.572 4.572 0 0 0 2.743.754 4.964 4.964 0 0 0 3.049-.857 2.591 2.591 0 0 0 1.142-2.149 2.321 2.321 0 0 0 -.668-1.687 4.1 4.1 0 0 0 -2.026-1.007l-2.7-.647a6.186 6.186 0 0 1 -3.19-1.638 3.941 3.941 0 0 1 -1.035-2.78 4.031 4.031 0 0 1 .744-2.408 4.986 4.986 0 0 1 2.047-1.633 7.118 7.118 0 0 1 2.975-.593 5.89 5.89 0 0 1 3.636 1.03 5.7 5.7 0 0 1 1.955 2.822z"/><path d="m843.407 178.573-.193 1.153q-.185 1.164-.518 2.565t-.689 2.661q-.356 1.262-.614 2.026h-1.477q.141-.732.361-1.864t.458-2.506q.237-1.373.431-2.828l.151-1.207z"/><path d="m863.438 181.935a6.709 6.709 0 0 1 -3.788-1.088 7.353 7.353 0 0 1 -2.57-3.012 10.136 10.136 0 0 1 -.927-4.445 10.258 10.258 0 0 1 .927-4.477 7.307 7.307 0 0 1 2.57-3.018 7.141 7.141 0 0 1 7.571.006 7.385 7.385 0 0 1 2.569 3.017 11.152 11.152 0 0 1 .006 8.917 7.353 7.353 0 0 1 -2.57 3.012 6.709 6.709 0 0 1 -3.788 1.088zm0-1.756a4.623 4.623 0 0 0 2.92-.927 5.767 5.767 0 0 0 1.816-2.468 9.016 9.016 0 0 0 .619-3.394 9.107 9.107 0 0 0 -.619-3.4 5.84 5.84 0 0 0 -1.816-2.489 5.006 5.006 0 0 0 -5.835 0 5.817 5.817 0 0 0 -1.821 2.489 9.107 9.107 0 0 0 -.62 3.4 9.016 9.016 0 0 0 .62 3.394 5.767 5.767 0 0 0 1.816 2.468 4.621 4.621 0 0 0 2.92.927z"/><path d="m874.9 187.8v-22.761h1.865v3.161h.237a7.7 7.7 0 0 1 .937-1.525 4.975 4.975 0 0 1 1.6-1.319 5.245 5.245 0 0 1 2.517-.54 6.122 6.122 0 0 1 3.587 1.073 7.027 7.027 0 0 1 2.4 3 12.147 12.147 0 0 1 0 8.971 7.127 7.127 0 0 1 -2.393 3.006 6.013 6.013 0 0 1 -3.555 1.078 5.3 5.3 0 0 1 -2.517-.539 5.033 5.033 0 0 1 -1.627-1.331 6.988 6.988 0 0 1 -.942-1.546h-.173v9.272zm1.9-14.472a9.811 9.811 0 0 0 .6 3.551 5.5 5.5 0 0 0 1.73 2.424 4.7 4.7 0 0 0 5.518-.032 5.641 5.641 0 0 0 1.734-2.462 9.7 9.7 0 0 0 .593-3.481 9.542 9.542 0 0 0 -.587-3.437 5.562 5.562 0 0 0 -1.725-2.43 4.806 4.806 0 0 0 -5.555-.032 5.357 5.357 0 0 0 -1.718 2.392 9.7 9.7 0 0 0 -.59 3.504z"/><path d="m899.634 165.039v1.67h-7.9v-1.67zm-5.431-3.965h1.929v16.2a3.129 3.129 0 0 0 .355 1.621 1.983 1.983 0 0 0 .927.83 3.093 3.093 0 0 0 1.218.242 3.738 3.738 0 0 0 .646-.048c.179-.033.337-.067.474-.1l.409 1.735a4.9 4.9 0 0 1 -.689.2 4.744 4.744 0 0 1 -1.013.091 4.676 4.676 0 0 1 -2.031-.463 3.833 3.833 0 0 1 -2.225-3.653z"/><path d="m905 162.194a1.425 1.425 0 0 1 -1.018-.4 1.331 1.331 0 0 1 0-1.95 1.472 1.472 0 0 1 2.026 0 1.329 1.329 0 0 1 0 1.95 1.413 1.413 0 0 1 -1.008.4zm-.991 19.4v-16.555h1.929v16.551z"/><path d="m911.022 181.59v-16.551h1.865v2.543h.173a4.073 4.073 0 0 1 1.653-2.02 5.077 5.077 0 0 1 2.786-.739 4.671 4.671 0 0 1 2.817.8 4.832 4.832 0 0 1 1.655 2.2h.139a4.622 4.622 0 0 1 1.828-2.193 5.571 5.571 0 0 1 3.076-.814 4.708 4.708 0 0 1 3.641 1.45 6.028 6.028 0 0 1 1.337 4.229v11.095h-1.918v-11.09a3.937 3.937 0 0 0 -1-2.941 3.611 3.611 0 0 0 -2.639-.981 3.68 3.68 0 0 0 -2.92 1.164 4.3 4.3 0 0 0 -1.025 2.952v10.896h-1.961v-11.26a3.889 3.889 0 0 0 -.937-2.716 3.383 3.383 0 0 0 -2.64-1.034 3.844 3.844 0 0 0 -2.053.56 3.936 3.936 0 0 0 -1.433 1.557 4.854 4.854 0 0 0 -.523 2.29v10.6z"/><path d="m938.069 162.194a1.422 1.422 0 0 1 -1.017-.4 1.329 1.329 0 0 1 0-1.95 1.409 1.409 0 0 1 1.007-.4 1.425 1.425 0 0 1 1.018.4 1.329 1.329 0 0 1 0 1.95 1.413 1.413 0 0 1 -1.008.4zm-.991 19.4v-16.555h1.929v16.551z"/><path d="m943.575 181.59v-1.519l9.57-13.082v-.14h-9.16v-1.81h11.627v1.584l-9.4 13.017v.14h9.741v1.81z"/><path d="m966.4 181.935a7.268 7.268 0 0 1 -4.007-1.083 7.15 7.15 0 0 1 -2.614-3.006 10.156 10.156 0 0 1 -.922-4.434 10.268 10.268 0 0 1 .922-4.445 7.428 7.428 0 0 1 2.554-3.05 6.58 6.58 0 0 1 3.776-1.1 7.052 7.052 0 0 1 2.6.491 6.45 6.45 0 0 1 2.246 1.5 7.162 7.162 0 0 1 1.579 2.532 10.1 10.1 0 0 1 .582 3.6v.949h-12.93v-1.692h10.964a6.316 6.316 0 0 0 -.64-2.872 5.09 5.09 0 0 0 -1.779-2.02 4.987 4.987 0 0 0 -5.392.1 5.722 5.722 0 0 0 -1.87 2.22 6.9 6.9 0 0 0 -.685 3.017v1.013a8.088 8.088 0 0 0 .685 3.442 5.27 5.27 0 0 0 1.945 2.28 5.943 5.943 0 0 0 5.048.441 4.422 4.422 0 0 0 1.5-.986 4.331 4.331 0 0 0 .922-1.363l1.82.593a5.388 5.388 0 0 1 -1.233 1.929 6.327 6.327 0 0 1 -2.134 1.417 7.58 7.58 0 0 1 -2.937.527z"/><path d="m983.283 181.935a6.03 6.03 0 0 1 -3.566-1.078 7.078 7.078 0 0 1 -2.387-3.006 12.167 12.167 0 0 1 0-8.971 7.02 7.02 0 0 1 2.4-3 6.12 6.12 0 0 1 3.587-1.073 5.311 5.311 0 0 1 2.511.534 4.883 4.883 0 0 1 1.606 1.32 7.81 7.81 0 0 1 .937 1.53h.173v-8.674h1.929v22.073h-1.873v-3.071h-.227a7.518 7.518 0 0 1 -.948 1.546 4.971 4.971 0 0 1 -1.625 1.335 5.291 5.291 0 0 1 -2.517.535zm.227-1.756a4.324 4.324 0 0 0 2.736-.879 5.481 5.481 0 0 0 1.73-2.424 9.789 9.789 0 0 0 .6-3.551 9.636 9.636 0 0 0 -.593-3.507 5.383 5.383 0 0 0 -1.724-2.392 4.789 4.789 0 0 0 -5.544.032 5.56 5.56 0 0 0 -1.724 2.43 9.541 9.541 0 0 0 -.588 3.437 9.72 9.72 0 0 0 .593 3.481 5.667 5.667 0 0 0 1.73 2.462 4.313 4.313 0 0 0 2.784.911z"/><path d="m1011.278 165.039v1.67h-8.135v-1.67zm-5.592 16.551v-18.976a3.93 3.93 0 0 1 .619-2.252 3.989 3.989 0 0 1 1.622-1.39 4.9 4.9 0 0 1 2.123-.474 5.367 5.367 0 0 1 1.255.124 6.058 6.058 0 0 1 .792.243l-.56 1.68q-.216-.064-.528-.15a3 3 0 0 0 -.787-.086 2.563 2.563 0 0 0 -1.929.7 2.766 2.766 0 0 0 -.679 2l-.01 18.577z"/><path d="m1020.857 181.935a6.708 6.708 0 0 1 -3.787-1.088 7.353 7.353 0 0 1 -2.57-3.012 10.136 10.136 0 0 1 -.927-4.445 10.258 10.258 0 0 1 .927-4.477 7.307 7.307 0 0 1 2.57-3.018 7.141 7.141 0 0 1 7.571.006 7.385 7.385 0 0 1 2.569 3.017 11.152 11.152 0 0 1 .006 8.917 7.353 7.353 0 0 1 -2.57 3.012 6.71 6.71 0 0 1 -3.789 1.088zm0-1.756a4.626 4.626 0 0 0 2.921-.927 5.767 5.767 0 0 0 1.816-2.468 9.016 9.016 0 0 0 .619-3.394 9.107 9.107 0 0 0 -.619-3.4 5.84 5.84 0 0 0 -1.816-2.489 5.006 5.006 0 0 0 -5.835 0 5.817 5.817 0 0 0 -1.821 2.489 9.107 9.107 0 0 0 -.62 3.4 9.016 9.016 0 0 0 .62 3.394 5.767 5.767 0 0 0 1.816 2.468 4.62 4.62 0 0 0 2.919.927z"/><path d="m1032.355 181.59v-16.551h1.865v2.543h.139a4.165 4.165 0 0 1 1.73-2.02 5.169 5.169 0 0 1 2.8-.771c.158 0 .334 0 .527.011s.357.014.485.021v1.951c-.086-.014-.237-.036-.452-.065a5.451 5.451 0 0 0 -.7-.043 4.771 4.771 0 0 0 -2.3.544 4.073 4.073 0 0 0 -2.172 3.691v10.689z"/></g><path d="m1053.346 187.8a9.445 9.445 0 0 1 -1.633-.134 6.264 6.264 0 0 1 -1.255-.34l1.034-3.427a5.679 5.679 0 0 0 1.46.27 1.862 1.862 0 0 0 1.132-.3 2.27 2.27 0 0 0 .781-1.1l.27-.7-5.938-17.025h4.827l3.427 12.155h.172l3.459-12.155h4.86l-6.433 18.34a7.85 7.85 0 0 1 -1.255 2.333 5.287 5.287 0 0 1 -2 1.541 7.045 7.045 0 0 1 -2.908.542z" fill="#d9386e"/><path d="m1075.221 181.914a8.415 8.415 0 0 1 -4.338-1.073 7.253 7.253 0 0 1 -2.818-3 10.61 10.61 0 0 1 0-8.955 7.255 7.255 0 0 1 2.818-3 9.311 9.311 0 0 1 8.675 0 7.253 7.253 0 0 1 2.817 3 10.61 10.61 0 0 1 0 8.955 7.25 7.25 0 0 1 -2.817 3 8.414 8.414 0 0 1 -4.337 1.073zm.021-3.557a2.836 2.836 0 0 0 1.907-.651 4.018 4.018 0 0 0 1.159-1.784 8.636 8.636 0 0 0 0-5.151 4.055 4.055 0 0 0 -1.159-1.788 2.825 2.825 0 0 0 -1.907-.657 2.9 2.9 0 0 0 -1.934.657 3.987 3.987 0 0 0 -1.175 1.788 8.636 8.636 0 0 0 0 5.151 3.952 3.952 0 0 0 1.175 1.784 2.912 2.912 0 0 0 1.934.651z" fill="#d9386e"/><path d="m1096.977 174.543v-9.5h4.589v16.547h-4.407v-3.006h-.172a4.9 4.9 0 0 1 -1.859 2.338 5.487 5.487 0 0 1 -3.162.884 5.579 5.579 0 0 1 -2.921-.754 5.15 5.15 0 0 1 -1.966-2.145 7.36 7.36 0 0 1 -.717-3.329v-10.539h4.59v9.72a3.35 3.35 0 0 0 .787 2.316 2.676 2.676 0 0 0 2.08.852 3.259 3.259 0 0 0 1.551-.383 2.961 2.961 0 0 0 1.17-1.137 3.542 3.542 0 0 0 .437-1.864z" fill="#d9386e"/></svg>