<svg xmlns="http://www.w3.org/2000/svg" xmlns:xlink="http://www.w3.org/1999/xlink" viewBox="0 0 1200 1200"><defs><clipPath id="a"><rect x="174.328" y="277.965" width="851.343" height="644.07" fill="none"/></clipPath></defs><path d="M600,1189A589.158,589.158,0,0,1,370.738,57.282,589.155,589.155,0,0,1,829.262,1142.718,585.291,585.291,0,0,1,600,1189Z" fill="#fff"/><path d="M600,22a575.2,575.2,0,0,1,323.15,98.7,579.749,579.749,0,0,1,209.437,254.323A577.212,577.212,0,0,1,1079.3,923.15a579.749,579.749,0,0,1-254.323,209.437A577.212,577.212,0,0,1,276.85,1079.3,579.749,579.749,0,0,1,67.413,824.977,577.212,577.212,0,0,1,120.7,276.85,579.749,579.749,0,0,1,375.023,67.413,574.361,574.361,0,0,1,600,22m0-22C268.629,0,0,268.629,0,600s268.629,600,600,600,600-268.629,600-600S931.371,0,600,0Z" fill="#d9386e"/><g clip-path="url(#a)"><g clip-path="url(#a)"><path d="M306.3,922.035c-38.016,0-62.4-25.82-62.4-64.549V696.826c0-40.079-27.3-62.184-65.215-63.744a4.477,4.477,0,0,1-4.357-4.441v-58a4.477,4.477,0,0,1,4.357-4.439c37.919-1.56,65.215-23.638,65.215-63.028V342.514c0-38.729,24.385-64.549,62.4-64.549h62.964a4.452,4.452,0,0,1,4.452,4.454v49.186a4.452,4.452,0,0,1-4.452,4.454H318.642a4.454,4.454,0,0,0-4.454,4.453v164.1c0,43.871-29.07,81.657-67.527,91.039a4.476,4.476,0,0,0-3.478,4.327v.051a4.481,4.481,0,0,0,3.478,4.328c38.457,9.378,67.527,47.166,67.527,91.039v164.1a4.454,4.454,0,0,0,4.454,4.454h50.624a4.451,4.451,0,0,1,4.452,4.453v49.186a4.453,4.453,0,0,1-4.452,4.454Z" fill="#2a2a2a"/><path d="M755.61,277.964c38.014,0,63.832,25.82,63.832,64.549V503.174c0,39.391,27.3,61.466,65.217,63.026a4.48,4.48,0,0,1,4.355,4.441v58a4.481,4.481,0,0,1-4.355,4.442c-37.919,1.558-65.217,23.662-65.217,63.741v160.66c0,38.731-25.818,64.549-63.832,64.549H692.644a4.453,4.453,0,0,1-4.454-4.453V868.4a4.452,4.452,0,0,1,4.454-4.454H744.7a4.453,4.453,0,0,0,4.452-4.454v-164.1c0-43.9,27.764-81.714,67.5-91.059a4.428,4.428,0,0,0,0-8.663c-39.732-9.349-67.5-47.158-67.5-91.062V340.514a4.452,4.452,0,0,0-4.452-4.454H692.644a4.455,4.455,0,0,1-4.454-4.454V282.418a4.454,4.454,0,0,1,4.454-4.454Z" fill="#2a2a2a"/><path d="M1025.672,370.062V835.8a4.452,4.452,0,0,1-4.454,4.453H889.461a4.452,4.452,0,0,1-4.454-4.453v-39.72a4.454,4.454,0,0,1,4.454-4.454H959.38a4.454,4.454,0,0,0,4.454-4.453V418.691a4.455,4.455,0,0,0-4.454-4.454H889.461a4.454,4.454,0,0,1-4.454-4.453V370.062a4.454,4.454,0,0,1,4.454-4.454h131.757a4.454,4.454,0,0,1,4.454,4.454" fill="#2a2a2a"/><path d="M354.055,608.671l-.049-18.427a4.808,4.808,0,0,1,2.213-4.062l102.31-65.541a4.809,4.809,0,0,1,7.4,4.036L466,549.468a4.809,4.809,0,0,1-2.289,4.11l-72.871,44.8,0,1.951,73.113,44.409a4.81,4.81,0,0,1,2.312,4.1l.068,24.79a4.809,4.809,0,0,1-7.38,4.077L356.291,612.722a4.813,4.813,0,0,1-2.236-4.051" fill="#d9376e"/><path d="M476.9,717.075l76.289-239.056a4.81,4.81,0,0,1,4.568-3.348l19.733-.053a4.809,4.809,0,0,1,4.593,6.272L505.8,719.944a4.811,4.811,0,0,1-4.569,3.348l-19.733.053a4.808,4.808,0,0,1-4.593-6.27" fill="#d9376e"/><path d="M598.077,648.483a4.811,4.811,0,0,1,2.29-4.11l72.87-44.8,0-1.952L600.122,553.21a4.817,4.817,0,0,1-2.314-4.1l-.066-24.79a4.809,4.809,0,0,1,7.38-4.078l102.66,64.989a4.805,4.805,0,0,1,2.236,4.049l.049,18.156a4.808,4.808,0,0,1-2.2,4.055l-102.3,66.051a4.808,4.808,0,0,1-7.417-4.026Z" fill="#d9376e"/></g></g></svg>