<svg xmlns="http://www.w3.org/2000/svg" viewBox="0 0 510.213 383.784"><path d="M78.234,381.807c-22.536,0-36.991-15.305-36.991-38.265V248.3c0-23.759-16.181-36.862-38.661-37.787A2.654,2.654,0,0,1,0,207.883V173.5a2.654,2.654,0,0,1,2.582-2.632c22.48-.924,38.661-14.012,38.661-37.363V38.265C41.243,15.306,55.7,0,78.234,0h37.325a2.64,2.64,0,0,1,2.64,2.64V31.8a2.64,2.64,0,0,1-2.64,2.64H85.55a2.64,2.64,0,0,0-2.641,2.64v97.276c0,26.008-17.233,48.407-40.029,53.969a2.653,2.653,0,0,0-2.063,2.565v.03a2.654,2.654,0,0,0,2.063,2.565c22.8,5.561,40.029,27.961,40.029,53.968v97.277a2.64,2.64,0,0,0,2.641,2.64h30.009a2.64,2.64,0,0,1,2.64,2.64v29.158a2.64,2.64,0,0,1-2.64,2.64Z"/><path d="M344.586,0c22.534,0,37.839,15.306,37.839,38.265V133.5c0,23.351,16.183,36.439,38.66,37.363a2.655,2.655,0,0,1,2.583,2.632v34.384a2.655,2.655,0,0,1-2.583,2.632c-22.477.925-38.66,14.028-38.66,37.787v95.24c0,22.96-15.305,38.265-37.839,38.265H307.259a2.64,2.64,0,0,1-2.64-2.64V350.009a2.64,2.64,0,0,1,2.64-2.64h30.859a2.64,2.64,0,0,0,2.64-2.64V247.452c0-26.026,16.458-48.439,40.011-53.98a2.653,2.653,0,0,0,2.082-2.568h0a2.653,2.653,0,0,0-2.082-2.568c-23.553-5.542-40.011-27.955-40.011-53.981V37.079a2.64,2.64,0,0,0-2.64-2.64H307.259a2.64,2.64,0,0,1-2.64-2.64V2.64A2.64,2.64,0,0,1,307.259,0Z"/><path d="M504.679,54.6v276.09a2.64,2.64,0,0,1-2.64,2.64H423.933a2.64,2.64,0,0,1-2.64-2.64V307.139a2.64,2.64,0,0,1,2.64-2.64H465.38a2.64,2.64,0,0,0,2.64-2.64V83.423a2.64,2.64,0,0,0-2.64-2.64H423.933a2.64,2.64,0,0,1-2.64-2.64V54.6a2.64,2.64,0,0,1,2.64-2.64h78.106A2.64,2.64,0,0,1,504.679,54.6Z"/><path d="M106.543,196.043l-.03-10.922a2.852,2.852,0,0,1,1.313-2.409l60.649-38.852a2.85,2.85,0,0,1,4.388,2.392l.04,14.7a2.85,2.85,0,0,1-1.358,2.436l-43.2,26.56,0,1.158,43.341,26.324a2.85,2.85,0,0,1,1.371,2.429l.04,14.7a2.851,2.851,0,0,1-4.375,2.417l-60.858-38.524A2.847,2.847,0,0,1,106.543,196.043Z"/><path d="M179.367,260.306l45.225-141.713a2.85,2.85,0,0,1,2.708-1.984l11.7-.032a2.85,2.85,0,0,1,2.723,3.718L196.5,262.008a2.852,2.852,0,0,1-2.708,1.984l-11.7.031A2.851,2.851,0,0,1,179.367,260.306Z"/><path d="M251.2,219.644a2.852,2.852,0,0,1,1.358-2.436l43.2-26.559,0-1.157-43.341-26.326a2.852,2.852,0,0,1-1.371-2.429l-.04-14.7a2.851,2.851,0,0,1,4.376-2.416l60.857,38.524a2.852,2.852,0,0,1,1.326,2.4l.029,10.764a2.851,2.851,0,0,1-1.305,2.4l-60.646,39.156a2.851,2.851,0,0,1-4.4-2.387Z"/></svg>