<svg xmlns="http://www.w3.org/2000/svg" width="787.3608" height="578.21141" viewBox="0 0 787.3608 578.21141" xmlns:xlink="http://www.w3.org/1999/xlink" role="img" artist="Katerina Limpitsouni" source="https://undraw.co/"><g><path d="M767.74103,251.99607c.2196-3.36208-7.66795-5.00341-7.30956-7.94569,.35702-2.9317,8.31264-2.32243,16.72301-7.61771,1.51674-.9549,11.07445-6.97267,10.14249-11.48774-1.76651-8.55826-39.66475-4.19001-43.3533-16.64006-.80958-2.7323-.05751-6.56487-2.28961-15.15243-.88803-3.41632-1.62549-5.1893-3.13123-5.74887-2.13651-.79401-3.95346,1.54882-9.19817,5.00999-7.86547,5.19074-9.303,3.56745-14.94699,8.14126-4.18979,3.39536-5.59801,6.07324-7.42211,5.53348-2.58131-.76374-1.42832-6.61918-4.38375-8.04838-3.01588-1.45834-8.27517,2.67668-11.49774,6.26247-6.04743,6.72898-6.67418,13.47302-8.68448,19.63894-2.18476,6.70075-7.02507,15.85159-19.0324,25.27512l-109.61019,79.78751c23.07429-15.97313,87.6008-58.88736,112.74142-74.03865,7.25762-4.37382,14.87965-8.63176,23.20076-6.67339,8.01135,1.88536,15.70536,9.30535,28.62174,14.22792,1.50844,.57497,5.72781,2.12173,7.62757,.31803,1.57063-1.49114,.12506-3.91399,1.5706-5.32802,1.93893-1.89673,6.11366,.92295,12.95564,1.88866,4.8246,.6809,8.52286,.09394,11.70316-.4109,.95883-.15219,15.28096-2.51586,15.57322-6.99147l-.0001-.00007Z" fill="#f2f2f2"/><path d="M582.53886,206.67521c-1.58677-1.0779-4.66812,2.31985-6.00879,1.295-1.33591-1.02113,1.25858-4.75,1.08634-10.40573-.03107-1.01991-.22687-7.44729-2.71189-8.29258-4.71011-1.60232-13.50102,18.25874-20.67589,16.47689-1.57459-.391-3.23869-1.86596-8.09752-3.24818-1.93298-.54987-3.01594-.69949-3.72505-.12192-1.00612,.81951-.38058,2.3873-.19503,5.96001,.27822,5.35809-.93333,5.5953-.31695,9.68506,.45758,3.03605,1.36559,4.49989,.57433,5.23939-1.11962,1.04656-3.66085-1.2088-5.21502-.17066-1.58594,1.05945-1.0739,4.83379-.2438,7.45004,1.55778,4.90966,4.68693,7.16313,7.13315,9.9289,2.6584,3.00565,5.75313,8.02168,6.91372,16.63395l7.53421,76.81864c-1.18206-15.93379-3.62669-59.98594-3.80913-76.69677-.05269-4.82407,.05673-9.79356,3.41887-13.31259,3.23689-3.38804,9.0986-5.02337,15.24144-9.9425,.71746-.57448,2.69401-2.19909,2.35694-3.6519-.27869-1.2011-1.88496-1.19065-2.16187-2.30816-.37144-1.49894,2.21701-2.73435,4.66505-5.81381,1.72623-2.17147,2.50519-4.15596,3.17507-5.86255,.20194-.51449,3.17421-8.22588,1.06193-9.66069l-.00011,.00015Z" fill="#f2f2f2"/><path d="M609.25751,235.38694l4.87619-9.16475,.87759-.34689c4.05954-1.60311,7.08282-3.81332,8.98956-6.57089,.30323-.43834,.5839-.89222,.87015-1.35424,1.13383-1.83179,2.54272-4.10917,5.45563-5.89382,1.62766-.9924,5.71461-3.07187,8.15801-.7946,.66325,.60522,.9873,1.32223,1.13832,2.00529,.12919-.05638,.26047-.11141,.40147-.17183,1.73539-.71337,2.78735-.80794,3.80062-.8989,.77879-.07039,1.58246-.14181,3.07486-.59295,.65462-.19768,1.19461-.39541,1.64921-.56104,1.37762-.49948,3.1005-1.04034,4.70984,.0921,1.67808,1.27009,1.60398,3.32654,1.55585,4.68833-.08497,2.42939-.43401,3.98361-.6659,5.01422-.08552,.37618-.17995,.80054-.18253,.94974-.00402,1.20482,5.06596,3.54815,6.96911,4.44104,4.28399,1.99219,7.99098,3.71605,7.70089,7.0797-.20558,2.40717-2.50582,4.20085-7.02759,5.46931-1.40809,.39413-2.71346,.53252-3.82226,.58222,.35849,.77689,.52096,1.70322,.14415,2.72523h0c-.89522,2.41785-4.08456,3.27053-9.48289,2.54387-1.34288-.17711-3.14644-.4221-5.24912-1.38524-.98984-.45455-1.81252-.96364-2.50882-1.41034-.28462,.38468-.66984,.7488-1.21145,1.02387-1.59158,.81187-3.481,.42344-5.59084-1.23898-2.34584-1.79386-4.03133-3.6305-5.51994-5.24781-1.30119-1.41042-2.42529-2.62109-3.51704-3.26621-2.04271-1.16964-4.5959-.64202-7.72318,.16862l-7.86983,2.11499-.00005-.00004Z" fill="#f2f2f2"/><path d="M648.39062,187.7377l-10.10187-2.3921-.55812-.76091c-2.58038-3.52017-5.48513-5.88393-8.63616-7.02885-.50096-.18213-1.01113-.33849-1.53068-.49819-2.05945-.63213-4.61978-1.41727-7.08489-3.78223-1.37287-1.3227-4.42091-4.74853-2.8379-7.68964,.4172-.79504,1.02858-1.29038,1.65102-1.60971-.08737-.11066-.17388-.22368-.26807-.34473-1.13019-1.49773-1.48853-2.49128-1.83354-3.44837-.26562-.73549-.53859-1.49476-1.35349-2.8239-.35728-.58308-.68551-1.05522-.96103-1.45294-.83263-1.20583-1.79272-2.73524-1.1055-4.57918,.80291-1.94535,2.81091-2.39527,4.14038-2.69417,2.3715-.53399,3.96341-.59065,5.01915-.62775,.38552-.01266,.82001-.02898,.96498-.06432,1.16641-.3017,2.14715-5.80023,2.52813-7.86763,.84039-4.64918,1.56756-8.6722,4.89483-9.24474,2.38057-.41168,4.69907,1.35833,7.073,5.41046,.7384,1.26207,1.20339,2.48964,1.53268,3.54959,.66054-.54382,1.5154-.93602,2.59953-.83064h0c2.56586,.25268,4.19961,3.12141,4.86602,8.52747,.16932,1.34387,.3898,3.15061-.00851,5.42879-.18861,1.07274-.4724,1.99763-.72788,2.78454,.44432,.17775,.89419,.458,1.29769,.91214,1.189,1.33358,1.29258,3.25978,.21968,5.72225-1.14016,2.72414-2.48922,4.82038-3.67605,6.67053-1.03428,1.61641-1.92025,3.01079-2.26728,4.23051-.61323,2.27261,.54472,4.6084,2.12211,7.42783l4.04201,7.07599-.00024-.00009Z" fill="#f2f2f2"/><path d="M661.14193,159.63257l4.87619-9.16475,.87759-.34689c4.05954-1.60311,7.08282-3.81332,8.98956-6.57089,.30323-.43834,.5839-.89222,.87015-1.35424,1.13383-1.83179,2.54272-4.10917,5.45563-5.89382,1.62766-.9924,5.71461-3.07187,8.15801-.7946,.66325,.60522,.9873,1.32223,1.13832,2.00529,.12919-.05638,.26047-.11141,.40147-.17183,1.73539-.71337,2.78735-.80794,3.80062-.8989,.77879-.07039,1.58246-.14181,3.07486-.59295,.65462-.19768,1.19461-.39541,1.64921-.56104,1.37762-.49948,3.1005-1.04034,4.70984,.0921,1.67808,1.27009,1.60398,3.32654,1.55585,4.68833-.08497,2.42939-.43401,3.98361-.6659,5.01422-.08552,.37618-.17995,.80054-.18253,.94974-.00402,1.20482,5.06596,3.54815,6.96911,4.44104,4.28399,1.99219,7.99098,3.71605,7.70089,7.0797-.20558,2.40717-2.50582,4.20085-7.02759,5.46931-1.40809,.39413-2.71346,.53252-3.82226,.58222,.35849,.77689,.52096,1.70322,.14415,2.72523h0c-.89522,2.41785-4.08456,3.27053-9.48289,2.54387-1.34288-.17711-3.14644-.4221-5.24912-1.38524-.98984-.45455-1.81252-.96364-2.50882-1.41034-.28462,.38468-.66984,.7488-1.21145,1.02387-1.59158,.81187-3.481,.42344-5.59084-1.23898-2.34584-1.79386-4.03133-3.6305-5.51994-5.24781-1.30119-1.41042-2.42529-2.62109-3.51704-3.26621-2.04271-1.16964-4.5959-.64202-7.72318,.16862l-7.86983,2.11499-.00005-.00004Z" fill="#f2f2f2"/><path d="M556.69152,330.81684l-1.01807-2.33961,.97872-2.35463-.97872,2.35463-2.24288-1.18596c.0994-.21571,.29041-.73701,.59561-1.54837,1.67571-4.44338,6.77024-17.96888,16.89543-37.83015,7.06837-13.8642,15.09884-27.59471,23.87118-40.81719,8.78638-13.24298,16.20503-22.74346,22.16604-30.3802,4.49706-5.75938,8.87729-11.17615,13.14791-16.45069,11.40438-14.09455,22.17513-27.4094,32.0185-43.57533,2.19931-3.60777,6.77355-11.11962,7.82114-21.72921,.60692-6.15354-.05636-12.44036-1.97619-18.68216l4.87967-1.50024c2.11546,6.89501,2.84558,13.85565,2.17214,20.6882-1.16145,11.76327-6.14558,19.94845-8.5403,23.88122-10.01763,16.45114-20.89359,29.89323-32.40882,44.12314-4.25246,5.25671-8.61576,10.64886-13.09388,16.38499-5.90629,7.56564-13.25956,16.98395-21.9326,30.05706-8.66944,13.06345-16.60045,26.62664-23.58165,40.3151-9.99639,19.61142-15.01374,32.93619-16.66238,37.31355-.88177,2.33655-1.06617,2.82609-2.11086,3.27591l.00004-.00005Z" fill="#f2f2f2"/><path d="M655.67184,117.67847c-.17262-.11823-.34448-.24196-.51274-.37534-3.45157-2.64778-5.30095-7.06618-5.49996-13.1317-.08865-2.85023,.68377-5.50314,2.2243-10.79385,.23615-.81641,1.48138-4.92666,4.01568-10.01976,1.65484-3.32862,2.57808-4.56194,3.94867-5.27157,1.52361-.792,3.20127-.92297,4.82033-.67748,.22247-.43937,.54987-.82494,1.01454-1.12862,1.91914-1.26374,3.66849,.27255,4.6241,1.09006,.47692,.42325,1.06922,.95571,1.79739,1.40008,1.14214,.7038,1.96128,.78174,3.19912,.90498,1.18476,.11708,2.6579,.26263,4.46879,1.02593,3.57934,1.4915,5.5955,4.17655,6.2608,5.06087,3.51303,4.63405,3.33342,9.70967,3.12445,15.58627-.04513,1.17667-.31683,5.38612-1.95275,10.2915-1.1801,3.53903-2.20004,4.7726-3.12481,5.57622-1.89435,1.65508-3.90519,1.96844-8.7499,2.38173-5.06399,.43817-7.60355,.65511-9.55547,.50766-4.53941-.34974-7.38993-.56924-10.10247-2.42707l-.00007,.0001Z" fill="#f2f2f2"/></g><path d="M635.56204,0H349.60208c-10.48999,0-19.02002,8.52997-19.02002,19.01996V313.97998c0,10.48999,8.53003,19.02002,19.02002,19.02002h285.95996c10.48999,0,19.02002-8.53003,19.02002-19.02002V19.01996c0-10.48999-8.53003-19.01996-19.02002-19.01996Zm17.02002,313.97998c0,9.3999-7.62012,17.02002-17.02002,17.02002H349.60208c-9.3999,0-17.02002-7.62012-17.02002-17.02002V19.01996c0-9.39986,7.62009-17.01996,17.01996-17.01996h151.47217c83.67549,0,151.50787,67.83239,151.50787,151.50787v160.47211Z" fill="#3f3d56"/><path id="b-42" d="M324.52982,221.68488c-10.02271,2.70906-16.74914,10.07644-15.02403,16.45467,1.72511,6.37824,11.2474,9.35107,21.27332,6.6397,4.0198-1.02815,7.73493-3.00401,10.83456-5.76229l42.32169-12.01471-6.06147-19.74015-41.07815,13.94016c-4.06852-.82103-8.27452-.65555-12.26591,.48262Z" fill="#ffb6b6"/><path d="M501.8824,162.46163s11.94867,17.52796-14.9802,30.7505c-26.92887,13.22255-76.70697,32.09424-76.70697,32.09424l-68.73045,15.92312-10.37914-22.75481,81.55524-22.22032,66.45681-37.08764,22.78472,3.2949Z" fill="#3f3d56"/><path d="M493.88776,115.80732c-.30559,8.30862,5.67572,18.17153,11.99981,18.37403,7.60788,.24368,43.57329,2.80519,44.7295-.17782,8.02756-20.71108-29.77817-63.67396-38.29999-64.91337-4.57957-.66601-10.06335,5.9092-12.17165,11.33725-2.95447,7.6066,1.40568,11.19382-1.05525,21.44145-1.87658,7.81446-4.9888,8.12999-5.20242,13.93846Z" fill="#2f2e41"/><g><polygon points="431.28364 443.34029 406.04145 449.12499 431.40525 524.38518 448.51015 520.46647 431.28364 443.34029" fill="#ffb6b6"/><path d="M422.26383,500.91484l9.76292,1.43186,1.50498,5.22972s.32536-6.65233,11.10799-11.21113l2.80283,4.68076s5.77229,3.71423,7.63765,12.92025l4.14219,24.90083-8.47672,2.24884-6.22014-16.35906s-3.4225-3.12878-8.86656,18.03551c0,0-2.20451,7.11265-22.20382,6.28871-2.74878-.11324-5.16739-1.94721-5.90103-4.59869-.40487-1.46326-.22585-2.97603,1.46219-3.98974,4.29683-2.58036,9.29382-2.33856,11.22161-6.92485,1.92779-4.58628,2.02591-32.65302,2.02591-32.65302Z" fill="#2f2e41"/></g><g><polygon points="486.12311 477.55704 463.58206 477 466.73762 556.24943 484.28287 556.5622 486.12311 477.55704" fill="#ffb6b6"/><path d="M463.51301,531.26895l9.13143,3.73923,.20221,5.4382s1.91669-6.37854,13.47952-8.2085l1.59403,5.2177s4.70882,4.99418,4.30392,14.37856l-1.97195,25.16586-8.76879,.14282-2.10052-17.37518s-2.56897-3.86046-12.94625,15.37173c0,0-3.85139,6.3731-23.06467,.76053-2.64074-.77141-4.54693-3.13352-4.62093-5.88363-.04084-1.51769,.49697-2.94292,2.37935-3.52061,4.79152-1.47049,9.58347-.03327,12.5583-4.02085,2.97483-3.98757,9.82435-31.20587,9.82435-31.20587Z" fill="#2f2e41"/></g><polygon points="532.63681 390.99653 413.4231 381.77201 446.97142 244.24061 527.23659 232.67571 532.63681 390.99653" fill="#2f2e41"/><polygon points="516.19567 138.19287 541.31393 124.81105 561.59749 148.76053 520.83803 279.39998 446.27901 246.38557 502.90896 149.57106 516.19567 138.19287" fill="#d9376e"/><path d="M519.37917,255.81245s7.99865,41.24344-16.76982,62.67993l-7.58177,24.10429-8.18624,44.49141,.74071,114.91192-30-3-12-109.99601-.14266-54.74468-44.28904,37.92731,46.35131,91.03876-37.7688,16.53838-46.12859-109.70919c-3.20519-6.68292-2.35048-14.60438,2.20651-20.44978l80.46822-103.21922,73.10016,9.42688Z" fill="#2f2e41"/><path d="M550.47747,135.63075l-49.24818,45.94569c-11.65539,94.57932-5.29297,181.42607,28.24251,256.61101l82.75742-38.35635c-68.24059-20.69727-61.54814-134.34365-48.30715-256.11285l-13.4446-8.08749Z" fill="#3f3d56"/><polygon points="508.00574 149.72218 515.58206 138 473.67989 162.63479 440.54605 254.45608 501.66832 178.17982 508.00574 149.72218" fill="#3f3d56"/><path id="c-43" d="M612.82155,322.43614c2.88799,9.97263,10.37455,16.56614,16.72089,14.72717,6.34634-1.83898,9.1483-11.41293,6.25795-21.38873-1.09992-4.00076-3.14194-7.67994-5.95525-10.72971l-12.77013-42.09991-19.62852,6.41375,14.67302,40.82212c-.74809,4.08256-.50737,8.28493,.70204,12.25531Z" fill="#ffb6b6"/><path d="M548.56444,144.69881s17.17736-12.44743,31.16828,14.09036c13.99092,26.53779,34.28526,75.75303,34.28526,75.75303l17.89161,68.2445-22.44715,11.02874-24.55474-80.88303-38.98205-65.3636,2.63879-22.87Z" fill="#3f3d56"/><circle cx="528.1389" cy="95.83832" r="27.89568" fill="#ffb6b6"/><path d="M528.23094,84.95502c-1.57021-.15487-2.37744,1.50548-8.37414,3.82202-2.12452,.82072-3.21224,1.23267-4.46007,1.31286-3.7932,.2437-6.74134-1.85136-8.71154-3.25151-3.20255-2.27592-5.26566-3.742-5.66863-6.08582-.52588-3.0586,2.93672-6.47533,9.88334-13.18386,3.40194-3.28538,5.47494-5.26989,8.80359-7.63179,5.58326-3.96168,8.37488-5.94247,12.2882-6.33118,5.18313-.51474,9.12363,1.95859,14.80962,5.52757,1.53612,.96418,3.75083,1.42786,6.09874,1.60456,7.68606,.57843,14.27526,5.70138,16.36557,13.12033,.1597,.56681,.29388,1.07986,.39451,1.51919,4.1263,18.01381,2.97494,36.7499-2.67183,54.34643-.152,.47367-.27918,.91469-.37757,1.31662-2.62308,10.71632-38.65605,14.89376-42.87064,5.83419-2.65394-5.70476,9.74899-11.41278,11.60114-28.42293,1.28943-11.84192-3.19345-23.11047-7.11029-23.49665Z" fill="#2f2e41"/><rect x="117.33012" y="91.25305" width="302.25197" height="1.54937" fill="#e6e6e6"/><g><path d="M376.91173,68.60039H160.00048c-3.41723,0-6.19746-2.78023-6.19746-6.19746s2.78023-6.19746,6.19746-6.19746h216.91125c3.41723,0,6.19746,2.78023,6.19746,6.19746s-2.78023,6.19746-6.19746,6.19746Z" fill="#e6e6e6"/><circle cx="118" cy="90.58301" r="13" fill="#e6e6e6"/><circle cx="158" cy="62.58301" r="13" fill="#e6e6e6"/></g><rect x="15.33012" y="236.25305" width="302.25197" height="1.54937" fill="#3f3d56"/><g><path d="M274.91173,213.60039H58.00048c-3.41723,0-6.19746-2.78023-6.19746-6.19746s2.78023-6.19746,6.19746-6.19746h216.91125c3.41723,0,6.19746,2.78023,6.19746,6.19746s-2.78023,6.19746-6.19746,6.19746Z" fill="#d9376e"/><circle cx="13" cy="235.58301" r="13" fill="#d9376e"/><circle cx="53" cy="207.58301" r="13" fill="#d9376e"/></g><rect x="51.33012" y="396.25305" width="302.25197" height="1.54937" fill="#e6e6e6"/><g><path d="M310.91173,373.60039H94.00048c-3.41723,0-6.19746-2.78023-6.19746-6.19746s2.78023-6.19746,6.19746-6.19746h216.91125c3.41723,0,6.19746,2.78023,6.19746,6.19746s-2.78023,6.19746-6.19746,6.19746Z" fill="#e6e6e6"/><circle cx="88" cy="366.58301" r="13" fill="#e6e6e6"/><circle cx="49" cy="396.58301" r="13" fill="#e6e6e6"/></g></svg>