<svg xmlns="http://www.w3.org/2000/svg" data-name="Layer 1" width="994.33914" height="584.67154" viewBox="0 0 994.33914 584.67154" xmlns:xlink="http://www.w3.org/1999/xlink"><rect y="582.43082" width="324.03261" height="2.24072" fill="#3f3d56"/><path d="M1088.16957,639.66423h-806a9.00984,9.00984,0,0,1-9-9v-464a9.00984,9.00984,0,0,1,9-9h806a9.00984,9.00984,0,0,1,9,9v464A9.00984,9.00984,0,0,1,1088.16957,639.66423Zm-806-480a7.00818,7.00818,0,0,0-7,7v464a7.00818,7.00818,0,0,0,7,7h806a7.0085,7.0085,0,0,0,7-7v-464a7.00849,7.00849,0,0,0-7-7Z" transform="translate(-102.83043 -157.66423)" fill="#3f3d56"/><path d="M601.29407,507.91423H346.66956a8.50982,8.50982,0,0,1-8.5-8.5v-157a8.50982,8.50982,0,0,1,8.5-8.5H601.29407a8.50981,8.50981,0,0,1,8.5,8.5v157A8.50981,8.50981,0,0,1,601.29407,507.91423Z" transform="translate(-102.83043 -157.66423)" fill="#e6e6e6"/><path d="M256.93275,540.7736a6.501,6.501,0,0,1-5.46728-2.96582l-8.02-12.39062a6.50908,6.50908,0,0,1,1.92529-8.98926l103.26953-66.84277a6.50783,6.50783,0,0,1,8.98828,1.92578l8.02,12.39062a6.49874,6.49874,0,0,1-1.92529,8.98828l-103.269,66.84278A6.45794,6.45794,0,0,1,256.93275,540.7736Z" transform="translate(-102.83043 -157.66423)" fill="#d9376e"/><path d="M260.15126,538.9052l43.16939-24.10492a6,6,0,0,0,2.44627-7.91217l-10.00078-20.09276a6,6,0,0,0-9.03592-2.07743l-41.12561,31.72085a6.01089,6.01089,0,0,0-1.77965,8.295l8.02158,12.393A6.01072,6.01072,0,0,0,260.15126,538.9052Z" transform="translate(-102.83043 -157.66423)" fill="#ccc"/><circle cx="200.20446" cy="20.23986" r="7" fill="#d9376e"/><circle cx="220.20446" cy="20.23986" r="7" fill="#d9376e"/><circle cx="240.20446" cy="20.23986" r="7" fill="#d9376e"/><rect x="171.33912" y="37" width="822.00002" height="5" fill="#3f3d56"/><path d="M365.04505,322.91423a7.5082,7.5082,0,0,0-7.5,7.5v157a7.5082,7.5082,0,0,0,7.5,7.5H619.66956a7.5082,7.5082,0,0,0,7.5-7.5v-157a7.5082,7.5082,0,0,0-7.5-7.5Z" transform="translate(-102.83043 -157.66423)" fill="#3f3d56"/><path d="M729.66956,324.41423a5.5,5.5,0,0,0,0,11h297a5.5,5.5,0,0,0,0-11Z" transform="translate(-102.83043 -157.66423)" fill="#d9376e"/><path d="M729.66956,359.41423a5.5,5.5,0,0,0,0,11h297a5.5,5.5,0,0,0,0-11Z" transform="translate(-102.83043 -157.66423)" fill="#d9376e"/><path d="M729.66956,394.41423a5.5,5.5,0,0,0,0,11h297a5.5,5.5,0,0,0,0-11Z" transform="translate(-102.83043 -157.66423)" fill="#d9376e"/><path d="M729.66956,429.41423a5.5,5.5,0,0,0,0,11h297a5.5,5.5,0,0,0,0-11Z" transform="translate(-102.83043 -157.66423)" fill="#e6e6e6"/><path d="M729.66956,464.41423a5.5,5.5,0,0,0,0,11h297a5.5,5.5,0,0,0,0-11Z" transform="translate(-102.83043 -157.66423)" fill="#e6e6e6"/><path d="M729.66956,499.41423a5.5,5.5,0,0,0,0,11h297a5.5,5.5,0,0,0,0-11Z" transform="translate(-102.83043 -157.66423)" fill="#e6e6e6"/><circle cx="153.12098" cy="250.2743" r="53.51916" fill="#d9376e"/><path d="M247.51869,741.28435H232.75892a6.50753,6.50753,0,0,1-6.5-6.5V611.7697a6.50753,6.50753,0,0,1,6.5-6.5h14.75977a6.50753,6.50753,0,0,1,6.5,6.5V734.78435A6.50753,6.50753,0,0,1,247.51869,741.28435Z" transform="translate(-102.83043 -157.66423)" fill="#2f2e41"/><path d="M276.71107,741.28435H261.95131a6.50753,6.50753,0,0,1-6.5-6.5V611.7697a6.50752,6.50752,0,0,1,6.5-6.5h14.75976a6.50752,6.50752,0,0,1,6.5,6.5V734.78435A6.50753,6.50753,0,0,1,276.71107,741.28435Z" transform="translate(-102.83043 -157.66423)" fill="#2f2e41"/><path d="M288.87465,625.73161h-67.0625a6.50752,6.50752,0,0,1-6.5-6.5V506.133A35.91777,35.91777,0,0,1,251.1891,470.256h37.68555a6.50753,6.50753,0,0,1,6.5,6.5V619.23161A6.50753,6.50753,0,0,1,288.87465,625.73161Z" transform="translate(-102.83043 -157.66423)" fill="#ccc"/><path d="M302.66664,422.80778l-.05566-2c3.7207-.10351,7.001-.33691,9.46582-2.13769a6.148,6.148,0,0,0,2.38134-4.52832,3.51431,3.51431,0,0,0-1.15283-2.89453c-1.63574-1.38282-4.26855-.93555-6.188-.05469l-1.65478.75879,3.17334-23.19043,1.98144.27148L307.9181,408.759c2.60791-.76661,5.02344-.4375,6.67823.96093a5.471,5.471,0,0,1,1.86035,4.49219,8.13264,8.13264,0,0,1-3.2002,6.07324C310.08949,422.59978,305.97377,422.715,302.66664,422.80778Z" transform="translate(-102.83043 -157.66423)" fill="#2f2e41"/><rect x="183.58621" y="233.06934" width="10.77148" height="2" fill="#2f2e41"/><path d="M317.87465,616.90739a6.52118,6.52118,0,0,1-5.75049-3.457l-57.665-108.66113a6.50773,6.50773,0,0,1,2.69531-8.78809l13.03711-6.91894a6.50934,6.50934,0,0,1,8.78906,2.69433l57.66456,108.66114a6.50858,6.50858,0,0,1-2.69483,8.78906l-13.0376,6.91894A6.47017,6.47017,0,0,1,317.87465,616.90739Z" transform="translate(-102.83043 -157.66423)" fill="#d9376e"/><path d="M250.30991,504.559l25.28261,45.09167a6,6,0,0,0,7.67107,3.12114l20.88212-8.22629a6,6,0,0,0,2.85081-8.82249L278.9498,490.0091a6.01088,6.01088,0,0,0-8.1101-2.49012l-18.04,8.92017A6.01071,6.01071,0,0,0,250.30991,504.559Z" transform="translate(-102.83043 -157.66423)" fill="#ccc"/><path d="M287.72,368.80751c6.45521-.60006,11.85966-4.87478,14.72563-10.59509a21.69015,21.69015,0,0,0,.07989-19.05759,30.50943,30.50943,0,0,0-14.38929-14.20733c-7.29512-3.53352-15.53368-4.51176-23.5583-4.18772-15.12145.6106-31.78114,4.85585-41.07673,17.74979a27.83568,27.83568,0,0,0-5.29127,20.4135c1.17624,7.593,5.79765,14.16888,10.73187,19.837,5.17144,5.94056,11.139,11.291,15.22625,18.09644,3.53655,5.88853,5.439,13.30384,3.07325,19.98607a14.38321,14.38321,0,0,1-2.47409,4.35157c-1.22318,1.47607.88782,3.60984,2.12132,2.12132,4.25588-5.13577,5.11631-11.91521,3.77614-18.30533-1.47546-7.03515-5.73169-12.98289-10.38579-18.29624-9.056-10.3388-22.54311-21.62811-18.7367-37.07346a29.76292,29.76292,0,0,1,11.49967-16.57305c6.05317-4.38873,13.24027-6.80335,20.54341-8.11464,13.97516-2.50926,30.89912-2.24692,41.45785,8.64189,4.38837,4.52555,7.40666,10.84888,6.59828,17.26656-.729,5.78709-4.424,11.46312-9.82635,13.87687a13.06578,13.06578,0,0,1-4.095,1.06949c-1.90615.1772-1.92468,3.17892,0,3Z" transform="translate(-102.83043 -157.66423)" fill="#2f2e41"/></svg>