<svg xmlns="http://www.w3.org/2000/svg" data-name="Layer 1" width="853.5621" height="645.77561" viewBox="0 0 853.5621 645.77561" xmlns:xlink="http://www.w3.org/1999/xlink"><path d="M1025.59037,760.14146h-340.294a1.19069,1.19069,0,0,1,0-2.38137h340.294a1.19068,1.19068,0,0,1,0,2.38137Z" transform="translate(-173.21895 -127.1122)" fill="#3f3d56"/><circle cx="691.75932" cy="455.64572" r="33" fill="#2f2e41"/><circle cx="692.42861" cy="467.00005" r="24.56103" fill="#a0616a"/><path d="M902.97827,629.75792s-45-8-74,2l8.5,67.5-2,11,60-2-4-11Z" transform="translate(-173.21895 -127.1122)" fill="#a0616a"/><path d="M871.70654,702.59679a302.54134,302.54134,0,0,1-30.99853-1.96407,8.49227,8.49227,0,0,1-7.56155-8.64531l.73-31.56738.085-.12305c8.69444-12.59343,4.45926-21.79141,1.20163-26.74331a6.39683,6.39683,0,0,1-1.05221-3.52231h0c-.49961-.69537-.61243.4051-.30187-.37928a2.50994,2.50994,0,0,1,1.83605-1.53769l4.96411-.99221a2.499,2.499,0,0,1,2.85815,1.65136c1.668,4.97657,8.16934,20.99082,23.06617,20.98731,12.44482-.00293,17.08862-17.61133,17.36694-21.68066a2.50269,2.50269,0,0,1,2.49267-2.32227h6.20056a2.61678,2.61678,0,0,1,2.06638.93431,2.48006,2.48006,0,0,1,.24381,2.75125c-7.07642,13.00976,3.26513,33.5957,3.37036,33.80175l.0664.12989-2.91772,30.293a8.54056,8.54056,0,0,1-6.57446,7.47656C884.33618,702.20616,878.23926,702.59679,871.70654,702.59679Z" transform="translate(-173.21895 -127.1122)" fill="#ccc"/><path d="M814.60327,772.8878c-6.71973.001-12.87231-.74023-17.75952-2.48926-5.80957-2.0791-9.458-5.4414-10.84375-9.99511a13.20056,13.20056,0,0,1,1.60644-11.67285c8.59473-12.87012,38.42066-16.49707,42.42285-16.92871l2.12012-17.667a8.53092,8.53092,0,0,1,8.30664-7.48633l50.23194-.78417a8.4213,8.4213,0,0,1,8.4956,6.97753l2.85449,15.7002-32.938,15.96973,4.98022,13.94531-.32471.2168C864.1145,765.10167,836.39184,772.88683,814.60327,772.8878Z" transform="translate(-173.21895 -127.1122)" fill="#2f2e41"/><path d="M897.47827,726.25792s46-6,43,18-38,41-91,0l6-12s30,8,42,2Z" transform="translate(-173.21895 -127.1122)" fill="#2f2e41"/><path d="M856.47827,735.25792s0-12-10-11-28,2-28,2-6,4,2,6,32,12,32,12Z" transform="translate(-173.21895 -127.1122)" fill="#a0616a"/><path d="M873.47827,733.25792s0-12,10-11,28,2,28,2,6,4-2,6-32,12-32,12Z" transform="translate(-173.21895 -127.1122)" fill="#a0616a"/><path d="M933.39966,730.98485l-14.92139-51.72693s-3-18-6-35-14-15-14-15l-2,1v27l2,25,19.96533,54.9043a10.50111,10.50111,0,1,0,14.95606-6.17737Z" transform="translate(-173.21895 -127.1122)" fill="#a0616a"/><path d="M832.47827,631.25792s-11-2-14,15-6,35-6,35l-14.92139,51.727a10.49555,10.49555,0,1,0,14.95606,6.17731l19.96533-54.9043,2-25V634.494a3.618,3.618,0,0,0-2-3.23607Z" transform="translate(-173.21895 -127.1122)" fill="#a0616a"/><path d="M841.33491,579.02381a73.04115,73.04115,0,0,0,31.59919,10.4119l-3.33084-3.991a24.47745,24.47745,0,0,0,7.5611,1.50142,8.28066,8.28066,0,0,0,6.74954-3.15917,7.70229,7.70229,0,0,0,.51556-7.115,14.58851,14.58851,0,0,0-4.58936-5.7385,27.32287,27.32287,0,0,0-25.43066-4.54493,16.32982,16.32982,0,0,0-7.59543,4.8722,9.2358,9.2358,0,0,0-1.86255,8.56086" transform="translate(-173.21895 -127.1122)" fill="#2f2e41"/><path d="M868.08442,553.42116a75.48458,75.48458,0,0,0-27.463-17.7592c-6.63872-2.45942-13.86459-3.979-20.80509-2.58226s-13.50412,6.19807-15.44041,13.00778c-1.58332,5.56836.05158,11.56379,2.50871,16.80555s5.73758,10.10247,7.72462,15.53986a35.46792,35.46792,0,0,1-35.689,47.56226c6.81937.91438,13.10515,4.11905,19.77076,5.82483s14.53281,1.59011,19.48624-3.18519c5.24091-5.05243,5.34584-13.26718,5.09245-20.54248q-.565-16.22249-1.13-32.445c-.19209-5.51543-.35614-11.20763,1.63289-16.35551s6.71617-9.65569,12.23475-9.60884c4.18253.0355,7.88442,2.56925,11.23865,5.068s6.90446,5.16473,11.0706,5.53641,8.92292-2.71145,8.61118-6.8825" transform="translate(-173.21895 -127.1122)" fill="#2f2e41"/><path d="M648.71895,736.1122h-440a35.54021,35.54021,0,0,1-35.5-35.5v-538a35.5402,35.5402,0,0,1,35.5-35.5h440a35.54028,35.54028,0,0,1,35.5,35.5v538A35.54028,35.54028,0,0,1,648.71895,736.1122Z" transform="translate(-173.21895 -127.1122)" fill="#e6e6e6"/><path d="M635.71895,712.1122h-414a16.51867,16.51867,0,0,1-16.5-16.5v-496a16.51866,16.51866,0,0,1,16.5-16.5h414a16.51867,16.51867,0,0,1,16.5,16.5v496A16.51868,16.51868,0,0,1,635.71895,712.1122Z" transform="translate(-173.21895 -127.1122)" fill="#fff"/><path d="M504.44844,359.57808c-6.72558-16.10132-17.17187-29.53174-32.335-38.4339-15.93115-9.35291-34.11719-17.14118-52.439-19.95062a136.79876,136.79876,0,0,0-54.96485,3.07629c-8.64013,2.238-18.165,4.83722-25.45215,10.19513-6.96631,5.12189-11.73828,13.54773-15.623,21.11706-3.72217,7.25165-6.04248,15.23713-4.02784,23.35883,1.85645,7.48468,7.04737,13.71808,12.98438,18.40857,5.30371,4.18988,12.72119,9.73633,19.81543,7.13971a5.52933,5.52933,0,0,0,1.14551-.57813c12.25146,3.72779,24.43213-1.69354,37.0083-5.93811,7.64306-2.57977,15.32812-3.884,23.0039-.66436,7.563,3.1723,13.71875,9.40533,18.23047,16.12262,4.29248,6.39038,7.11768,13.64526,11.82666,19.77081a28.0933,28.0933,0,0,0,19.85791,11.2135c15.19629,1.70032,35.36475.13428,44.11914-14.25378C516.927,394.82991,510.823,374.83845,504.44844,359.57808Zm-155.1167-23.54669q3.38086.38388,6.76221.7666a25.00253,25.00253,0,0,0-11.65332,5.46393,29.68784,29.68784,0,0,0-3.52295,3.51965c.03076-.10291.04883-.20087.082-.30487A15.72531,15.72531,0,0,1,349.33174,336.03139Zm75.66748,14.39325a3.86773,3.86773,0,0,0,1.69971.72509c.07227.01184.144.02545.21631.03736q.62841.36081,1.26074.715c-.04785.06623-.0835.13929-.12891.20722-1.03027-.10657-2.06152-.20862-3.09228-.31226A5.4239,5.4239,0,0,0,424.99922,350.42464ZM452.27461,382.678a4.51518,4.51518,0,0,0-.59863.79108q-.15234-.21992-.30371-.44031A2.98505,2.98505,0,0,1,452.27461,382.678Zm17.61573,19.06561q1.53222.20142,3.064.40271a3.87136,3.87136,0,0,0-.41553,1.06238c-.72363.02368-1.45361.03589-2.18408.03876Zm14.79443-8.69415q.61669-.10582,1.23291-.21173a4.48708,4.48708,0,0,0,1.80225-.71594c.00244.07226.0083.1452.01123.21741.00879.24633.03222.55334.063.90313-.10058.17646-.20263.35205-.31054.526Q486.08394,393.409,484.68477,393.04945Zm-52.53711-54.332a5.8843,5.8843,0,0,0-1.64111-.96545,70.96217,70.96217,0,0,0-8.86963-2.77381q-.67749-.63628-1.32227-1.30645a71.41034,71.41034,0,0,1,7.53614,1.9179,87.75017,87.75017,0,0,1,9.32617,3.58649Q434.66035,338.89547,432.14766,338.71748Zm28.30078,1.89618q-2.21484-1.38437-4.458-2.71771,2.29908,1.29556,4.53321,2.71625Zm30.51465,13.9267a106.46358,106.46358,0,0,0-13.08887-13.40546,6.516,6.516,0,0,0,.54151-2.67139A67.26359,67.26359,0,0,1,490.96309,354.54036ZM434.0544,314.89857c-.62549-.14453-1.25147-.29028-1.87793-.43164-5.94922-1.34289-12.00977-2.78955-18.125-4.017.32812.03882.65625.07013.98389.11188A105.589,105.589,0,0,1,434.0544,314.89857Z" transform="translate(-173.21895 -127.1122)" fill="#d9376e"/><circle cx="255.5" cy="26.5" r="12" fill="#fff"/><path d="M306.677,625.52511c-.0041-.00009-.00888,0-.01366,0a1.86072,1.86072,0,0,0-1.20288.44766l-11.63943,10.77169V626.23857a.7131.7131,0,0,0-.71312-.71346h-2.88186a.71311.71311,0,0,0-.71312.71346v25.18052a.71311.71311,0,0,0,.71312.71346h2.86751a.71369.71369,0,0,0,.71381-.71346v-10.436l11.63875,10.71576a1.8484,1.8484,0,0,0,1.20356.43366,1.8887,1.8887,0,0,0,1.916-1.86033v-22.8306A1.90209,1.90209,0,0,0,306.677,625.52511Z" transform="translate(-173.21895 -127.1122)" fill="#d9376e"/><path d="M569.94,625.59487l-.01435.00017h-2.79783a.71337.71337,0,0,0-.71346.71337v10.45l-11.6391-10.71567a1.87377,1.87377,0,0,0-1.21688-.44766v-.06993a1.90215,1.90215,0,0,0-1.91634,1.8885c-.00034.00931-.00034.0187,0,.028V650.3a1.90261,1.90261,0,0,0,1.90234,1.9026l.014-.00009a1.86053,1.86053,0,0,0,1.21688-.43366l11.6391-10.78569V651.489a.71339.71339,0,0,0,.71346.71346h2.79783a.71351.71351,0,0,0,.72747-.69929V626.3085A.7133.7133,0,0,0,569.94,625.59487Z" transform="translate(-173.21895 -127.1122)" fill="#d9376e"/><rect x="243.6092" y="498.97251" width="11.28902" height="26.49551" rx="2.79784" fill="#d9376e"/><path d="M440.60975,626.08471h-5.7357a2.79786,2.79786,0,0,0-2.79783,2.79784v20.89983a2.79792,2.79792,0,0,0,2.79783,2.79784h5.7357a2.79793,2.79793,0,0,0,2.79784-2.79784V628.88255A2.79787,2.79787,0,0,0,440.60975,626.08471Z" transform="translate(-173.21895 -127.1122)" fill="#d9376e"/><path d="M596.12049,596.63742H264.11524a2.567,2.567,0,0,1,0-5.13392H596.12049a2.567,2.567,0,1,1,0,5.13392Z" transform="translate(-173.21895 -127.1122)" fill="#d9376e"/><path d="M362.79508,602.23315a8.16969,8.16969,0,1,1,8.15567-8.18368v.014A8.16968,8.16968,0,0,1,362.79508,602.23315Z" transform="translate(-173.21895 -127.1122)" fill="#ccc"/><path d="M360.369,597.99331H262.673a3.92285,3.92285,0,0,1,0-7.84569H360.369a2.05753,2.05753,0,0,1,2.055,2.05534v3.735A2.05753,2.05753,0,0,1,360.369,597.99331Z" transform="translate(-173.21895 -127.1122)" fill="#ccc"/><path d="M439.22629,484.89524c-5.66248-.15805-12.70974-.35623-18.13557-4.31992a13.929,13.929,0,0,1-5.4806-10.4001,9.36887,9.36887,0,0,1,3.186-7.69407c2.83521-2.39494,6.97493-2.95939,11.437-1.64653l-4.62264-33.78253,3.39339-.46494,5.43461,39.71553-2.83354-1.30033c-3.28552-1.50687-7.79526-2.27285-10.59786.0945a6.01721,6.01721,0,0,0-1.9739,4.95712,10.527,10.527,0,0,0,4.07784,7.75512c4.2225,3.08566,9.83982,3.4837,16.21141,3.66266Z" transform="translate(-173.21895 -127.1122)" fill="#3f3d56"/><rect x="217.16236" y="302.85329" width="18.44747" height="3.42517" fill="#3f3d56"/><rect x="275.39017" y="302.85329" width="18.44747" height="3.42517" fill="#3f3d56"/><path d="M358.33168,382.66807c-14.85532-1.694-26.36043-15.92741-27.6241-30.36917-1.50335-17.18082,8.50226-33.49868,22.22919-43.1398,14.35519-10.08239,32.2404-14.29281,49.54512-15.21965A136.16645,136.16645,0,0,1,495.55754,324.618c12.96672,10.76951,25.07677,24.488,29.66656,41.05819,3.986,14.39053.7424,30.69313-10.83164,40.77182a27.36058,27.36058,0,0,1-20.99619,6.46453c-8.98059-.93249-17.26665-5.65456-24.43923-10.86959-13.95215-10.14433-25.40617-24.27635-42.40438-29.57745-12.46369-3.88694-28.63778-.46556-36.25435,10.80553a20.51508,20.51508,0,0,0-3.27547,8.59487,2.66035,2.66035,0,0,0,1.7942,3.16,2.58484,2.58484,0,0,0,3.16-1.7942c1.99958-14.19626,19.45519-19.49352,31.70427-16.25154,17.85976,4.727,29.84883,20.66421,44.502,30.78973,7.70407,5.32359,16.46657,9.58032,25.91554,10.344a32.18089,32.18089,0,0,0,22.61171-6.94638c12.51828-9.88485,17.3056-26.8865,14.53749-42.19366-3.2055-17.72591-15.13622-32.91808-28.22675-44.68a141.197,141.197,0,0,0-96.49371-35.64633c-18.10813.41592-37.00223,4.15413-52.6023,13.725-15.132,9.28371-26.82771,24.81534-28.35635,42.86926-1.34549,15.89095,7.18031,32.512,21.81561,39.47391a34.16406,34.16406,0,0,0,10.94707,3.09009c3.2795.374,3.25278-4.76682,0-5.13775Z" transform="translate(-173.21895 -127.1122)" fill="#3f3d56"/></svg>