<svg xmlns="http://www.w3.org/2000/svg" width="485.36914" height="546.10046" viewBox="0 0 485.36914 546.10046" xmlns:xlink="http://www.w3.org/1999/xlink"><g><path d="M151.30949,330.92163l7.29926-9.73233c.20131-.2684,.31013-.59494,.31013-.93039,5.34731-17.3363,5.07291-35.17688,0-53.44843,0-1.64963-2.23421-2.15839-2.94843-.67133l-5.84529,12.17056c-.8325,1.73337-3.4514,.70157-2.87784-1.13385v-.00003c.04678-.14972,.07059-.30566,.07059-.46252,5.24661-12.43442,3.64166-29.07744,0-46.97198,0-1.71399-2.37012-2.16116-2.99466-.56511l-19.34327,49.43282c-.40749,1.04135-1.74977,1.32214-2.54049,.53143l-1.97003-1.97003c-.4963-.49631-.60257-1.2612-.24858-1.86725,3.19794-5.47519,17.09552-32.89874-.38257-70.34387-.14922-.31969-.40568-.58365-.72107-.74173l-11.96741-5.99805c-1.05424-.52838-2.29007,.25841-2.24436,1.43675,.28224,7.27637,.66382,28.16415-3.34281,43.21729-.47978,1.80255-3.14642,1.386-3.04958-.47679,.6114-11.7605-1.0275-30.32762-14.49525-44.20715-.31811-.32784-.76558-.50023-1.2214-.47012-4.25063,.28078-26.41951,2.13022-39.42657,10.78963-.64357,.42845-.84782,1.28302-.50207,1.97453l1.75628,3.51256c.59247,1.18494-.47778,2.51912-1.76302,2.19781l-6.07057-1.51764c-.60898-.15225-1.24511,.07896-1.62203,.58093-2.01611,2.68498-7.59085,11.2628-.26271,15.6313,.5364,.31976,.79701,.95355,.69301,1.56931-1.11872,6.6241-3.63096,42.02521,66.07075,58.3905,1.81316,.42572,1.47688,3.10156-.38503,3.05615l-29.93117-.73004c-1.49017-.03635-2.17304,1.8443-1.00113,2.76547,12.06477,9.48346,51.62181,39.17856,74.48203,39.65347,.35925,.00745,.70531-.11484,.98894-.33545l5.19785-4.04276c.1088-.08463,.20583-.18335,.28851-.29361l-.00002-.00006Z" fill="#f2f2f2"/><path d="M185.04688,527.78711l-1.98438-.25586c.06152-.47266,5.9375-47.9707-8.05664-109.61328-12.90723-56.85156-45.8457-137.71729-129.47217-200.10449l1.19629-1.60303c37.15234,27.7168,67.54443,61.34424,90.33154,99.94775,18.22852,30.88086,31.65625,64.99414,39.91211,101.39258,14.05566,61.97266,8.13379,109.76074,8.07324,110.23633Z" fill="#e6e6e6"/></g><g><path d="M329.92157,211.47128l9.90854-7.05818c.27328-.19466,.47604-.47275,.57785-.7924,10.35629-14.89589,15.50903-31.97836,16.2204-50.92773,.50064-1.57184-1.47382-2.73462-2.60565-1.53444l-9.26312,9.82268c-1.31927,1.39899-3.50153-.37895-2.39801-1.95374v-.00002c.09003-.12846,.16003-.26981,.20764-.4193,8.77274-10.25577,12.29425-26.60094,14.25494-44.75673,.52017-1.63316-1.60248-2.77851-2.68192-1.44727l-33.43277,41.23125c-.70432,.86858-2.06848,.72876-2.58194-.26463l-1.27927-2.47498c-.32227-.6235-.19141-1.38458,.32983-1.85464,4.70871-4.24646,26.27332-26.1591,20.98325-67.14246-.04517-.34989-.20941-.67924-.46198-.92558l-9.58273-9.34701c-.84418-.8234-2.2605-.44877-2.57455,.68788-1.93927,7.01885-7.91467,27.03735-16.30063,40.16464-1.00418,1.57194-3.41864,.36576-2.76105-1.37978,4.15161-11.0203,8.2247-29.20915-.39578-46.52126-.20361-.40892-.57767-.70898-1.02112-.81862-4.13538-1.02243-25.82001-5.98796-40.84158-1.68429-.74323,.21294-1.1972,.96521-1.07761,1.72905l.60748,3.8799c.20493,1.30885-1.21973,2.25531-2.34686,1.55912l-5.3237-3.28835c-.53406-.32988-1.21036-.30262-1.72183,.06129-2.73586,1.94652-10.65086,8.42798-4.99406,14.81438,.41406,.46747,.47005,1.15045,.18408,1.70561-3.07622,5.97219-16.21341,38.94131,45.23457,75.6877,1.59845,.95589,.46597,3.40347-1.29434,2.79517l-28.29803-9.77902c-1.40887-.48686-2.63025,1.09785-1.79318,2.33122,8.61777,12.69759,37.29742,52.9969,58.93542,60.38696,.34006,.11613,.70688,.10461,1.0441-.01952l6.1796-2.27467c.12933-.04761,.25174-.11224,.36401-.19221Z" fill="#f2f2f2"/><path d="M302.32324,409.29102l-1.8125-.8457c.20215-.43164,20.21582-43.90723,25.58789-106.88867,4.95508-58.0874-1.88965-145.13574-62.63867-229.95996l1.62695-1.16406c26.98828,37.68457,45.74219,78.94971,55.73926,122.64844,7.99609,34.95605,10.43848,71.53564,7.25879,108.72266-5.41406,63.31543-25.55859,107.05273-25.76172,107.4873Z" fill="#e6e6e6"/></g><path d="M485.1709,519.70605H0V0H485.1709V519.70605Zm-482.1709-3H482.1709V3H3V516.70605Z" fill="#e6e6e6"/><rect x="241.58594" y="1.5" width="2" height="516.70605" fill="#e6e6e6"/><rect x=".36914" y="518.2063" width="485" height="27.89417" fill="#e6e6e6"/><path d="M242.36914,261.85059h47.5c1.9317,0,3.5,1.5683,3.5,3.5h0c0,1.9317-1.5683,3.5-3.5,3.5h-47.5v-7h0Z" fill="#e6e6e6"/><g><path d="M339.11536,354.83057c-4.14929-6.04749-12.47256-7.69666-19.76395-6.90659-7.29141,.7901-14.3002,3.46872-21.61487,4.00183-6.02866,.43939-12.0654-.59341-18.10995-.62869-7.85938-.04587-15.7243,1.62143-22.88904,4.85229-23.46686,10.58212-36.81987,37.01413-38.10832,62.72437-1.28845,25.71021,7.54817,50.84787,18.22951,74.26974,6.17314,13.53635,13.84698,27.63779,27.15683,34.28519,10.58209,5.2851,22.98169,4.94696,34.80136,4.49109,17.5918-.67853,35.18362-1.35699,52.77542-2.03552l25.44553-.98145c12.10107-.46674,24.31567-.94971,36.03018-4.01959,27.18787-7.12482,50.04865-28.9249,58.45615-55.74384,8.63309-27.53864,2.26593-58.18091-11.83942-83.35919-8.63535-15.41425-21.18628-29.98376-38.2197-34.67749-9.16171-2.5246-18.85144-1.98032-28.33786-1.41626-17.28616,1.02783-34.57233,2.05563-51.85849,3.08347" fill="#d9376e"/><g><path d="M334.73035,366.51489s-30.55075,7.96976-11.95465,7.96976,40.8215,0,40.33514-3.98489-32.36539-67.74295-36.35025-67.74295-26.56586,3.98489-17.26782,13.28293,25.23758,50.47516,25.23758,50.47516Z" fill="#3f3d56"/><g><path d="M342.13824,523.23993c-30.13867-22.10254-14.0957-133.58789-13.39746-138.32227l1.97852,.29102c-.16895,1.14844-16.57129,115.02441,12.60254,136.41797l-1.18359,1.61328Z" fill="#3f3d56"/><path d="M289.34821,513.40594c-23.45703-43.78711-14.23633-78.79492-2.37012-100.45312,12.83789-23.43262,31.49023-36.70605,31.67676-36.83789l1.15039,1.63672c-.18359,.12891-18.50391,13.18066-31.11035,36.22949-11.60156,21.21191-20.59961,55.51562,2.41699,98.47949l-1.76367,.94531Z" fill="#3f3d56"/><path d="M388.55231,522.75262l-1.89648-.63867c21.96191-65.27344-26.77441-142.86719-27.26855-143.64258l1.68555-1.07617c.125,.19629,12.61133,19.91895,22.17969,47.52344,8.84668,25.52246,16.94727,63.21387,5.2998,97.83398Z" fill="#3f3d56"/><path d="M445.85602,509.27802l-1.99609-.11328c3.4043-59.95312-14.48047-93.83301-30.08398-111.69727-16.8457-19.28613-34.6416-24.52148-34.81934-24.57227l.54688-1.92383c.75,.21387,18.54688,5.45215,35.7793,25.18066,15.84766,18.14453,34.0166,52.49902,30.57324,113.12598Z" fill="#3f3d56"/><path d="M241.2525,457.14618c-5.15625-23.66113-2.24316-43.50879,8.65918-58.99121,17.95703-25.5,51.84961-30.16895,52.18945-30.21289l.25781,1.98242c-.33203,.04395-33.38184,4.61523-50.82129,29.39551-10.55859,15.00391-13.36133,34.31641-8.33008,57.40039l-1.95508,.42578Z" fill="#3f3d56"/><path d="M316.8736,366.86786c-.36133-.1377-36.375-13.63477-53.37305-.15137l-1.24219-1.56641c17.88965-14.19043,53.80859-.73047,55.32812-.15137l-.71289,1.86914Z" fill="#3f3d56"/><path d="M349.23102,363.98209c-.00684-.13574-.49414-13.67188,14.8877-18.4248l.58984,1.91016c-13.86133,4.28418-13.50195,15.92578-13.47949,16.41895l-1.99805,.0957Z" fill="#3f3d56"/><path d="M365.21637,372.52997l-1.60547-1.19238c.18262-.24512,18.5625-24.48145,44.94629-15.34961l-.6543,1.89062c-24.98535-8.65039-42.5127,14.41699-42.68652,14.65137Z" fill="#3f3d56"/></g></g></g><g><path d="M105.65367,438.02576c-2.2812-3.32477-6.85716-4.23148-10.86582-3.79709-4.00866,.43436-7.86195,1.90704-11.88341,2.20013-3.31443,.24155-6.63331-.32623-9.95648-.34564-4.32092-.02521-8.6449,.89142-12.58392,2.66769-12.9016,5.81784-20.24281,20.34961-20.95117,34.48456s4.14983,27.95511,10.02221,40.83197c3.39387,7.44202,7.61279,15.1947,14.93027,18.8493,5.81782,2.90564,12.63485,2.71973,19.13307,2.46912,9.67161-.37305,19.34323-.74603,29.01484-1.11908,4.66314-.17987,9.32629-.35968,13.98943-.53955,6.65292-.25659,13.36826-.52216,19.80865-2.2099,14.94733-3.91705,27.51572-15.90228,32.13799-30.64682,4.74631-15.14017,1.24576-31.98666-6.50908-45.82916-4.74754-8.47443-11.64777-16.48444-21.01241-19.06497-5.03693-1.38797-10.36414-1.08875-15.57957-.77863-9.50358,.56506-19.00716,1.13016-28.51074,1.69522" fill="#d9376e"/><g><path d="M103.24288,444.44958s-16.79617,4.38162-6.57241,4.38162,22.44281,0,22.17543-2.1908-17.79382-37.24368-19.98463-37.24368-14.60537,2.1908-9.49349,7.30267,13.8751,27.75021,13.8751,27.75021c0,0,0-.00003,0-.00003Z" fill="#3f3d56"/><g><path d="M107.31559,530.61377c-16.56962-12.15149-7.74953-73.44388-7.36565-76.04672l1.08775,.16c-.09288,.63138-9.11055,63.23804,6.92862,74.99976l-.65072,.88696Z" fill="#3f3d56"/><path d="M78.29272,525.20721c-12.89619-24.07324-7.82684-43.31982-1.30304-55.22705,7.05801-12.88278,17.31268-20.18024,17.41523-20.25272l.63246,.89984c-.10094,.07086-10.17307,7.24646-17.10383,19.91824-6.3783,11.66187-11.32524,30.52136,1.32881,54.14197,0,0-.96963,.51971-.96964,.51971Z" fill="#3f3d56"/><path d="M132.83308,530.34583l-1.04265-.35114c12.0742-35.88599-14.72002-78.54544-14.99169-78.97174l.92668-.59167c.06872,.10791,6.93345,10.95102,12.19395,26.12741,4.86372,14.03171,9.31726,34.75369,2.91373,53.78714h-.00002Z" fill="#3f3d56"/><path d="M164.33749,522.93781l-1.09741-.06226c1.87161-32.961-7.96106-51.58746-16.53955-61.40887-9.26141-10.60312-19.04524-13.48141-19.14295-13.50934l.30066-1.05768c.41233,.11758,10.19669,2.99747,19.67072,13.84381,8.71271,9.97549,18.70163,28.86288,16.80853,62.19434Z" fill="#3f3d56"/><path d="M51.85069,494.27679c-2.8348-13.00839-1.23325-23.92023,4.76064-32.43216,9.87241-14.01938,28.50585-16.58627,28.69269-16.61041l.14174,1.0899c-.18254,.02417-18.35265,2.53735-27.9405,16.16104-5.8049,8.24884-7.34578,18.86646-4.57971,31.55756l-1.07486,.2341s0-.00003,0-.00003Z" fill="#3f3d56"/><path d="M93.42561,444.64362c-.19865-.07571-19.99823-7.49612-29.3434-.08322l-.68293-.86118c9.83536-7.80161,29.58286-.40161,30.41826-.08322l-.39193,1.02762Z" fill="#3f3d56"/><path d="M111.21505,443.0571c-.00376-.07462-.27167-7.51651,8.18495-10.12958l.32428,1.05017c-7.62067,2.35535-7.4231,8.75568-7.41075,9.02679,0,0-1.09849,.05261-1.09848,.05261Z" fill="#3f3d56"/><path d="M120.00347,447.75653l-.88265-.65555c.1004-.13477,10.20528-13.45938,24.71054-8.4389l-.35973,1.03943c-13.73643-4.7558-23.3726,7.92618-23.46816,8.05502Z" fill="#3f3d56"/></g></g></g></svg>