<svg xmlns="http://www.w3.org/2000/svg" width="732.19786" height="575.59415" viewBox="0 0 732.19786 575.59415" xmlns:xlink="http://www.w3.org/1999/xlink" role="img" artist="Katerina Limpitsouni" source="https://undraw.co/"><g><rect x="88.31943" y="73.52792" width="95.62359" height="90.6776" transform="translate(-12.96953 16.73948) rotate(-6.71736)" fill="#2f2e41"/><circle cx="129.77326" cy="73.53453" r="46.62398" fill="#ffb6b6"/><path d="M99.03341,1.22034h.00008c-29.05469,8.06607-26.34874,18.89664-35.15236,25.72128-15.51012,12.02353-18.67636,41.84179-7.60228,59.96799,2.95883,4.84312,8.74844,11.24349,7.22634,19.06984-1.16854,6.00787-6.10076,10.05178-7.02968,10.78839-7.60336,6.02855-2.95686-.62528-6.16383,4.04613-3.53971,5.15617,3.57434,11.0127,.67677,19.84121-2.56862,7.8268-9.73949,8.0363-10.11161,12.81153-.64091,8.22292,19.48148,22.2348,38.72188,18.68042,17.13102-3.16463,28.23715-19.2708,30.91338-33.52235,1.79253-9.54671,1.16755-25.53096-7.13171-32.36164-1.16407-.95801-4.30644-3.23996-7.51371-7.41543-2.538-3.30428-5.87931-7.65394-4.62471-11.07584,1.33645-3.64554,6.48778-2.41635,9.2456-6.06922,3.74022-4.95387-2.21238-11.87816-2.31418-19.64839-.17205-13.15743,16.40269-30.95883,36.21121-30.82624,22.47135,.15027,33.43101,23.27567,34.58128,25.80842,2.38416,5.24944,2.97096,10.5306,4.14442,21.0929,1.68442,15.15769,2.73968,24.65812-.86227,34.96319-5.18075,14.82173-14.06278,14.33248-15.31113,25.04441-1.94595,16.70153,18.13237,30.88011,20.42352,32.45619,16.98631,11.68365,40.71881,13.00295,43.92149,6.44748,2.8858-5.90735-13.6288-12.62274-15.12563-29.75999-1.29732-14.85098,10.1474-20.77267,6.35285-30.62969-4.17655-10.85036-19.13236-6.50143-27.06749-18.39297-7.40658-11.0996,2.90841-18.95684-1.73936-42.95719-.98335-5.07699-4.32292-19.58714-15.51136-33.03474-4.92906-5.9244-9.94215-11.94973-18.30218-14.44513-9.35887-2.79357-35.48598-10.86732-50.85513-6.60068l-.00018,.00013Z" fill="#2f2e41"/><path d="M84.20655,44.46853c2.39547,9.99766,18.20607,13.17328,24.85159,13.67373,2.81458,.21205,12.32589,.92817,21.09289-4.14435,3.24035-1.875,4.32733-3.35345,7.80109-4.23898,4.70304-1.1988,7.32434,.33495,15.12198,1.53905,8.67083,1.33895,13.00647,2.00854,14.92914-.09828,3.14309-3.44391-.7139-13.04515-5.58893-19.26266-9.01408-11.49655-23.29574-13.7032-29.95657-14.73258-7.61007-1.17595-23.05312-3.56235-35.82913,5.88005-1.70816,1.2624-14.85584,11.22628-12.42213,21.384h.00008Z" fill="#2f2e41"/></g><g><path d="M717.90045,224.12948c.21576-2.3636-5.30884-3.66286-5.00293-5.72829,.30475-2.05801,5.896-1.48431,11.91492-5.06033,1.08545-.64487,7.92548-4.7088,7.35126-7.90527-1.08838-6.05887-27.85583-3.67188-30.22693-12.5063-.52045-1.93883,.07886-4.62405-1.33679-10.71202-.56323-2.42194-1.05029-3.68388-2.10046-4.10532-1.49011-.59801-2.81219,1.01878-6.56848,3.36079-5.63324,3.51231-6.61609,2.34305-10.67377,5.4613-3.01221,2.31483-4.05255,4.175-5.32727,3.76173-1.80389-.58476-.8855-4.68723-2.94067-5.74741-2.09729-1.08182-5.8761,1.73445-8.21063,4.20097-4.38098,4.6286-4.94495,9.36638-6.47278,13.67188-1.66034,4.67896-5.23529,11.035-13.86224,17.45273l-78.63861,54.1935c16.53943-10.82874,62.75952-39.87575,80.73914-50.08818,5.19037-2.94807,10.63525-5.80794,16.45941-4.27756,5.6073,1.47334,10.89056,6.83844,19.89679,10.53979,1.05182,.43233,3.99493,1.59828,5.3656,.36266,1.13318-1.0215,.15924-2.75397,1.20288-3.72345,1.3999-1.30043,4.28845,.76111,9.08905,1.56558,3.38513,.56721,6.00012,.22113,8.24884-.07655,.67798-.08974,10.80664-1.4938,11.09381-4.64024l-.00006-.00005-.00006,.00003Z" fill="#f2f2f2"/><path d="M588.30463,188.84675c-1.09778-.7879-3.32947,1.54877-4.25494,.80267-.92218-.74338,.97266-3.32208,.95422-7.30798-.00336-.7188-.02435-5.24854-1.75891-5.88898-3.28772-1.214-9.83948,12.61237-14.85962,11.22711-1.10175-.30397-2.24677-1.37291-5.64325-2.43462-1.3512-.42236-2.11115-.54742-2.62097-.15359-.72345,.55881-.3114,1.67422-.24573,4.19351,.09851,3.77824-.75897,3.92326-.39929,6.81448,.26703,2.14632,.87982,3.19366,.30914,3.70004-.8075,.71663-2.55603-.91782-3.66931-.21501-1.13611,.71722-.84412,3.38445-.30713,5.24191,1.00769,3.48572,3.17029,5.12952,4.84265,7.12167,1.81738,2.16493,3.90552,5.75349,4.56616,11.83939l3.90875,54.23291c-.54266-11.2421-1.46313-42.30823-1.28778-54.07935,.0506-3.39809,.21802-6.89561,2.64966-9.31261,2.34106-2.32701,6.4986-3.37202,10.91388-6.7244,.51569-.39151,1.93713-1.49962,1.7262-2.52882-.17444-.85089-1.30573-.87273-1.48041-1.66473-.23431-1.06232,1.61096-1.88522,3.39087-4.00928,1.25513-1.49777,1.83972-2.88107,2.34253-4.07069,.15155-.35864,2.38489-5.73497,.92346-6.78378l-.00006,.00011-.00012,.00003Z" fill="#f2f2f2"/><path d="M606.5979,209.55146l3.60046-6.36517,.62433-.22833c2.88788-1.0551,5.05707-2.55656,6.44995-4.46378,.2215-.30318,.42743-.61768,.63739-.93784,.83173-1.26933,1.8653-2.84744,3.94904-4.05124,1.16425-.66927,4.08008-2.05931,5.75934-.41121,.45605,.43826,.6712,.94907,.76514,1.43283,.09198-.03735,.18542-.07372,.28583-.11369,1.23505-.47079,1.97754-.51826,2.69275-.5639,.54968-.03542,1.11694-.07109,2.17609-.36165,.4646-.1273,.84845-.25673,1.17157-.3651,.97919-.32669,2.20227-.67622,3.315,.1505,1.15863,.92493,1.06903,2.37172,1.01038,3.32982-.104,1.70924-.37805,2.79738-.56012,3.51892-.06708,.26335-.1413,.56047-.14581,.6655-.02472,.84836,3.50293,2.59074,4.8269,3.25412,2.98059,1.4808,5.55969,2.76216,5.29425,5.12558-.18854,1.69139-1.841,2.91269-5.04828,3.72372-.99878,.25194-1.92053,.32565-2.70221,.3405,.23834,.5536,.33588,1.20889,.05194,1.92174h0c-.67438,1.68639-2.93585,2.22885-6.72412,1.61897-.94244-.14914-2.20807-.35446-3.67126-1.07094-.68878-.33809-1.25885-.71156-1.74109-1.03879-.20746,.26572-.48529,.51512-.8717,.69899-1.13556,.54279-2.45905,.23489-3.91455-.97415-1.61932-1.30589-2.77289-2.62991-3.79175-3.7959-.89069-1.01688-1.66022-1.88988-2.4173-2.36403-1.41724-.86081-3.22479-.53568-5.44177-.02168l-5.58044,1.34628-.00006-.00003,.00012-.00005Z" fill="#f2f2f2"/><path d="M635.02198,176.70832l-7.07025-1.86821-.37921-.54599c-1.75311-2.52583-3.75568-4.24323-5.9538-5.10677-.34949-.13736-.70587-.25674-1.06885-.37866-1.43878-.4826-3.22748-1.08205-4.92041-2.7923-.94275-.95641-3.02686-3.42432-1.85864-5.46667,.30823-.55228,.7478-.88998,1.19189-1.10355-.05951-.07951-.11841-.16068-.1825-.24763-.76868-1.07526-1.00293-1.78143-1.22845-2.46169-.17371-.52277-.35211-1.06241-.90179-2.01321-.24103-.4171-.46356-.75555-.65033-1.04063-.56439-.86429-1.21271-1.95876-.69525-3.24478,.60077-1.35532,2.02301-1.63565,2.96466-1.82196,1.67975-.33292,2.80182-.34387,3.5459-.35078,.27173-.00191,.578-.00549,.68073-.02776,.8269-.19125,1.61749-4.04549,1.9234-5.49445,.67633-3.25868,1.2616-6.07848,3.61505-6.42117,1.6839-.24661,3.28442,1.04199,4.88245,3.93867,.49707,.90218,.80219,1.7751,1.01477,2.5275,.47504-.37096,1.08417-.63159,1.8457-.53767h0c1.80231,.22459,2.90063,2.27448,3.27161,6.09355,.09479,.94943,.21722,2.22575-.10468,3.82281-.15234,.752-.36902,1.39815-.56323,1.94765,.30963,.13326,.62134,.33879,.89728,.66592,.81305,.96072,.85095,2.31905,.05066,4.03362-.85242,1.89761-1.84058,3.34926-2.70996,4.63055-.75775,1.11948-1.40698,2.0853-1.67352,2.93791-.47314,1.58923,.2998,3.25516,1.35931,5.26929l2.71771,5.05643-.00018-.00008-.00006,.00006Z" fill="#f2f2f2"/><path d="M644.51258,157.14847l3.60046-6.36517,.62433-.22833c2.88788-1.0551,5.05707-2.55656,6.44995-4.46378,.2215-.30318,.42743-.61768,.63739-.93784,.83173-1.26933,1.8653-2.84744,3.94904-4.05124,1.16425-.66927,4.08008-2.05931,5.75934-.41121,.45605,.43826,.6712,.94907,.76514,1.43283,.09198-.03735,.18542-.07372,.28583-.11369,1.23505-.47079,1.97754-.51826,2.69275-.5639,.54968-.03542,1.11694-.07109,2.17609-.36165,.4646-.1273,.84845-.25673,1.17157-.3651,.97919-.32669,2.20227-.67622,3.315,.1505,1.15863,.92493,1.06903,2.37172,1.01038,3.32982-.104,1.70924-.37805,2.79738-.56012,3.51892-.06708,.26335-.1413,.56047-.14581,.6655-.02472,.84836,3.50293,2.59074,4.8269,3.25412,2.98059,1.4808,5.55969,2.76216,5.29425,5.12558-.18854,1.69139-1.841,2.91269-5.04828,3.72372-.99878,.25194-1.92053,.32565-2.70221,.3405,.23834,.5536,.33588,1.20889,.05194,1.92174h0c-.67438,1.68639-2.93585,2.22885-6.72412,1.61897-.94244-.14914-2.20807-.35446-3.67126-1.07094-.68878-.33809-1.25885-.71156-1.74109-1.03879-.20746,.26572-.48529,.51512-.8717,.69899-1.13556,.54279-2.45905,.23489-3.91455-.97415-1.61932-1.30589-2.77289-2.62991-3.79175-3.7959-.89069-1.01688-1.66022-1.88988-2.4173-2.36403-1.41724-.86081-3.22479-.53568-5.44177-.02168l-5.58044,1.34628-.00006-.00003,.00012-.00005Z" fill="#f2f2f2"/><path d="M567.84552,275.79764l-.67438-1.66608,.73206-1.64035-.73206,1.64035-1.55786-.87595c.07391-.15009,.2179-.51373,.44757-1.07953,1.2608-3.09857,5.09436-12.53064,12.58569-26.33289,5.22968-9.63467,11.1344-19.15771,17.55237-28.30952,6.42822-9.16599,11.8252-15.72134,16.1618-20.99077,3.27155-3.974,6.45465-7.70885,9.55792-11.34554,8.28729-9.71805,16.1142-18.89854,23.3399-30.10365,1.61438-2.50061,4.97217-7.70731,5.90277-15.15956,.53931-4.32231,.18652-8.76157-1.05194-13.19197l3.46356-.96774c1.36432,4.89397,1.75189,9.80893,1.15344,14.60818-1.0318,8.2626-4.69049,13.936-6.44836,16.66193-7.35358,11.40279-15.2569,20.67097-23.62469,30.48233-3.09021,3.62447-6.26086,7.34229-9.51868,11.30026-4.29681,5.22034-9.64624,11.71904-15.99158,20.76746-6.34259,9.04169-12.17426,18.4487-17.33936,27.96121-7.39612,13.62866-11.17163,22.92075-12.41217,25.97333-.66345,1.62936-.80219,1.97076-1.54602,2.26852v-.00003Z" fill="#f2f2f2"/><path d="M641.4234,127.5048c-.11938-.0864-.23816-.17665-.35425-.27364-2.38245-1.92734-3.60443-5.0724-3.63428-9.34739-.01062-2.00875,.5816-3.86289,1.76263-7.56062,.18115-.57063,1.13275-3.44243,3.01007-6.98292,1.22589-2.31394,1.89844-3.16566,2.87653-3.64046,1.08734-.53003,2.27112-.59175,3.4068-.38943,.16467-.30536,.40222-.57093,.73499-.77633,1.37445-.85503,2.57843,.25863,3.23645,.85171,.32812,.30672,.7356,.69246,1.2403,1.01862,.7915,.51639,1.36694,.58617,2.23639,.69546,.83215,.10399,1.86694,.23328,3.1283,.80372,2.49347,1.1154,3.86444,3.04288,4.31683,3.67772,2.38965,3.32719,2.17084,6.89819,1.91681,11.03271-.05316,.82779-.32104,3.78716-1.56226,7.2118-.89539,2.47073-1.63605,3.32088-2.30188,3.86996-1.36407,1.13107-2.78583,1.31517-6.20502,1.51811-3.57404,.21648-5.36633,.32307-6.73822,.18375-3.19031-.32883-5.19366-.53523-7.07007-1.89285l-.00006,.00008h-.00006Z" fill="#f2f2f2"/></g><path d="M184.34799,567.02121c-23.12012,5.60791-47.27298,8.57294-72.11433,8.57294-26.90682,0-53.01412-3.47583-77.86659-10.02765-2.70956-10.02759-5.78561-21.13232-9.27245-33.41418-31.28216-110.28137,32.09272-188.47003,32.09272-188.47003l15.63552-12.33737,140.74174,18.92249c16.37952,79.85437,5.71898,139.10938-29.21663,216.75388l.00002-.00006Z" fill="#2f2e41"/><polygon points="161.42223 132.99535 95.58132 126.41126 47.84666 167.56182 62.66086 315.70386 56.07677 343.68625 212.44892 350.27033 204.2188 310.76578 215.74097 165.91581 161.42223 132.99535" fill="#d9376e"/><rect x="77.47507" y="210.35842" width="105.34544" height="164.60225" fill="#fff"/><path d="M167.78852,232.01325h-29.43517c-.79613,0-1.44383-.64772-1.44383-1.44383s.64772-1.44383,1.44383-1.44383h29.43517c.79613,0,1.44383,.64772,1.44383,1.44383s-.64772,1.44383-1.44383,1.44383Z" fill="#d9376e"/><path d="M167.78852,243.11802h-29.43517c-.79613,0-1.44383-.64772-1.44383-1.44383s.64772-1.44383,1.44383-1.44383h29.43517c.79613,0,1.44383,.64772,1.44383,1.44383s-.64772,1.44383-1.44383,1.44383Z" fill="#d9376e"/><path d="M167.78852,254.22278h-29.43517c-.79613,0-1.44383-.64771-1.44383-1.44382s.64772-1.44382,1.44383-1.44382h29.43517c.79613,0,1.44383,.64771,1.44383,1.44382s-.64772,1.44382-1.44383,1.44382Z" fill="#d9376e"/><path d="M166.46749,293.08945H94.89091c-1.9359,0-3.51093-1.57504-3.51093-3.51093s1.57503-3.51093,3.51093-3.51093h71.57658c1.9359,0,3.51093,1.57504,3.51093,3.51093s-1.57503,3.51093-3.51093,3.51093Z" fill="#e6e6e6"/><path id="b-828" d="M126.20111,357.02036c14.24146,4.46347,28.08838,.73328,30.92747-8.33054s-6.40411-20.02698-20.65126-24.49014c-5.66669-1.8609-11.69664-2.33771-17.58535-1.39047l-60.58049-18.14993-38.44721,27.50479,91.0975,15.96051c4.29645,4.13977,9.52204,7.19016,15.23933,8.89578Z" fill="#ffb6b6"/><path d="M54.05117,164.26978s-22.07198,12.61256-28.37826,39.41425L.44778,310.89081s-4.72971,15.76569,16.55399,23.64856c21.2837,7.88284,47.2971-26.0134,47.2971-26.0134l-11.88014-11.88013,22.91613-100.05634-21.2837-32.31969v-.00005Z" fill="#d9376e"/><path id="c-829" d="M109.7811,341.17499c-14.80532,1.88269-27.77766-4.23041-28.97426-13.6528-1.1966-9.42239,9.83472-18.58417,24.64556-20.46552,5.90602-.83267,11.92557-.23889,17.55503,1.73175l62.83147-7.18478,32.99562,33.85248-92.48442-.35074c-4.95902,3.31744-10.64056,5.39871-16.569,6.06961Z" fill="#ffb6b6"/><path d="M214.78427,164.16446s19.50253,16.30646,20.98466,43.80014l5.92856,109.97476s1.87601,16.35263-20.4641,20.3595-41.96983-33.94476-41.96983-33.94476l13.7886-9.59946-4.91643-102.52927,26.64851-28.06091h.00002Z" fill="#d9376e"/><rect x="88.99723" y="221.88057" width="37.85852" height="46.08864" fill="#d9376e"/><path d="M99.10383,256.28238l-2.60074,11.39056-.0658,.29626h-7.4071c.88882-3.75299,1.99162-8.39478,2.50189-10.61688,.64197-2.69949,2.32095-4.44427,3.3908-5.31662,.54322-.47742,.93824-.69141,.93824-.69141l3.24272,4.93808h-.00002Z" fill="#e6e6e6"/><path d="M124.10691,267.96921h-7.20959l-.59254-12.36166,3.95039-4.16449,.11523-.11514s2.9793,2.48541,3.19329,6.68286c.11523,2.09039,.3457,6.28772,.54321,9.95844Z" fill="#e6e6e6"/><path d="M508.06806,292.59415c-65.6167,0-119-53.38281-119-119s53.3833-119,119-119,119,53.3833,119,119-53.3833,119-119,119Zm0-236c-64.51416,0-84,83-117,117-44.93219,46.29376,52.48584,117,117,117s117-52.48633,117-117-52.48584-117-117-117Z" fill="#e6e6e6"/><path d="M514.88428,199.99296c0,1.84239-1.49353,3.33594-3.33594,3.33594s-3.33594-1.49355-3.33594-3.33594v-25.30643l-7.64597,7.65263c-1.30441,1.30441-3.41928,1.30441-4.72369,0s-1.30441-3.41928,0-4.72369l13.34375-13.34375c1.30112-1.30441,3.4133-1.30708,4.71774-.00597l.00598,.00597,13.34375,13.34375c1.30438,1.30441,1.30438,3.41928,0,4.72369s-3.41925,1.30441-4.72369,0l-7.646-7.65263v25.30643Z" fill="#d9376e"/><path d="M551.57959,216.67264v-63.38281l-30.02344-30.02344h-36.69531c-7.36954,0-13.34375,5.9742-13.34375,13.34375v80.0625c0,7.36955,5.97421,13.34375,13.34375,13.34375h53.375c7.36957,0,13.34375-5.9742,13.34375-13.34375Zm-30.02344-73.39062c0,5.52716,4.48065,10.00781,10.00781,10.00781h13.34375v63.38281c0,3.68478-2.98712,6.67188-6.67188,6.67188h-53.375c-3.68478,0-6.67188-2.98711-6.67188-6.67188v-80.0625c0-3.68477,2.98709-6.67188,6.67188-6.67188h36.69531v13.34375Z" fill="#d9376e"/><g><rect x="102.55623" y="237.41272" width="12.96611" height="12.29546" transform="translate(-27.74113 14.42648) rotate(-6.71736)" fill="#2f2e41"/><circle cx="108.17718" cy="237.41361" r="6.32199" fill="#ffb6b6"/><path d="M104.009,227.60815h.00001c-3.93968,1.09372-3.57277,2.5623-4.7665,3.48768-2.1031,1.63033-2.53243,5.67355-1.03083,8.13138,.4012,.6567,1.18625,1.52456,.97986,2.58578-.15845,.81464-.82723,1.36297-.95319,1.46285-1.03098,.81744-.40094-.08478-.83579,.54864-.47997,.69915,.48466,1.49327,.09177,2.69038-.34829,1.06128-1.32063,1.08968-1.37109,1.73718-.0869,1.11499,2.6416,3.01494,5.25051,2.53298,2.32289-.42911,3.82883-2.61303,4.19171-4.54547,.24306-1.29449,.15831-3.46188-.96703-4.38809-.15784-.1299-.58393-.43932-1.01882-1.0055-.34414-.44804-.79721-1.03784-.62709-1.50183,.18122-.49432,.87971-.32765,1.25366-.82296,.50716-.67172-.29999-1.61062-.31379-2.66423-.02333-1.78409,2.22413-4.19787,4.91007-4.17989,3.04701,.02038,4.53309,3.15607,4.68906,3.4995,.32328,.7118,.40285,1.4279,.56196,2.8601,.2284,2.05531,.37149,3.34353-.11692,4.74084-.70249,2.00976-1.90685,1.94342-2.07612,3.3959-.26386,2.26465,2.45866,4.1872,2.76933,4.40091,2.30326,1.58425,5.52128,1.76314,5.95555,.87425,.3913-.80101-1.848-1.71158-2.05096-4.03532-.17591-2.01372,1.37594-2.81668,.86142-4.15324-.56632-1.47126-2.59426-.88156-3.67022-2.494-1.0043-1.50505,.39437-2.57046-.23585-5.82479-.13334-.68842-.58617-2.65592-2.10327-4.47936-.66836-.80332-1.34811-1.62033-2.48169-1.95869-1.26902-.37879-4.81173-1.47356-6.89572-.89502l-.00002,.00002Z" fill="#2f2e41"/><path d="M101.99855,233.4724c.32481,1.35564,2.46866,1.78624,3.36976,1.85409,.38164,.02875,1.67133,.12586,2.8601-.56195,.43938-.25424,.58677-.45471,1.05779-.57479,.63771-.16255,.99315,.04542,2.05047,.20869,1.17572,.18156,1.76362,.27235,2.02432-.01333,.42619-.46698-.0968-1.76886-.75783-2.61193-1.22227-1.55888-3.15879-1.85809-4.06197-1.99767-1.03189-.15945-3.1259-.48304-4.85826,.79731-.23162,.17118-2.01438,1.52223-1.68438,2.89957h.00001Z" fill="#2f2e41"/></g><polygon points="120.5186 251.60773 119.21818 267.96921 96.51956 267.96921 96.50309 267.67292 94.92287 252.03571 94.90649 251.85456 99.71286 247.72313 101.19421 246.4392 102.19836 245.58323 104.78263 245.84665 112.22258 246.58738 112.23906 246.58738 114.74105 248.1017 118.47745 250.3732 120.25518 251.44306 120.5186 251.60773" fill="#e6e6e6"/></svg>